<svg width="12" height="12" viewBox="0 0 12 12" fill="none" xmlns="http://www.w3.org/2000/svg">
<path fill-rule="evenodd" clip-rule="evenodd" d="M6 2.30435C3.95895 2.30435 2.30435 3.95895 2.30435 6C2.30435 8.04105 3.95895 9.69565 6 9.69565C8.04105 9.69565 9.69565 8.04105 9.69565 6C9.69565 3.95895 8.04105 2.30435 6 2.30435ZM1 6C1 3.23858 3.23858 1 6 1C8.76142 1 11 3.23858 11 6C11 8.76142 8.76142 11 6 11C3.23858 11 1 8.76142 1 6ZM6 3.6087C6.36019 3.6087 6.65217 3.90068 6.65217 4.26087V6C6.65217 6.36019 6.36019 6.65217 6 6.65217C5.63981 6.65217 5.34783 6.36019 5.34783 6V4.26087C5.34783 3.90068 5.63981 3.6087 6 3.6087ZM5.34783 7.73913C5.34783 7.37894 5.63981 7.08696 6 7.08696C6.36019 7.08696 6.65652 7.37894 6.65652 7.73913C6.65652 8.09932 6.36453 8.3913 6.00435 8.3913H6C5.63981 8.3913 5.34783 8.09932 5.34783 7.73913Z" fill="white"/>
</svg>
