<svg width="13" height="12" viewBox="0 0 13 12" fill="none" xmlns="http://www.w3.org/2000/svg">
<g clip-path="url(#clip0_1025_10605)">
<path d="M5.045 4.5C5.16255 4.16583 5.39458 3.88405 5.69998 3.70457C6.00538 3.52508 6.36445 3.45947 6.71359 3.51936C7.06273 3.57924 7.37941 3.76076 7.60754 4.03176C7.83567 4.30277 7.96053 4.64576 7.96 5C7.96 6 6.46 6.5 6.46 6.5M6.5 8.5H6.505M11.5 6C11.5 8.76142 9.26142 11 6.5 11C3.73858 11 1.5 8.76142 1.5 6C1.5 3.23858 3.73858 1 6.5 1C9.26142 1 11.5 3.23858 11.5 6Z" stroke="#8B94B2" stroke-width="1.5" stroke-linecap="round" stroke-linejoin="round"/>
</g>
<defs>
<clipPath id="clip0_1025_10605">
<rect width="12" height="12" fill="white" transform="translate(0.5)"/>
</clipPath>
</defs>
</svg>
