<?xml version="1.0" encoding="utf-8" standalone="no"?>
<!DOCTYPE svg PUBLIC "-//W3C//DTD SVG 1.1//EN"
  "http://www.w3.org/Graphics/SVG/1.1/DTD/svg11.dtd">
<svg xmlns:xlink="http://www.w3.org/1999/xlink" width="1296pt" height="720pt" viewBox="0 0 1296 720" xmlns="http://www.w3.org/2000/svg" version="1.1">
 <metadata>
  <rdf:RDF xmlns:dc="http://purl.org/dc/elements/1.1/" xmlns:cc="http://creativecommons.org/ns#" xmlns:rdf="http://www.w3.org/1999/02/22-rdf-syntax-ns#">
   <cc:Work>
    <dc:type rdf:resource="http://purl.org/dc/dcmitype/StillImage"/>
    <dc:date>2025-02-05T22:42:12.330773</dc:date>
    <dc:format>image/svg+xml</dc:format>
    <dc:creator>
     <cc:Agent>
      <dc:title>Matplotlib v3.10.0, https://matplotlib.org/</dc:title>
     </cc:Agent>
    </dc:creator>
   </cc:Work>
  </rdf:RDF>
 </metadata>
 <defs>
  <style type="text/css">*{stroke-linejoin: round; stroke-linecap: butt}</style>
 </defs>
 <g id="figure_1">
  <g id="patch_1">
   <path d="M 0 720 
L 1296 720 
L 1296 0 
L 0 0 
z
" style="fill: #ffffff"/>
  </g>
  <g id="axes_1">
   <g id="patch_2">
    <path d="M 83.036778 651.094896 
L 1283.04 651.094896 
L 1283.04 32.64 
L 83.036778 32.64 
z
" style="fill: #ffffff"/>
   </g>
   <g id="matplotlib.axis_1">
    <g id="xtick_1">
     <g id="line2d_1">
      <path d="M 683.038389 651.094896 
L 683.038389 32.64 
" clip-path="url(#pe39083c4ef)" style="fill: none; stroke-dasharray: 3.7,1.6; stroke-dashoffset: 0; stroke: #cccccc; stroke-opacity: 0.5"/>
     </g>
     <g id="text_1">
      <!-- coco -->
      <g style="fill: #262626" transform="translate(675.522286 686.757405) rotate(-45) scale(0.12 -0.12)">
       <defs>
        <path id="DejaVuSans-63" d="M 3122 3366 
L 3122 2828 
Q 2878 2963 2633 3030 
Q 2388 3097 2138 3097 
Q 1578 3097 1268 2742 
Q 959 2388 959 1747 
Q 959 1106 1268 751 
Q 1578 397 2138 397 
Q 2388 397 2633 464 
Q 2878 531 3122 666 
L 3122 134 
Q 2881 22 2623 -34 
Q 2366 -91 2075 -91 
Q 1284 -91 818 406 
Q 353 903 353 1747 
Q 353 2603 823 3093 
Q 1294 3584 2113 3584 
Q 2378 3584 2631 3529 
Q 2884 3475 3122 3366 
z
" transform="scale(0.015625)"/>
        <path id="DejaVuSans-6f" d="M 1959 3097 
Q 1497 3097 1228 2736 
Q 959 2375 959 1747 
Q 959 1119 1226 758 
Q 1494 397 1959 397 
Q 2419 397 2687 759 
Q 2956 1122 2956 1747 
Q 2956 2369 2687 2733 
Q 2419 3097 1959 3097 
z
M 1959 3584 
Q 2709 3584 3137 3096 
Q 3566 2609 3566 1747 
Q 3566 888 3137 398 
Q 2709 -91 1959 -91 
Q 1206 -91 779 398 
Q 353 888 353 1747 
Q 353 2609 779 3096 
Q 1206 3584 1959 3584 
z
" transform="scale(0.015625)"/>
       </defs>
       <use xlink:href="#DejaVuSans-63"/>
       <use xlink:href="#DejaVuSans-6f" transform="translate(54.980469 0)"/>
       <use xlink:href="#DejaVuSans-63" transform="translate(116.162109 0)"/>
       <use xlink:href="#DejaVuSans-6f" transform="translate(171.142578 0)"/>
      </g>
     </g>
    </g>
    <g id="text_2">
     <!-- Dataset -->
     <g style="fill: #262626" transform="translate(655.626826 703.159891) scale(0.14 -0.14)">
      <defs>
       <path id="DejaVuSans-44" d="M 1259 4147 
L 1259 519 
L 2022 519 
Q 2988 519 3436 956 
Q 3884 1394 3884 2338 
Q 3884 3275 3436 3711 
Q 2988 4147 2022 4147 
L 1259 4147 
z
M 628 4666 
L 1925 4666 
Q 3281 4666 3915 4102 
Q 4550 3538 4550 2338 
Q 4550 1131 3912 565 
Q 3275 0 1925 0 
L 628 0 
L 628 4666 
z
" transform="scale(0.015625)"/>
       <path id="DejaVuSans-61" d="M 2194 1759 
Q 1497 1759 1228 1600 
Q 959 1441 959 1056 
Q 959 750 1161 570 
Q 1363 391 1709 391 
Q 2188 391 2477 730 
Q 2766 1069 2766 1631 
L 2766 1759 
L 2194 1759 
z
M 3341 1997 
L 3341 0 
L 2766 0 
L 2766 531 
Q 2569 213 2275 61 
Q 1981 -91 1556 -91 
Q 1019 -91 701 211 
Q 384 513 384 1019 
Q 384 1609 779 1909 
Q 1175 2209 1959 2209 
L 2766 2209 
L 2766 2266 
Q 2766 2663 2505 2880 
Q 2244 3097 1772 3097 
Q 1472 3097 1187 3025 
Q 903 2953 641 2809 
L 641 3341 
Q 956 3463 1253 3523 
Q 1550 3584 1831 3584 
Q 2591 3584 2966 3190 
Q 3341 2797 3341 1997 
z
" transform="scale(0.015625)"/>
       <path id="DejaVuSans-74" d="M 1172 4494 
L 1172 3500 
L 2356 3500 
L 2356 3053 
L 1172 3053 
L 1172 1153 
Q 1172 725 1289 603 
Q 1406 481 1766 481 
L 2356 481 
L 2356 0 
L 1766 0 
Q 1100 0 847 248 
Q 594 497 594 1153 
L 594 3053 
L 172 3053 
L 172 3500 
L 594 3500 
L 594 4494 
L 1172 4494 
z
" transform="scale(0.015625)"/>
       <path id="DejaVuSans-73" d="M 2834 3397 
L 2834 2853 
Q 2591 2978 2328 3040 
Q 2066 3103 1784 3103 
Q 1356 3103 1142 2972 
Q 928 2841 928 2578 
Q 928 2378 1081 2264 
Q 1234 2150 1697 2047 
L 1894 2003 
Q 2506 1872 2764 1633 
Q 3022 1394 3022 966 
Q 3022 478 2636 193 
Q 2250 -91 1575 -91 
Q 1294 -91 989 -36 
Q 684 19 347 128 
L 347 722 
Q 666 556 975 473 
Q 1284 391 1588 391 
Q 1994 391 2212 530 
Q 2431 669 2431 922 
Q 2431 1156 2273 1281 
Q 2116 1406 1581 1522 
L 1381 1569 
Q 847 1681 609 1914 
Q 372 2147 372 2553 
Q 372 3047 722 3315 
Q 1072 3584 1716 3584 
Q 2034 3584 2315 3537 
Q 2597 3491 2834 3397 
z
" transform="scale(0.015625)"/>
       <path id="DejaVuSans-65" d="M 3597 1894 
L 3597 1613 
L 953 1613 
Q 991 1019 1311 708 
Q 1631 397 2203 397 
Q 2534 397 2845 478 
Q 3156 559 3463 722 
L 3463 178 
Q 3153 47 2828 -22 
Q 2503 -91 2169 -91 
Q 1331 -91 842 396 
Q 353 884 353 1716 
Q 353 2575 817 3079 
Q 1281 3584 2069 3584 
Q 2775 3584 3186 3129 
Q 3597 2675 3597 1894 
z
M 3022 2063 
Q 3016 2534 2758 2815 
Q 2500 3097 2075 3097 
Q 1594 3097 1305 2825 
Q 1016 2553 972 2059 
L 3022 2063 
z
" transform="scale(0.015625)"/>
      </defs>
      <use xlink:href="#DejaVuSans-44"/>
      <use xlink:href="#DejaVuSans-61" transform="translate(77.001953 0)"/>
      <use xlink:href="#DejaVuSans-74" transform="translate(138.28125 0)"/>
      <use xlink:href="#DejaVuSans-61" transform="translate(177.490234 0)"/>
      <use xlink:href="#DejaVuSans-73" transform="translate(238.769531 0)"/>
      <use xlink:href="#DejaVuSans-65" transform="translate(290.869141 0)"/>
      <use xlink:href="#DejaVuSans-74" transform="translate(352.392578 0)"/>
     </g>
    </g>
   </g>
   <g id="matplotlib.axis_2">
    <g id="ytick_1">
     <g id="text_3">
      <!-- $\mathdefault{2\times10^{11}}$ -->
      <g style="fill: #262626" transform="translate(30.866778 555.548287) scale(0.11 -0.11)">
       <defs>
        <path id="DejaVuSans-32" d="M 1228 531 
L 3431 531 
L 3431 0 
L 469 0 
L 469 531 
Q 828 903 1448 1529 
Q 2069 2156 2228 2338 
Q 2531 2678 2651 2914 
Q 2772 3150 2772 3378 
Q 2772 3750 2511 3984 
Q 2250 4219 1831 4219 
Q 1534 4219 1204 4116 
Q 875 4013 500 3803 
L 500 4441 
Q 881 4594 1212 4672 
Q 1544 4750 1819 4750 
Q 2544 4750 2975 4387 
Q 3406 4025 3406 3419 
Q 3406 3131 3298 2873 
Q 3191 2616 2906 2266 
Q 2828 2175 2409 1742 
Q 1991 1309 1228 531 
z
" transform="scale(0.015625)"/>
        <path id="DejaVuSans-d7" d="M 4488 3438 
L 3059 2003 
L 4488 575 
L 4116 197 
L 2681 1631 
L 1247 197 
L 878 575 
L 2303 2003 
L 878 3438 
L 1247 3816 
L 2681 2381 
L 4116 3816 
L 4488 3438 
z
" transform="scale(0.015625)"/>
        <path id="DejaVuSans-31" d="M 794 531 
L 1825 531 
L 1825 4091 
L 703 3866 
L 703 4441 
L 1819 4666 
L 2450 4666 
L 2450 531 
L 3481 531 
L 3481 0 
L 794 0 
L 794 531 
z
" transform="scale(0.015625)"/>
        <path id="DejaVuSans-30" d="M 2034 4250 
Q 1547 4250 1301 3770 
Q 1056 3291 1056 2328 
Q 1056 1369 1301 889 
Q 1547 409 2034 409 
Q 2525 409 2770 889 
Q 3016 1369 3016 2328 
Q 3016 3291 2770 3770 
Q 2525 4250 2034 4250 
z
M 2034 4750 
Q 2819 4750 3233 4129 
Q 3647 3509 3647 2328 
Q 3647 1150 3233 529 
Q 2819 -91 2034 -91 
Q 1250 -91 836 529 
Q 422 1150 422 2328 
Q 422 3509 836 4129 
Q 1250 4750 2034 4750 
z
" transform="scale(0.015625)"/>
       </defs>
       <use xlink:href="#DejaVuSans-32" transform="translate(0 0.684375)"/>
       <use xlink:href="#DejaVuSans-d7" transform="translate(83.105469 0.684375)"/>
       <use xlink:href="#DejaVuSans-31" transform="translate(186.376953 0.684375)"/>
       <use xlink:href="#DejaVuSans-30" transform="translate(250 0.684375)"/>
       <use xlink:href="#DejaVuSans-31" transform="translate(314.580078 38.965625) scale(0.7)"/>
       <use xlink:href="#DejaVuSans-31" transform="translate(359.116211 38.965625) scale(0.7)"/>
      </g>
     </g>
    </g>
    <g id="ytick_2">
     <g id="text_4">
      <!-- $\mathdefault{3\times10^{11}}$ -->
      <g style="fill: #262626" transform="translate(30.866778 411.284082) scale(0.11 -0.11)">
       <defs>
        <path id="DejaVuSans-33" d="M 2597 2516 
Q 3050 2419 3304 2112 
Q 3559 1806 3559 1356 
Q 3559 666 3084 287 
Q 2609 -91 1734 -91 
Q 1441 -91 1130 -33 
Q 819 25 488 141 
L 488 750 
Q 750 597 1062 519 
Q 1375 441 1716 441 
Q 2309 441 2620 675 
Q 2931 909 2931 1356 
Q 2931 1769 2642 2001 
Q 2353 2234 1838 2234 
L 1294 2234 
L 1294 2753 
L 1863 2753 
Q 2328 2753 2575 2939 
Q 2822 3125 2822 3475 
Q 2822 3834 2567 4026 
Q 2313 4219 1838 4219 
Q 1578 4219 1281 4162 
Q 984 4106 628 3988 
L 628 4550 
Q 988 4650 1302 4700 
Q 1616 4750 1894 4750 
Q 2613 4750 3031 4423 
Q 3450 4097 3450 3541 
Q 3450 3153 3228 2886 
Q 3006 2619 2597 2516 
z
" transform="scale(0.015625)"/>
       </defs>
       <use xlink:href="#DejaVuSans-33" transform="translate(0 0.684375)"/>
       <use xlink:href="#DejaVuSans-d7" transform="translate(83.105469 0.684375)"/>
       <use xlink:href="#DejaVuSans-31" transform="translate(186.376953 0.684375)"/>
       <use xlink:href="#DejaVuSans-30" transform="translate(250 0.684375)"/>
       <use xlink:href="#DejaVuSans-31" transform="translate(314.580078 38.965625) scale(0.7)"/>
       <use xlink:href="#DejaVuSans-31" transform="translate(359.116211 38.965625) scale(0.7)"/>
      </g>
     </g>
    </g>
    <g id="ytick_3">
     <g id="text_5">
      <!-- $\mathdefault{4\times10^{11}}$ -->
      <g style="fill: #262626" transform="translate(30.866778 308.927) scale(0.11 -0.11)">
       <defs>
        <path id="DejaVuSans-34" d="M 2419 4116 
L 825 1625 
L 2419 1625 
L 2419 4116 
z
M 2253 4666 
L 3047 4666 
L 3047 1625 
L 3713 1625 
L 3713 1100 
L 3047 1100 
L 3047 0 
L 2419 0 
L 2419 1100 
L 313 1100 
L 313 1709 
L 2253 4666 
z
" transform="scale(0.015625)"/>
       </defs>
       <use xlink:href="#DejaVuSans-34" transform="translate(0 0.684375)"/>
       <use xlink:href="#DejaVuSans-d7" transform="translate(83.105469 0.684375)"/>
       <use xlink:href="#DejaVuSans-31" transform="translate(186.376953 0.684375)"/>
       <use xlink:href="#DejaVuSans-30" transform="translate(250 0.684375)"/>
       <use xlink:href="#DejaVuSans-31" transform="translate(314.580078 38.965625) scale(0.7)"/>
       <use xlink:href="#DejaVuSans-31" transform="translate(359.116211 38.965625) scale(0.7)"/>
      </g>
     </g>
    </g>
    <g id="ytick_4"/>
    <g id="ytick_5">
     <g id="text_6">
      <!-- $\mathdefault{6\times10^{11}}$ -->
      <g style="fill: #262626" transform="translate(30.866778 164.662795) scale(0.11 -0.11)">
       <defs>
        <path id="DejaVuSans-36" d="M 2113 2584 
Q 1688 2584 1439 2293 
Q 1191 2003 1191 1497 
Q 1191 994 1439 701 
Q 1688 409 2113 409 
Q 2538 409 2786 701 
Q 3034 994 3034 1497 
Q 3034 2003 2786 2293 
Q 2538 2584 2113 2584 
z
M 3366 4563 
L 3366 3988 
Q 3128 4100 2886 4159 
Q 2644 4219 2406 4219 
Q 1781 4219 1451 3797 
Q 1122 3375 1075 2522 
Q 1259 2794 1537 2939 
Q 1816 3084 2150 3084 
Q 2853 3084 3261 2657 
Q 3669 2231 3669 1497 
Q 3669 778 3244 343 
Q 2819 -91 2113 -91 
Q 1303 -91 875 529 
Q 447 1150 447 2328 
Q 447 3434 972 4092 
Q 1497 4750 2381 4750 
Q 2619 4750 2861 4703 
Q 3103 4656 3366 4563 
z
" transform="scale(0.015625)"/>
       </defs>
       <use xlink:href="#DejaVuSans-36" transform="translate(0 0.684375)"/>
       <use xlink:href="#DejaVuSans-d7" transform="translate(83.105469 0.684375)"/>
       <use xlink:href="#DejaVuSans-31" transform="translate(186.376953 0.684375)"/>
       <use xlink:href="#DejaVuSans-30" transform="translate(250 0.684375)"/>
       <use xlink:href="#DejaVuSans-31" transform="translate(314.580078 38.965625) scale(0.7)"/>
       <use xlink:href="#DejaVuSans-31" transform="translate(359.116211 38.965625) scale(0.7)"/>
      </g>
     </g>
    </g>
    <g id="ytick_6"/>
    <g id="ytick_7"/>
    <g id="text_7">
     <!-- Training Time (nanoseconds) -->
     <g style="fill: #262626" transform="translate(23.955215 442.579948) rotate(-90) scale(0.14 -0.14)">
      <defs>
       <path id="DejaVuSans-54" d="M -19 4666 
L 3928 4666 
L 3928 4134 
L 2272 4134 
L 2272 0 
L 1638 0 
L 1638 4134 
L -19 4134 
L -19 4666 
z
" transform="scale(0.015625)"/>
       <path id="DejaVuSans-72" d="M 2631 2963 
Q 2534 3019 2420 3045 
Q 2306 3072 2169 3072 
Q 1681 3072 1420 2755 
Q 1159 2438 1159 1844 
L 1159 0 
L 581 0 
L 581 3500 
L 1159 3500 
L 1159 2956 
Q 1341 3275 1631 3429 
Q 1922 3584 2338 3584 
Q 2397 3584 2469 3576 
Q 2541 3569 2628 3553 
L 2631 2963 
z
" transform="scale(0.015625)"/>
       <path id="DejaVuSans-69" d="M 603 3500 
L 1178 3500 
L 1178 0 
L 603 0 
L 603 3500 
z
M 603 4863 
L 1178 4863 
L 1178 4134 
L 603 4134 
L 603 4863 
z
" transform="scale(0.015625)"/>
       <path id="DejaVuSans-6e" d="M 3513 2113 
L 3513 0 
L 2938 0 
L 2938 2094 
Q 2938 2591 2744 2837 
Q 2550 3084 2163 3084 
Q 1697 3084 1428 2787 
Q 1159 2491 1159 1978 
L 1159 0 
L 581 0 
L 581 3500 
L 1159 3500 
L 1159 2956 
Q 1366 3272 1645 3428 
Q 1925 3584 2291 3584 
Q 2894 3584 3203 3211 
Q 3513 2838 3513 2113 
z
" transform="scale(0.015625)"/>
       <path id="DejaVuSans-67" d="M 2906 1791 
Q 2906 2416 2648 2759 
Q 2391 3103 1925 3103 
Q 1463 3103 1205 2759 
Q 947 2416 947 1791 
Q 947 1169 1205 825 
Q 1463 481 1925 481 
Q 2391 481 2648 825 
Q 2906 1169 2906 1791 
z
M 3481 434 
Q 3481 -459 3084 -895 
Q 2688 -1331 1869 -1331 
Q 1566 -1331 1297 -1286 
Q 1028 -1241 775 -1147 
L 775 -588 
Q 1028 -725 1275 -790 
Q 1522 -856 1778 -856 
Q 2344 -856 2625 -561 
Q 2906 -266 2906 331 
L 2906 616 
Q 2728 306 2450 153 
Q 2172 0 1784 0 
Q 1141 0 747 490 
Q 353 981 353 1791 
Q 353 2603 747 3093 
Q 1141 3584 1784 3584 
Q 2172 3584 2450 3431 
Q 2728 3278 2906 2969 
L 2906 3500 
L 3481 3500 
L 3481 434 
z
" transform="scale(0.015625)"/>
       <path id="DejaVuSans-20" transform="scale(0.015625)"/>
       <path id="DejaVuSans-6d" d="M 3328 2828 
Q 3544 3216 3844 3400 
Q 4144 3584 4550 3584 
Q 5097 3584 5394 3201 
Q 5691 2819 5691 2113 
L 5691 0 
L 5113 0 
L 5113 2094 
Q 5113 2597 4934 2840 
Q 4756 3084 4391 3084 
Q 3944 3084 3684 2787 
Q 3425 2491 3425 1978 
L 3425 0 
L 2847 0 
L 2847 2094 
Q 2847 2600 2669 2842 
Q 2491 3084 2119 3084 
Q 1678 3084 1418 2786 
Q 1159 2488 1159 1978 
L 1159 0 
L 581 0 
L 581 3500 
L 1159 3500 
L 1159 2956 
Q 1356 3278 1631 3431 
Q 1906 3584 2284 3584 
Q 2666 3584 2933 3390 
Q 3200 3197 3328 2828 
z
" transform="scale(0.015625)"/>
       <path id="DejaVuSans-28" d="M 1984 4856 
Q 1566 4138 1362 3434 
Q 1159 2731 1159 2009 
Q 1159 1288 1364 580 
Q 1569 -128 1984 -844 
L 1484 -844 
Q 1016 -109 783 600 
Q 550 1309 550 2009 
Q 550 2706 781 3412 
Q 1013 4119 1484 4856 
L 1984 4856 
z
" transform="scale(0.015625)"/>
       <path id="DejaVuSans-64" d="M 2906 2969 
L 2906 4863 
L 3481 4863 
L 3481 0 
L 2906 0 
L 2906 525 
Q 2725 213 2448 61 
Q 2172 -91 1784 -91 
Q 1150 -91 751 415 
Q 353 922 353 1747 
Q 353 2572 751 3078 
Q 1150 3584 1784 3584 
Q 2172 3584 2448 3432 
Q 2725 3281 2906 2969 
z
M 947 1747 
Q 947 1113 1208 752 
Q 1469 391 1925 391 
Q 2381 391 2643 752 
Q 2906 1113 2906 1747 
Q 2906 2381 2643 2742 
Q 2381 3103 1925 3103 
Q 1469 3103 1208 2742 
Q 947 2381 947 1747 
z
" transform="scale(0.015625)"/>
       <path id="DejaVuSans-29" d="M 513 4856 
L 1013 4856 
Q 1481 4119 1714 3412 
Q 1947 2706 1947 2009 
Q 1947 1309 1714 600 
Q 1481 -109 1013 -844 
L 513 -844 
Q 928 -128 1133 580 
Q 1338 1288 1338 2009 
Q 1338 2731 1133 3434 
Q 928 4138 513 4856 
z
" transform="scale(0.015625)"/>
      </defs>
      <use xlink:href="#DejaVuSans-54"/>
      <use xlink:href="#DejaVuSans-72" transform="translate(46.333984 0)"/>
      <use xlink:href="#DejaVuSans-61" transform="translate(87.447266 0)"/>
      <use xlink:href="#DejaVuSans-69" transform="translate(148.726562 0)"/>
      <use xlink:href="#DejaVuSans-6e" transform="translate(176.509766 0)"/>
      <use xlink:href="#DejaVuSans-69" transform="translate(239.888672 0)"/>
      <use xlink:href="#DejaVuSans-6e" transform="translate(267.671875 0)"/>
      <use xlink:href="#DejaVuSans-67" transform="translate(331.050781 0)"/>
      <use xlink:href="#DejaVuSans-20" transform="translate(394.527344 0)"/>
      <use xlink:href="#DejaVuSans-54" transform="translate(426.314453 0)"/>
      <use xlink:href="#DejaVuSans-69" transform="translate(484.273438 0)"/>
      <use xlink:href="#DejaVuSans-6d" transform="translate(512.056641 0)"/>
      <use xlink:href="#DejaVuSans-65" transform="translate(609.46875 0)"/>
      <use xlink:href="#DejaVuSans-20" transform="translate(670.992188 0)"/>
      <use xlink:href="#DejaVuSans-28" transform="translate(702.779297 0)"/>
      <use xlink:href="#DejaVuSans-6e" transform="translate(741.792969 0)"/>
      <use xlink:href="#DejaVuSans-61" transform="translate(805.171875 0)"/>
      <use xlink:href="#DejaVuSans-6e" transform="translate(866.451172 0)"/>
      <use xlink:href="#DejaVuSans-6f" transform="translate(929.830078 0)"/>
      <use xlink:href="#DejaVuSans-73" transform="translate(991.011719 0)"/>
      <use xlink:href="#DejaVuSans-65" transform="translate(1043.111328 0)"/>
      <use xlink:href="#DejaVuSans-63" transform="translate(1104.634766 0)"/>
      <use xlink:href="#DejaVuSans-6f" transform="translate(1159.615234 0)"/>
      <use xlink:href="#DejaVuSans-6e" transform="translate(1220.796875 0)"/>
      <use xlink:href="#DejaVuSans-64" transform="translate(1284.175781 0)"/>
      <use xlink:href="#DejaVuSans-73" transform="translate(1347.652344 0)"/>
      <use xlink:href="#DejaVuSans-29" transform="translate(1399.751953 0)"/>
     </g>
    </g>
   </g>
   <g id="FillBetweenPolyCollection_1">
    <defs>
     <path id="m0c93cde2aa" d="M 1163.039678 -97.01669 
L 1107.015576 -97.01669 
L 1095.673106 -110.611454 
L 1082.61847 -123.705836 
L 1067.721107 -136.335365 
L 1050.865782 -148.53192 
L 1031.95782 -160.324204 
L 1010.928259 -171.738162 
L 987.738672 -182.797315 
L 962.385383 -193.523058 
L 934.902839 -203.934908 
L 905.365881 -214.050716 
L 873.890754 -223.886852 
L 840.634695 -233.458366 
L 805.794083 -242.779123 
L 769.601157 -251.861928 
L 732.319452 -260.718627 
L 694.238146 -269.360207 
L 655.665622 -277.796868 
L 616.922587 -286.038106 
L 578.335117 -294.092768 
L 540.228032 -301.969117 
L 502.918932 -309.674876 
L 466.713211 -317.217278 
L 431.900257 -324.603107 
L 398.750931 -331.83873 
L 367.516348 -338.930135 
L 338.427802 -345.88296 
L 311.697622 -352.702517 
L 287.520634 -359.393819 
L 266.075841 -365.961601 
L 247.527922 -372.41034 
L 232.028173 -378.744277 
L 219.714532 -384.967426 
L 210.710474 -391.083597 
L 205.122622 -397.096405 
L 203.0371 -403.009287 
L 204.514775 -408.825509 
L 209.585657 -414.548181 
L 218.242866 -420.180264 
L 230.436647 -425.724583 
L 246.068953 -431.18383 
L 264.989137 -436.560577 
L 286.991245 -441.85728 
L 311.813317 -447.076287 
L 339.139008 -452.219845 
L 368.601671 -457.290105 
L 399.790912 -462.289126 
L 432.261447 -467.218882 
L 465.543952 -472.081266 
L 499.157467 -476.878095 
L 532.622794 -481.611114 
L 565.476275 -486.281997 
L 597.283318 -490.892356 
L 627.651019 -495.443738 
L 656.239319 -499.937633 
L 682.770178 -504.375476 
L 707.0344 -508.758647 
L 728.895831 -513.088477 
L 748.292819 -517.36625 
L 765.236951 -521.593201 
L 779.80921 -525.770524 
L 792.153818 -529.899371 
L 802.470105 -533.980854 
L 811.002849 -538.016048 
L 818.03152 -542.005991 
L 823.858939 -545.951686 
L 828.799799 -549.854105 
L 833.169505 -553.714185 
L 837.273726 -557.532836 
L 841.398981 -561.310938 
L 845.804548 -565.049343 
L 850.71586 -568.748876 
L 856.319539 -572.410338 
L 862.760089 -576.034504 
L 870.138257 -579.622126 
L 878.510967 -583.173934 
L 887.892726 -586.690635 
L 898.258326 -590.172918 
L 909.546646 -593.621449 
L 921.665356 -597.036876 
L 934.49627 -600.419829 
L 947.901132 -603.77092 
L 961.727594 -607.090742 
L 975.815164 -610.379875 
L 990.00093 -613.63888 
L 1004.124865 -616.868304 
L 1018.034567 -620.06868 
L 1031.589315 -623.240526 
L 1044.663358 -626.384345 
L 1057.148376 -629.500628 
L 1068.955114 -632.589854 
L 1080.014205 -635.652489 
L 1090.276233 -638.688986 
L 1099.711115 -641.699788 
L 1108.306904 -644.685326 
L 1116.068121 -647.64602 
L 1123.013744 -650.582281 
L 1129.174958 -653.494508 
L 1134.59281 -656.383092 
L 1139.315849 -659.248414 
L 1163.039678 -659.248414 
L 1163.039678 -659.248414 
L 1163.039678 -656.383092 
L 1163.039678 -653.494508 
L 1163.039678 -650.582281 
L 1163.039678 -647.64602 
L 1163.039678 -644.685326 
L 1163.039678 -641.699788 
L 1163.039678 -638.688986 
L 1163.039678 -635.652489 
L 1163.039678 -632.589854 
L 1163.039678 -629.500628 
L 1163.039678 -626.384345 
L 1163.039678 -623.240526 
L 1163.039678 -620.06868 
L 1163.039678 -616.868304 
L 1163.039678 -613.63888 
L 1163.039678 -610.379875 
L 1163.039678 -607.090742 
L 1163.039678 -603.77092 
L 1163.039678 -600.419829 
L 1163.039678 -597.036876 
L 1163.039678 -593.621449 
L 1163.039678 -590.172918 
L 1163.039678 -586.690635 
L 1163.039678 -583.173934 
L 1163.039678 -579.622126 
L 1163.039678 -576.034504 
L 1163.039678 -572.410338 
L 1163.039678 -568.748876 
L 1163.039678 -565.049343 
L 1163.039678 -561.310938 
L 1163.039678 -557.532836 
L 1163.039678 -553.714185 
L 1163.039678 -549.854105 
L 1163.039678 -545.951686 
L 1163.039678 -542.005991 
L 1163.039678 -538.016048 
L 1163.039678 -533.980854 
L 1163.039678 -529.899371 
L 1163.039678 -525.770524 
L 1163.039678 -521.593201 
L 1163.039678 -517.36625 
L 1163.039678 -513.088477 
L 1163.039678 -508.758647 
L 1163.039678 -504.375476 
L 1163.039678 -499.937633 
L 1163.039678 -495.443738 
L 1163.039678 -490.892356 
L 1163.039678 -486.281997 
L 1163.039678 -481.611114 
L 1163.039678 -476.878095 
L 1163.039678 -472.081266 
L 1163.039678 -467.218882 
L 1163.039678 -462.289126 
L 1163.039678 -457.290105 
L 1163.039678 -452.219845 
L 1163.039678 -447.076287 
L 1163.039678 -441.85728 
L 1163.039678 -436.560577 
L 1163.039678 -431.18383 
L 1163.039678 -425.724583 
L 1163.039678 -420.180264 
L 1163.039678 -414.548181 
L 1163.039678 -408.825509 
L 1163.039678 -403.009287 
L 1163.039678 -397.096405 
L 1163.039678 -391.083597 
L 1163.039678 -384.967426 
L 1163.039678 -378.744277 
L 1163.039678 -372.41034 
L 1163.039678 -365.961601 
L 1163.039678 -359.393819 
L 1163.039678 -352.702517 
L 1163.039678 -345.88296 
L 1163.039678 -338.930135 
L 1163.039678 -331.83873 
L 1163.039678 -324.603107 
L 1163.039678 -317.217278 
L 1163.039678 -309.674876 
L 1163.039678 -301.969117 
L 1163.039678 -294.092768 
L 1163.039678 -286.038106 
L 1163.039678 -277.796868 
L 1163.039678 -269.360207 
L 1163.039678 -260.718627 
L 1163.039678 -251.861928 
L 1163.039678 -242.779123 
L 1163.039678 -233.458366 
L 1163.039678 -223.886852 
L 1163.039678 -214.050716 
L 1163.039678 -203.934908 
L 1163.039678 -193.523058 
L 1163.039678 -182.797315 
L 1163.039678 -171.738162 
L 1163.039678 -160.324204 
L 1163.039678 -148.53192 
L 1163.039678 -136.335365 
L 1163.039678 -123.705836 
L 1163.039678 -110.611454 
L 1163.039678 -97.01669 
z
" style="stroke: #6f6f6f; stroke-width: 1.25"/>
    </defs>
    <g clip-path="url(#pe39083c4ef)">
     <use xlink:href="#m0c93cde2aa" x="0" y="720" style="fill: #94c9de; stroke: #6f6f6f; stroke-width: 1.25"/>
    </g>
   </g>
   <g id="line2d_2">
    <path d="M 294.474073 362.51778 
L 1163.039678 362.51778 
" clip-path="url(#pe39083c4ef)" style="fill: none; stroke-dasharray: 1.5625,0.9375; stroke-dashoffset: 0; stroke: #6f6f6f; stroke-width: 1.25"/>
   </g>
   <g id="line2d_3">
    <path d="M 227.009076 295.82517 
L 1163.039678 295.82517 
" clip-path="url(#pe39083c4ef)" style="fill: none; stroke-dasharray: 3.125,1.25; stroke-dashoffset: 0; stroke: #6f6f6f; stroke-width: 1.25"/>
   </g>
   <g id="line2d_4">
    <path d="M 368.929984 262.656905 
L 1163.039678 262.656905 
" clip-path="url(#pe39083c4ef)" style="fill: none; stroke-dasharray: 1.5625,0.9375; stroke-dashoffset: 0; stroke: #6f6f6f; stroke-width: 1.25"/>
   </g>
   <g id="patch_3">
    <path d="M 83.036778 651.094896 
L 83.036778 32.64 
" style="fill: none; stroke: #cccccc; stroke-width: 1.25; stroke-linejoin: miter; stroke-linecap: square"/>
   </g>
   <g id="patch_4">
    <path d="M 1283.04 651.094896 
L 1283.04 32.64 
" style="fill: none; stroke: #cccccc; stroke-width: 1.25; stroke-linejoin: miter; stroke-linecap: square"/>
   </g>
   <g id="patch_5">
    <path d="M 83.036778 651.094896 
L 1283.04 651.094896 
" style="fill: none; stroke: #cccccc; stroke-width: 1.25; stroke-linejoin: miter; stroke-linecap: square"/>
   </g>
   <g id="patch_6">
    <path d="M 83.036778 32.64 
L 1283.04 32.64 
" style="fill: none; stroke: #cccccc; stroke-width: 1.25; stroke-linejoin: miter; stroke-linecap: square"/>
   </g>
   <g id="PathCollection_1">
    <defs>
     <path id="mb5aa4a0ebe" d="M 0 3 
C 0.795609 3 1.55874 2.683901 2.12132 2.12132 
C 2.683901 1.55874 3 0.795609 3 0 
C 3 -0.795609 2.683901 -1.55874 2.12132 -2.12132 
C 1.55874 -2.683901 0.795609 -3 0 -3 
C -0.795609 -3 -1.55874 -2.683901 -2.12132 -2.12132 
C -2.683901 -1.55874 -3 -0.795609 -3 0 
C -3 0.795609 -2.683901 1.55874 -2.12132 2.12132 
C -1.55874 2.683901 -0.795609 3 0 3 
z
"/>
    </defs>
    <g clip-path="url(#pe39083c4ef)">
     <use xlink:href="#mb5aa4a0ebe" x="683.038389" y="377.63211" style="fill: #ffa500; fill-opacity: 0.8"/>
     <use xlink:href="#mb5aa4a0ebe" x="676.763335" y="295.558562" style="fill: #ffa500; fill-opacity: 0.8"/>
     <use xlink:href="#mb5aa4a0ebe" x="677.439177" y="395.647146" style="fill: #ffa500; fill-opacity: 0.8"/>
     <use xlink:href="#mb5aa4a0ebe" x="683.038389" y="131.881865" style="fill: #ffa500; fill-opacity: 0.8"/>
     <use xlink:href="#mb5aa4a0ebe" x="683.038389" y="168.555982" style="fill: #ffa500; fill-opacity: 0.8"/>
     <use xlink:href="#mb5aa4a0ebe" x="683.038389" y="296.091977" style="fill: #ffa500; fill-opacity: 0.8"/>
     <use xlink:href="#mb5aa4a0ebe" x="683.038389" y="320.683122" style="fill: #ffa500; fill-opacity: 0.8"/>
     <use xlink:href="#mb5aa4a0ebe" x="683.038389" y="398.397338" style="fill: #ffa500; fill-opacity: 0.8"/>
     <use xlink:href="#mb5aa4a0ebe" x="679.787338" y="261.379001" style="fill: #ffa500; fill-opacity: 0.8"/>
     <use xlink:href="#mb5aa4a0ebe" x="683.038389" y="266.518389" style="fill: #ffa500; fill-opacity: 0.8"/>
    </g>
   </g>
   <g id="text_8">
    <g id="patch_7">
     <path d="M 107.036842 100.581115 
L 320.539342 100.581115 
Q 324.139342 100.581115 324.139342 96.981115 
L 324.139342 71.92999 
Q 324.139342 68.32999 320.539342 68.32999 
L 107.036842 68.32999 
Q 103.436842 68.32999 103.436842 71.92999 
L 103.436842 96.981115 
Q 103.436842 100.581115 107.036842 100.581115 
z
" style="fill: #ffffff; opacity: 0.7; stroke: #808080; stroke-linejoin: miter"/>
    </g>
    <!-- Yellow dots: Individual models -->
    <g transform="translate(107.036842 81.048115) scale(0.12 -0.12)">
     <defs>
      <path id="DejaVuSans-59" d="M -13 4666 
L 666 4666 
L 1959 2747 
L 3244 4666 
L 3922 4666 
L 2272 2222 
L 2272 0 
L 1638 0 
L 1638 2222 
L -13 4666 
z
" transform="scale(0.015625)"/>
      <path id="DejaVuSans-6c" d="M 603 4863 
L 1178 4863 
L 1178 0 
L 603 0 
L 603 4863 
z
" transform="scale(0.015625)"/>
      <path id="DejaVuSans-77" d="M 269 3500 
L 844 3500 
L 1563 769 
L 2278 3500 
L 2956 3500 
L 3675 769 
L 4391 3500 
L 4966 3500 
L 4050 0 
L 3372 0 
L 2619 2869 
L 1863 0 
L 1184 0 
L 269 3500 
z
" transform="scale(0.015625)"/>
      <path id="DejaVuSans-3a" d="M 750 794 
L 1409 794 
L 1409 0 
L 750 0 
L 750 794 
z
M 750 3309 
L 1409 3309 
L 1409 2516 
L 750 2516 
L 750 3309 
z
" transform="scale(0.015625)"/>
      <path id="DejaVuSans-49" d="M 628 4666 
L 1259 4666 
L 1259 0 
L 628 0 
L 628 4666 
z
" transform="scale(0.015625)"/>
      <path id="DejaVuSans-76" d="M 191 3500 
L 800 3500 
L 1894 563 
L 2988 3500 
L 3597 3500 
L 2284 0 
L 1503 0 
L 191 3500 
z
" transform="scale(0.015625)"/>
      <path id="DejaVuSans-75" d="M 544 1381 
L 544 3500 
L 1119 3500 
L 1119 1403 
Q 1119 906 1312 657 
Q 1506 409 1894 409 
Q 2359 409 2629 706 
Q 2900 1003 2900 1516 
L 2900 3500 
L 3475 3500 
L 3475 0 
L 2900 0 
L 2900 538 
Q 2691 219 2414 64 
Q 2138 -91 1772 -91 
Q 1169 -91 856 284 
Q 544 659 544 1381 
z
M 1991 3584 
L 1991 3584 
z
" transform="scale(0.015625)"/>
     </defs>
     <use xlink:href="#DejaVuSans-59"/>
     <use xlink:href="#DejaVuSans-65" transform="translate(47.833984 0)"/>
     <use xlink:href="#DejaVuSans-6c" transform="translate(109.357422 0)"/>
     <use xlink:href="#DejaVuSans-6c" transform="translate(137.140625 0)"/>
     <use xlink:href="#DejaVuSans-6f" transform="translate(164.923828 0)"/>
     <use xlink:href="#DejaVuSans-77" transform="translate(226.105469 0)"/>
     <use xlink:href="#DejaVuSans-20" transform="translate(307.892578 0)"/>
     <use xlink:href="#DejaVuSans-64" transform="translate(339.679688 0)"/>
     <use xlink:href="#DejaVuSans-6f" transform="translate(403.15625 0)"/>
     <use xlink:href="#DejaVuSans-74" transform="translate(464.337891 0)"/>
     <use xlink:href="#DejaVuSans-73" transform="translate(503.546875 0)"/>
     <use xlink:href="#DejaVuSans-3a" transform="translate(555.646484 0)"/>
     <use xlink:href="#DejaVuSans-20" transform="translate(589.337891 0)"/>
     <use xlink:href="#DejaVuSans-49" transform="translate(621.125 0)"/>
     <use xlink:href="#DejaVuSans-6e" transform="translate(650.617188 0)"/>
     <use xlink:href="#DejaVuSans-64" transform="translate(713.996094 0)"/>
     <use xlink:href="#DejaVuSans-69" transform="translate(777.472656 0)"/>
     <use xlink:href="#DejaVuSans-76" transform="translate(805.255859 0)"/>
     <use xlink:href="#DejaVuSans-69" transform="translate(864.435547 0)"/>
     <use xlink:href="#DejaVuSans-64" transform="translate(892.21875 0)"/>
     <use xlink:href="#DejaVuSans-75" transform="translate(955.695312 0)"/>
     <use xlink:href="#DejaVuSans-61" transform="translate(1019.074219 0)"/>
     <use xlink:href="#DejaVuSans-6c" transform="translate(1080.353516 0)"/>
     <use xlink:href="#DejaVuSans-20" transform="translate(1108.136719 0)"/>
     <use xlink:href="#DejaVuSans-6d" transform="translate(1139.923828 0)"/>
     <use xlink:href="#DejaVuSans-6f" transform="translate(1237.335938 0)"/>
     <use xlink:href="#DejaVuSans-64" transform="translate(1298.517578 0)"/>
     <use xlink:href="#DejaVuSans-65" transform="translate(1361.994141 0)"/>
     <use xlink:href="#DejaVuSans-6c" transform="translate(1423.517578 0)"/>
     <use xlink:href="#DejaVuSans-73" transform="translate(1451.300781 0)"/>
    </g>
    <!-- Violin plot: Distribution of durations -->
    <g transform="translate(107.036842 94.48549) scale(0.12 -0.12)">
     <defs>
      <path id="DejaVuSans-56" d="M 1831 0 
L 50 4666 
L 709 4666 
L 2188 738 
L 3669 4666 
L 4325 4666 
L 2547 0 
L 1831 0 
z
" transform="scale(0.015625)"/>
      <path id="DejaVuSans-70" d="M 1159 525 
L 1159 -1331 
L 581 -1331 
L 581 3500 
L 1159 3500 
L 1159 2969 
Q 1341 3281 1617 3432 
Q 1894 3584 2278 3584 
Q 2916 3584 3314 3078 
Q 3713 2572 3713 1747 
Q 3713 922 3314 415 
Q 2916 -91 2278 -91 
Q 1894 -91 1617 61 
Q 1341 213 1159 525 
z
M 3116 1747 
Q 3116 2381 2855 2742 
Q 2594 3103 2138 3103 
Q 1681 3103 1420 2742 
Q 1159 2381 1159 1747 
Q 1159 1113 1420 752 
Q 1681 391 2138 391 
Q 2594 391 2855 752 
Q 3116 1113 3116 1747 
z
" transform="scale(0.015625)"/>
      <path id="DejaVuSans-62" d="M 3116 1747 
Q 3116 2381 2855 2742 
Q 2594 3103 2138 3103 
Q 1681 3103 1420 2742 
Q 1159 2381 1159 1747 
Q 1159 1113 1420 752 
Q 1681 391 2138 391 
Q 2594 391 2855 752 
Q 3116 1113 3116 1747 
z
M 1159 2969 
Q 1341 3281 1617 3432 
Q 1894 3584 2278 3584 
Q 2916 3584 3314 3078 
Q 3713 2572 3713 1747 
Q 3713 922 3314 415 
Q 2916 -91 2278 -91 
Q 1894 -91 1617 61 
Q 1341 213 1159 525 
L 1159 0 
L 581 0 
L 581 4863 
L 1159 4863 
L 1159 2969 
z
" transform="scale(0.015625)"/>
      <path id="DejaVuSans-66" d="M 2375 4863 
L 2375 4384 
L 1825 4384 
Q 1516 4384 1395 4259 
Q 1275 4134 1275 3809 
L 1275 3500 
L 2222 3500 
L 2222 3053 
L 1275 3053 
L 1275 0 
L 697 0 
L 697 3053 
L 147 3053 
L 147 3500 
L 697 3500 
L 697 3744 
Q 697 4328 969 4595 
Q 1241 4863 1831 4863 
L 2375 4863 
z
" transform="scale(0.015625)"/>
     </defs>
     <use xlink:href="#DejaVuSans-56"/>
     <use xlink:href="#DejaVuSans-69" transform="translate(66.158203 0)"/>
     <use xlink:href="#DejaVuSans-6f" transform="translate(93.941406 0)"/>
     <use xlink:href="#DejaVuSans-6c" transform="translate(155.123047 0)"/>
     <use xlink:href="#DejaVuSans-69" transform="translate(182.90625 0)"/>
     <use xlink:href="#DejaVuSans-6e" transform="translate(210.689453 0)"/>
     <use xlink:href="#DejaVuSans-20" transform="translate(274.068359 0)"/>
     <use xlink:href="#DejaVuSans-70" transform="translate(305.855469 0)"/>
     <use xlink:href="#DejaVuSans-6c" transform="translate(369.332031 0)"/>
     <use xlink:href="#DejaVuSans-6f" transform="translate(397.115234 0)"/>
     <use xlink:href="#DejaVuSans-74" transform="translate(458.296875 0)"/>
     <use xlink:href="#DejaVuSans-3a" transform="translate(497.505859 0)"/>
     <use xlink:href="#DejaVuSans-20" transform="translate(531.197266 0)"/>
     <use xlink:href="#DejaVuSans-44" transform="translate(562.984375 0)"/>
     <use xlink:href="#DejaVuSans-69" transform="translate(639.986328 0)"/>
     <use xlink:href="#DejaVuSans-73" transform="translate(667.769531 0)"/>
     <use xlink:href="#DejaVuSans-74" transform="translate(719.869141 0)"/>
     <use xlink:href="#DejaVuSans-72" transform="translate(759.078125 0)"/>
     <use xlink:href="#DejaVuSans-69" transform="translate(800.191406 0)"/>
     <use xlink:href="#DejaVuSans-62" transform="translate(827.974609 0)"/>
     <use xlink:href="#DejaVuSans-75" transform="translate(891.451172 0)"/>
     <use xlink:href="#DejaVuSans-74" transform="translate(954.830078 0)"/>
     <use xlink:href="#DejaVuSans-69" transform="translate(994.039062 0)"/>
     <use xlink:href="#DejaVuSans-6f" transform="translate(1021.822266 0)"/>
     <use xlink:href="#DejaVuSans-6e" transform="translate(1083.003906 0)"/>
     <use xlink:href="#DejaVuSans-20" transform="translate(1146.382812 0)"/>
     <use xlink:href="#DejaVuSans-6f" transform="translate(1178.169922 0)"/>
     <use xlink:href="#DejaVuSans-66" transform="translate(1239.351562 0)"/>
     <use xlink:href="#DejaVuSans-20" transform="translate(1274.556641 0)"/>
     <use xlink:href="#DejaVuSans-64" transform="translate(1306.34375 0)"/>
     <use xlink:href="#DejaVuSans-75" transform="translate(1369.820312 0)"/>
     <use xlink:href="#DejaVuSans-72" transform="translate(1433.199219 0)"/>
     <use xlink:href="#DejaVuSans-61" transform="translate(1474.3125 0)"/>
     <use xlink:href="#DejaVuSans-74" transform="translate(1535.591797 0)"/>
     <use xlink:href="#DejaVuSans-69" transform="translate(1574.800781 0)"/>
     <use xlink:href="#DejaVuSans-6f" transform="translate(1602.583984 0)"/>
     <use xlink:href="#DejaVuSans-6e" transform="translate(1663.765625 0)"/>
     <use xlink:href="#DejaVuSans-73" transform="translate(1727.144531 0)"/>
    </g>
   </g>
   <g id="text_9">
    <!-- Model Duration Distribution (img-segmentation) -->
    <g style="fill: #262626" transform="translate(436.923545 26.64) scale(0.18 -0.18)">
     <defs>
      <path id="DejaVuSans-Bold-4d" d="M 588 4666 
L 2119 4666 
L 3181 2169 
L 4250 4666 
L 5778 4666 
L 5778 0 
L 4641 0 
L 4641 3413 
L 3566 897 
L 2803 897 
L 1728 3413 
L 1728 0 
L 588 0 
L 588 4666 
z
" transform="scale(0.015625)"/>
      <path id="DejaVuSans-Bold-6f" d="M 2203 2784 
Q 1831 2784 1636 2517 
Q 1441 2250 1441 1747 
Q 1441 1244 1636 976 
Q 1831 709 2203 709 
Q 2569 709 2762 976 
Q 2956 1244 2956 1747 
Q 2956 2250 2762 2517 
Q 2569 2784 2203 2784 
z
M 2203 3584 
Q 3106 3584 3614 3096 
Q 4122 2609 4122 1747 
Q 4122 884 3614 396 
Q 3106 -91 2203 -91 
Q 1297 -91 786 396 
Q 275 884 275 1747 
Q 275 2609 786 3096 
Q 1297 3584 2203 3584 
z
" transform="scale(0.015625)"/>
      <path id="DejaVuSans-Bold-64" d="M 2919 2988 
L 2919 4863 
L 4044 4863 
L 4044 0 
L 2919 0 
L 2919 506 
Q 2688 197 2409 53 
Q 2131 -91 1766 -91 
Q 1119 -91 703 423 
Q 288 938 288 1747 
Q 288 2556 703 3070 
Q 1119 3584 1766 3584 
Q 2128 3584 2408 3439 
Q 2688 3294 2919 2988 
z
M 2181 722 
Q 2541 722 2730 984 
Q 2919 1247 2919 1747 
Q 2919 2247 2730 2509 
Q 2541 2772 2181 2772 
Q 1825 2772 1636 2509 
Q 1447 2247 1447 1747 
Q 1447 1247 1636 984 
Q 1825 722 2181 722 
z
" transform="scale(0.015625)"/>
      <path id="DejaVuSans-Bold-65" d="M 4031 1759 
L 4031 1441 
L 1416 1441 
Q 1456 1047 1700 850 
Q 1944 653 2381 653 
Q 2734 653 3104 758 
Q 3475 863 3866 1075 
L 3866 213 
Q 3469 63 3072 -14 
Q 2675 -91 2278 -91 
Q 1328 -91 801 392 
Q 275 875 275 1747 
Q 275 2603 792 3093 
Q 1309 3584 2216 3584 
Q 3041 3584 3536 3087 
Q 4031 2591 4031 1759 
z
M 2881 2131 
Q 2881 2450 2695 2645 
Q 2509 2841 2209 2841 
Q 1884 2841 1681 2658 
Q 1478 2475 1428 2131 
L 2881 2131 
z
" transform="scale(0.015625)"/>
      <path id="DejaVuSans-Bold-6c" d="M 538 4863 
L 1656 4863 
L 1656 0 
L 538 0 
L 538 4863 
z
" transform="scale(0.015625)"/>
      <path id="DejaVuSans-Bold-20" transform="scale(0.015625)"/>
      <path id="DejaVuSans-Bold-44" d="M 1791 3756 
L 1791 909 
L 2222 909 
Q 2959 909 3348 1275 
Q 3738 1641 3738 2338 
Q 3738 3031 3350 3393 
Q 2963 3756 2222 3756 
L 1791 3756 
z
M 588 4666 
L 1856 4666 
Q 2919 4666 3439 4514 
Q 3959 4363 4331 4000 
Q 4659 3684 4818 3271 
Q 4978 2859 4978 2338 
Q 4978 1809 4818 1395 
Q 4659 981 4331 666 
Q 3956 303 3431 151 
Q 2906 0 1856 0 
L 588 0 
L 588 4666 
z
" transform="scale(0.015625)"/>
      <path id="DejaVuSans-Bold-75" d="M 500 1363 
L 500 3500 
L 1625 3500 
L 1625 3150 
Q 1625 2866 1622 2436 
Q 1619 2006 1619 1863 
Q 1619 1441 1641 1255 
Q 1663 1069 1716 984 
Q 1784 875 1895 815 
Q 2006 756 2150 756 
Q 2500 756 2700 1025 
Q 2900 1294 2900 1772 
L 2900 3500 
L 4019 3500 
L 4019 0 
L 2900 0 
L 2900 506 
Q 2647 200 2364 54 
Q 2081 -91 1741 -91 
Q 1134 -91 817 281 
Q 500 653 500 1363 
z
" transform="scale(0.015625)"/>
      <path id="DejaVuSans-Bold-72" d="M 3138 2547 
Q 2991 2616 2845 2648 
Q 2700 2681 2553 2681 
Q 2122 2681 1889 2404 
Q 1656 2128 1656 1613 
L 1656 0 
L 538 0 
L 538 3500 
L 1656 3500 
L 1656 2925 
Q 1872 3269 2151 3426 
Q 2431 3584 2822 3584 
Q 2878 3584 2943 3579 
Q 3009 3575 3134 3559 
L 3138 2547 
z
" transform="scale(0.015625)"/>
      <path id="DejaVuSans-Bold-61" d="M 2106 1575 
Q 1756 1575 1579 1456 
Q 1403 1338 1403 1106 
Q 1403 894 1545 773 
Q 1688 653 1941 653 
Q 2256 653 2472 879 
Q 2688 1106 2688 1447 
L 2688 1575 
L 2106 1575 
z
M 3816 1997 
L 3816 0 
L 2688 0 
L 2688 519 
Q 2463 200 2181 54 
Q 1900 -91 1497 -91 
Q 953 -91 614 226 
Q 275 544 275 1050 
Q 275 1666 698 1953 
Q 1122 2241 2028 2241 
L 2688 2241 
L 2688 2328 
Q 2688 2594 2478 2717 
Q 2269 2841 1825 2841 
Q 1466 2841 1156 2769 
Q 847 2697 581 2553 
L 581 3406 
Q 941 3494 1303 3539 
Q 1666 3584 2028 3584 
Q 2975 3584 3395 3211 
Q 3816 2838 3816 1997 
z
" transform="scale(0.015625)"/>
      <path id="DejaVuSans-Bold-74" d="M 1759 4494 
L 1759 3500 
L 2913 3500 
L 2913 2700 
L 1759 2700 
L 1759 1216 
Q 1759 972 1856 886 
Q 1953 800 2241 800 
L 2816 800 
L 2816 0 
L 1856 0 
Q 1194 0 917 276 
Q 641 553 641 1216 
L 641 2700 
L 84 2700 
L 84 3500 
L 641 3500 
L 641 4494 
L 1759 4494 
z
" transform="scale(0.015625)"/>
      <path id="DejaVuSans-Bold-69" d="M 538 3500 
L 1656 3500 
L 1656 0 
L 538 0 
L 538 3500 
z
M 538 4863 
L 1656 4863 
L 1656 3950 
L 538 3950 
L 538 4863 
z
" transform="scale(0.015625)"/>
      <path id="DejaVuSans-Bold-6e" d="M 4056 2131 
L 4056 0 
L 2931 0 
L 2931 347 
L 2931 1631 
Q 2931 2084 2911 2256 
Q 2891 2428 2841 2509 
Q 2775 2619 2662 2680 
Q 2550 2741 2406 2741 
Q 2056 2741 1856 2470 
Q 1656 2200 1656 1722 
L 1656 0 
L 538 0 
L 538 3500 
L 1656 3500 
L 1656 2988 
Q 1909 3294 2193 3439 
Q 2478 3584 2822 3584 
Q 3428 3584 3742 3212 
Q 4056 2841 4056 2131 
z
" transform="scale(0.015625)"/>
      <path id="DejaVuSans-Bold-73" d="M 3272 3391 
L 3272 2541 
Q 2913 2691 2578 2766 
Q 2244 2841 1947 2841 
Q 1628 2841 1473 2761 
Q 1319 2681 1319 2516 
Q 1319 2381 1436 2309 
Q 1553 2238 1856 2203 
L 2053 2175 
Q 2913 2066 3209 1816 
Q 3506 1566 3506 1031 
Q 3506 472 3093 190 
Q 2681 -91 1863 -91 
Q 1516 -91 1145 -36 
Q 775 19 384 128 
L 384 978 
Q 719 816 1070 734 
Q 1422 653 1784 653 
Q 2113 653 2278 743 
Q 2444 834 2444 1013 
Q 2444 1163 2330 1236 
Q 2216 1309 1875 1350 
L 1678 1375 
Q 931 1469 631 1722 
Q 331 1975 331 2491 
Q 331 3047 712 3315 
Q 1094 3584 1881 3584 
Q 2191 3584 2531 3537 
Q 2872 3491 3272 3391 
z
" transform="scale(0.015625)"/>
      <path id="DejaVuSans-Bold-62" d="M 2400 722 
Q 2759 722 2948 984 
Q 3138 1247 3138 1747 
Q 3138 2247 2948 2509 
Q 2759 2772 2400 2772 
Q 2041 2772 1848 2508 
Q 1656 2244 1656 1747 
Q 1656 1250 1848 986 
Q 2041 722 2400 722 
z
M 1656 2988 
Q 1888 3294 2169 3439 
Q 2450 3584 2816 3584 
Q 3463 3584 3878 3070 
Q 4294 2556 4294 1747 
Q 4294 938 3878 423 
Q 3463 -91 2816 -91 
Q 2450 -91 2169 54 
Q 1888 200 1656 506 
L 1656 0 
L 538 0 
L 538 4863 
L 1656 4863 
L 1656 2988 
z
" transform="scale(0.015625)"/>
      <path id="DejaVuSans-Bold-28" d="M 2413 -844 
L 1484 -844 
Q 1006 -72 778 623 
Q 550 1319 550 2003 
Q 550 2688 779 3389 
Q 1009 4091 1484 4856 
L 2413 4856 
Q 2013 4116 1813 3408 
Q 1613 2700 1613 2009 
Q 1613 1319 1811 609 
Q 2009 -100 2413 -844 
z
" transform="scale(0.015625)"/>
      <path id="DejaVuSans-Bold-6d" d="M 3781 2919 
Q 3994 3244 4286 3414 
Q 4578 3584 4928 3584 
Q 5531 3584 5847 3212 
Q 6163 2841 6163 2131 
L 6163 0 
L 5038 0 
L 5038 1825 
Q 5041 1866 5042 1909 
Q 5044 1953 5044 2034 
Q 5044 2406 4934 2573 
Q 4825 2741 4581 2741 
Q 4263 2741 4089 2478 
Q 3916 2216 3909 1719 
L 3909 0 
L 2784 0 
L 2784 1825 
Q 2784 2406 2684 2573 
Q 2584 2741 2328 2741 
Q 2006 2741 1831 2477 
Q 1656 2213 1656 1722 
L 1656 0 
L 531 0 
L 531 3500 
L 1656 3500 
L 1656 2988 
Q 1863 3284 2130 3434 
Q 2397 3584 2719 3584 
Q 3081 3584 3359 3409 
Q 3638 3234 3781 2919 
z
" transform="scale(0.015625)"/>
      <path id="DejaVuSans-Bold-67" d="M 2919 594 
Q 2688 288 2409 144 
Q 2131 0 1766 0 
Q 1125 0 706 504 
Q 288 1009 288 1791 
Q 288 2575 706 3076 
Q 1125 3578 1766 3578 
Q 2131 3578 2409 3434 
Q 2688 3291 2919 2981 
L 2919 3500 
L 4044 3500 
L 4044 353 
Q 4044 -491 3511 -936 
Q 2978 -1381 1966 -1381 
Q 1638 -1381 1331 -1331 
Q 1025 -1281 716 -1178 
L 716 -306 
Q 1009 -475 1290 -558 
Q 1572 -641 1856 -641 
Q 2406 -641 2662 -400 
Q 2919 -159 2919 353 
L 2919 594 
z
M 2181 2772 
Q 1834 2772 1640 2515 
Q 1447 2259 1447 1791 
Q 1447 1309 1634 1061 
Q 1822 813 2181 813 
Q 2531 813 2725 1069 
Q 2919 1325 2919 1791 
Q 2919 2259 2725 2515 
Q 2531 2772 2181 2772 
z
" transform="scale(0.015625)"/>
      <path id="DejaVuSans-Bold-2d" d="M 347 2297 
L 2309 2297 
L 2309 1388 
L 347 1388 
L 347 2297 
z
" transform="scale(0.015625)"/>
      <path id="DejaVuSans-Bold-29" d="M 513 -844 
Q 913 -100 1113 609 
Q 1313 1319 1313 2009 
Q 1313 2700 1113 3408 
Q 913 4116 513 4856 
L 1441 4856 
Q 1916 4091 2145 3389 
Q 2375 2688 2375 2003 
Q 2375 1319 2147 623 
Q 1919 -72 1441 -844 
L 513 -844 
z
" transform="scale(0.015625)"/>
     </defs>
     <use xlink:href="#DejaVuSans-Bold-4d"/>
     <use xlink:href="#DejaVuSans-Bold-6f" transform="translate(99.511719 0)"/>
     <use xlink:href="#DejaVuSans-Bold-64" transform="translate(168.212891 0)"/>
     <use xlink:href="#DejaVuSans-Bold-65" transform="translate(239.794922 0)"/>
     <use xlink:href="#DejaVuSans-Bold-6c" transform="translate(307.617188 0)"/>
     <use xlink:href="#DejaVuSans-Bold-20" transform="translate(341.894531 0)"/>
     <use xlink:href="#DejaVuSans-Bold-44" transform="translate(376.708984 0)"/>
     <use xlink:href="#DejaVuSans-Bold-75" transform="translate(459.716797 0)"/>
     <use xlink:href="#DejaVuSans-Bold-72" transform="translate(530.908203 0)"/>
     <use xlink:href="#DejaVuSans-Bold-61" transform="translate(580.224609 0)"/>
     <use xlink:href="#DejaVuSans-Bold-74" transform="translate(647.705078 0)"/>
     <use xlink:href="#DejaVuSans-Bold-69" transform="translate(695.507812 0)"/>
     <use xlink:href="#DejaVuSans-Bold-6f" transform="translate(729.785156 0)"/>
     <use xlink:href="#DejaVuSans-Bold-6e" transform="translate(798.486328 0)"/>
     <use xlink:href="#DejaVuSans-Bold-20" transform="translate(869.677734 0)"/>
     <use xlink:href="#DejaVuSans-Bold-44" transform="translate(904.492188 0)"/>
     <use xlink:href="#DejaVuSans-Bold-69" transform="translate(987.5 0)"/>
     <use xlink:href="#DejaVuSans-Bold-73" transform="translate(1021.777344 0)"/>
     <use xlink:href="#DejaVuSans-Bold-74" transform="translate(1081.298828 0)"/>
     <use xlink:href="#DejaVuSans-Bold-72" transform="translate(1129.101562 0)"/>
     <use xlink:href="#DejaVuSans-Bold-69" transform="translate(1178.417969 0)"/>
     <use xlink:href="#DejaVuSans-Bold-62" transform="translate(1212.695312 0)"/>
     <use xlink:href="#DejaVuSans-Bold-75" transform="translate(1284.277344 0)"/>
     <use xlink:href="#DejaVuSans-Bold-74" transform="translate(1355.46875 0)"/>
     <use xlink:href="#DejaVuSans-Bold-69" transform="translate(1403.271484 0)"/>
     <use xlink:href="#DejaVuSans-Bold-6f" transform="translate(1437.548828 0)"/>
     <use xlink:href="#DejaVuSans-Bold-6e" transform="translate(1506.25 0)"/>
     <use xlink:href="#DejaVuSans-Bold-20" transform="translate(1577.441406 0)"/>
     <use xlink:href="#DejaVuSans-Bold-28" transform="translate(1612.255859 0)"/>
     <use xlink:href="#DejaVuSans-Bold-69" transform="translate(1657.958984 0)"/>
     <use xlink:href="#DejaVuSans-Bold-6d" transform="translate(1692.236328 0)"/>
     <use xlink:href="#DejaVuSans-Bold-67" transform="translate(1796.435547 0)"/>
     <use xlink:href="#DejaVuSans-Bold-2d" transform="translate(1868.017578 0)"/>
     <use xlink:href="#DejaVuSans-Bold-73" transform="translate(1909.521484 0)"/>
     <use xlink:href="#DejaVuSans-Bold-65" transform="translate(1969.042969 0)"/>
     <use xlink:href="#DejaVuSans-Bold-67" transform="translate(2036.865234 0)"/>
     <use xlink:href="#DejaVuSans-Bold-6d" transform="translate(2108.447266 0)"/>
     <use xlink:href="#DejaVuSans-Bold-65" transform="translate(2212.646484 0)"/>
     <use xlink:href="#DejaVuSans-Bold-6e" transform="translate(2280.46875 0)"/>
     <use xlink:href="#DejaVuSans-Bold-74" transform="translate(2351.660156 0)"/>
     <use xlink:href="#DejaVuSans-Bold-61" transform="translate(2399.462891 0)"/>
     <use xlink:href="#DejaVuSans-Bold-74" transform="translate(2466.943359 0)"/>
     <use xlink:href="#DejaVuSans-Bold-69" transform="translate(2514.746094 0)"/>
     <use xlink:href="#DejaVuSans-Bold-6f" transform="translate(2549.023438 0)"/>
     <use xlink:href="#DejaVuSans-Bold-6e" transform="translate(2617.724609 0)"/>
     <use xlink:href="#DejaVuSans-Bold-29" transform="translate(2688.916016 0)"/>
    </g>
   </g>
  </g>
 </g>
 <defs>
  <clipPath id="pe39083c4ef">
   <rect x="83.036778" y="32.64" width="1200.003222" height="618.454896"/>
  </clipPath>
 </defs>
</svg>
