<?xml version="1.0" encoding="utf-8" standalone="no"?>
<!DOCTYPE svg PUBLIC "-//W3C//DTD SVG 1.1//EN"
  "http://www.w3.org/Graphics/SVG/1.1/DTD/svg11.dtd">
<svg xmlns:xlink="http://www.w3.org/1999/xlink" width="1008pt" height="576pt" viewBox="0 0 1008 576" xmlns="http://www.w3.org/2000/svg" version="1.1">
 <metadata>
  <rdf:RDF xmlns:dc="http://purl.org/dc/elements/1.1/" xmlns:cc="http://creativecommons.org/ns#" xmlns:rdf="http://www.w3.org/1999/02/22-rdf-syntax-ns#">
   <cc:Work>
    <dc:type rdf:resource="http://purl.org/dc/dcmitype/StillImage"/>
    <dc:date>2025-02-05T22:42:06.300042</dc:date>
    <dc:format>image/svg+xml</dc:format>
    <dc:creator>
     <cc:Agent>
      <dc:title>Matplotlib v3.10.0, https://matplotlib.org/</dc:title>
     </cc:Agent>
    </dc:creator>
   </cc:Work>
  </rdf:RDF>
 </metadata>
 <defs>
  <style type="text/css">*{stroke-linejoin: round; stroke-linecap: butt}</style>
 </defs>
 <g id="figure_1">
  <g id="patch_1">
   <path d="M 0 576 
L 1008 576 
L 1008 0 
L 0 0 
z
" style="fill: #ffffff"/>
  </g>
  <g id="axes_1">
   <g id="patch_2">
    <path d="M 71.46 525.06 
L 988.11 525.06 
L 988.11 30.48 
L 71.46 30.48 
z
" style="fill: #ffffff"/>
   </g>
   <g id="matplotlib.axis_1">
    <g id="xtick_1">
     <g id="line2d_1">
      <path d="M 80.535743 525.06 
L 80.535743 30.48 
" clip-path="url(#p10c0df3e1d)" style="fill: none; stroke-dasharray: 3.7,1.6; stroke-dashoffset: 0; stroke: #cccccc; stroke-opacity: 0.5"/>
     </g>
     <g id="text_1">
      <!-- 0 -->
      <g style="fill: #262626" transform="translate(77.036368 542.918281) scale(0.11 -0.11)">
       <defs>
        <path id="DejaVuSans-30" d="M 2034 4250 
Q 1547 4250 1301 3770 
Q 1056 3291 1056 2328 
Q 1056 1369 1301 889 
Q 1547 409 2034 409 
Q 2525 409 2770 889 
Q 3016 1369 3016 2328 
Q 3016 3291 2770 3770 
Q 2525 4250 2034 4250 
z
M 2034 4750 
Q 2819 4750 3233 4129 
Q 3647 3509 3647 2328 
Q 3647 1150 3233 529 
Q 2819 -91 2034 -91 
Q 1250 -91 836 529 
Q 422 1150 422 2328 
Q 422 3509 836 4129 
Q 1250 4750 2034 4750 
z
" transform="scale(0.015625)"/>
       </defs>
       <use xlink:href="#DejaVuSans-30"/>
      </g>
     </g>
    </g>
    <g id="xtick_2">
     <g id="line2d_2">
      <path d="M 262.050594 525.06 
L 262.050594 30.48 
" clip-path="url(#p10c0df3e1d)" style="fill: none; stroke-dasharray: 3.7,1.6; stroke-dashoffset: 0; stroke: #cccccc; stroke-opacity: 0.5"/>
     </g>
     <g id="text_2">
      <!-- 10 -->
      <g style="fill: #262626" transform="translate(255.051844 542.918281) scale(0.11 -0.11)">
       <defs>
        <path id="DejaVuSans-31" d="M 794 531 
L 1825 531 
L 1825 4091 
L 703 3866 
L 703 4441 
L 1819 4666 
L 2450 4666 
L 2450 531 
L 3481 531 
L 3481 0 
L 794 0 
L 794 531 
z
" transform="scale(0.015625)"/>
       </defs>
       <use xlink:href="#DejaVuSans-31"/>
       <use xlink:href="#DejaVuSans-30" transform="translate(63.623047 0)"/>
      </g>
     </g>
    </g>
    <g id="xtick_3">
     <g id="line2d_3">
      <path d="M 443.565446 525.06 
L 443.565446 30.48 
" clip-path="url(#p10c0df3e1d)" style="fill: none; stroke-dasharray: 3.7,1.6; stroke-dashoffset: 0; stroke: #cccccc; stroke-opacity: 0.5"/>
     </g>
     <g id="text_3">
      <!-- 20 -->
      <g style="fill: #262626" transform="translate(436.566696 542.918281) scale(0.11 -0.11)">
       <defs>
        <path id="DejaVuSans-32" d="M 1228 531 
L 3431 531 
L 3431 0 
L 469 0 
L 469 531 
Q 828 903 1448 1529 
Q 2069 2156 2228 2338 
Q 2531 2678 2651 2914 
Q 2772 3150 2772 3378 
Q 2772 3750 2511 3984 
Q 2250 4219 1831 4219 
Q 1534 4219 1204 4116 
Q 875 4013 500 3803 
L 500 4441 
Q 881 4594 1212 4672 
Q 1544 4750 1819 4750 
Q 2544 4750 2975 4387 
Q 3406 4025 3406 3419 
Q 3406 3131 3298 2873 
Q 3191 2616 2906 2266 
Q 2828 2175 2409 1742 
Q 1991 1309 1228 531 
z
" transform="scale(0.015625)"/>
       </defs>
       <use xlink:href="#DejaVuSans-32"/>
       <use xlink:href="#DejaVuSans-30" transform="translate(63.623047 0)"/>
      </g>
     </g>
    </g>
    <g id="xtick_4">
     <g id="line2d_4">
      <path d="M 625.080297 525.06 
L 625.080297 30.48 
" clip-path="url(#p10c0df3e1d)" style="fill: none; stroke-dasharray: 3.7,1.6; stroke-dashoffset: 0; stroke: #cccccc; stroke-opacity: 0.5"/>
     </g>
     <g id="text_4">
      <!-- 30 -->
      <g style="fill: #262626" transform="translate(618.081547 542.918281) scale(0.11 -0.11)">
       <defs>
        <path id="DejaVuSans-33" d="M 2597 2516 
Q 3050 2419 3304 2112 
Q 3559 1806 3559 1356 
Q 3559 666 3084 287 
Q 2609 -91 1734 -91 
Q 1441 -91 1130 -33 
Q 819 25 488 141 
L 488 750 
Q 750 597 1062 519 
Q 1375 441 1716 441 
Q 2309 441 2620 675 
Q 2931 909 2931 1356 
Q 2931 1769 2642 2001 
Q 2353 2234 1838 2234 
L 1294 2234 
L 1294 2753 
L 1863 2753 
Q 2328 2753 2575 2939 
Q 2822 3125 2822 3475 
Q 2822 3834 2567 4026 
Q 2313 4219 1838 4219 
Q 1578 4219 1281 4162 
Q 984 4106 628 3988 
L 628 4550 
Q 988 4650 1302 4700 
Q 1616 4750 1894 4750 
Q 2613 4750 3031 4423 
Q 3450 4097 3450 3541 
Q 3450 3153 3228 2886 
Q 3006 2619 2597 2516 
z
" transform="scale(0.015625)"/>
       </defs>
       <use xlink:href="#DejaVuSans-33"/>
       <use xlink:href="#DejaVuSans-30" transform="translate(63.623047 0)"/>
      </g>
     </g>
    </g>
    <g id="xtick_5">
     <g id="line2d_5">
      <path d="M 806.595149 525.06 
L 806.595149 30.48 
" clip-path="url(#p10c0df3e1d)" style="fill: none; stroke-dasharray: 3.7,1.6; stroke-dashoffset: 0; stroke: #cccccc; stroke-opacity: 0.5"/>
     </g>
     <g id="text_5">
      <!-- 40 -->
      <g style="fill: #262626" transform="translate(799.596399 542.918281) scale(0.11 -0.11)">
       <defs>
        <path id="DejaVuSans-34" d="M 2419 4116 
L 825 1625 
L 2419 1625 
L 2419 4116 
z
M 2253 4666 
L 3047 4666 
L 3047 1625 
L 3713 1625 
L 3713 1100 
L 3047 1100 
L 3047 0 
L 2419 0 
L 2419 1100 
L 313 1100 
L 313 1709 
L 2253 4666 
z
" transform="scale(0.015625)"/>
       </defs>
       <use xlink:href="#DejaVuSans-34"/>
       <use xlink:href="#DejaVuSans-30" transform="translate(63.623047 0)"/>
      </g>
     </g>
    </g>
    <g id="xtick_6">
     <g id="line2d_6">
      <path d="M 988.11 525.06 
L 988.11 30.48 
" clip-path="url(#p10c0df3e1d)" style="fill: none; stroke-dasharray: 3.7,1.6; stroke-dashoffset: 0; stroke: #cccccc; stroke-opacity: 0.5"/>
     </g>
     <g id="text_6">
      <!-- 50 -->
      <g style="fill: #262626" transform="translate(981.11125 542.918281) scale(0.11 -0.11)">
       <defs>
        <path id="DejaVuSans-35" d="M 691 4666 
L 3169 4666 
L 3169 4134 
L 1269 4134 
L 1269 2991 
Q 1406 3038 1543 3061 
Q 1681 3084 1819 3084 
Q 2600 3084 3056 2656 
Q 3513 2228 3513 1497 
Q 3513 744 3044 326 
Q 2575 -91 1722 -91 
Q 1428 -91 1123 -41 
Q 819 9 494 109 
L 494 744 
Q 775 591 1075 516 
Q 1375 441 1709 441 
Q 2250 441 2565 725 
Q 2881 1009 2881 1497 
Q 2881 1984 2565 2268 
Q 2250 2553 1709 2553 
Q 1456 2553 1204 2497 
Q 953 2441 691 2322 
L 691 4666 
z
" transform="scale(0.015625)"/>
       </defs>
       <use xlink:href="#DejaVuSans-35"/>
       <use xlink:href="#DejaVuSans-30" transform="translate(63.623047 0)"/>
      </g>
     </g>
    </g>
    <g id="text_7">
     <!-- Epoch -->
     <g style="fill: #262626" transform="translate(508.349687 559.84375) scale(0.14 -0.14)">
      <defs>
       <path id="DejaVuSans-45" d="M 628 4666 
L 3578 4666 
L 3578 4134 
L 1259 4134 
L 1259 2753 
L 3481 2753 
L 3481 2222 
L 1259 2222 
L 1259 531 
L 3634 531 
L 3634 0 
L 628 0 
L 628 4666 
z
" transform="scale(0.015625)"/>
       <path id="DejaVuSans-70" d="M 1159 525 
L 1159 -1331 
L 581 -1331 
L 581 3500 
L 1159 3500 
L 1159 2969 
Q 1341 3281 1617 3432 
Q 1894 3584 2278 3584 
Q 2916 3584 3314 3078 
Q 3713 2572 3713 1747 
Q 3713 922 3314 415 
Q 2916 -91 2278 -91 
Q 1894 -91 1617 61 
Q 1341 213 1159 525 
z
M 3116 1747 
Q 3116 2381 2855 2742 
Q 2594 3103 2138 3103 
Q 1681 3103 1420 2742 
Q 1159 2381 1159 1747 
Q 1159 1113 1420 752 
Q 1681 391 2138 391 
Q 2594 391 2855 752 
Q 3116 1113 3116 1747 
z
" transform="scale(0.015625)"/>
       <path id="DejaVuSans-6f" d="M 1959 3097 
Q 1497 3097 1228 2736 
Q 959 2375 959 1747 
Q 959 1119 1226 758 
Q 1494 397 1959 397 
Q 2419 397 2687 759 
Q 2956 1122 2956 1747 
Q 2956 2369 2687 2733 
Q 2419 3097 1959 3097 
z
M 1959 3584 
Q 2709 3584 3137 3096 
Q 3566 2609 3566 1747 
Q 3566 888 3137 398 
Q 2709 -91 1959 -91 
Q 1206 -91 779 398 
Q 353 888 353 1747 
Q 353 2609 779 3096 
Q 1206 3584 1959 3584 
z
" transform="scale(0.015625)"/>
       <path id="DejaVuSans-63" d="M 3122 3366 
L 3122 2828 
Q 2878 2963 2633 3030 
Q 2388 3097 2138 3097 
Q 1578 3097 1268 2742 
Q 959 2388 959 1747 
Q 959 1106 1268 751 
Q 1578 397 2138 397 
Q 2388 397 2633 464 
Q 2878 531 3122 666 
L 3122 134 
Q 2881 22 2623 -34 
Q 2366 -91 2075 -91 
Q 1284 -91 818 406 
Q 353 903 353 1747 
Q 353 2603 823 3093 
Q 1294 3584 2113 3584 
Q 2378 3584 2631 3529 
Q 2884 3475 3122 3366 
z
" transform="scale(0.015625)"/>
       <path id="DejaVuSans-68" d="M 3513 2113 
L 3513 0 
L 2938 0 
L 2938 2094 
Q 2938 2591 2744 2837 
Q 2550 3084 2163 3084 
Q 1697 3084 1428 2787 
Q 1159 2491 1159 1978 
L 1159 0 
L 581 0 
L 581 4863 
L 1159 4863 
L 1159 2956 
Q 1366 3272 1645 3428 
Q 1925 3584 2291 3584 
Q 2894 3584 3203 3211 
Q 3513 2838 3513 2113 
z
" transform="scale(0.015625)"/>
      </defs>
      <use xlink:href="#DejaVuSans-45"/>
      <use xlink:href="#DejaVuSans-70" transform="translate(63.183594 0)"/>
      <use xlink:href="#DejaVuSans-6f" transform="translate(126.660156 0)"/>
      <use xlink:href="#DejaVuSans-63" transform="translate(187.841797 0)"/>
      <use xlink:href="#DejaVuSans-68" transform="translate(242.822266 0)"/>
     </g>
    </g>
   </g>
   <g id="matplotlib.axis_2">
    <g id="ytick_1">
     <g id="line2d_7">
      <path d="M 71.46 464.854728 
L 988.11 464.854728 
" clip-path="url(#p10c0df3e1d)" style="fill: none; stroke-dasharray: 3.7,1.6; stroke-dashoffset: 0; stroke: #cccccc; stroke-opacity: 0.5"/>
     </g>
     <g id="text_8">
      <!-- 0.175 -->
      <g style="fill: #262626" transform="translate(30.469063 469.033868) scale(0.11 -0.11)">
       <defs>
        <path id="DejaVuSans-2e" d="M 684 794 
L 1344 794 
L 1344 0 
L 684 0 
L 684 794 
z
" transform="scale(0.015625)"/>
        <path id="DejaVuSans-37" d="M 525 4666 
L 3525 4666 
L 3525 4397 
L 1831 0 
L 1172 0 
L 2766 4134 
L 525 4134 
L 525 4666 
z
" transform="scale(0.015625)"/>
       </defs>
       <use xlink:href="#DejaVuSans-30"/>
       <use xlink:href="#DejaVuSans-2e" transform="translate(63.623047 0)"/>
       <use xlink:href="#DejaVuSans-31" transform="translate(95.410156 0)"/>
       <use xlink:href="#DejaVuSans-37" transform="translate(159.033203 0)"/>
       <use xlink:href="#DejaVuSans-35" transform="translate(222.65625 0)"/>
      </g>
     </g>
    </g>
    <g id="ytick_2">
     <g id="line2d_8">
      <path d="M 71.46 402.28554 
L 988.11 402.28554 
" clip-path="url(#p10c0df3e1d)" style="fill: none; stroke-dasharray: 3.7,1.6; stroke-dashoffset: 0; stroke: #cccccc; stroke-opacity: 0.5"/>
     </g>
     <g id="text_9">
      <!-- 0.200 -->
      <g style="fill: #262626" transform="translate(30.469063 406.464681) scale(0.11 -0.11)">
       <use xlink:href="#DejaVuSans-30"/>
       <use xlink:href="#DejaVuSans-2e" transform="translate(63.623047 0)"/>
       <use xlink:href="#DejaVuSans-32" transform="translate(95.410156 0)"/>
       <use xlink:href="#DejaVuSans-30" transform="translate(159.033203 0)"/>
       <use xlink:href="#DejaVuSans-30" transform="translate(222.65625 0)"/>
      </g>
     </g>
    </g>
    <g id="ytick_3">
     <g id="line2d_9">
      <path d="M 71.46 339.716353 
L 988.11 339.716353 
" clip-path="url(#p10c0df3e1d)" style="fill: none; stroke-dasharray: 3.7,1.6; stroke-dashoffset: 0; stroke: #cccccc; stroke-opacity: 0.5"/>
     </g>
     <g id="text_10">
      <!-- 0.225 -->
      <g style="fill: #262626" transform="translate(30.469063 343.895493) scale(0.11 -0.11)">
       <use xlink:href="#DejaVuSans-30"/>
       <use xlink:href="#DejaVuSans-2e" transform="translate(63.623047 0)"/>
       <use xlink:href="#DejaVuSans-32" transform="translate(95.410156 0)"/>
       <use xlink:href="#DejaVuSans-32" transform="translate(159.033203 0)"/>
       <use xlink:href="#DejaVuSans-35" transform="translate(222.65625 0)"/>
      </g>
     </g>
    </g>
    <g id="ytick_4">
     <g id="line2d_10">
      <path d="M 71.46 277.147165 
L 988.11 277.147165 
" clip-path="url(#p10c0df3e1d)" style="fill: none; stroke-dasharray: 3.7,1.6; stroke-dashoffset: 0; stroke: #cccccc; stroke-opacity: 0.5"/>
     </g>
     <g id="text_11">
      <!-- 0.250 -->
      <g style="fill: #262626" transform="translate(30.469063 281.326306) scale(0.11 -0.11)">
       <use xlink:href="#DejaVuSans-30"/>
       <use xlink:href="#DejaVuSans-2e" transform="translate(63.623047 0)"/>
       <use xlink:href="#DejaVuSans-32" transform="translate(95.410156 0)"/>
       <use xlink:href="#DejaVuSans-35" transform="translate(159.033203 0)"/>
       <use xlink:href="#DejaVuSans-30" transform="translate(222.65625 0)"/>
      </g>
     </g>
    </g>
    <g id="ytick_5">
     <g id="line2d_11">
      <path d="M 71.46 214.577978 
L 988.11 214.577978 
" clip-path="url(#p10c0df3e1d)" style="fill: none; stroke-dasharray: 3.7,1.6; stroke-dashoffset: 0; stroke: #cccccc; stroke-opacity: 0.5"/>
     </g>
     <g id="text_12">
      <!-- 0.275 -->
      <g style="fill: #262626" transform="translate(30.469063 218.757118) scale(0.11 -0.11)">
       <use xlink:href="#DejaVuSans-30"/>
       <use xlink:href="#DejaVuSans-2e" transform="translate(63.623047 0)"/>
       <use xlink:href="#DejaVuSans-32" transform="translate(95.410156 0)"/>
       <use xlink:href="#DejaVuSans-37" transform="translate(159.033203 0)"/>
       <use xlink:href="#DejaVuSans-35" transform="translate(222.65625 0)"/>
      </g>
     </g>
    </g>
    <g id="ytick_6">
     <g id="line2d_12">
      <path d="M 71.46 152.00879 
L 988.11 152.00879 
" clip-path="url(#p10c0df3e1d)" style="fill: none; stroke-dasharray: 3.7,1.6; stroke-dashoffset: 0; stroke: #cccccc; stroke-opacity: 0.5"/>
     </g>
     <g id="text_13">
      <!-- 0.300 -->
      <g style="fill: #262626" transform="translate(30.469063 156.187931) scale(0.11 -0.11)">
       <use xlink:href="#DejaVuSans-30"/>
       <use xlink:href="#DejaVuSans-2e" transform="translate(63.623047 0)"/>
       <use xlink:href="#DejaVuSans-33" transform="translate(95.410156 0)"/>
       <use xlink:href="#DejaVuSans-30" transform="translate(159.033203 0)"/>
       <use xlink:href="#DejaVuSans-30" transform="translate(222.65625 0)"/>
      </g>
     </g>
    </g>
    <g id="ytick_7">
     <g id="line2d_13">
      <path d="M 71.46 89.439603 
L 988.11 89.439603 
" clip-path="url(#p10c0df3e1d)" style="fill: none; stroke-dasharray: 3.7,1.6; stroke-dashoffset: 0; stroke: #cccccc; stroke-opacity: 0.5"/>
     </g>
     <g id="text_14">
      <!-- 0.325 -->
      <g style="fill: #262626" transform="translate(30.469063 93.618743) scale(0.11 -0.11)">
       <use xlink:href="#DejaVuSans-30"/>
       <use xlink:href="#DejaVuSans-2e" transform="translate(63.623047 0)"/>
       <use xlink:href="#DejaVuSans-33" transform="translate(95.410156 0)"/>
       <use xlink:href="#DejaVuSans-32" transform="translate(159.033203 0)"/>
       <use xlink:href="#DejaVuSans-35" transform="translate(222.65625 0)"/>
      </g>
     </g>
    </g>
    <g id="text_15">
     <!-- Accuracy_mean -->
     <g style="fill: #262626" transform="translate(23.168125 333.080938) rotate(-90) scale(0.14 -0.14)">
      <defs>
       <path id="DejaVuSans-41" d="M 2188 4044 
L 1331 1722 
L 3047 1722 
L 2188 4044 
z
M 1831 4666 
L 2547 4666 
L 4325 0 
L 3669 0 
L 3244 1197 
L 1141 1197 
L 716 0 
L 50 0 
L 1831 4666 
z
" transform="scale(0.015625)"/>
       <path id="DejaVuSans-75" d="M 544 1381 
L 544 3500 
L 1119 3500 
L 1119 1403 
Q 1119 906 1312 657 
Q 1506 409 1894 409 
Q 2359 409 2629 706 
Q 2900 1003 2900 1516 
L 2900 3500 
L 3475 3500 
L 3475 0 
L 2900 0 
L 2900 538 
Q 2691 219 2414 64 
Q 2138 -91 1772 -91 
Q 1169 -91 856 284 
Q 544 659 544 1381 
z
M 1991 3584 
L 1991 3584 
z
" transform="scale(0.015625)"/>
       <path id="DejaVuSans-72" d="M 2631 2963 
Q 2534 3019 2420 3045 
Q 2306 3072 2169 3072 
Q 1681 3072 1420 2755 
Q 1159 2438 1159 1844 
L 1159 0 
L 581 0 
L 581 3500 
L 1159 3500 
L 1159 2956 
Q 1341 3275 1631 3429 
Q 1922 3584 2338 3584 
Q 2397 3584 2469 3576 
Q 2541 3569 2628 3553 
L 2631 2963 
z
" transform="scale(0.015625)"/>
       <path id="DejaVuSans-61" d="M 2194 1759 
Q 1497 1759 1228 1600 
Q 959 1441 959 1056 
Q 959 750 1161 570 
Q 1363 391 1709 391 
Q 2188 391 2477 730 
Q 2766 1069 2766 1631 
L 2766 1759 
L 2194 1759 
z
M 3341 1997 
L 3341 0 
L 2766 0 
L 2766 531 
Q 2569 213 2275 61 
Q 1981 -91 1556 -91 
Q 1019 -91 701 211 
Q 384 513 384 1019 
Q 384 1609 779 1909 
Q 1175 2209 1959 2209 
L 2766 2209 
L 2766 2266 
Q 2766 2663 2505 2880 
Q 2244 3097 1772 3097 
Q 1472 3097 1187 3025 
Q 903 2953 641 2809 
L 641 3341 
Q 956 3463 1253 3523 
Q 1550 3584 1831 3584 
Q 2591 3584 2966 3190 
Q 3341 2797 3341 1997 
z
" transform="scale(0.015625)"/>
       <path id="DejaVuSans-79" d="M 2059 -325 
Q 1816 -950 1584 -1140 
Q 1353 -1331 966 -1331 
L 506 -1331 
L 506 -850 
L 844 -850 
Q 1081 -850 1212 -737 
Q 1344 -625 1503 -206 
L 1606 56 
L 191 3500 
L 800 3500 
L 1894 763 
L 2988 3500 
L 3597 3500 
L 2059 -325 
z
" transform="scale(0.015625)"/>
       <path id="DejaVuSans-5f" d="M 3263 -1063 
L 3263 -1509 
L -63 -1509 
L -63 -1063 
L 3263 -1063 
z
" transform="scale(0.015625)"/>
       <path id="DejaVuSans-6d" d="M 3328 2828 
Q 3544 3216 3844 3400 
Q 4144 3584 4550 3584 
Q 5097 3584 5394 3201 
Q 5691 2819 5691 2113 
L 5691 0 
L 5113 0 
L 5113 2094 
Q 5113 2597 4934 2840 
Q 4756 3084 4391 3084 
Q 3944 3084 3684 2787 
Q 3425 2491 3425 1978 
L 3425 0 
L 2847 0 
L 2847 2094 
Q 2847 2600 2669 2842 
Q 2491 3084 2119 3084 
Q 1678 3084 1418 2786 
Q 1159 2488 1159 1978 
L 1159 0 
L 581 0 
L 581 3500 
L 1159 3500 
L 1159 2956 
Q 1356 3278 1631 3431 
Q 1906 3584 2284 3584 
Q 2666 3584 2933 3390 
Q 3200 3197 3328 2828 
z
" transform="scale(0.015625)"/>
       <path id="DejaVuSans-65" d="M 3597 1894 
L 3597 1613 
L 953 1613 
Q 991 1019 1311 708 
Q 1631 397 2203 397 
Q 2534 397 2845 478 
Q 3156 559 3463 722 
L 3463 178 
Q 3153 47 2828 -22 
Q 2503 -91 2169 -91 
Q 1331 -91 842 396 
Q 353 884 353 1716 
Q 353 2575 817 3079 
Q 1281 3584 2069 3584 
Q 2775 3584 3186 3129 
Q 3597 2675 3597 1894 
z
M 3022 2063 
Q 3016 2534 2758 2815 
Q 2500 3097 2075 3097 
Q 1594 3097 1305 2825 
Q 1016 2553 972 2059 
L 3022 2063 
z
" transform="scale(0.015625)"/>
       <path id="DejaVuSans-6e" d="M 3513 2113 
L 3513 0 
L 2938 0 
L 2938 2094 
Q 2938 2591 2744 2837 
Q 2550 3084 2163 3084 
Q 1697 3084 1428 2787 
Q 1159 2491 1159 1978 
L 1159 0 
L 581 0 
L 581 3500 
L 1159 3500 
L 1159 2956 
Q 1366 3272 1645 3428 
Q 1925 3584 2291 3584 
Q 2894 3584 3203 3211 
Q 3513 2838 3513 2113 
z
" transform="scale(0.015625)"/>
      </defs>
      <use xlink:href="#DejaVuSans-41"/>
      <use xlink:href="#DejaVuSans-63" transform="translate(66.658203 0)"/>
      <use xlink:href="#DejaVuSans-63" transform="translate(121.638672 0)"/>
      <use xlink:href="#DejaVuSans-75" transform="translate(176.619141 0)"/>
      <use xlink:href="#DejaVuSans-72" transform="translate(239.998047 0)"/>
      <use xlink:href="#DejaVuSans-61" transform="translate(281.111328 0)"/>
      <use xlink:href="#DejaVuSans-63" transform="translate(342.390625 0)"/>
      <use xlink:href="#DejaVuSans-79" transform="translate(397.371094 0)"/>
      <use xlink:href="#DejaVuSans-5f" transform="translate(456.550781 0)"/>
      <use xlink:href="#DejaVuSans-6d" transform="translate(506.550781 0)"/>
      <use xlink:href="#DejaVuSans-65" transform="translate(603.962891 0)"/>
      <use xlink:href="#DejaVuSans-61" transform="translate(665.486328 0)"/>
      <use xlink:href="#DejaVuSans-6e" transform="translate(726.765625 0)"/>
     </g>
    </g>
   </g>
   <g id="patch_3">
    <path d="M 74.182723 502.579091 
L 86.888762 502.579091 
L 86.888762 502.579091 
L 74.182723 502.579091 
L 74.182723 502.579091 
z
" clip-path="url(#p10c0df3e1d)" style="fill: #72b6a1; stroke: #595959; stroke-linejoin: miter"/>
   </g>
   <g id="line2d_14">
    <path d="M 80.535743 502.579091 
L 80.535743 502.579091 
" clip-path="url(#p10c0df3e1d)" style="fill: none; stroke: #595959"/>
   </g>
   <g id="line2d_15">
    <path d="M 80.535743 502.579091 
L 80.535743 502.579091 
" clip-path="url(#p10c0df3e1d)" style="fill: none; stroke: #595959"/>
   </g>
   <g id="line2d_16">
    <path d="M 77.359233 502.579091 
L 83.712252 502.579091 
" clip-path="url(#p10c0df3e1d)" style="fill: none; stroke: #595959; stroke-linecap: round"/>
   </g>
   <g id="line2d_17">
    <path d="M 77.359233 502.579091 
L 83.712252 502.579091 
" clip-path="url(#p10c0df3e1d)" style="fill: none; stroke: #595959; stroke-linecap: round"/>
   </g>
   <g id="line2d_18"/>
   <g id="patch_4">
    <path d="M 92.334208 415.930766 
L 105.040248 415.930766 
L 105.040248 415.930766 
L 92.334208 415.930766 
L 92.334208 415.930766 
z
" clip-path="url(#p10c0df3e1d)" style="fill: #72b6a1; stroke: #595959; stroke-linejoin: miter"/>
   </g>
   <g id="line2d_19">
    <path d="M 98.687228 415.930766 
L 98.687228 415.930766 
" clip-path="url(#p10c0df3e1d)" style="fill: none; stroke: #595959"/>
   </g>
   <g id="line2d_20">
    <path d="M 98.687228 415.930766 
L 98.687228 415.930766 
" clip-path="url(#p10c0df3e1d)" style="fill: none; stroke: #595959"/>
   </g>
   <g id="line2d_21">
    <path d="M 95.510718 415.930766 
L 101.863738 415.930766 
" clip-path="url(#p10c0df3e1d)" style="fill: none; stroke: #595959; stroke-linecap: round"/>
   </g>
   <g id="line2d_22">
    <path d="M 95.510718 415.930766 
L 101.863738 415.930766 
" clip-path="url(#p10c0df3e1d)" style="fill: none; stroke: #595959; stroke-linecap: round"/>
   </g>
   <g id="line2d_23"/>
   <g id="patch_5">
    <path d="M 110.485693 357.030018 
L 123.191733 357.030018 
L 123.191733 357.030018 
L 110.485693 357.030018 
L 110.485693 357.030018 
z
" clip-path="url(#p10c0df3e1d)" style="fill: #72b6a1; stroke: #595959; stroke-linejoin: miter"/>
   </g>
   <g id="line2d_24">
    <path d="M 116.838713 357.030018 
L 116.838713 357.030018 
" clip-path="url(#p10c0df3e1d)" style="fill: none; stroke: #595959"/>
   </g>
   <g id="line2d_25">
    <path d="M 116.838713 357.030018 
L 116.838713 357.030018 
" clip-path="url(#p10c0df3e1d)" style="fill: none; stroke: #595959"/>
   </g>
   <g id="line2d_26">
    <path d="M 113.662203 357.030018 
L 120.015223 357.030018 
" clip-path="url(#p10c0df3e1d)" style="fill: none; stroke: #595959; stroke-linecap: round"/>
   </g>
   <g id="line2d_27">
    <path d="M 113.662203 357.030018 
L 120.015223 357.030018 
" clip-path="url(#p10c0df3e1d)" style="fill: none; stroke: #595959; stroke-linecap: round"/>
   </g>
   <g id="line2d_28"/>
   <g id="patch_6">
    <path d="M 128.637178 335.599098 
L 141.343218 335.599098 
L 141.343218 335.599098 
L 128.637178 335.599098 
L 128.637178 335.599098 
z
" clip-path="url(#p10c0df3e1d)" style="fill: #72b6a1; stroke: #595959; stroke-linejoin: miter"/>
   </g>
   <g id="line2d_29">
    <path d="M 134.990198 335.599098 
L 134.990198 335.599098 
" clip-path="url(#p10c0df3e1d)" style="fill: none; stroke: #595959"/>
   </g>
   <g id="line2d_30">
    <path d="M 134.990198 335.599098 
L 134.990198 335.599098 
" clip-path="url(#p10c0df3e1d)" style="fill: none; stroke: #595959"/>
   </g>
   <g id="line2d_31">
    <path d="M 131.813688 335.599098 
L 138.166708 335.599098 
" clip-path="url(#p10c0df3e1d)" style="fill: none; stroke: #595959; stroke-linecap: round"/>
   </g>
   <g id="line2d_32">
    <path d="M 131.813688 335.599098 
L 138.166708 335.599098 
" clip-path="url(#p10c0df3e1d)" style="fill: none; stroke: #595959; stroke-linecap: round"/>
   </g>
   <g id="line2d_33"/>
   <g id="patch_7">
    <path d="M 146.788663 305.154474 
L 159.494703 305.154474 
L 159.494703 305.154474 
L 146.788663 305.154474 
L 146.788663 305.154474 
z
" clip-path="url(#p10c0df3e1d)" style="fill: #72b6a1; stroke: #595959; stroke-linejoin: miter"/>
   </g>
   <g id="line2d_34">
    <path d="M 153.141683 305.154474 
L 153.141683 305.154474 
" clip-path="url(#p10c0df3e1d)" style="fill: none; stroke: #595959"/>
   </g>
   <g id="line2d_35">
    <path d="M 153.141683 305.154474 
L 153.141683 305.154474 
" clip-path="url(#p10c0df3e1d)" style="fill: none; stroke: #595959"/>
   </g>
   <g id="line2d_36">
    <path d="M 149.965173 305.154474 
L 156.318193 305.154474 
" clip-path="url(#p10c0df3e1d)" style="fill: none; stroke: #595959; stroke-linecap: round"/>
   </g>
   <g id="line2d_37">
    <path d="M 149.965173 305.154474 
L 156.318193 305.154474 
" clip-path="url(#p10c0df3e1d)" style="fill: none; stroke: #595959; stroke-linecap: round"/>
   </g>
   <g id="line2d_38"/>
   <g id="patch_8">
    <path d="M 164.940149 211.458089 
L 177.646188 211.458089 
L 177.646188 211.458089 
L 164.940149 211.458089 
L 164.940149 211.458089 
z
" clip-path="url(#p10c0df3e1d)" style="fill: #72b6a1; stroke: #595959; stroke-linejoin: miter"/>
   </g>
   <g id="line2d_39">
    <path d="M 171.293168 211.458089 
L 171.293168 211.458089 
" clip-path="url(#p10c0df3e1d)" style="fill: none; stroke: #595959"/>
   </g>
   <g id="line2d_40">
    <path d="M 171.293168 211.458089 
L 171.293168 211.458089 
" clip-path="url(#p10c0df3e1d)" style="fill: none; stroke: #595959"/>
   </g>
   <g id="line2d_41">
    <path d="M 168.116658 211.458089 
L 174.469678 211.458089 
" clip-path="url(#p10c0df3e1d)" style="fill: none; stroke: #595959; stroke-linecap: round"/>
   </g>
   <g id="line2d_42">
    <path d="M 168.116658 211.458089 
L 174.469678 211.458089 
" clip-path="url(#p10c0df3e1d)" style="fill: none; stroke: #595959; stroke-linecap: round"/>
   </g>
   <g id="line2d_43"/>
   <g id="patch_9">
    <path d="M 183.091634 142.546272 
L 195.797673 142.546272 
L 195.797673 142.546272 
L 183.091634 142.546272 
L 183.091634 142.546272 
z
" clip-path="url(#p10c0df3e1d)" style="fill: #72b6a1; stroke: #595959; stroke-linejoin: miter"/>
   </g>
   <g id="line2d_44">
    <path d="M 189.444653 142.546272 
L 189.444653 142.546272 
" clip-path="url(#p10c0df3e1d)" style="fill: none; stroke: #595959"/>
   </g>
   <g id="line2d_45">
    <path d="M 189.444653 142.546272 
L 189.444653 142.546272 
" clip-path="url(#p10c0df3e1d)" style="fill: none; stroke: #595959"/>
   </g>
   <g id="line2d_46">
    <path d="M 186.268144 142.546272 
L 192.621163 142.546272 
" clip-path="url(#p10c0df3e1d)" style="fill: none; stroke: #595959; stroke-linecap: round"/>
   </g>
   <g id="line2d_47">
    <path d="M 186.268144 142.546272 
L 192.621163 142.546272 
" clip-path="url(#p10c0df3e1d)" style="fill: none; stroke: #595959; stroke-linecap: round"/>
   </g>
   <g id="line2d_48"/>
   <g id="patch_10">
    <path d="M 201.243119 109.358889 
L 213.949158 109.358889 
L 213.949158 109.358889 
L 201.243119 109.358889 
L 201.243119 109.358889 
z
" clip-path="url(#p10c0df3e1d)" style="fill: #72b6a1; stroke: #595959; stroke-linejoin: miter"/>
   </g>
   <g id="line2d_49">
    <path d="M 207.596139 109.358889 
L 207.596139 109.358889 
" clip-path="url(#p10c0df3e1d)" style="fill: none; stroke: #595959"/>
   </g>
   <g id="line2d_50">
    <path d="M 207.596139 109.358889 
L 207.596139 109.358889 
" clip-path="url(#p10c0df3e1d)" style="fill: none; stroke: #595959"/>
   </g>
   <g id="line2d_51">
    <path d="M 204.419629 109.358889 
L 210.772649 109.358889 
" clip-path="url(#p10c0df3e1d)" style="fill: none; stroke: #595959; stroke-linecap: round"/>
   </g>
   <g id="line2d_52">
    <path d="M 204.419629 109.358889 
L 210.772649 109.358889 
" clip-path="url(#p10c0df3e1d)" style="fill: none; stroke: #595959; stroke-linecap: round"/>
   </g>
   <g id="line2d_53"/>
   <g id="patch_11">
    <path d="M 219.394604 96.399353 
L 232.100644 96.399353 
L 232.100644 96.399353 
L 219.394604 96.399353 
L 219.394604 96.399353 
z
" clip-path="url(#p10c0df3e1d)" style="fill: #72b6a1; stroke: #595959; stroke-linejoin: miter"/>
   </g>
   <g id="line2d_54">
    <path d="M 225.747624 96.399353 
L 225.747624 96.399353 
" clip-path="url(#p10c0df3e1d)" style="fill: none; stroke: #595959"/>
   </g>
   <g id="line2d_55">
    <path d="M 225.747624 96.399353 
L 225.747624 96.399353 
" clip-path="url(#p10c0df3e1d)" style="fill: none; stroke: #595959"/>
   </g>
   <g id="line2d_56">
    <path d="M 222.571114 96.399353 
L 228.924134 96.399353 
" clip-path="url(#p10c0df3e1d)" style="fill: none; stroke: #595959; stroke-linecap: round"/>
   </g>
   <g id="line2d_57">
    <path d="M 222.571114 96.399353 
L 228.924134 96.399353 
" clip-path="url(#p10c0df3e1d)" style="fill: none; stroke: #595959; stroke-linecap: round"/>
   </g>
   <g id="line2d_58"/>
   <g id="patch_12">
    <path d="M 237.546089 97.153612 
L 250.252129 97.153612 
L 250.252129 97.153612 
L 237.546089 97.153612 
L 237.546089 97.153612 
z
" clip-path="url(#p10c0df3e1d)" style="fill: #72b6a1; stroke: #595959; stroke-linejoin: miter"/>
   </g>
   <g id="line2d_59">
    <path d="M 243.899109 97.153612 
L 243.899109 97.153612 
" clip-path="url(#p10c0df3e1d)" style="fill: none; stroke: #595959"/>
   </g>
   <g id="line2d_60">
    <path d="M 243.899109 97.153612 
L 243.899109 97.153612 
" clip-path="url(#p10c0df3e1d)" style="fill: none; stroke: #595959"/>
   </g>
   <g id="line2d_61">
    <path d="M 240.722599 97.153612 
L 247.075619 97.153612 
" clip-path="url(#p10c0df3e1d)" style="fill: none; stroke: #595959; stroke-linecap: round"/>
   </g>
   <g id="line2d_62">
    <path d="M 240.722599 97.153612 
L 247.075619 97.153612 
" clip-path="url(#p10c0df3e1d)" style="fill: none; stroke: #595959; stroke-linecap: round"/>
   </g>
   <g id="line2d_63"/>
   <g id="patch_13">
    <path d="M 255.697574 52.960909 
L 268.403614 52.960909 
L 268.403614 52.960909 
L 255.697574 52.960909 
L 255.697574 52.960909 
z
" clip-path="url(#p10c0df3e1d)" style="fill: #72b6a1; stroke: #595959; stroke-linejoin: miter"/>
   </g>
   <g id="line2d_64">
    <path d="M 262.050594 52.960909 
L 262.050594 52.960909 
" clip-path="url(#p10c0df3e1d)" style="fill: none; stroke: #595959"/>
   </g>
   <g id="line2d_65">
    <path d="M 262.050594 52.960909 
L 262.050594 52.960909 
" clip-path="url(#p10c0df3e1d)" style="fill: none; stroke: #595959"/>
   </g>
   <g id="line2d_66">
    <path d="M 258.874084 52.960909 
L 265.227104 52.960909 
" clip-path="url(#p10c0df3e1d)" style="fill: none; stroke: #595959; stroke-linecap: round"/>
   </g>
   <g id="line2d_67">
    <path d="M 258.874084 52.960909 
L 265.227104 52.960909 
" clip-path="url(#p10c0df3e1d)" style="fill: none; stroke: #595959; stroke-linecap: round"/>
   </g>
   <g id="line2d_68"/>
   <g id="patch_14">
    <path d="M 273.849059 80.594205 
L 286.555099 80.594205 
L 286.555099 80.594205 
L 273.849059 80.594205 
L 273.849059 80.594205 
z
" clip-path="url(#p10c0df3e1d)" style="fill: #72b6a1; stroke: #595959; stroke-linejoin: miter"/>
   </g>
   <g id="line2d_69">
    <path d="M 280.202079 80.594205 
L 280.202079 80.594205 
" clip-path="url(#p10c0df3e1d)" style="fill: none; stroke: #595959"/>
   </g>
   <g id="line2d_70">
    <path d="M 280.202079 80.594205 
L 280.202079 80.594205 
" clip-path="url(#p10c0df3e1d)" style="fill: none; stroke: #595959"/>
   </g>
   <g id="line2d_71">
    <path d="M 277.025569 80.594205 
L 283.378589 80.594205 
" clip-path="url(#p10c0df3e1d)" style="fill: none; stroke: #595959; stroke-linecap: round"/>
   </g>
   <g id="line2d_72">
    <path d="M 277.025569 80.594205 
L 283.378589 80.594205 
" clip-path="url(#p10c0df3e1d)" style="fill: none; stroke: #595959; stroke-linecap: round"/>
   </g>
   <g id="line2d_73"/>
   <g id="patch_15">
    <path d="M 292.000545 78.57142 
L 304.706584 78.57142 
L 304.706584 78.57142 
L 292.000545 78.57142 
L 292.000545 78.57142 
z
" clip-path="url(#p10c0df3e1d)" style="fill: #72b6a1; stroke: #595959; stroke-linejoin: miter"/>
   </g>
   <g id="line2d_74">
    <path d="M 298.353564 78.57142 
L 298.353564 78.57142 
" clip-path="url(#p10c0df3e1d)" style="fill: none; stroke: #595959"/>
   </g>
   <g id="line2d_75">
    <path d="M 298.353564 78.57142 
L 298.353564 78.57142 
" clip-path="url(#p10c0df3e1d)" style="fill: none; stroke: #595959"/>
   </g>
   <g id="line2d_76">
    <path d="M 295.177054 78.57142 
L 301.530074 78.57142 
" clip-path="url(#p10c0df3e1d)" style="fill: none; stroke: #595959; stroke-linecap: round"/>
   </g>
   <g id="line2d_77">
    <path d="M 295.177054 78.57142 
L 301.530074 78.57142 
" clip-path="url(#p10c0df3e1d)" style="fill: none; stroke: #595959; stroke-linecap: round"/>
   </g>
   <g id="line2d_78"/>
   <g id="patch_16">
    <path d="M 310.15203 78.811412 
L 322.858069 78.811412 
L 322.858069 78.811412 
L 310.15203 78.811412 
L 310.15203 78.811412 
z
" clip-path="url(#p10c0df3e1d)" style="fill: #72b6a1; stroke: #595959; stroke-linejoin: miter"/>
   </g>
   <g id="line2d_79">
    <path d="M 316.50505 78.811412 
L 316.50505 78.811412 
" clip-path="url(#p10c0df3e1d)" style="fill: none; stroke: #595959"/>
   </g>
   <g id="line2d_80">
    <path d="M 316.50505 78.811412 
L 316.50505 78.811412 
" clip-path="url(#p10c0df3e1d)" style="fill: none; stroke: #595959"/>
   </g>
   <g id="line2d_81">
    <path d="M 313.32854 78.811412 
L 319.681559 78.811412 
" clip-path="url(#p10c0df3e1d)" style="fill: none; stroke: #595959; stroke-linecap: round"/>
   </g>
   <g id="line2d_82">
    <path d="M 313.32854 78.811412 
L 319.681559 78.811412 
" clip-path="url(#p10c0df3e1d)" style="fill: none; stroke: #595959; stroke-linecap: round"/>
   </g>
   <g id="line2d_83"/>
   <g id="patch_17">
    <path d="M 328.303515 99.484957 
L 341.009554 99.484957 
L 341.009554 99.484957 
L 328.303515 99.484957 
L 328.303515 99.484957 
z
" clip-path="url(#p10c0df3e1d)" style="fill: #72b6a1; stroke: #595959; stroke-linejoin: miter"/>
   </g>
   <g id="line2d_84">
    <path d="M 334.656535 99.484957 
L 334.656535 99.484957 
" clip-path="url(#p10c0df3e1d)" style="fill: none; stroke: #595959"/>
   </g>
   <g id="line2d_85">
    <path d="M 334.656535 99.484957 
L 334.656535 99.484957 
" clip-path="url(#p10c0df3e1d)" style="fill: none; stroke: #595959"/>
   </g>
   <g id="line2d_86">
    <path d="M 331.480025 99.484957 
L 337.833045 99.484957 
" clip-path="url(#p10c0df3e1d)" style="fill: none; stroke: #595959; stroke-linecap: round"/>
   </g>
   <g id="line2d_87">
    <path d="M 331.480025 99.484957 
L 337.833045 99.484957 
" clip-path="url(#p10c0df3e1d)" style="fill: none; stroke: #595959; stroke-linecap: round"/>
   </g>
   <g id="line2d_88"/>
   <g id="patch_18">
    <path d="M 346.455 108.501777 
L 359.16104 108.501777 
L 359.16104 108.501777 
L 346.455 108.501777 
L 346.455 108.501777 
z
" clip-path="url(#p10c0df3e1d)" style="fill: #72b6a1; stroke: #595959; stroke-linejoin: miter"/>
   </g>
   <g id="line2d_89">
    <path d="M 352.80802 108.501777 
L 352.80802 108.501777 
" clip-path="url(#p10c0df3e1d)" style="fill: none; stroke: #595959"/>
   </g>
   <g id="line2d_90">
    <path d="M 352.80802 108.501777 
L 352.80802 108.501777 
" clip-path="url(#p10c0df3e1d)" style="fill: none; stroke: #595959"/>
   </g>
   <g id="line2d_91">
    <path d="M 349.63151 108.501777 
L 355.98453 108.501777 
" clip-path="url(#p10c0df3e1d)" style="fill: none; stroke: #595959; stroke-linecap: round"/>
   </g>
   <g id="line2d_92">
    <path d="M 349.63151 108.501777 
L 355.98453 108.501777 
" clip-path="url(#p10c0df3e1d)" style="fill: none; stroke: #595959; stroke-linecap: round"/>
   </g>
   <g id="line2d_93"/>
   <g id="patch_19">
    <path d="M 364.606485 70.61742 
L 377.312525 70.61742 
L 377.312525 70.61742 
L 364.606485 70.61742 
L 364.606485 70.61742 
z
" clip-path="url(#p10c0df3e1d)" style="fill: #72b6a1; stroke: #595959; stroke-linejoin: miter"/>
   </g>
   <g id="line2d_94">
    <path d="M 370.959505 70.61742 
L 370.959505 70.61742 
" clip-path="url(#p10c0df3e1d)" style="fill: none; stroke: #595959"/>
   </g>
   <g id="line2d_95">
    <path d="M 370.959505 70.61742 
L 370.959505 70.61742 
" clip-path="url(#p10c0df3e1d)" style="fill: none; stroke: #595959"/>
   </g>
   <g id="line2d_96">
    <path d="M 367.782995 70.61742 
L 374.136015 70.61742 
" clip-path="url(#p10c0df3e1d)" style="fill: none; stroke: #595959; stroke-linecap: round"/>
   </g>
   <g id="line2d_97">
    <path d="M 367.782995 70.61742 
L 374.136015 70.61742 
" clip-path="url(#p10c0df3e1d)" style="fill: none; stroke: #595959; stroke-linecap: round"/>
   </g>
   <g id="line2d_98"/>
   <g id="patch_20">
    <path d="M 382.75797 78.022869 
L 395.46401 78.022869 
L 395.46401 78.022869 
L 382.75797 78.022869 
L 382.75797 78.022869 
z
" clip-path="url(#p10c0df3e1d)" style="fill: #72b6a1; stroke: #595959; stroke-linejoin: miter"/>
   </g>
   <g id="line2d_99">
    <path d="M 389.11099 78.022869 
L 389.11099 78.022869 
" clip-path="url(#p10c0df3e1d)" style="fill: none; stroke: #595959"/>
   </g>
   <g id="line2d_100">
    <path d="M 389.11099 78.022869 
L 389.11099 78.022869 
" clip-path="url(#p10c0df3e1d)" style="fill: none; stroke: #595959"/>
   </g>
   <g id="line2d_101">
    <path d="M 385.93448 78.022869 
L 392.2875 78.022869 
" clip-path="url(#p10c0df3e1d)" style="fill: none; stroke: #595959; stroke-linecap: round"/>
   </g>
   <g id="line2d_102">
    <path d="M 385.93448 78.022869 
L 392.2875 78.022869 
" clip-path="url(#p10c0df3e1d)" style="fill: none; stroke: #595959; stroke-linecap: round"/>
   </g>
   <g id="line2d_103"/>
   <g id="patch_21">
    <path d="M 400.909455 155.642946 
L 413.615495 155.642946 
L 413.615495 155.642946 
L 400.909455 155.642946 
L 400.909455 155.642946 
z
" clip-path="url(#p10c0df3e1d)" style="fill: #72b6a1; stroke: #595959; stroke-linejoin: miter"/>
   </g>
   <g id="line2d_104">
    <path d="M 407.262475 155.642946 
L 407.262475 155.642946 
" clip-path="url(#p10c0df3e1d)" style="fill: none; stroke: #595959"/>
   </g>
   <g id="line2d_105">
    <path d="M 407.262475 155.642946 
L 407.262475 155.642946 
" clip-path="url(#p10c0df3e1d)" style="fill: none; stroke: #595959"/>
   </g>
   <g id="line2d_106">
    <path d="M 404.085965 155.642946 
L 410.438985 155.642946 
" clip-path="url(#p10c0df3e1d)" style="fill: none; stroke: #595959; stroke-linecap: round"/>
   </g>
   <g id="line2d_107">
    <path d="M 404.085965 155.642946 
L 410.438985 155.642946 
" clip-path="url(#p10c0df3e1d)" style="fill: none; stroke: #595959; stroke-linecap: round"/>
   </g>
   <g id="line2d_108"/>
   <g id="patch_22">
    <path d="M 419.060941 98.867836 
L 431.76698 98.867836 
L 431.76698 98.867836 
L 419.060941 98.867836 
L 419.060941 98.867836 
z
" clip-path="url(#p10c0df3e1d)" style="fill: #72b6a1; stroke: #595959; stroke-linejoin: miter"/>
   </g>
   <g id="line2d_109">
    <path d="M 425.41396 98.867836 
L 425.41396 98.867836 
" clip-path="url(#p10c0df3e1d)" style="fill: none; stroke: #595959"/>
   </g>
   <g id="line2d_110">
    <path d="M 425.41396 98.867836 
L 425.41396 98.867836 
" clip-path="url(#p10c0df3e1d)" style="fill: none; stroke: #595959"/>
   </g>
   <g id="line2d_111">
    <path d="M 422.23745 98.867836 
L 428.59047 98.867836 
" clip-path="url(#p10c0df3e1d)" style="fill: none; stroke: #595959; stroke-linecap: round"/>
   </g>
   <g id="line2d_112">
    <path d="M 422.23745 98.867836 
L 428.59047 98.867836 
" clip-path="url(#p10c0df3e1d)" style="fill: none; stroke: #595959; stroke-linecap: round"/>
   </g>
   <g id="line2d_113"/>
   <g id="patch_23">
    <path d="M 437.212426 107.096113 
L 449.918465 107.096113 
L 449.918465 107.096113 
L 437.212426 107.096113 
L 437.212426 107.096113 
z
" clip-path="url(#p10c0df3e1d)" style="fill: #72b6a1; stroke: #595959; stroke-linejoin: miter"/>
   </g>
   <g id="line2d_114">
    <path d="M 443.565446 107.096113 
L 443.565446 107.096113 
" clip-path="url(#p10c0df3e1d)" style="fill: none; stroke: #595959"/>
   </g>
   <g id="line2d_115">
    <path d="M 443.565446 107.096113 
L 443.565446 107.096113 
" clip-path="url(#p10c0df3e1d)" style="fill: none; stroke: #595959"/>
   </g>
   <g id="line2d_116">
    <path d="M 440.388936 107.096113 
L 446.741955 107.096113 
" clip-path="url(#p10c0df3e1d)" style="fill: none; stroke: #595959; stroke-linecap: round"/>
   </g>
   <g id="line2d_117">
    <path d="M 440.388936 107.096113 
L 446.741955 107.096113 
" clip-path="url(#p10c0df3e1d)" style="fill: none; stroke: #595959; stroke-linecap: round"/>
   </g>
   <g id="line2d_118"/>
   <g id="patch_24">
    <path d="M 455.363911 77.302894 
L 468.06995 77.302894 
L 468.06995 77.302894 
L 455.363911 77.302894 
L 455.363911 77.302894 
z
" clip-path="url(#p10c0df3e1d)" style="fill: #72b6a1; stroke: #595959; stroke-linejoin: miter"/>
   </g>
   <g id="line2d_119">
    <path d="M 461.716931 77.302894 
L 461.716931 77.302894 
" clip-path="url(#p10c0df3e1d)" style="fill: none; stroke: #595959"/>
   </g>
   <g id="line2d_120">
    <path d="M 461.716931 77.302894 
L 461.716931 77.302894 
" clip-path="url(#p10c0df3e1d)" style="fill: none; stroke: #595959"/>
   </g>
   <g id="line2d_121">
    <path d="M 458.540421 77.302894 
L 464.893441 77.302894 
" clip-path="url(#p10c0df3e1d)" style="fill: none; stroke: #595959; stroke-linecap: round"/>
   </g>
   <g id="line2d_122">
    <path d="M 458.540421 77.302894 
L 464.893441 77.302894 
" clip-path="url(#p10c0df3e1d)" style="fill: none; stroke: #595959; stroke-linecap: round"/>
   </g>
   <g id="line2d_123"/>
   <g id="patch_25">
    <path d="M 473.515396 94.547991 
L 486.221436 94.547991 
L 486.221436 94.547991 
L 473.515396 94.547991 
L 473.515396 94.547991 
z
" clip-path="url(#p10c0df3e1d)" style="fill: #72b6a1; stroke: #595959; stroke-linejoin: miter"/>
   </g>
   <g id="line2d_124">
    <path d="M 479.868416 94.547991 
L 479.868416 94.547991 
" clip-path="url(#p10c0df3e1d)" style="fill: none; stroke: #595959"/>
   </g>
   <g id="line2d_125">
    <path d="M 479.868416 94.547991 
L 479.868416 94.547991 
" clip-path="url(#p10c0df3e1d)" style="fill: none; stroke: #595959"/>
   </g>
   <g id="line2d_126">
    <path d="M 476.691906 94.547991 
L 483.044926 94.547991 
" clip-path="url(#p10c0df3e1d)" style="fill: none; stroke: #595959; stroke-linecap: round"/>
   </g>
   <g id="line2d_127">
    <path d="M 476.691906 94.547991 
L 483.044926 94.547991 
" clip-path="url(#p10c0df3e1d)" style="fill: none; stroke: #595959; stroke-linecap: round"/>
   </g>
   <g id="line2d_128"/>
   <g id="patch_26">
    <path d="M 491.666881 115.907226 
L 504.372921 115.907226 
L 504.372921 115.907226 
L 491.666881 115.907226 
L 491.666881 115.907226 
z
" clip-path="url(#p10c0df3e1d)" style="fill: #72b6a1; stroke: #595959; stroke-linejoin: miter"/>
   </g>
   <g id="line2d_129">
    <path d="M 498.019901 115.907226 
L 498.019901 115.907226 
" clip-path="url(#p10c0df3e1d)" style="fill: none; stroke: #595959"/>
   </g>
   <g id="line2d_130">
    <path d="M 498.019901 115.907226 
L 498.019901 115.907226 
" clip-path="url(#p10c0df3e1d)" style="fill: none; stroke: #595959"/>
   </g>
   <g id="line2d_131">
    <path d="M 494.843391 115.907226 
L 501.196411 115.907226 
" clip-path="url(#p10c0df3e1d)" style="fill: none; stroke: #595959; stroke-linecap: round"/>
   </g>
   <g id="line2d_132">
    <path d="M 494.843391 115.907226 
L 501.196411 115.907226 
" clip-path="url(#p10c0df3e1d)" style="fill: none; stroke: #595959; stroke-linecap: round"/>
   </g>
   <g id="line2d_133"/>
   <g id="patch_27">
    <path d="M 509.818366 121.529882 
L 522.524406 121.529882 
L 522.524406 121.529882 
L 509.818366 121.529882 
L 509.818366 121.529882 
z
" clip-path="url(#p10c0df3e1d)" style="fill: #72b6a1; stroke: #595959; stroke-linejoin: miter"/>
   </g>
   <g id="line2d_134">
    <path d="M 516.171386 121.529882 
L 516.171386 121.529882 
" clip-path="url(#p10c0df3e1d)" style="fill: none; stroke: #595959"/>
   </g>
   <g id="line2d_135">
    <path d="M 516.171386 121.529882 
L 516.171386 121.529882 
" clip-path="url(#p10c0df3e1d)" style="fill: none; stroke: #595959"/>
   </g>
   <g id="line2d_136">
    <path d="M 512.994876 121.529882 
L 519.347896 121.529882 
" clip-path="url(#p10c0df3e1d)" style="fill: none; stroke: #595959; stroke-linecap: round"/>
   </g>
   <g id="line2d_137">
    <path d="M 512.994876 121.529882 
L 519.347896 121.529882 
" clip-path="url(#p10c0df3e1d)" style="fill: none; stroke: #595959; stroke-linecap: round"/>
   </g>
   <g id="line2d_138"/>
   <g id="patch_28">
    <path d="M 527.969851 124.032649 
L 540.675891 124.032649 
L 540.675891 124.032649 
L 527.969851 124.032649 
L 527.969851 124.032649 
z
" clip-path="url(#p10c0df3e1d)" style="fill: #72b6a1; stroke: #595959; stroke-linejoin: miter"/>
   </g>
   <g id="line2d_139">
    <path d="M 534.322871 124.032649 
L 534.322871 124.032649 
" clip-path="url(#p10c0df3e1d)" style="fill: none; stroke: #595959"/>
   </g>
   <g id="line2d_140">
    <path d="M 534.322871 124.032649 
L 534.322871 124.032649 
" clip-path="url(#p10c0df3e1d)" style="fill: none; stroke: #595959"/>
   </g>
   <g id="line2d_141">
    <path d="M 531.146361 124.032649 
L 537.499381 124.032649 
" clip-path="url(#p10c0df3e1d)" style="fill: none; stroke: #595959; stroke-linecap: round"/>
   </g>
   <g id="line2d_142">
    <path d="M 531.146361 124.032649 
L 537.499381 124.032649 
" clip-path="url(#p10c0df3e1d)" style="fill: none; stroke: #595959; stroke-linecap: round"/>
   </g>
   <g id="line2d_143"/>
   <g id="patch_29">
    <path d="M 546.121337 121.632735 
L 558.827376 121.632735 
L 558.827376 121.632735 
L 546.121337 121.632735 
L 546.121337 121.632735 
z
" clip-path="url(#p10c0df3e1d)" style="fill: #72b6a1; stroke: #595959; stroke-linejoin: miter"/>
   </g>
   <g id="line2d_144">
    <path d="M 552.474356 121.632735 
L 552.474356 121.632735 
" clip-path="url(#p10c0df3e1d)" style="fill: none; stroke: #595959"/>
   </g>
   <g id="line2d_145">
    <path d="M 552.474356 121.632735 
L 552.474356 121.632735 
" clip-path="url(#p10c0df3e1d)" style="fill: none; stroke: #595959"/>
   </g>
   <g id="line2d_146">
    <path d="M 549.297847 121.632735 
L 555.650866 121.632735 
" clip-path="url(#p10c0df3e1d)" style="fill: none; stroke: #595959; stroke-linecap: round"/>
   </g>
   <g id="line2d_147">
    <path d="M 549.297847 121.632735 
L 555.650866 121.632735 
" clip-path="url(#p10c0df3e1d)" style="fill: none; stroke: #595959; stroke-linecap: round"/>
   </g>
   <g id="line2d_148"/>
   <g id="patch_30">
    <path d="M 564.272822 104.93619 
L 576.978861 104.93619 
L 576.978861 104.93619 
L 564.272822 104.93619 
L 564.272822 104.93619 
z
" clip-path="url(#p10c0df3e1d)" style="fill: #72b6a1; stroke: #595959; stroke-linejoin: miter"/>
   </g>
   <g id="line2d_149">
    <path d="M 570.625842 104.93619 
L 570.625842 104.93619 
" clip-path="url(#p10c0df3e1d)" style="fill: none; stroke: #595959"/>
   </g>
   <g id="line2d_150">
    <path d="M 570.625842 104.93619 
L 570.625842 104.93619 
" clip-path="url(#p10c0df3e1d)" style="fill: none; stroke: #595959"/>
   </g>
   <g id="line2d_151">
    <path d="M 567.449332 104.93619 
L 573.802351 104.93619 
" clip-path="url(#p10c0df3e1d)" style="fill: none; stroke: #595959; stroke-linecap: round"/>
   </g>
   <g id="line2d_152">
    <path d="M 567.449332 104.93619 
L 573.802351 104.93619 
" clip-path="url(#p10c0df3e1d)" style="fill: none; stroke: #595959; stroke-linecap: round"/>
   </g>
   <g id="line2d_153"/>
   <g id="patch_31">
    <path d="M 582.424307 115.907226 
L 595.130347 115.907226 
L 595.130347 115.907226 
L 582.424307 115.907226 
L 582.424307 115.907226 
z
" clip-path="url(#p10c0df3e1d)" style="fill: #72b6a1; stroke: #595959; stroke-linejoin: miter"/>
   </g>
   <g id="line2d_154">
    <path d="M 588.777327 115.907226 
L 588.777327 115.907226 
" clip-path="url(#p10c0df3e1d)" style="fill: none; stroke: #595959"/>
   </g>
   <g id="line2d_155">
    <path d="M 588.777327 115.907226 
L 588.777327 115.907226 
" clip-path="url(#p10c0df3e1d)" style="fill: none; stroke: #595959"/>
   </g>
   <g id="line2d_156">
    <path d="M 585.600817 115.907226 
L 591.953837 115.907226 
" clip-path="url(#p10c0df3e1d)" style="fill: none; stroke: #595959; stroke-linecap: round"/>
   </g>
   <g id="line2d_157">
    <path d="M 585.600817 115.907226 
L 591.953837 115.907226 
" clip-path="url(#p10c0df3e1d)" style="fill: none; stroke: #595959; stroke-linecap: round"/>
   </g>
   <g id="line2d_158"/>
   <g id="patch_32">
    <path d="M 600.575792 117.518597 
L 613.281832 117.518597 
L 613.281832 117.518597 
L 600.575792 117.518597 
L 600.575792 117.518597 
z
" clip-path="url(#p10c0df3e1d)" style="fill: #72b6a1; stroke: #595959; stroke-linejoin: miter"/>
   </g>
   <g id="line2d_159">
    <path d="M 606.928812 117.518597 
L 606.928812 117.518597 
" clip-path="url(#p10c0df3e1d)" style="fill: none; stroke: #595959"/>
   </g>
   <g id="line2d_160">
    <path d="M 606.928812 117.518597 
L 606.928812 117.518597 
" clip-path="url(#p10c0df3e1d)" style="fill: none; stroke: #595959"/>
   </g>
   <g id="line2d_161">
    <path d="M 603.752302 117.518597 
L 610.105322 117.518597 
" clip-path="url(#p10c0df3e1d)" style="fill: none; stroke: #595959; stroke-linecap: round"/>
   </g>
   <g id="line2d_162">
    <path d="M 603.752302 117.518597 
L 610.105322 117.518597 
" clip-path="url(#p10c0df3e1d)" style="fill: none; stroke: #595959; stroke-linecap: round"/>
   </g>
   <g id="line2d_163"/>
   <g id="patch_33">
    <path d="M 618.727277 118.684269 
L 631.433317 118.684269 
L 631.433317 118.684269 
L 618.727277 118.684269 
L 618.727277 118.684269 
z
" clip-path="url(#p10c0df3e1d)" style="fill: #72b6a1; stroke: #595959; stroke-linejoin: miter"/>
   </g>
   <g id="line2d_164">
    <path d="M 625.080297 118.684269 
L 625.080297 118.684269 
" clip-path="url(#p10c0df3e1d)" style="fill: none; stroke: #595959"/>
   </g>
   <g id="line2d_165">
    <path d="M 625.080297 118.684269 
L 625.080297 118.684269 
" clip-path="url(#p10c0df3e1d)" style="fill: none; stroke: #595959"/>
   </g>
   <g id="line2d_166">
    <path d="M 621.903787 118.684269 
L 628.256807 118.684269 
" clip-path="url(#p10c0df3e1d)" style="fill: none; stroke: #595959; stroke-linecap: round"/>
   </g>
   <g id="line2d_167">
    <path d="M 621.903787 118.684269 
L 628.256807 118.684269 
" clip-path="url(#p10c0df3e1d)" style="fill: none; stroke: #595959; stroke-linecap: round"/>
   </g>
   <g id="line2d_168"/>
   <g id="patch_34">
    <path d="M 636.878762 140.557772 
L 649.584802 140.557772 
L 649.584802 140.557772 
L 636.878762 140.557772 
L 636.878762 140.557772 
z
" clip-path="url(#p10c0df3e1d)" style="fill: #72b6a1; stroke: #595959; stroke-linejoin: miter"/>
   </g>
   <g id="line2d_169">
    <path d="M 643.231782 140.557772 
L 643.231782 140.557772 
" clip-path="url(#p10c0df3e1d)" style="fill: none; stroke: #595959"/>
   </g>
   <g id="line2d_170">
    <path d="M 643.231782 140.557772 
L 643.231782 140.557772 
" clip-path="url(#p10c0df3e1d)" style="fill: none; stroke: #595959"/>
   </g>
   <g id="line2d_171">
    <path d="M 640.055272 140.557772 
L 646.408292 140.557772 
" clip-path="url(#p10c0df3e1d)" style="fill: none; stroke: #595959; stroke-linecap: round"/>
   </g>
   <g id="line2d_172">
    <path d="M 640.055272 140.557772 
L 646.408292 140.557772 
" clip-path="url(#p10c0df3e1d)" style="fill: none; stroke: #595959; stroke-linecap: round"/>
   </g>
   <g id="line2d_173"/>
   <g id="patch_35">
    <path d="M 655.030248 123.826942 
L 667.736287 123.826942 
L 667.736287 123.826942 
L 655.030248 123.826942 
L 655.030248 123.826942 
z
" clip-path="url(#p10c0df3e1d)" style="fill: #72b6a1; stroke: #595959; stroke-linejoin: miter"/>
   </g>
   <g id="line2d_174">
    <path d="M 661.383267 123.826942 
L 661.383267 123.826942 
" clip-path="url(#p10c0df3e1d)" style="fill: none; stroke: #595959"/>
   </g>
   <g id="line2d_175">
    <path d="M 661.383267 123.826942 
L 661.383267 123.826942 
" clip-path="url(#p10c0df3e1d)" style="fill: none; stroke: #595959"/>
   </g>
   <g id="line2d_176">
    <path d="M 658.206757 123.826942 
L 664.559777 123.826942 
" clip-path="url(#p10c0df3e1d)" style="fill: none; stroke: #595959; stroke-linecap: round"/>
   </g>
   <g id="line2d_177">
    <path d="M 658.206757 123.826942 
L 664.559777 123.826942 
" clip-path="url(#p10c0df3e1d)" style="fill: none; stroke: #595959; stroke-linecap: round"/>
   </g>
   <g id="line2d_178"/>
   <g id="patch_36">
    <path d="M 673.181733 122.078434 
L 685.887772 122.078434 
L 685.887772 122.078434 
L 673.181733 122.078434 
L 673.181733 122.078434 
z
" clip-path="url(#p10c0df3e1d)" style="fill: #72b6a1; stroke: #595959; stroke-linejoin: miter"/>
   </g>
   <g id="line2d_179">
    <path d="M 679.534752 122.078434 
L 679.534752 122.078434 
" clip-path="url(#p10c0df3e1d)" style="fill: none; stroke: #595959"/>
   </g>
   <g id="line2d_180">
    <path d="M 679.534752 122.078434 
L 679.534752 122.078434 
" clip-path="url(#p10c0df3e1d)" style="fill: none; stroke: #595959"/>
   </g>
   <g id="line2d_181">
    <path d="M 676.358243 122.078434 
L 682.711262 122.078434 
" clip-path="url(#p10c0df3e1d)" style="fill: none; stroke: #595959; stroke-linecap: round"/>
   </g>
   <g id="line2d_182">
    <path d="M 676.358243 122.078434 
L 682.711262 122.078434 
" clip-path="url(#p10c0df3e1d)" style="fill: none; stroke: #595959; stroke-linecap: round"/>
   </g>
   <g id="line2d_183"/>
   <g id="patch_37">
    <path d="M 691.333218 133.118038 
L 704.039257 133.118038 
L 704.039257 133.118038 
L 691.333218 133.118038 
L 691.333218 133.118038 
z
" clip-path="url(#p10c0df3e1d)" style="fill: #72b6a1; stroke: #595959; stroke-linejoin: miter"/>
   </g>
   <g id="line2d_184">
    <path d="M 697.686238 133.118038 
L 697.686238 133.118038 
" clip-path="url(#p10c0df3e1d)" style="fill: none; stroke: #595959"/>
   </g>
   <g id="line2d_185">
    <path d="M 697.686238 133.118038 
L 697.686238 133.118038 
" clip-path="url(#p10c0df3e1d)" style="fill: none; stroke: #595959"/>
   </g>
   <g id="line2d_186">
    <path d="M 694.509728 133.118038 
L 700.862748 133.118038 
" clip-path="url(#p10c0df3e1d)" style="fill: none; stroke: #595959; stroke-linecap: round"/>
   </g>
   <g id="line2d_187">
    <path d="M 694.509728 133.118038 
L 700.862748 133.118038 
" clip-path="url(#p10c0df3e1d)" style="fill: none; stroke: #595959; stroke-linecap: round"/>
   </g>
   <g id="line2d_188"/>
   <g id="patch_38">
    <path d="M 709.484703 138.912116 
L 722.190743 138.912116 
L 722.190743 138.912116 
L 709.484703 138.912116 
L 709.484703 138.912116 
z
" clip-path="url(#p10c0df3e1d)" style="fill: #72b6a1; stroke: #595959; stroke-linejoin: miter"/>
   </g>
   <g id="line2d_189">
    <path d="M 715.837723 138.912116 
L 715.837723 138.912116 
" clip-path="url(#p10c0df3e1d)" style="fill: none; stroke: #595959"/>
   </g>
   <g id="line2d_190">
    <path d="M 715.837723 138.912116 
L 715.837723 138.912116 
" clip-path="url(#p10c0df3e1d)" style="fill: none; stroke: #595959"/>
   </g>
   <g id="line2d_191">
    <path d="M 712.661213 138.912116 
L 719.014233 138.912116 
" clip-path="url(#p10c0df3e1d)" style="fill: none; stroke: #595959; stroke-linecap: round"/>
   </g>
   <g id="line2d_192">
    <path d="M 712.661213 138.912116 
L 719.014233 138.912116 
" clip-path="url(#p10c0df3e1d)" style="fill: none; stroke: #595959; stroke-linecap: round"/>
   </g>
   <g id="line2d_193"/>
   <g id="patch_39">
    <path d="M 727.636188 141.00347 
L 740.342228 141.00347 
L 740.342228 141.00347 
L 727.636188 141.00347 
L 727.636188 141.00347 
z
" clip-path="url(#p10c0df3e1d)" style="fill: #72b6a1; stroke: #595959; stroke-linejoin: miter"/>
   </g>
   <g id="line2d_194">
    <path d="M 733.989208 141.00347 
L 733.989208 141.00347 
" clip-path="url(#p10c0df3e1d)" style="fill: none; stroke: #595959"/>
   </g>
   <g id="line2d_195">
    <path d="M 733.989208 141.00347 
L 733.989208 141.00347 
" clip-path="url(#p10c0df3e1d)" style="fill: none; stroke: #595959"/>
   </g>
   <g id="line2d_196">
    <path d="M 730.812698 141.00347 
L 737.165718 141.00347 
" clip-path="url(#p10c0df3e1d)" style="fill: none; stroke: #595959; stroke-linecap: round"/>
   </g>
   <g id="line2d_197">
    <path d="M 730.812698 141.00347 
L 737.165718 141.00347 
" clip-path="url(#p10c0df3e1d)" style="fill: none; stroke: #595959; stroke-linecap: round"/>
   </g>
   <g id="line2d_198"/>
   <g id="patch_40">
    <path d="M 745.787673 141.00347 
L 758.493713 141.00347 
L 758.493713 141.00347 
L 745.787673 141.00347 
L 745.787673 141.00347 
z
" clip-path="url(#p10c0df3e1d)" style="fill: #72b6a1; stroke: #595959; stroke-linejoin: miter"/>
   </g>
   <g id="line2d_199">
    <path d="M 752.140693 141.00347 
L 752.140693 141.00347 
" clip-path="url(#p10c0df3e1d)" style="fill: none; stroke: #595959"/>
   </g>
   <g id="line2d_200">
    <path d="M 752.140693 141.00347 
L 752.140693 141.00347 
" clip-path="url(#p10c0df3e1d)" style="fill: none; stroke: #595959"/>
   </g>
   <g id="line2d_201">
    <path d="M 748.964183 141.00347 
L 755.317203 141.00347 
" clip-path="url(#p10c0df3e1d)" style="fill: none; stroke: #595959; stroke-linecap: round"/>
   </g>
   <g id="line2d_202">
    <path d="M 748.964183 141.00347 
L 755.317203 141.00347 
" clip-path="url(#p10c0df3e1d)" style="fill: none; stroke: #595959; stroke-linecap: round"/>
   </g>
   <g id="line2d_203"/>
   <g id="patch_41">
    <path d="M 763.939158 137.815013 
L 776.645198 137.815013 
L 776.645198 137.815013 
L 763.939158 137.815013 
L 763.939158 137.815013 
z
" clip-path="url(#p10c0df3e1d)" style="fill: #72b6a1; stroke: #595959; stroke-linejoin: miter"/>
   </g>
   <g id="line2d_204">
    <path d="M 770.292178 137.815013 
L 770.292178 137.815013 
" clip-path="url(#p10c0df3e1d)" style="fill: none; stroke: #595959"/>
   </g>
   <g id="line2d_205">
    <path d="M 770.292178 137.815013 
L 770.292178 137.815013 
" clip-path="url(#p10c0df3e1d)" style="fill: none; stroke: #595959"/>
   </g>
   <g id="line2d_206">
    <path d="M 767.115668 137.815013 
L 773.468688 137.815013 
" clip-path="url(#p10c0df3e1d)" style="fill: none; stroke: #595959; stroke-linecap: round"/>
   </g>
   <g id="line2d_207">
    <path d="M 767.115668 137.815013 
L 773.468688 137.815013 
" clip-path="url(#p10c0df3e1d)" style="fill: none; stroke: #595959; stroke-linecap: round"/>
   </g>
   <g id="line2d_208"/>
   <g id="patch_42">
    <path d="M 782.090644 145.254746 
L 794.796683 145.254746 
L 794.796683 145.254746 
L 782.090644 145.254746 
L 782.090644 145.254746 
z
" clip-path="url(#p10c0df3e1d)" style="fill: #72b6a1; stroke: #595959; stroke-linejoin: miter"/>
   </g>
   <g id="line2d_209">
    <path d="M 788.443663 145.254746 
L 788.443663 145.254746 
" clip-path="url(#p10c0df3e1d)" style="fill: none; stroke: #595959"/>
   </g>
   <g id="line2d_210">
    <path d="M 788.443663 145.254746 
L 788.443663 145.254746 
" clip-path="url(#p10c0df3e1d)" style="fill: none; stroke: #595959"/>
   </g>
   <g id="line2d_211">
    <path d="M 785.267153 145.254746 
L 791.620173 145.254746 
" clip-path="url(#p10c0df3e1d)" style="fill: none; stroke: #595959; stroke-linecap: round"/>
   </g>
   <g id="line2d_212">
    <path d="M 785.267153 145.254746 
L 791.620173 145.254746 
" clip-path="url(#p10c0df3e1d)" style="fill: none; stroke: #595959; stroke-linecap: round"/>
   </g>
   <g id="line2d_213"/>
   <g id="patch_43">
    <path d="M 800.242129 149.163178 
L 812.948168 149.163178 
L 812.948168 149.163178 
L 800.242129 149.163178 
L 800.242129 149.163178 
z
" clip-path="url(#p10c0df3e1d)" style="fill: #72b6a1; stroke: #595959; stroke-linejoin: miter"/>
   </g>
   <g id="line2d_214">
    <path d="M 806.595149 149.163178 
L 806.595149 149.163178 
" clip-path="url(#p10c0df3e1d)" style="fill: none; stroke: #595959"/>
   </g>
   <g id="line2d_215">
    <path d="M 806.595149 149.163178 
L 806.595149 149.163178 
" clip-path="url(#p10c0df3e1d)" style="fill: none; stroke: #595959"/>
   </g>
   <g id="line2d_216">
    <path d="M 803.418639 149.163178 
L 809.771658 149.163178 
" clip-path="url(#p10c0df3e1d)" style="fill: none; stroke: #595959; stroke-linecap: round"/>
   </g>
   <g id="line2d_217">
    <path d="M 803.418639 149.163178 
L 809.771658 149.163178 
" clip-path="url(#p10c0df3e1d)" style="fill: none; stroke: #595959; stroke-linecap: round"/>
   </g>
   <g id="line2d_218"/>
   <g id="patch_44">
    <path d="M 818.393614 141.517737 
L 831.099653 141.517737 
L 831.099653 141.517737 
L 818.393614 141.517737 
L 818.393614 141.517737 
z
" clip-path="url(#p10c0df3e1d)" style="fill: #72b6a1; stroke: #595959; stroke-linejoin: miter"/>
   </g>
   <g id="line2d_219">
    <path d="M 824.746634 141.517737 
L 824.746634 141.517737 
" clip-path="url(#p10c0df3e1d)" style="fill: none; stroke: #595959"/>
   </g>
   <g id="line2d_220">
    <path d="M 824.746634 141.517737 
L 824.746634 141.517737 
" clip-path="url(#p10c0df3e1d)" style="fill: none; stroke: #595959"/>
   </g>
   <g id="line2d_221">
    <path d="M 821.570124 141.517737 
L 827.923144 141.517737 
" clip-path="url(#p10c0df3e1d)" style="fill: none; stroke: #595959; stroke-linecap: round"/>
   </g>
   <g id="line2d_222">
    <path d="M 821.570124 141.517737 
L 827.923144 141.517737 
" clip-path="url(#p10c0df3e1d)" style="fill: none; stroke: #595959; stroke-linecap: round"/>
   </g>
   <g id="line2d_223"/>
   <g id="patch_45">
    <path d="M 836.545099 148.786048 
L 849.251139 148.786048 
L 849.251139 148.786048 
L 836.545099 148.786048 
L 836.545099 148.786048 
z
" clip-path="url(#p10c0df3e1d)" style="fill: #72b6a1; stroke: #595959; stroke-linejoin: miter"/>
   </g>
   <g id="line2d_224">
    <path d="M 842.898119 148.786048 
L 842.898119 148.786048 
" clip-path="url(#p10c0df3e1d)" style="fill: none; stroke: #595959"/>
   </g>
   <g id="line2d_225">
    <path d="M 842.898119 148.786048 
L 842.898119 148.786048 
" clip-path="url(#p10c0df3e1d)" style="fill: none; stroke: #595959"/>
   </g>
   <g id="line2d_226">
    <path d="M 839.721609 148.786048 
L 846.074629 148.786048 
" clip-path="url(#p10c0df3e1d)" style="fill: none; stroke: #595959; stroke-linecap: round"/>
   </g>
   <g id="line2d_227">
    <path d="M 839.721609 148.786048 
L 846.074629 148.786048 
" clip-path="url(#p10c0df3e1d)" style="fill: none; stroke: #595959; stroke-linecap: round"/>
   </g>
   <g id="line2d_228"/>
   <g id="patch_46">
    <path d="M 854.696584 151.528807 
L 867.402624 151.528807 
L 867.402624 151.528807 
L 854.696584 151.528807 
L 854.696584 151.528807 
z
" clip-path="url(#p10c0df3e1d)" style="fill: #72b6a1; stroke: #595959; stroke-linejoin: miter"/>
   </g>
   <g id="line2d_229">
    <path d="M 861.049604 151.528807 
L 861.049604 151.528807 
" clip-path="url(#p10c0df3e1d)" style="fill: none; stroke: #595959"/>
   </g>
   <g id="line2d_230">
    <path d="M 861.049604 151.528807 
L 861.049604 151.528807 
" clip-path="url(#p10c0df3e1d)" style="fill: none; stroke: #595959"/>
   </g>
   <g id="line2d_231">
    <path d="M 857.873094 151.528807 
L 864.226114 151.528807 
" clip-path="url(#p10c0df3e1d)" style="fill: none; stroke: #595959; stroke-linecap: round"/>
   </g>
   <g id="line2d_232">
    <path d="M 857.873094 151.528807 
L 864.226114 151.528807 
" clip-path="url(#p10c0df3e1d)" style="fill: none; stroke: #595959; stroke-linecap: round"/>
   </g>
   <g id="line2d_233"/>
   <g id="patch_47">
    <path d="M 872.848069 176.830758 
L 885.554109 176.830758 
L 885.554109 176.830758 
L 872.848069 176.830758 
L 872.848069 176.830758 
z
" clip-path="url(#p10c0df3e1d)" style="fill: #72b6a1; stroke: #595959; stroke-linejoin: miter"/>
   </g>
   <g id="line2d_234">
    <path d="M 879.201089 176.830758 
L 879.201089 176.830758 
" clip-path="url(#p10c0df3e1d)" style="fill: none; stroke: #595959"/>
   </g>
   <g id="line2d_235">
    <path d="M 879.201089 176.830758 
L 879.201089 176.830758 
" clip-path="url(#p10c0df3e1d)" style="fill: none; stroke: #595959"/>
   </g>
   <g id="line2d_236">
    <path d="M 876.024579 176.830758 
L 882.377599 176.830758 
" clip-path="url(#p10c0df3e1d)" style="fill: none; stroke: #595959; stroke-linecap: round"/>
   </g>
   <g id="line2d_237">
    <path d="M 876.024579 176.830758 
L 882.377599 176.830758 
" clip-path="url(#p10c0df3e1d)" style="fill: none; stroke: #595959; stroke-linecap: round"/>
   </g>
   <g id="line2d_238"/>
   <g id="patch_48">
    <path d="M 890.999554 164.934041 
L 903.705594 164.934041 
L 903.705594 164.934041 
L 890.999554 164.934041 
L 890.999554 164.934041 
z
" clip-path="url(#p10c0df3e1d)" style="fill: #72b6a1; stroke: #595959; stroke-linejoin: miter"/>
   </g>
   <g id="line2d_239">
    <path d="M 897.352574 164.934041 
L 897.352574 164.934041 
" clip-path="url(#p10c0df3e1d)" style="fill: none; stroke: #595959"/>
   </g>
   <g id="line2d_240">
    <path d="M 897.352574 164.934041 
L 897.352574 164.934041 
" clip-path="url(#p10c0df3e1d)" style="fill: none; stroke: #595959"/>
   </g>
   <g id="line2d_241">
    <path d="M 894.176064 164.934041 
L 900.529084 164.934041 
" clip-path="url(#p10c0df3e1d)" style="fill: none; stroke: #595959; stroke-linecap: round"/>
   </g>
   <g id="line2d_242">
    <path d="M 894.176064 164.934041 
L 900.529084 164.934041 
" clip-path="url(#p10c0df3e1d)" style="fill: none; stroke: #595959; stroke-linecap: round"/>
   </g>
   <g id="line2d_243"/>
   <g id="patch_49">
    <path d="M 909.15104 167.745369 
L 921.857079 167.745369 
L 921.857079 167.745369 
L 909.15104 167.745369 
L 909.15104 167.745369 
z
" clip-path="url(#p10c0df3e1d)" style="fill: #72b6a1; stroke: #595959; stroke-linejoin: miter"/>
   </g>
   <g id="line2d_244">
    <path d="M 915.504059 167.745369 
L 915.504059 167.745369 
" clip-path="url(#p10c0df3e1d)" style="fill: none; stroke: #595959"/>
   </g>
   <g id="line2d_245">
    <path d="M 915.504059 167.745369 
L 915.504059 167.745369 
" clip-path="url(#p10c0df3e1d)" style="fill: none; stroke: #595959"/>
   </g>
   <g id="line2d_246">
    <path d="M 912.32755 167.745369 
L 918.680569 167.745369 
" clip-path="url(#p10c0df3e1d)" style="fill: none; stroke: #595959; stroke-linecap: round"/>
   </g>
   <g id="line2d_247">
    <path d="M 912.32755 167.745369 
L 918.680569 167.745369 
" clip-path="url(#p10c0df3e1d)" style="fill: none; stroke: #595959; stroke-linecap: round"/>
   </g>
   <g id="line2d_248"/>
   <g id="patch_50">
    <path d="M 927.302525 160.991325 
L 940.008564 160.991325 
L 940.008564 160.991325 
L 927.302525 160.991325 
L 927.302525 160.991325 
z
" clip-path="url(#p10c0df3e1d)" style="fill: #72b6a1; stroke: #595959; stroke-linejoin: miter"/>
   </g>
   <g id="line2d_249">
    <path d="M 933.655545 160.991325 
L 933.655545 160.991325 
" clip-path="url(#p10c0df3e1d)" style="fill: none; stroke: #595959"/>
   </g>
   <g id="line2d_250">
    <path d="M 933.655545 160.991325 
L 933.655545 160.991325 
" clip-path="url(#p10c0df3e1d)" style="fill: none; stroke: #595959"/>
   </g>
   <g id="line2d_251">
    <path d="M 930.479035 160.991325 
L 936.832054 160.991325 
" clip-path="url(#p10c0df3e1d)" style="fill: none; stroke: #595959; stroke-linecap: round"/>
   </g>
   <g id="line2d_252">
    <path d="M 930.479035 160.991325 
L 936.832054 160.991325 
" clip-path="url(#p10c0df3e1d)" style="fill: none; stroke: #595959; stroke-linecap: round"/>
   </g>
   <g id="line2d_253"/>
   <g id="patch_51">
    <path d="M 945.45401 183.344811 
L 958.16005 183.344811 
L 958.16005 183.344811 
L 945.45401 183.344811 
L 945.45401 183.344811 
z
" clip-path="url(#p10c0df3e1d)" style="fill: #72b6a1; stroke: #595959; stroke-linejoin: miter"/>
   </g>
   <g id="line2d_254">
    <path d="M 951.80703 183.344811 
L 951.80703 183.344811 
" clip-path="url(#p10c0df3e1d)" style="fill: none; stroke: #595959"/>
   </g>
   <g id="line2d_255">
    <path d="M 951.80703 183.344811 
L 951.80703 183.344811 
" clip-path="url(#p10c0df3e1d)" style="fill: none; stroke: #595959"/>
   </g>
   <g id="line2d_256">
    <path d="M 948.63052 183.344811 
L 954.98354 183.344811 
" clip-path="url(#p10c0df3e1d)" style="fill: none; stroke: #595959; stroke-linecap: round"/>
   </g>
   <g id="line2d_257">
    <path d="M 948.63052 183.344811 
L 954.98354 183.344811 
" clip-path="url(#p10c0df3e1d)" style="fill: none; stroke: #595959; stroke-linecap: round"/>
   </g>
   <g id="line2d_258"/>
   <g id="patch_52">
    <path d="M 963.605495 180.807759 
L 976.311535 180.807759 
L 976.311535 180.807759 
L 963.605495 180.807759 
L 963.605495 180.807759 
z
" clip-path="url(#p10c0df3e1d)" style="fill: #72b6a1; stroke: #595959; stroke-linejoin: miter"/>
   </g>
   <g id="line2d_259">
    <path d="M 969.958515 180.807759 
L 969.958515 180.807759 
" clip-path="url(#p10c0df3e1d)" style="fill: none; stroke: #595959"/>
   </g>
   <g id="line2d_260">
    <path d="M 969.958515 180.807759 
L 969.958515 180.807759 
" clip-path="url(#p10c0df3e1d)" style="fill: none; stroke: #595959"/>
   </g>
   <g id="line2d_261">
    <path d="M 966.782005 180.807759 
L 973.135025 180.807759 
" clip-path="url(#p10c0df3e1d)" style="fill: none; stroke: #595959; stroke-linecap: round"/>
   </g>
   <g id="line2d_262">
    <path d="M 966.782005 180.807759 
L 973.135025 180.807759 
" clip-path="url(#p10c0df3e1d)" style="fill: none; stroke: #595959; stroke-linecap: round"/>
   </g>
   <g id="line2d_263"/>
   <g id="line2d_264">
    <path d="M 74.182723 502.579091 
L 86.888762 502.579091 
" clip-path="url(#p10c0df3e1d)" style="fill: none; stroke: #595959"/>
   </g>
   <g id="line2d_265">
    <path d="M 92.334208 415.930766 
L 105.040248 415.930766 
" clip-path="url(#p10c0df3e1d)" style="fill: none; stroke: #595959"/>
   </g>
   <g id="line2d_266">
    <path d="M 110.485693 357.030018 
L 123.191733 357.030018 
" clip-path="url(#p10c0df3e1d)" style="fill: none; stroke: #595959"/>
   </g>
   <g id="line2d_267">
    <path d="M 128.637178 335.599098 
L 141.343218 335.599098 
" clip-path="url(#p10c0df3e1d)" style="fill: none; stroke: #595959"/>
   </g>
   <g id="line2d_268">
    <path d="M 146.788663 305.154474 
L 159.494703 305.154474 
" clip-path="url(#p10c0df3e1d)" style="fill: none; stroke: #595959"/>
   </g>
   <g id="line2d_269">
    <path d="M 164.940149 211.458089 
L 177.646188 211.458089 
" clip-path="url(#p10c0df3e1d)" style="fill: none; stroke: #595959"/>
   </g>
   <g id="line2d_270">
    <path d="M 183.091634 142.546272 
L 195.797673 142.546272 
" clip-path="url(#p10c0df3e1d)" style="fill: none; stroke: #595959"/>
   </g>
   <g id="line2d_271">
    <path d="M 201.243119 109.358889 
L 213.949158 109.358889 
" clip-path="url(#p10c0df3e1d)" style="fill: none; stroke: #595959"/>
   </g>
   <g id="line2d_272">
    <path d="M 219.394604 96.399353 
L 232.100644 96.399353 
" clip-path="url(#p10c0df3e1d)" style="fill: none; stroke: #595959"/>
   </g>
   <g id="line2d_273">
    <path d="M 237.546089 97.153612 
L 250.252129 97.153612 
" clip-path="url(#p10c0df3e1d)" style="fill: none; stroke: #595959"/>
   </g>
   <g id="line2d_274">
    <path d="M 255.697574 52.960909 
L 268.403614 52.960909 
" clip-path="url(#p10c0df3e1d)" style="fill: none; stroke: #595959"/>
   </g>
   <g id="line2d_275">
    <path d="M 273.849059 80.594205 
L 286.555099 80.594205 
" clip-path="url(#p10c0df3e1d)" style="fill: none; stroke: #595959"/>
   </g>
   <g id="line2d_276">
    <path d="M 292.000545 78.57142 
L 304.706584 78.57142 
" clip-path="url(#p10c0df3e1d)" style="fill: none; stroke: #595959"/>
   </g>
   <g id="line2d_277">
    <path d="M 310.15203 78.811412 
L 322.858069 78.811412 
" clip-path="url(#p10c0df3e1d)" style="fill: none; stroke: #595959"/>
   </g>
   <g id="line2d_278">
    <path d="M 328.303515 99.484957 
L 341.009554 99.484957 
" clip-path="url(#p10c0df3e1d)" style="fill: none; stroke: #595959"/>
   </g>
   <g id="line2d_279">
    <path d="M 346.455 108.501777 
L 359.16104 108.501777 
" clip-path="url(#p10c0df3e1d)" style="fill: none; stroke: #595959"/>
   </g>
   <g id="line2d_280">
    <path d="M 364.606485 70.61742 
L 377.312525 70.61742 
" clip-path="url(#p10c0df3e1d)" style="fill: none; stroke: #595959"/>
   </g>
   <g id="line2d_281">
    <path d="M 382.75797 78.022869 
L 395.46401 78.022869 
" clip-path="url(#p10c0df3e1d)" style="fill: none; stroke: #595959"/>
   </g>
   <g id="line2d_282">
    <path d="M 400.909455 155.642946 
L 413.615495 155.642946 
" clip-path="url(#p10c0df3e1d)" style="fill: none; stroke: #595959"/>
   </g>
   <g id="line2d_283">
    <path d="M 419.060941 98.867836 
L 431.76698 98.867836 
" clip-path="url(#p10c0df3e1d)" style="fill: none; stroke: #595959"/>
   </g>
   <g id="line2d_284">
    <path d="M 437.212426 107.096113 
L 449.918465 107.096113 
" clip-path="url(#p10c0df3e1d)" style="fill: none; stroke: #595959"/>
   </g>
   <g id="line2d_285">
    <path d="M 455.363911 77.302894 
L 468.06995 77.302894 
" clip-path="url(#p10c0df3e1d)" style="fill: none; stroke: #595959"/>
   </g>
   <g id="line2d_286">
    <path d="M 473.515396 94.547991 
L 486.221436 94.547991 
" clip-path="url(#p10c0df3e1d)" style="fill: none; stroke: #595959"/>
   </g>
   <g id="line2d_287">
    <path d="M 491.666881 115.907226 
L 504.372921 115.907226 
" clip-path="url(#p10c0df3e1d)" style="fill: none; stroke: #595959"/>
   </g>
   <g id="line2d_288">
    <path d="M 509.818366 121.529882 
L 522.524406 121.529882 
" clip-path="url(#p10c0df3e1d)" style="fill: none; stroke: #595959"/>
   </g>
   <g id="line2d_289">
    <path d="M 527.969851 124.032649 
L 540.675891 124.032649 
" clip-path="url(#p10c0df3e1d)" style="fill: none; stroke: #595959"/>
   </g>
   <g id="line2d_290">
    <path d="M 546.121337 121.632735 
L 558.827376 121.632735 
" clip-path="url(#p10c0df3e1d)" style="fill: none; stroke: #595959"/>
   </g>
   <g id="line2d_291">
    <path d="M 564.272822 104.93619 
L 576.978861 104.93619 
" clip-path="url(#p10c0df3e1d)" style="fill: none; stroke: #595959"/>
   </g>
   <g id="line2d_292">
    <path d="M 582.424307 115.907226 
L 595.130347 115.907226 
" clip-path="url(#p10c0df3e1d)" style="fill: none; stroke: #595959"/>
   </g>
   <g id="line2d_293">
    <path d="M 600.575792 117.518597 
L 613.281832 117.518597 
" clip-path="url(#p10c0df3e1d)" style="fill: none; stroke: #595959"/>
   </g>
   <g id="line2d_294">
    <path d="M 618.727277 118.684269 
L 631.433317 118.684269 
" clip-path="url(#p10c0df3e1d)" style="fill: none; stroke: #595959"/>
   </g>
   <g id="line2d_295">
    <path d="M 636.878762 140.557772 
L 649.584802 140.557772 
" clip-path="url(#p10c0df3e1d)" style="fill: none; stroke: #595959"/>
   </g>
   <g id="line2d_296">
    <path d="M 655.030248 123.826942 
L 667.736287 123.826942 
" clip-path="url(#p10c0df3e1d)" style="fill: none; stroke: #595959"/>
   </g>
   <g id="line2d_297">
    <path d="M 673.181733 122.078434 
L 685.887772 122.078434 
" clip-path="url(#p10c0df3e1d)" style="fill: none; stroke: #595959"/>
   </g>
   <g id="line2d_298">
    <path d="M 691.333218 133.118038 
L 704.039257 133.118038 
" clip-path="url(#p10c0df3e1d)" style="fill: none; stroke: #595959"/>
   </g>
   <g id="line2d_299">
    <path d="M 709.484703 138.912116 
L 722.190743 138.912116 
" clip-path="url(#p10c0df3e1d)" style="fill: none; stroke: #595959"/>
   </g>
   <g id="line2d_300">
    <path d="M 727.636188 141.00347 
L 740.342228 141.00347 
" clip-path="url(#p10c0df3e1d)" style="fill: none; stroke: #595959"/>
   </g>
   <g id="line2d_301">
    <path d="M 745.787673 141.00347 
L 758.493713 141.00347 
" clip-path="url(#p10c0df3e1d)" style="fill: none; stroke: #595959"/>
   </g>
   <g id="line2d_302">
    <path d="M 763.939158 137.815013 
L 776.645198 137.815013 
" clip-path="url(#p10c0df3e1d)" style="fill: none; stroke: #595959"/>
   </g>
   <g id="line2d_303">
    <path d="M 782.090644 145.254746 
L 794.796683 145.254746 
" clip-path="url(#p10c0df3e1d)" style="fill: none; stroke: #595959"/>
   </g>
   <g id="line2d_304">
    <path d="M 800.242129 149.163178 
L 812.948168 149.163178 
" clip-path="url(#p10c0df3e1d)" style="fill: none; stroke: #595959"/>
   </g>
   <g id="line2d_305">
    <path d="M 818.393614 141.517737 
L 831.099653 141.517737 
" clip-path="url(#p10c0df3e1d)" style="fill: none; stroke: #595959"/>
   </g>
   <g id="line2d_306">
    <path d="M 836.545099 148.786048 
L 849.251139 148.786048 
" clip-path="url(#p10c0df3e1d)" style="fill: none; stroke: #595959"/>
   </g>
   <g id="line2d_307">
    <path d="M 854.696584 151.528807 
L 867.402624 151.528807 
" clip-path="url(#p10c0df3e1d)" style="fill: none; stroke: #595959"/>
   </g>
   <g id="line2d_308">
    <path d="M 872.848069 176.830758 
L 885.554109 176.830758 
" clip-path="url(#p10c0df3e1d)" style="fill: none; stroke: #595959"/>
   </g>
   <g id="line2d_309">
    <path d="M 890.999554 164.934041 
L 903.705594 164.934041 
" clip-path="url(#p10c0df3e1d)" style="fill: none; stroke: #595959"/>
   </g>
   <g id="line2d_310">
    <path d="M 909.15104 167.745369 
L 921.857079 167.745369 
" clip-path="url(#p10c0df3e1d)" style="fill: none; stroke: #595959"/>
   </g>
   <g id="line2d_311">
    <path d="M 927.302525 160.991325 
L 940.008564 160.991325 
" clip-path="url(#p10c0df3e1d)" style="fill: none; stroke: #595959"/>
   </g>
   <g id="line2d_312">
    <path d="M 945.45401 183.344811 
L 958.16005 183.344811 
" clip-path="url(#p10c0df3e1d)" style="fill: none; stroke: #595959"/>
   </g>
   <g id="line2d_313">
    <path d="M 963.605495 180.807759 
L 976.311535 180.807759 
" clip-path="url(#p10c0df3e1d)" style="fill: none; stroke: #595959"/>
   </g>
   <g id="patch_53">
    <path d="M 71.46 525.06 
L 71.46 30.48 
" style="fill: none; stroke: #cccccc; stroke-width: 1.25; stroke-linejoin: miter; stroke-linecap: square"/>
   </g>
   <g id="patch_54">
    <path d="M 988.11 525.06 
L 988.11 30.48 
" style="fill: none; stroke: #cccccc; stroke-width: 1.25; stroke-linejoin: miter; stroke-linecap: square"/>
   </g>
   <g id="patch_55">
    <path d="M 71.46 525.06 
L 988.11 525.06 
" style="fill: none; stroke: #cccccc; stroke-width: 1.25; stroke-linejoin: miter; stroke-linecap: square"/>
   </g>
   <g id="patch_56">
    <path d="M 71.46 30.48 
L 988.11 30.48 
" style="fill: none; stroke: #cccccc; stroke-width: 1.25; stroke-linejoin: miter; stroke-linecap: square"/>
   </g>
   <g id="text_16">
    <!-- img-classification - places365 (Accuracy_mean Distribution) -->
    <g style="fill: #262626" transform="translate(259.7575 24.48) scale(0.16 -0.16)">
     <defs>
      <path id="DejaVuSans-Bold-69" d="M 538 3500 
L 1656 3500 
L 1656 0 
L 538 0 
L 538 3500 
z
M 538 4863 
L 1656 4863 
L 1656 3950 
L 538 3950 
L 538 4863 
z
" transform="scale(0.015625)"/>
      <path id="DejaVuSans-Bold-6d" d="M 3781 2919 
Q 3994 3244 4286 3414 
Q 4578 3584 4928 3584 
Q 5531 3584 5847 3212 
Q 6163 2841 6163 2131 
L 6163 0 
L 5038 0 
L 5038 1825 
Q 5041 1866 5042 1909 
Q 5044 1953 5044 2034 
Q 5044 2406 4934 2573 
Q 4825 2741 4581 2741 
Q 4263 2741 4089 2478 
Q 3916 2216 3909 1719 
L 3909 0 
L 2784 0 
L 2784 1825 
Q 2784 2406 2684 2573 
Q 2584 2741 2328 2741 
Q 2006 2741 1831 2477 
Q 1656 2213 1656 1722 
L 1656 0 
L 531 0 
L 531 3500 
L 1656 3500 
L 1656 2988 
Q 1863 3284 2130 3434 
Q 2397 3584 2719 3584 
Q 3081 3584 3359 3409 
Q 3638 3234 3781 2919 
z
" transform="scale(0.015625)"/>
      <path id="DejaVuSans-Bold-67" d="M 2919 594 
Q 2688 288 2409 144 
Q 2131 0 1766 0 
Q 1125 0 706 504 
Q 288 1009 288 1791 
Q 288 2575 706 3076 
Q 1125 3578 1766 3578 
Q 2131 3578 2409 3434 
Q 2688 3291 2919 2981 
L 2919 3500 
L 4044 3500 
L 4044 353 
Q 4044 -491 3511 -936 
Q 2978 -1381 1966 -1381 
Q 1638 -1381 1331 -1331 
Q 1025 -1281 716 -1178 
L 716 -306 
Q 1009 -475 1290 -558 
Q 1572 -641 1856 -641 
Q 2406 -641 2662 -400 
Q 2919 -159 2919 353 
L 2919 594 
z
M 2181 2772 
Q 1834 2772 1640 2515 
Q 1447 2259 1447 1791 
Q 1447 1309 1634 1061 
Q 1822 813 2181 813 
Q 2531 813 2725 1069 
Q 2919 1325 2919 1791 
Q 2919 2259 2725 2515 
Q 2531 2772 2181 2772 
z
" transform="scale(0.015625)"/>
      <path id="DejaVuSans-Bold-2d" d="M 347 2297 
L 2309 2297 
L 2309 1388 
L 347 1388 
L 347 2297 
z
" transform="scale(0.015625)"/>
      <path id="DejaVuSans-Bold-63" d="M 3366 3391 
L 3366 2478 
Q 3138 2634 2908 2709 
Q 2678 2784 2431 2784 
Q 1963 2784 1702 2511 
Q 1441 2238 1441 1747 
Q 1441 1256 1702 982 
Q 1963 709 2431 709 
Q 2694 709 2930 787 
Q 3166 866 3366 1019 
L 3366 103 
Q 3103 6 2833 -42 
Q 2563 -91 2291 -91 
Q 1344 -91 809 395 
Q 275 881 275 1747 
Q 275 2613 809 3098 
Q 1344 3584 2291 3584 
Q 2566 3584 2833 3536 
Q 3100 3488 3366 3391 
z
" transform="scale(0.015625)"/>
      <path id="DejaVuSans-Bold-6c" d="M 538 4863 
L 1656 4863 
L 1656 0 
L 538 0 
L 538 4863 
z
" transform="scale(0.015625)"/>
      <path id="DejaVuSans-Bold-61" d="M 2106 1575 
Q 1756 1575 1579 1456 
Q 1403 1338 1403 1106 
Q 1403 894 1545 773 
Q 1688 653 1941 653 
Q 2256 653 2472 879 
Q 2688 1106 2688 1447 
L 2688 1575 
L 2106 1575 
z
M 3816 1997 
L 3816 0 
L 2688 0 
L 2688 519 
Q 2463 200 2181 54 
Q 1900 -91 1497 -91 
Q 953 -91 614 226 
Q 275 544 275 1050 
Q 275 1666 698 1953 
Q 1122 2241 2028 2241 
L 2688 2241 
L 2688 2328 
Q 2688 2594 2478 2717 
Q 2269 2841 1825 2841 
Q 1466 2841 1156 2769 
Q 847 2697 581 2553 
L 581 3406 
Q 941 3494 1303 3539 
Q 1666 3584 2028 3584 
Q 2975 3584 3395 3211 
Q 3816 2838 3816 1997 
z
" transform="scale(0.015625)"/>
      <path id="DejaVuSans-Bold-73" d="M 3272 3391 
L 3272 2541 
Q 2913 2691 2578 2766 
Q 2244 2841 1947 2841 
Q 1628 2841 1473 2761 
Q 1319 2681 1319 2516 
Q 1319 2381 1436 2309 
Q 1553 2238 1856 2203 
L 2053 2175 
Q 2913 2066 3209 1816 
Q 3506 1566 3506 1031 
Q 3506 472 3093 190 
Q 2681 -91 1863 -91 
Q 1516 -91 1145 -36 
Q 775 19 384 128 
L 384 978 
Q 719 816 1070 734 
Q 1422 653 1784 653 
Q 2113 653 2278 743 
Q 2444 834 2444 1013 
Q 2444 1163 2330 1236 
Q 2216 1309 1875 1350 
L 1678 1375 
Q 931 1469 631 1722 
Q 331 1975 331 2491 
Q 331 3047 712 3315 
Q 1094 3584 1881 3584 
Q 2191 3584 2531 3537 
Q 2872 3491 3272 3391 
z
" transform="scale(0.015625)"/>
      <path id="DejaVuSans-Bold-66" d="M 2841 4863 
L 2841 4128 
L 2222 4128 
Q 1984 4128 1890 4042 
Q 1797 3956 1797 3744 
L 1797 3500 
L 2753 3500 
L 2753 2700 
L 1797 2700 
L 1797 0 
L 678 0 
L 678 2700 
L 122 2700 
L 122 3500 
L 678 3500 
L 678 3744 
Q 678 4316 997 4589 
Q 1316 4863 1984 4863 
L 2841 4863 
z
" transform="scale(0.015625)"/>
      <path id="DejaVuSans-Bold-74" d="M 1759 4494 
L 1759 3500 
L 2913 3500 
L 2913 2700 
L 1759 2700 
L 1759 1216 
Q 1759 972 1856 886 
Q 1953 800 2241 800 
L 2816 800 
L 2816 0 
L 1856 0 
Q 1194 0 917 276 
Q 641 553 641 1216 
L 641 2700 
L 84 2700 
L 84 3500 
L 641 3500 
L 641 4494 
L 1759 4494 
z
" transform="scale(0.015625)"/>
      <path id="DejaVuSans-Bold-6f" d="M 2203 2784 
Q 1831 2784 1636 2517 
Q 1441 2250 1441 1747 
Q 1441 1244 1636 976 
Q 1831 709 2203 709 
Q 2569 709 2762 976 
Q 2956 1244 2956 1747 
Q 2956 2250 2762 2517 
Q 2569 2784 2203 2784 
z
M 2203 3584 
Q 3106 3584 3614 3096 
Q 4122 2609 4122 1747 
Q 4122 884 3614 396 
Q 3106 -91 2203 -91 
Q 1297 -91 786 396 
Q 275 884 275 1747 
Q 275 2609 786 3096 
Q 1297 3584 2203 3584 
z
" transform="scale(0.015625)"/>
      <path id="DejaVuSans-Bold-6e" d="M 4056 2131 
L 4056 0 
L 2931 0 
L 2931 347 
L 2931 1631 
Q 2931 2084 2911 2256 
Q 2891 2428 2841 2509 
Q 2775 2619 2662 2680 
Q 2550 2741 2406 2741 
Q 2056 2741 1856 2470 
Q 1656 2200 1656 1722 
L 1656 0 
L 538 0 
L 538 3500 
L 1656 3500 
L 1656 2988 
Q 1909 3294 2193 3439 
Q 2478 3584 2822 3584 
Q 3428 3584 3742 3212 
Q 4056 2841 4056 2131 
z
" transform="scale(0.015625)"/>
      <path id="DejaVuSans-Bold-20" transform="scale(0.015625)"/>
      <path id="DejaVuSans-Bold-70" d="M 1656 506 
L 1656 -1331 
L 538 -1331 
L 538 3500 
L 1656 3500 
L 1656 2988 
Q 1888 3294 2169 3439 
Q 2450 3584 2816 3584 
Q 3463 3584 3878 3070 
Q 4294 2556 4294 1747 
Q 4294 938 3878 423 
Q 3463 -91 2816 -91 
Q 2450 -91 2169 54 
Q 1888 200 1656 506 
z
M 2400 2772 
Q 2041 2772 1848 2508 
Q 1656 2244 1656 1747 
Q 1656 1250 1848 986 
Q 2041 722 2400 722 
Q 2759 722 2948 984 
Q 3138 1247 3138 1747 
Q 3138 2247 2948 2509 
Q 2759 2772 2400 2772 
z
" transform="scale(0.015625)"/>
      <path id="DejaVuSans-Bold-65" d="M 4031 1759 
L 4031 1441 
L 1416 1441 
Q 1456 1047 1700 850 
Q 1944 653 2381 653 
Q 2734 653 3104 758 
Q 3475 863 3866 1075 
L 3866 213 
Q 3469 63 3072 -14 
Q 2675 -91 2278 -91 
Q 1328 -91 801 392 
Q 275 875 275 1747 
Q 275 2603 792 3093 
Q 1309 3584 2216 3584 
Q 3041 3584 3536 3087 
Q 4031 2591 4031 1759 
z
M 2881 2131 
Q 2881 2450 2695 2645 
Q 2509 2841 2209 2841 
Q 1884 2841 1681 2658 
Q 1478 2475 1428 2131 
L 2881 2131 
z
" transform="scale(0.015625)"/>
      <path id="DejaVuSans-Bold-33" d="M 2981 2516 
Q 3453 2394 3698 2092 
Q 3944 1791 3944 1325 
Q 3944 631 3412 270 
Q 2881 -91 1863 -91 
Q 1503 -91 1142 -33 
Q 781 25 428 141 
L 428 1069 
Q 766 900 1098 814 
Q 1431 728 1753 728 
Q 2231 728 2486 893 
Q 2741 1059 2741 1369 
Q 2741 1688 2480 1852 
Q 2219 2016 1709 2016 
L 1228 2016 
L 1228 2791 
L 1734 2791 
Q 2188 2791 2409 2933 
Q 2631 3075 2631 3366 
Q 2631 3634 2415 3781 
Q 2200 3928 1806 3928 
Q 1516 3928 1219 3862 
Q 922 3797 628 3669 
L 628 4550 
Q 984 4650 1334 4700 
Q 1684 4750 2022 4750 
Q 2931 4750 3382 4451 
Q 3834 4153 3834 3553 
Q 3834 3144 3618 2883 
Q 3403 2622 2981 2516 
z
" transform="scale(0.015625)"/>
      <path id="DejaVuSans-Bold-36" d="M 2316 2303 
Q 2000 2303 1842 2098 
Q 1684 1894 1684 1484 
Q 1684 1075 1842 870 
Q 2000 666 2316 666 
Q 2634 666 2792 870 
Q 2950 1075 2950 1484 
Q 2950 1894 2792 2098 
Q 2634 2303 2316 2303 
z
M 3803 4544 
L 3803 3681 
Q 3506 3822 3243 3889 
Q 2981 3956 2731 3956 
Q 2194 3956 1894 3657 
Q 1594 3359 1544 2772 
Q 1750 2925 1990 3001 
Q 2231 3078 2516 3078 
Q 3231 3078 3670 2659 
Q 4109 2241 4109 1563 
Q 4109 813 3618 361 
Q 3128 -91 2303 -91 
Q 1394 -91 895 523 
Q 397 1138 397 2266 
Q 397 3422 980 4083 
Q 1563 4744 2578 4744 
Q 2900 4744 3203 4694 
Q 3506 4644 3803 4544 
z
" transform="scale(0.015625)"/>
      <path id="DejaVuSans-Bold-35" d="M 678 4666 
L 3669 4666 
L 3669 3781 
L 1638 3781 
L 1638 3059 
Q 1775 3097 1914 3117 
Q 2053 3138 2203 3138 
Q 3056 3138 3531 2711 
Q 4006 2284 4006 1522 
Q 4006 766 3489 337 
Q 2972 -91 2053 -91 
Q 1656 -91 1267 -14 
Q 878 63 494 219 
L 494 1166 
Q 875 947 1217 837 
Q 1559 728 1863 728 
Q 2300 728 2551 942 
Q 2803 1156 2803 1522 
Q 2803 1891 2551 2103 
Q 2300 2316 1863 2316 
Q 1603 2316 1309 2248 
Q 1016 2181 678 2041 
L 678 4666 
z
" transform="scale(0.015625)"/>
      <path id="DejaVuSans-Bold-28" d="M 2413 -844 
L 1484 -844 
Q 1006 -72 778 623 
Q 550 1319 550 2003 
Q 550 2688 779 3389 
Q 1009 4091 1484 4856 
L 2413 4856 
Q 2013 4116 1813 3408 
Q 1613 2700 1613 2009 
Q 1613 1319 1811 609 
Q 2009 -100 2413 -844 
z
" transform="scale(0.015625)"/>
      <path id="DejaVuSans-Bold-41" d="M 3419 850 
L 1538 850 
L 1241 0 
L 31 0 
L 1759 4666 
L 3194 4666 
L 4922 0 
L 3713 0 
L 3419 850 
z
M 1838 1716 
L 3116 1716 
L 2478 3572 
L 1838 1716 
z
" transform="scale(0.015625)"/>
      <path id="DejaVuSans-Bold-75" d="M 500 1363 
L 500 3500 
L 1625 3500 
L 1625 3150 
Q 1625 2866 1622 2436 
Q 1619 2006 1619 1863 
Q 1619 1441 1641 1255 
Q 1663 1069 1716 984 
Q 1784 875 1895 815 
Q 2006 756 2150 756 
Q 2500 756 2700 1025 
Q 2900 1294 2900 1772 
L 2900 3500 
L 4019 3500 
L 4019 0 
L 2900 0 
L 2900 506 
Q 2647 200 2364 54 
Q 2081 -91 1741 -91 
Q 1134 -91 817 281 
Q 500 653 500 1363 
z
" transform="scale(0.015625)"/>
      <path id="DejaVuSans-Bold-72" d="M 3138 2547 
Q 2991 2616 2845 2648 
Q 2700 2681 2553 2681 
Q 2122 2681 1889 2404 
Q 1656 2128 1656 1613 
L 1656 0 
L 538 0 
L 538 3500 
L 1656 3500 
L 1656 2925 
Q 1872 3269 2151 3426 
Q 2431 3584 2822 3584 
Q 2878 3584 2943 3579 
Q 3009 3575 3134 3559 
L 3138 2547 
z
" transform="scale(0.015625)"/>
      <path id="DejaVuSans-Bold-79" d="M 78 3500 
L 1197 3500 
L 2138 1125 
L 2938 3500 
L 4056 3500 
L 2584 -331 
Q 2363 -916 2067 -1148 
Q 1772 -1381 1288 -1381 
L 641 -1381 
L 641 -647 
L 991 -647 
Q 1275 -647 1404 -556 
Q 1534 -466 1606 -231 
L 1638 -134 
L 78 3500 
z
" transform="scale(0.015625)"/>
      <path id="DejaVuSans-Bold-5f" d="M 3200 -916 
L 3200 -1509 
L 0 -1509 
L 0 -916 
L 3200 -916 
z
" transform="scale(0.015625)"/>
      <path id="DejaVuSans-Bold-44" d="M 1791 3756 
L 1791 909 
L 2222 909 
Q 2959 909 3348 1275 
Q 3738 1641 3738 2338 
Q 3738 3031 3350 3393 
Q 2963 3756 2222 3756 
L 1791 3756 
z
M 588 4666 
L 1856 4666 
Q 2919 4666 3439 4514 
Q 3959 4363 4331 4000 
Q 4659 3684 4818 3271 
Q 4978 2859 4978 2338 
Q 4978 1809 4818 1395 
Q 4659 981 4331 666 
Q 3956 303 3431 151 
Q 2906 0 1856 0 
L 588 0 
L 588 4666 
z
" transform="scale(0.015625)"/>
      <path id="DejaVuSans-Bold-62" d="M 2400 722 
Q 2759 722 2948 984 
Q 3138 1247 3138 1747 
Q 3138 2247 2948 2509 
Q 2759 2772 2400 2772 
Q 2041 2772 1848 2508 
Q 1656 2244 1656 1747 
Q 1656 1250 1848 986 
Q 2041 722 2400 722 
z
M 1656 2988 
Q 1888 3294 2169 3439 
Q 2450 3584 2816 3584 
Q 3463 3584 3878 3070 
Q 4294 2556 4294 1747 
Q 4294 938 3878 423 
Q 3463 -91 2816 -91 
Q 2450 -91 2169 54 
Q 1888 200 1656 506 
L 1656 0 
L 538 0 
L 538 4863 
L 1656 4863 
L 1656 2988 
z
" transform="scale(0.015625)"/>
      <path id="DejaVuSans-Bold-29" d="M 513 -844 
Q 913 -100 1113 609 
Q 1313 1319 1313 2009 
Q 1313 2700 1113 3408 
Q 913 4116 513 4856 
L 1441 4856 
Q 1916 4091 2145 3389 
Q 2375 2688 2375 2003 
Q 2375 1319 2147 623 
Q 1919 -72 1441 -844 
L 513 -844 
z
" transform="scale(0.015625)"/>
     </defs>
     <use xlink:href="#DejaVuSans-Bold-69"/>
     <use xlink:href="#DejaVuSans-Bold-6d" transform="translate(34.277344 0)"/>
     <use xlink:href="#DejaVuSans-Bold-67" transform="translate(138.476562 0)"/>
     <use xlink:href="#DejaVuSans-Bold-2d" transform="translate(210.058594 0)"/>
     <use xlink:href="#DejaVuSans-Bold-63" transform="translate(251.5625 0)"/>
     <use xlink:href="#DejaVuSans-Bold-6c" transform="translate(310.839844 0)"/>
     <use xlink:href="#DejaVuSans-Bold-61" transform="translate(345.117188 0)"/>
     <use xlink:href="#DejaVuSans-Bold-73" transform="translate(412.597656 0)"/>
     <use xlink:href="#DejaVuSans-Bold-73" transform="translate(472.119141 0)"/>
     <use xlink:href="#DejaVuSans-Bold-69" transform="translate(531.640625 0)"/>
     <use xlink:href="#DejaVuSans-Bold-66" transform="translate(565.917969 0)"/>
     <use xlink:href="#DejaVuSans-Bold-69" transform="translate(609.423828 0)"/>
     <use xlink:href="#DejaVuSans-Bold-63" transform="translate(643.701172 0)"/>
     <use xlink:href="#DejaVuSans-Bold-61" transform="translate(702.978516 0)"/>
     <use xlink:href="#DejaVuSans-Bold-74" transform="translate(770.458984 0)"/>
     <use xlink:href="#DejaVuSans-Bold-69" transform="translate(818.261719 0)"/>
     <use xlink:href="#DejaVuSans-Bold-6f" transform="translate(852.539062 0)"/>
     <use xlink:href="#DejaVuSans-Bold-6e" transform="translate(921.240234 0)"/>
     <use xlink:href="#DejaVuSans-Bold-20" transform="translate(992.431641 0)"/>
     <use xlink:href="#DejaVuSans-Bold-2d" transform="translate(1027.246094 0)"/>
     <use xlink:href="#DejaVuSans-Bold-20" transform="translate(1068.75 0)"/>
     <use xlink:href="#DejaVuSans-Bold-70" transform="translate(1103.564453 0)"/>
     <use xlink:href="#DejaVuSans-Bold-6c" transform="translate(1175.146484 0)"/>
     <use xlink:href="#DejaVuSans-Bold-61" transform="translate(1209.423828 0)"/>
     <use xlink:href="#DejaVuSans-Bold-63" transform="translate(1276.904297 0)"/>
     <use xlink:href="#DejaVuSans-Bold-65" transform="translate(1336.181641 0)"/>
     <use xlink:href="#DejaVuSans-Bold-73" transform="translate(1404.003906 0)"/>
     <use xlink:href="#DejaVuSans-Bold-33" transform="translate(1463.525391 0)"/>
     <use xlink:href="#DejaVuSans-Bold-36" transform="translate(1533.105469 0)"/>
     <use xlink:href="#DejaVuSans-Bold-35" transform="translate(1602.685547 0)"/>
     <use xlink:href="#DejaVuSans-Bold-20" transform="translate(1672.265625 0)"/>
     <use xlink:href="#DejaVuSans-Bold-28" transform="translate(1707.080078 0)"/>
     <use xlink:href="#DejaVuSans-Bold-41" transform="translate(1752.783203 0)"/>
     <use xlink:href="#DejaVuSans-Bold-63" transform="translate(1830.175781 0)"/>
     <use xlink:href="#DejaVuSans-Bold-63" transform="translate(1889.453125 0)"/>
     <use xlink:href="#DejaVuSans-Bold-75" transform="translate(1948.730469 0)"/>
     <use xlink:href="#DejaVuSans-Bold-72" transform="translate(2019.921875 0)"/>
     <use xlink:href="#DejaVuSans-Bold-61" transform="translate(2069.238281 0)"/>
     <use xlink:href="#DejaVuSans-Bold-63" transform="translate(2136.71875 0)"/>
     <use xlink:href="#DejaVuSans-Bold-79" transform="translate(2195.996094 0)"/>
     <use xlink:href="#DejaVuSans-Bold-5f" transform="translate(2261.181641 0)"/>
     <use xlink:href="#DejaVuSans-Bold-6d" transform="translate(2311.181641 0)"/>
     <use xlink:href="#DejaVuSans-Bold-65" transform="translate(2415.380859 0)"/>
     <use xlink:href="#DejaVuSans-Bold-61" transform="translate(2483.203125 0)"/>
     <use xlink:href="#DejaVuSans-Bold-6e" transform="translate(2550.683594 0)"/>
     <use xlink:href="#DejaVuSans-Bold-20" transform="translate(2621.875 0)"/>
     <use xlink:href="#DejaVuSans-Bold-44" transform="translate(2656.689453 0)"/>
     <use xlink:href="#DejaVuSans-Bold-69" transform="translate(2739.697266 0)"/>
     <use xlink:href="#DejaVuSans-Bold-73" transform="translate(2773.974609 0)"/>
     <use xlink:href="#DejaVuSans-Bold-74" transform="translate(2833.496094 0)"/>
     <use xlink:href="#DejaVuSans-Bold-72" transform="translate(2881.298828 0)"/>
     <use xlink:href="#DejaVuSans-Bold-69" transform="translate(2930.615234 0)"/>
     <use xlink:href="#DejaVuSans-Bold-62" transform="translate(2964.892578 0)"/>
     <use xlink:href="#DejaVuSans-Bold-75" transform="translate(3036.474609 0)"/>
     <use xlink:href="#DejaVuSans-Bold-74" transform="translate(3107.666016 0)"/>
     <use xlink:href="#DejaVuSans-Bold-69" transform="translate(3155.46875 0)"/>
     <use xlink:href="#DejaVuSans-Bold-6f" transform="translate(3189.746094 0)"/>
     <use xlink:href="#DejaVuSans-Bold-6e" transform="translate(3258.447266 0)"/>
     <use xlink:href="#DejaVuSans-Bold-29" transform="translate(3329.638672 0)"/>
    </g>
   </g>
  </g>
 </g>
 <defs>
  <clipPath id="p10c0df3e1d">
   <rect x="71.46" y="30.48" width="916.65" height="494.58"/>
  </clipPath>
 </defs>
</svg>
