<?xml version="1.0" encoding="utf-8" standalone="no"?>
<!DOCTYPE svg PUBLIC "-//W3C//DTD SVG 1.1//EN"
  "http://www.w3.org/Graphics/SVG/1.1/DTD/svg11.dtd">
<svg xmlns:xlink="http://www.w3.org/1999/xlink" width="1008pt" height="576pt" viewBox="0 0 1008 576" xmlns="http://www.w3.org/2000/svg" version="1.1">
 <metadata>
  <rdf:RDF xmlns:dc="http://purl.org/dc/elements/1.1/" xmlns:cc="http://creativecommons.org/ns#" xmlns:rdf="http://www.w3.org/1999/02/22-rdf-syntax-ns#">
   <cc:Work>
    <dc:type rdf:resource="http://purl.org/dc/dcmitype/StillImage"/>
    <dc:date>2025-02-05T22:42:01.066629</dc:date>
    <dc:format>image/svg+xml</dc:format>
    <dc:creator>
     <cc:Agent>
      <dc:title>Matplotlib v3.10.0, https://matplotlib.org/</dc:title>
     </cc:Agent>
    </dc:creator>
   </cc:Work>
  </rdf:RDF>
 </metadata>
 <defs>
  <style type="text/css">*{stroke-linejoin: round; stroke-linecap: butt}</style>
 </defs>
 <g id="figure_1">
  <g id="patch_1">
   <path d="M 0 576 
L 1008 576 
L 1008 0 
L 0 0 
z
" style="fill: #ffffff"/>
  </g>
  <g id="axes_1">
   <g id="patch_2">
    <path d="M 64.53 525.06 
L 988.11 525.06 
L 988.11 30.48 
L 64.53 30.48 
z
" style="fill: #ffffff"/>
   </g>
   <g id="matplotlib.axis_1">
    <g id="xtick_1">
     <g id="line2d_1">
      <path d="M 73.674356 525.06 
L 73.674356 30.48 
" clip-path="url(#pb0e2629359)" style="fill: none; stroke-dasharray: 3.7,1.6; stroke-dashoffset: 0; stroke: #cccccc; stroke-opacity: 0.5"/>
     </g>
     <g id="text_1">
      <!-- 0 -->
      <g style="fill: #262626" transform="translate(70.174981 542.918281) scale(0.11 -0.11)">
       <defs>
        <path id="DejaVuSans-30" d="M 2034 4250 
Q 1547 4250 1301 3770 
Q 1056 3291 1056 2328 
Q 1056 1369 1301 889 
Q 1547 409 2034 409 
Q 2525 409 2770 889 
Q 3016 1369 3016 2328 
Q 3016 3291 2770 3770 
Q 2525 4250 2034 4250 
z
M 2034 4750 
Q 2819 4750 3233 4129 
Q 3647 3509 3647 2328 
Q 3647 1150 3233 529 
Q 2819 -91 2034 -91 
Q 1250 -91 836 529 
Q 422 1150 422 2328 
Q 422 3509 836 4129 
Q 1250 4750 2034 4750 
z
" transform="scale(0.015625)"/>
       </defs>
       <use xlink:href="#DejaVuSans-30"/>
      </g>
     </g>
    </g>
    <g id="xtick_2">
     <g id="line2d_2">
      <path d="M 256.561485 525.06 
L 256.561485 30.48 
" clip-path="url(#pb0e2629359)" style="fill: none; stroke-dasharray: 3.7,1.6; stroke-dashoffset: 0; stroke: #cccccc; stroke-opacity: 0.5"/>
     </g>
     <g id="text_2">
      <!-- 10 -->
      <g style="fill: #262626" transform="translate(249.562735 542.918281) scale(0.11 -0.11)">
       <defs>
        <path id="DejaVuSans-31" d="M 794 531 
L 1825 531 
L 1825 4091 
L 703 3866 
L 703 4441 
L 1819 4666 
L 2450 4666 
L 2450 531 
L 3481 531 
L 3481 0 
L 794 0 
L 794 531 
z
" transform="scale(0.015625)"/>
       </defs>
       <use xlink:href="#DejaVuSans-31"/>
       <use xlink:href="#DejaVuSans-30" transform="translate(63.623047 0)"/>
      </g>
     </g>
    </g>
    <g id="xtick_3">
     <g id="line2d_3">
      <path d="M 439.448614 525.06 
L 439.448614 30.48 
" clip-path="url(#pb0e2629359)" style="fill: none; stroke-dasharray: 3.7,1.6; stroke-dashoffset: 0; stroke: #cccccc; stroke-opacity: 0.5"/>
     </g>
     <g id="text_3">
      <!-- 20 -->
      <g style="fill: #262626" transform="translate(432.449864 542.918281) scale(0.11 -0.11)">
       <defs>
        <path id="DejaVuSans-32" d="M 1228 531 
L 3431 531 
L 3431 0 
L 469 0 
L 469 531 
Q 828 903 1448 1529 
Q 2069 2156 2228 2338 
Q 2531 2678 2651 2914 
Q 2772 3150 2772 3378 
Q 2772 3750 2511 3984 
Q 2250 4219 1831 4219 
Q 1534 4219 1204 4116 
Q 875 4013 500 3803 
L 500 4441 
Q 881 4594 1212 4672 
Q 1544 4750 1819 4750 
Q 2544 4750 2975 4387 
Q 3406 4025 3406 3419 
Q 3406 3131 3298 2873 
Q 3191 2616 2906 2266 
Q 2828 2175 2409 1742 
Q 1991 1309 1228 531 
z
" transform="scale(0.015625)"/>
       </defs>
       <use xlink:href="#DejaVuSans-32"/>
       <use xlink:href="#DejaVuSans-30" transform="translate(63.623047 0)"/>
      </g>
     </g>
    </g>
    <g id="xtick_4">
     <g id="line2d_4">
      <path d="M 622.335743 525.06 
L 622.335743 30.48 
" clip-path="url(#pb0e2629359)" style="fill: none; stroke-dasharray: 3.7,1.6; stroke-dashoffset: 0; stroke: #cccccc; stroke-opacity: 0.5"/>
     </g>
     <g id="text_4">
      <!-- 30 -->
      <g style="fill: #262626" transform="translate(615.336993 542.918281) scale(0.11 -0.11)">
       <defs>
        <path id="DejaVuSans-33" d="M 2597 2516 
Q 3050 2419 3304 2112 
Q 3559 1806 3559 1356 
Q 3559 666 3084 287 
Q 2609 -91 1734 -91 
Q 1441 -91 1130 -33 
Q 819 25 488 141 
L 488 750 
Q 750 597 1062 519 
Q 1375 441 1716 441 
Q 2309 441 2620 675 
Q 2931 909 2931 1356 
Q 2931 1769 2642 2001 
Q 2353 2234 1838 2234 
L 1294 2234 
L 1294 2753 
L 1863 2753 
Q 2328 2753 2575 2939 
Q 2822 3125 2822 3475 
Q 2822 3834 2567 4026 
Q 2313 4219 1838 4219 
Q 1578 4219 1281 4162 
Q 984 4106 628 3988 
L 628 4550 
Q 988 4650 1302 4700 
Q 1616 4750 1894 4750 
Q 2613 4750 3031 4423 
Q 3450 4097 3450 3541 
Q 3450 3153 3228 2886 
Q 3006 2619 2597 2516 
z
" transform="scale(0.015625)"/>
       </defs>
       <use xlink:href="#DejaVuSans-33"/>
       <use xlink:href="#DejaVuSans-30" transform="translate(63.623047 0)"/>
      </g>
     </g>
    </g>
    <g id="xtick_5">
     <g id="line2d_5">
      <path d="M 805.222871 525.06 
L 805.222871 30.48 
" clip-path="url(#pb0e2629359)" style="fill: none; stroke-dasharray: 3.7,1.6; stroke-dashoffset: 0; stroke: #cccccc; stroke-opacity: 0.5"/>
     </g>
     <g id="text_5">
      <!-- 40 -->
      <g style="fill: #262626" transform="translate(798.224121 542.918281) scale(0.11 -0.11)">
       <defs>
        <path id="DejaVuSans-34" d="M 2419 4116 
L 825 1625 
L 2419 1625 
L 2419 4116 
z
M 2253 4666 
L 3047 4666 
L 3047 1625 
L 3713 1625 
L 3713 1100 
L 3047 1100 
L 3047 0 
L 2419 0 
L 2419 1100 
L 313 1100 
L 313 1709 
L 2253 4666 
z
" transform="scale(0.015625)"/>
       </defs>
       <use xlink:href="#DejaVuSans-34"/>
       <use xlink:href="#DejaVuSans-30" transform="translate(63.623047 0)"/>
      </g>
     </g>
    </g>
    <g id="xtick_6">
     <g id="line2d_6">
      <path d="M 988.11 525.06 
L 988.11 30.48 
" clip-path="url(#pb0e2629359)" style="fill: none; stroke-dasharray: 3.7,1.6; stroke-dashoffset: 0; stroke: #cccccc; stroke-opacity: 0.5"/>
     </g>
     <g id="text_6">
      <!-- 50 -->
      <g style="fill: #262626" transform="translate(981.11125 542.918281) scale(0.11 -0.11)">
       <defs>
        <path id="DejaVuSans-35" d="M 691 4666 
L 3169 4666 
L 3169 4134 
L 1269 4134 
L 1269 2991 
Q 1406 3038 1543 3061 
Q 1681 3084 1819 3084 
Q 2600 3084 3056 2656 
Q 3513 2228 3513 1497 
Q 3513 744 3044 326 
Q 2575 -91 1722 -91 
Q 1428 -91 1123 -41 
Q 819 9 494 109 
L 494 744 
Q 775 591 1075 516 
Q 1375 441 1709 441 
Q 2250 441 2565 725 
Q 2881 1009 2881 1497 
Q 2881 1984 2565 2268 
Q 2250 2553 1709 2553 
Q 1456 2553 1204 2497 
Q 953 2441 691 2322 
L 691 4666 
z
" transform="scale(0.015625)"/>
       </defs>
       <use xlink:href="#DejaVuSans-35"/>
       <use xlink:href="#DejaVuSans-30" transform="translate(63.623047 0)"/>
      </g>
     </g>
    </g>
    <g id="text_7">
     <!-- Epoch -->
     <g style="fill: #262626" transform="translate(504.884688 559.84375) scale(0.14 -0.14)">
      <defs>
       <path id="DejaVuSans-45" d="M 628 4666 
L 3578 4666 
L 3578 4134 
L 1259 4134 
L 1259 2753 
L 3481 2753 
L 3481 2222 
L 1259 2222 
L 1259 531 
L 3634 531 
L 3634 0 
L 628 0 
L 628 4666 
z
" transform="scale(0.015625)"/>
       <path id="DejaVuSans-70" d="M 1159 525 
L 1159 -1331 
L 581 -1331 
L 581 3500 
L 1159 3500 
L 1159 2969 
Q 1341 3281 1617 3432 
Q 1894 3584 2278 3584 
Q 2916 3584 3314 3078 
Q 3713 2572 3713 1747 
Q 3713 922 3314 415 
Q 2916 -91 2278 -91 
Q 1894 -91 1617 61 
Q 1341 213 1159 525 
z
M 3116 1747 
Q 3116 2381 2855 2742 
Q 2594 3103 2138 3103 
Q 1681 3103 1420 2742 
Q 1159 2381 1159 1747 
Q 1159 1113 1420 752 
Q 1681 391 2138 391 
Q 2594 391 2855 752 
Q 3116 1113 3116 1747 
z
" transform="scale(0.015625)"/>
       <path id="DejaVuSans-6f" d="M 1959 3097 
Q 1497 3097 1228 2736 
Q 959 2375 959 1747 
Q 959 1119 1226 758 
Q 1494 397 1959 397 
Q 2419 397 2687 759 
Q 2956 1122 2956 1747 
Q 2956 2369 2687 2733 
Q 2419 3097 1959 3097 
z
M 1959 3584 
Q 2709 3584 3137 3096 
Q 3566 2609 3566 1747 
Q 3566 888 3137 398 
Q 2709 -91 1959 -91 
Q 1206 -91 779 398 
Q 353 888 353 1747 
Q 353 2609 779 3096 
Q 1206 3584 1959 3584 
z
" transform="scale(0.015625)"/>
       <path id="DejaVuSans-63" d="M 3122 3366 
L 3122 2828 
Q 2878 2963 2633 3030 
Q 2388 3097 2138 3097 
Q 1578 3097 1268 2742 
Q 959 2388 959 1747 
Q 959 1106 1268 751 
Q 1578 397 2138 397 
Q 2388 397 2633 464 
Q 2878 531 3122 666 
L 3122 134 
Q 2881 22 2623 -34 
Q 2366 -91 2075 -91 
Q 1284 -91 818 406 
Q 353 903 353 1747 
Q 353 2603 823 3093 
Q 1294 3584 2113 3584 
Q 2378 3584 2631 3529 
Q 2884 3475 3122 3366 
z
" transform="scale(0.015625)"/>
       <path id="DejaVuSans-68" d="M 3513 2113 
L 3513 0 
L 2938 0 
L 2938 2094 
Q 2938 2591 2744 2837 
Q 2550 3084 2163 3084 
Q 1697 3084 1428 2787 
Q 1159 2491 1159 1978 
L 1159 0 
L 581 0 
L 581 4863 
L 1159 4863 
L 1159 2956 
Q 1366 3272 1645 3428 
Q 1925 3584 2291 3584 
Q 2894 3584 3203 3211 
Q 3513 2838 3513 2113 
z
" transform="scale(0.015625)"/>
      </defs>
      <use xlink:href="#DejaVuSans-45"/>
      <use xlink:href="#DejaVuSans-70" transform="translate(63.183594 0)"/>
      <use xlink:href="#DejaVuSans-6f" transform="translate(126.660156 0)"/>
      <use xlink:href="#DejaVuSans-63" transform="translate(187.841797 0)"/>
      <use xlink:href="#DejaVuSans-68" transform="translate(242.822266 0)"/>
     </g>
    </g>
   </g>
   <g id="matplotlib.axis_2">
    <g id="ytick_1">
     <g id="line2d_7">
      <path d="M 64.53 471.492055 
L 988.11 471.492055 
" clip-path="url(#pb0e2629359)" style="fill: none; stroke-dasharray: 3.7,1.6; stroke-dashoffset: 0; stroke: #cccccc; stroke-opacity: 0.5"/>
     </g>
     <g id="text_8">
      <!-- 0.05 -->
      <g style="fill: #262626" transform="translate(30.537813 475.671196) scale(0.11 -0.11)">
       <defs>
        <path id="DejaVuSans-2e" d="M 684 794 
L 1344 794 
L 1344 0 
L 684 0 
L 684 794 
z
" transform="scale(0.015625)"/>
       </defs>
       <use xlink:href="#DejaVuSans-30"/>
       <use xlink:href="#DejaVuSans-2e" transform="translate(63.623047 0)"/>
       <use xlink:href="#DejaVuSans-30" transform="translate(95.410156 0)"/>
       <use xlink:href="#DejaVuSans-35" transform="translate(159.033203 0)"/>
      </g>
     </g>
    </g>
    <g id="ytick_2">
     <g id="line2d_8">
      <path d="M 64.53 412.717846 
L 988.11 412.717846 
" clip-path="url(#pb0e2629359)" style="fill: none; stroke-dasharray: 3.7,1.6; stroke-dashoffset: 0; stroke: #cccccc; stroke-opacity: 0.5"/>
     </g>
     <g id="text_9">
      <!-- 0.10 -->
      <g style="fill: #262626" transform="translate(30.537813 416.896986) scale(0.11 -0.11)">
       <use xlink:href="#DejaVuSans-30"/>
       <use xlink:href="#DejaVuSans-2e" transform="translate(63.623047 0)"/>
       <use xlink:href="#DejaVuSans-31" transform="translate(95.410156 0)"/>
       <use xlink:href="#DejaVuSans-30" transform="translate(159.033203 0)"/>
      </g>
     </g>
    </g>
    <g id="ytick_3">
     <g id="line2d_9">
      <path d="M 64.53 353.943636 
L 988.11 353.943636 
" clip-path="url(#pb0e2629359)" style="fill: none; stroke-dasharray: 3.7,1.6; stroke-dashoffset: 0; stroke: #cccccc; stroke-opacity: 0.5"/>
     </g>
     <g id="text_10">
      <!-- 0.15 -->
      <g style="fill: #262626" transform="translate(30.537813 358.122777) scale(0.11 -0.11)">
       <use xlink:href="#DejaVuSans-30"/>
       <use xlink:href="#DejaVuSans-2e" transform="translate(63.623047 0)"/>
       <use xlink:href="#DejaVuSans-31" transform="translate(95.410156 0)"/>
       <use xlink:href="#DejaVuSans-35" transform="translate(159.033203 0)"/>
      </g>
     </g>
    </g>
    <g id="ytick_4">
     <g id="line2d_10">
      <path d="M 64.53 295.169427 
L 988.11 295.169427 
" clip-path="url(#pb0e2629359)" style="fill: none; stroke-dasharray: 3.7,1.6; stroke-dashoffset: 0; stroke: #cccccc; stroke-opacity: 0.5"/>
     </g>
     <g id="text_11">
      <!-- 0.20 -->
      <g style="fill: #262626" transform="translate(30.537813 299.348567) scale(0.11 -0.11)">
       <use xlink:href="#DejaVuSans-30"/>
       <use xlink:href="#DejaVuSans-2e" transform="translate(63.623047 0)"/>
       <use xlink:href="#DejaVuSans-32" transform="translate(95.410156 0)"/>
       <use xlink:href="#DejaVuSans-30" transform="translate(159.033203 0)"/>
      </g>
     </g>
    </g>
    <g id="ytick_5">
     <g id="line2d_11">
      <path d="M 64.53 236.395217 
L 988.11 236.395217 
" clip-path="url(#pb0e2629359)" style="fill: none; stroke-dasharray: 3.7,1.6; stroke-dashoffset: 0; stroke: #cccccc; stroke-opacity: 0.5"/>
     </g>
     <g id="text_12">
      <!-- 0.25 -->
      <g style="fill: #262626" transform="translate(30.537813 240.574358) scale(0.11 -0.11)">
       <use xlink:href="#DejaVuSans-30"/>
       <use xlink:href="#DejaVuSans-2e" transform="translate(63.623047 0)"/>
       <use xlink:href="#DejaVuSans-32" transform="translate(95.410156 0)"/>
       <use xlink:href="#DejaVuSans-35" transform="translate(159.033203 0)"/>
      </g>
     </g>
    </g>
    <g id="ytick_6">
     <g id="line2d_12">
      <path d="M 64.53 177.621008 
L 988.11 177.621008 
" clip-path="url(#pb0e2629359)" style="fill: none; stroke-dasharray: 3.7,1.6; stroke-dashoffset: 0; stroke: #cccccc; stroke-opacity: 0.5"/>
     </g>
     <g id="text_13">
      <!-- 0.30 -->
      <g style="fill: #262626" transform="translate(30.537813 181.800148) scale(0.11 -0.11)">
       <use xlink:href="#DejaVuSans-30"/>
       <use xlink:href="#DejaVuSans-2e" transform="translate(63.623047 0)"/>
       <use xlink:href="#DejaVuSans-33" transform="translate(95.410156 0)"/>
       <use xlink:href="#DejaVuSans-30" transform="translate(159.033203 0)"/>
      </g>
     </g>
    </g>
    <g id="ytick_7">
     <g id="line2d_13">
      <path d="M 64.53 118.846798 
L 988.11 118.846798 
" clip-path="url(#pb0e2629359)" style="fill: none; stroke-dasharray: 3.7,1.6; stroke-dashoffset: 0; stroke: #cccccc; stroke-opacity: 0.5"/>
     </g>
     <g id="text_14">
      <!-- 0.35 -->
      <g style="fill: #262626" transform="translate(30.537813 123.025939) scale(0.11 -0.11)">
       <use xlink:href="#DejaVuSans-30"/>
       <use xlink:href="#DejaVuSans-2e" transform="translate(63.623047 0)"/>
       <use xlink:href="#DejaVuSans-33" transform="translate(95.410156 0)"/>
       <use xlink:href="#DejaVuSans-35" transform="translate(159.033203 0)"/>
      </g>
     </g>
    </g>
    <g id="ytick_8">
     <g id="line2d_14">
      <path d="M 64.53 60.072588 
L 988.11 60.072588 
" clip-path="url(#pb0e2629359)" style="fill: none; stroke-dasharray: 3.7,1.6; stroke-dashoffset: 0; stroke: #cccccc; stroke-opacity: 0.5"/>
     </g>
     <g id="text_15">
      <!-- 0.40 -->
      <g style="fill: #262626" transform="translate(30.537813 64.251729) scale(0.11 -0.11)">
       <use xlink:href="#DejaVuSans-30"/>
       <use xlink:href="#DejaVuSans-2e" transform="translate(63.623047 0)"/>
       <use xlink:href="#DejaVuSans-34" transform="translate(95.410156 0)"/>
       <use xlink:href="#DejaVuSans-30" transform="translate(159.033203 0)"/>
      </g>
     </g>
    </g>
    <g id="text_16">
     <!-- Accuracy_mean -->
     <g style="fill: #262626" transform="translate(23.236875 333.080938) rotate(-90) scale(0.14 -0.14)">
      <defs>
       <path id="DejaVuSans-41" d="M 2188 4044 
L 1331 1722 
L 3047 1722 
L 2188 4044 
z
M 1831 4666 
L 2547 4666 
L 4325 0 
L 3669 0 
L 3244 1197 
L 1141 1197 
L 716 0 
L 50 0 
L 1831 4666 
z
" transform="scale(0.015625)"/>
       <path id="DejaVuSans-75" d="M 544 1381 
L 544 3500 
L 1119 3500 
L 1119 1403 
Q 1119 906 1312 657 
Q 1506 409 1894 409 
Q 2359 409 2629 706 
Q 2900 1003 2900 1516 
L 2900 3500 
L 3475 3500 
L 3475 0 
L 2900 0 
L 2900 538 
Q 2691 219 2414 64 
Q 2138 -91 1772 -91 
Q 1169 -91 856 284 
Q 544 659 544 1381 
z
M 1991 3584 
L 1991 3584 
z
" transform="scale(0.015625)"/>
       <path id="DejaVuSans-72" d="M 2631 2963 
Q 2534 3019 2420 3045 
Q 2306 3072 2169 3072 
Q 1681 3072 1420 2755 
Q 1159 2438 1159 1844 
L 1159 0 
L 581 0 
L 581 3500 
L 1159 3500 
L 1159 2956 
Q 1341 3275 1631 3429 
Q 1922 3584 2338 3584 
Q 2397 3584 2469 3576 
Q 2541 3569 2628 3553 
L 2631 2963 
z
" transform="scale(0.015625)"/>
       <path id="DejaVuSans-61" d="M 2194 1759 
Q 1497 1759 1228 1600 
Q 959 1441 959 1056 
Q 959 750 1161 570 
Q 1363 391 1709 391 
Q 2188 391 2477 730 
Q 2766 1069 2766 1631 
L 2766 1759 
L 2194 1759 
z
M 3341 1997 
L 3341 0 
L 2766 0 
L 2766 531 
Q 2569 213 2275 61 
Q 1981 -91 1556 -91 
Q 1019 -91 701 211 
Q 384 513 384 1019 
Q 384 1609 779 1909 
Q 1175 2209 1959 2209 
L 2766 2209 
L 2766 2266 
Q 2766 2663 2505 2880 
Q 2244 3097 1772 3097 
Q 1472 3097 1187 3025 
Q 903 2953 641 2809 
L 641 3341 
Q 956 3463 1253 3523 
Q 1550 3584 1831 3584 
Q 2591 3584 2966 3190 
Q 3341 2797 3341 1997 
z
" transform="scale(0.015625)"/>
       <path id="DejaVuSans-79" d="M 2059 -325 
Q 1816 -950 1584 -1140 
Q 1353 -1331 966 -1331 
L 506 -1331 
L 506 -850 
L 844 -850 
Q 1081 -850 1212 -737 
Q 1344 -625 1503 -206 
L 1606 56 
L 191 3500 
L 800 3500 
L 1894 763 
L 2988 3500 
L 3597 3500 
L 2059 -325 
z
" transform="scale(0.015625)"/>
       <path id="DejaVuSans-5f" d="M 3263 -1063 
L 3263 -1509 
L -63 -1509 
L -63 -1063 
L 3263 -1063 
z
" transform="scale(0.015625)"/>
       <path id="DejaVuSans-6d" d="M 3328 2828 
Q 3544 3216 3844 3400 
Q 4144 3584 4550 3584 
Q 5097 3584 5394 3201 
Q 5691 2819 5691 2113 
L 5691 0 
L 5113 0 
L 5113 2094 
Q 5113 2597 4934 2840 
Q 4756 3084 4391 3084 
Q 3944 3084 3684 2787 
Q 3425 2491 3425 1978 
L 3425 0 
L 2847 0 
L 2847 2094 
Q 2847 2600 2669 2842 
Q 2491 3084 2119 3084 
Q 1678 3084 1418 2786 
Q 1159 2488 1159 1978 
L 1159 0 
L 581 0 
L 581 3500 
L 1159 3500 
L 1159 2956 
Q 1356 3278 1631 3431 
Q 1906 3584 2284 3584 
Q 2666 3584 2933 3390 
Q 3200 3197 3328 2828 
z
" transform="scale(0.015625)"/>
       <path id="DejaVuSans-65" d="M 3597 1894 
L 3597 1613 
L 953 1613 
Q 991 1019 1311 708 
Q 1631 397 2203 397 
Q 2534 397 2845 478 
Q 3156 559 3463 722 
L 3463 178 
Q 3153 47 2828 -22 
Q 2503 -91 2169 -91 
Q 1331 -91 842 396 
Q 353 884 353 1716 
Q 353 2575 817 3079 
Q 1281 3584 2069 3584 
Q 2775 3584 3186 3129 
Q 3597 2675 3597 1894 
z
M 3022 2063 
Q 3016 2534 2758 2815 
Q 2500 3097 2075 3097 
Q 1594 3097 1305 2825 
Q 1016 2553 972 2059 
L 3022 2063 
z
" transform="scale(0.015625)"/>
       <path id="DejaVuSans-6e" d="M 3513 2113 
L 3513 0 
L 2938 0 
L 2938 2094 
Q 2938 2591 2744 2837 
Q 2550 3084 2163 3084 
Q 1697 3084 1428 2787 
Q 1159 2491 1159 1978 
L 1159 0 
L 581 0 
L 581 3500 
L 1159 3500 
L 1159 2956 
Q 1366 3272 1645 3428 
Q 1925 3584 2291 3584 
Q 2894 3584 3203 3211 
Q 3513 2838 3513 2113 
z
" transform="scale(0.015625)"/>
      </defs>
      <use xlink:href="#DejaVuSans-41"/>
      <use xlink:href="#DejaVuSans-63" transform="translate(66.658203 0)"/>
      <use xlink:href="#DejaVuSans-63" transform="translate(121.638672 0)"/>
      <use xlink:href="#DejaVuSans-75" transform="translate(176.619141 0)"/>
      <use xlink:href="#DejaVuSans-72" transform="translate(239.998047 0)"/>
      <use xlink:href="#DejaVuSans-61" transform="translate(281.111328 0)"/>
      <use xlink:href="#DejaVuSans-63" transform="translate(342.390625 0)"/>
      <use xlink:href="#DejaVuSans-79" transform="translate(397.371094 0)"/>
      <use xlink:href="#DejaVuSans-5f" transform="translate(456.550781 0)"/>
      <use xlink:href="#DejaVuSans-6d" transform="translate(506.550781 0)"/>
      <use xlink:href="#DejaVuSans-65" transform="translate(603.962891 0)"/>
      <use xlink:href="#DejaVuSans-61" transform="translate(665.486328 0)"/>
      <use xlink:href="#DejaVuSans-6e" transform="translate(726.765625 0)"/>
     </g>
    </g>
   </g>
   <g id="patch_3">
    <path d="M 67.273307 476.714055 
L 80.075406 476.714055 
L 80.075406 440.096832 
L 67.273307 440.096832 
L 67.273307 476.714055 
z
" clip-path="url(#pb0e2629359)" style="fill: #72b6a1; stroke: #595959; stroke-linejoin: miter"/>
   </g>
   <g id="line2d_15">
    <path d="M 73.674356 476.714055 
L 73.674356 502.579091 
" clip-path="url(#pb0e2629359)" style="fill: none; stroke: #595959"/>
   </g>
   <g id="line2d_16">
    <path d="M 73.674356 440.096832 
L 73.674356 386.266093 
" clip-path="url(#pb0e2629359)" style="fill: none; stroke: #595959"/>
   </g>
   <g id="line2d_17">
    <path d="M 70.473832 502.579091 
L 76.874881 502.579091 
" clip-path="url(#pb0e2629359)" style="fill: none; stroke: #595959; stroke-linecap: round"/>
   </g>
   <g id="line2d_18">
    <path d="M 70.473832 386.266093 
L 76.874881 386.266093 
" clip-path="url(#pb0e2629359)" style="fill: none; stroke: #595959; stroke-linecap: round"/>
   </g>
   <g id="line2d_19">
    <defs>
     <path id="m3d76a31daf" d="M 0 3 
C 0.795609 3 1.55874 2.683901 2.12132 2.12132 
C 2.683901 1.55874 3 0.795609 3 0 
C 3 -0.795609 2.683901 -1.55874 2.12132 -2.12132 
C 1.55874 -2.683901 0.795609 -3 0 -3 
C -0.795609 -3 -1.55874 -2.683901 -2.12132 -2.12132 
C -2.683901 -1.55874 -3 -0.795609 -3 0 
C -3 0.795609 -2.683901 1.55874 -2.12132 2.12132 
C -1.55874 2.683901 -0.795609 3 0 3 
z
" style="stroke: #595959"/>
    </defs>
    <g clip-path="url(#pb0e2629359)">
     <use xlink:href="#m3d76a31daf" x="73.674356" y="357.773755" style="fill-opacity: 0; stroke: #595959"/>
    </g>
   </g>
   <g id="patch_4">
    <path d="M 85.56202 445.125506 
L 98.364119 445.125506 
L 98.364119 379.888251 
L 85.56202 379.888251 
L 85.56202 445.125506 
z
" clip-path="url(#pb0e2629359)" style="fill: #72b6a1; stroke: #595959; stroke-linejoin: miter"/>
   </g>
   <g id="line2d_20">
    <path d="M 91.963069 445.125506 
L 91.963069 496.380261 
" clip-path="url(#pb0e2629359)" style="fill: none; stroke: #595959"/>
   </g>
   <g id="line2d_21">
    <path d="M 91.963069 379.888251 
L 91.963069 305.925107 
" clip-path="url(#pb0e2629359)" style="fill: none; stroke: #595959"/>
   </g>
   <g id="line2d_22">
    <path d="M 88.762545 496.380261 
L 95.163594 496.380261 
" clip-path="url(#pb0e2629359)" style="fill: none; stroke: #595959; stroke-linecap: round"/>
   </g>
   <g id="line2d_23">
    <path d="M 88.762545 305.925107 
L 95.163594 305.925107 
" clip-path="url(#pb0e2629359)" style="fill: none; stroke: #595959; stroke-linecap: round"/>
   </g>
   <g id="line2d_24"/>
   <g id="patch_5">
    <path d="M 103.850733 425.752566 
L 116.652832 425.752566 
L 116.652832 328.940759 
L 103.850733 328.940759 
L 103.850733 425.752566 
z
" clip-path="url(#pb0e2629359)" style="fill: #72b6a1; stroke: #595959; stroke-linejoin: miter"/>
   </g>
   <g id="line2d_25">
    <path d="M 110.251782 425.752566 
L 110.251782 492.575967 
" clip-path="url(#pb0e2629359)" style="fill: none; stroke: #595959"/>
   </g>
   <g id="line2d_26">
    <path d="M 110.251782 328.940759 
L 110.251782 195.958561 
" clip-path="url(#pb0e2629359)" style="fill: none; stroke: #595959"/>
   </g>
   <g id="line2d_27">
    <path d="M 107.051257 492.575967 
L 113.452307 492.575967 
" clip-path="url(#pb0e2629359)" style="fill: none; stroke: #595959; stroke-linecap: round"/>
   </g>
   <g id="line2d_28">
    <path d="M 107.051257 195.958561 
L 113.452307 195.958561 
" clip-path="url(#pb0e2629359)" style="fill: none; stroke: #595959; stroke-linecap: round"/>
   </g>
   <g id="line2d_29"/>
   <g id="patch_6">
    <path d="M 122.139446 414.105782 
L 134.941545 414.105782 
L 134.941545 289.540666 
L 122.139446 289.540666 
L 122.139446 414.105782 
z
" clip-path="url(#pb0e2629359)" style="fill: #72b6a1; stroke: #595959; stroke-linejoin: miter"/>
   </g>
   <g id="line2d_30">
    <path d="M 128.540495 414.105782 
L 128.540495 485.373455 
" clip-path="url(#pb0e2629359)" style="fill: none; stroke: #595959"/>
   </g>
   <g id="line2d_31">
    <path d="M 128.540495 289.540666 
L 128.540495 111.25317 
" clip-path="url(#pb0e2629359)" style="fill: none; stroke: #595959"/>
   </g>
   <g id="line2d_32">
    <path d="M 125.33997 485.373455 
L 131.74102 485.373455 
" clip-path="url(#pb0e2629359)" style="fill: none; stroke: #595959; stroke-linecap: round"/>
   </g>
   <g id="line2d_33">
    <path d="M 125.33997 111.25317 
L 131.74102 111.25317 
" clip-path="url(#pb0e2629359)" style="fill: none; stroke: #595959; stroke-linecap: round"/>
   </g>
   <g id="line2d_34"/>
   <g id="patch_7">
    <path d="M 140.428158 396.70957 
L 153.230257 396.70957 
L 153.230257 261.803308 
L 140.428158 261.803308 
L 140.428158 396.70957 
z
" clip-path="url(#pb0e2629359)" style="fill: #72b6a1; stroke: #595959; stroke-linejoin: miter"/>
   </g>
   <g id="line2d_35">
    <path d="M 146.829208 396.70957 
L 146.829208 485.341396 
" clip-path="url(#pb0e2629359)" style="fill: none; stroke: #595959"/>
   </g>
   <g id="line2d_36">
    <path d="M 146.829208 261.803308 
L 146.829208 198.223327 
" clip-path="url(#pb0e2629359)" style="fill: none; stroke: #595959"/>
   </g>
   <g id="line2d_37">
    <path d="M 143.628683 485.341396 
L 150.029733 485.341396 
" clip-path="url(#pb0e2629359)" style="fill: none; stroke: #595959; stroke-linecap: round"/>
   </g>
   <g id="line2d_38">
    <path d="M 143.628683 198.223327 
L 150.029733 198.223327 
" clip-path="url(#pb0e2629359)" style="fill: none; stroke: #595959; stroke-linecap: round"/>
   </g>
   <g id="line2d_39">
    <g clip-path="url(#pb0e2629359)">
     <use xlink:href="#m3d76a31daf" x="146.829208" y="52.960909" style="fill-opacity: 0; stroke: #595959"/>
    </g>
   </g>
   <g id="patch_8">
    <path d="M 158.716871 356.177056 
L 171.51897 356.177056 
L 171.51897 226.697472 
L 158.716871 226.697472 
L 158.716871 356.177056 
z
" clip-path="url(#pb0e2629359)" style="fill: #72b6a1; stroke: #595959; stroke-linejoin: miter"/>
   </g>
   <g id="line2d_40">
    <path d="M 165.117921 356.177056 
L 165.117921 493.356061 
" clip-path="url(#pb0e2629359)" style="fill: none; stroke: #595959"/>
   </g>
   <g id="line2d_41">
    <path d="M 165.117921 226.697472 
L 165.117921 214.413663 
" clip-path="url(#pb0e2629359)" style="fill: none; stroke: #595959"/>
   </g>
   <g id="line2d_42">
    <path d="M 161.917396 493.356061 
L 168.318446 493.356061 
" clip-path="url(#pb0e2629359)" style="fill: none; stroke: #595959; stroke-linecap: round"/>
   </g>
   <g id="line2d_43">
    <path d="M 161.917396 214.413663 
L 168.318446 214.413663 
" clip-path="url(#pb0e2629359)" style="fill: none; stroke: #595959; stroke-linecap: round"/>
   </g>
   <g id="line2d_44"/>
   <g id="patch_9">
    <path d="M 177.005584 367.344156 
L 189.807683 367.344156 
L 189.807683 205.597531 
L 177.005584 205.597531 
L 177.005584 367.344156 
z
" clip-path="url(#pb0e2629359)" style="fill: #72b6a1; stroke: #595959; stroke-linejoin: miter"/>
   </g>
   <g id="line2d_45">
    <path d="M 183.406634 367.344156 
L 183.406634 497.940449 
" clip-path="url(#pb0e2629359)" style="fill: none; stroke: #595959"/>
   </g>
   <g id="line2d_46">
    <path d="M 183.406634 205.597531 
L 183.406634 191.844366 
" clip-path="url(#pb0e2629359)" style="fill: none; stroke: #595959"/>
   </g>
   <g id="line2d_47">
    <path d="M 180.206109 497.940449 
L 186.607158 497.940449 
" clip-path="url(#pb0e2629359)" style="fill: none; stroke: #595959; stroke-linecap: round"/>
   </g>
   <g id="line2d_48">
    <path d="M 180.206109 191.844366 
L 186.607158 191.844366 
" clip-path="url(#pb0e2629359)" style="fill: none; stroke: #595959; stroke-linecap: round"/>
   </g>
   <g id="line2d_49"/>
   <g id="patch_10">
    <path d="M 195.294297 352.415507 
L 208.096396 352.415507 
L 208.096396 197.48669 
L 195.294297 197.48669 
L 195.294297 352.415507 
z
" clip-path="url(#pb0e2629359)" style="fill: #72b6a1; stroke: #595959; stroke-linejoin: miter"/>
   </g>
   <g id="line2d_50">
    <path d="M 201.695347 352.415507 
L 201.695347 492.650771 
" clip-path="url(#pb0e2629359)" style="fill: none; stroke: #595959"/>
   </g>
   <g id="line2d_51">
    <path d="M 201.695347 197.48669 
L 201.695347 147.763709 
" clip-path="url(#pb0e2629359)" style="fill: none; stroke: #595959"/>
   </g>
   <g id="line2d_52">
    <path d="M 198.494822 492.650771 
L 204.895871 492.650771 
" clip-path="url(#pb0e2629359)" style="fill: none; stroke: #595959; stroke-linecap: round"/>
   </g>
   <g id="line2d_53">
    <path d="M 198.494822 147.763709 
L 204.895871 147.763709 
" clip-path="url(#pb0e2629359)" style="fill: none; stroke: #595959; stroke-linecap: round"/>
   </g>
   <g id="line2d_54"/>
   <g id="patch_11">
    <path d="M 213.58301 355.941959 
L 226.385109 355.941959 
L 226.385109 195.547141 
L 213.58301 195.547141 
L 213.58301 355.941959 
z
" clip-path="url(#pb0e2629359)" style="fill: #72b6a1; stroke: #595959; stroke-linejoin: miter"/>
   </g>
   <g id="line2d_55">
    <path d="M 219.984059 355.941959 
L 219.984059 489.71206 
" clip-path="url(#pb0e2629359)" style="fill: none; stroke: #595959"/>
   </g>
   <g id="line2d_56">
    <path d="M 219.984059 195.547141 
L 219.984059 141.533643 
" clip-path="url(#pb0e2629359)" style="fill: none; stroke: #595959"/>
   </g>
   <g id="line2d_57">
    <path d="M 216.783535 489.71206 
L 223.184584 489.71206 
" clip-path="url(#pb0e2629359)" style="fill: none; stroke: #595959; stroke-linecap: round"/>
   </g>
   <g id="line2d_58">
    <path d="M 216.783535 141.533643 
L 223.184584 141.533643 
" clip-path="url(#pb0e2629359)" style="fill: none; stroke: #595959; stroke-linecap: round"/>
   </g>
   <g id="line2d_59"/>
   <g id="patch_12">
    <path d="M 231.871723 357.470089 
L 244.673822 357.470089 
L 244.673822 187.083655 
L 231.871723 187.083655 
L 231.871723 357.470089 
z
" clip-path="url(#pb0e2629359)" style="fill: #72b6a1; stroke: #595959; stroke-linejoin: miter"/>
   </g>
   <g id="line2d_60">
    <path d="M 238.272772 357.470089 
L 238.272772 494.296448 
" clip-path="url(#pb0e2629359)" style="fill: none; stroke: #595959"/>
   </g>
   <g id="line2d_61">
    <path d="M 238.272772 187.083655 
L 238.272772 108.384989 
" clip-path="url(#pb0e2629359)" style="fill: none; stroke: #595959"/>
   </g>
   <g id="line2d_62">
    <path d="M 235.072248 494.296448 
L 241.473297 494.296448 
" clip-path="url(#pb0e2629359)" style="fill: none; stroke: #595959; stroke-linecap: round"/>
   </g>
   <g id="line2d_63">
    <path d="M 235.072248 108.384989 
L 241.473297 108.384989 
" clip-path="url(#pb0e2629359)" style="fill: none; stroke: #595959; stroke-linecap: round"/>
   </g>
   <g id="line2d_64"/>
   <g id="patch_13">
    <path d="M 250.160436 341.601052 
L 262.962535 341.601052 
L 262.962535 187.318752 
L 250.160436 187.318752 
L 250.160436 341.601052 
z
" clip-path="url(#pb0e2629359)" style="fill: #72b6a1; stroke: #595959; stroke-linejoin: miter"/>
   </g>
   <g id="line2d_65">
    <path d="M 256.561485 341.601052 
L 256.561485 489.71206 
" clip-path="url(#pb0e2629359)" style="fill: none; stroke: #595959"/>
   </g>
   <g id="line2d_66">
    <path d="M 256.561485 187.318752 
L 256.561485 106.739311 
" clip-path="url(#pb0e2629359)" style="fill: none; stroke: #595959"/>
   </g>
   <g id="line2d_67">
    <path d="M 253.36096 489.71206 
L 259.76201 489.71206 
" clip-path="url(#pb0e2629359)" style="fill: none; stroke: #595959; stroke-linecap: round"/>
   </g>
   <g id="line2d_68">
    <path d="M 253.36096 106.739311 
L 259.76201 106.739311 
" clip-path="url(#pb0e2629359)" style="fill: none; stroke: #595959; stroke-linecap: round"/>
   </g>
   <g id="line2d_69"/>
   <g id="patch_14">
    <path d="M 268.449149 394.027647 
L 281.251248 394.027647 
L 281.251248 190.022366 
L 268.449149 190.022366 
L 268.449149 394.027647 
z
" clip-path="url(#pb0e2629359)" style="fill: #72b6a1; stroke: #595959; stroke-linejoin: miter"/>
   </g>
   <g id="line2d_70">
    <path d="M 274.850198 394.027647 
L 274.850198 483.952188 
" clip-path="url(#pb0e2629359)" style="fill: none; stroke: #595959"/>
   </g>
   <g id="line2d_71">
    <path d="M 274.850198 190.022366 
L 274.850198 79.820723 
" clip-path="url(#pb0e2629359)" style="fill: none; stroke: #595959"/>
   </g>
   <g id="line2d_72">
    <path d="M 271.649673 483.952188 
L 278.050723 483.952188 
" clip-path="url(#pb0e2629359)" style="fill: none; stroke: #595959; stroke-linecap: round"/>
   </g>
   <g id="line2d_73">
    <path d="M 271.649673 79.820723 
L 278.050723 79.820723 
" clip-path="url(#pb0e2629359)" style="fill: none; stroke: #595959; stroke-linecap: round"/>
   </g>
   <g id="line2d_74"/>
   <g id="patch_15">
    <path d="M 286.737861 354.178733 
L 299.53996 354.178733 
L 299.53996 183.322106 
L 286.737861 183.322106 
L 286.737861 354.178733 
z
" clip-path="url(#pb0e2629359)" style="fill: #72b6a1; stroke: #595959; stroke-linejoin: miter"/>
   </g>
   <g id="line2d_75">
    <path d="M 293.138911 354.178733 
L 293.138911 484.422381 
" clip-path="url(#pb0e2629359)" style="fill: none; stroke: #595959"/>
   </g>
   <g id="line2d_76">
    <path d="M 293.138911 183.322106 
L 293.138911 82.054143 
" clip-path="url(#pb0e2629359)" style="fill: none; stroke: #595959"/>
   </g>
   <g id="line2d_77">
    <path d="M 289.938386 484.422381 
L 296.339436 484.422381 
" clip-path="url(#pb0e2629359)" style="fill: none; stroke: #595959; stroke-linecap: round"/>
   </g>
   <g id="line2d_78">
    <path d="M 289.938386 82.054143 
L 296.339436 82.054143 
" clip-path="url(#pb0e2629359)" style="fill: none; stroke: #595959; stroke-linecap: round"/>
   </g>
   <g id="line2d_79"/>
   <g id="patch_16">
    <path d="M 305.026574 392.264421 
L 317.828673 392.264421 
L 317.828673 186.848558 
L 305.026574 186.848558 
L 305.026574 392.264421 
z
" clip-path="url(#pb0e2629359)" style="fill: #72b6a1; stroke: #595959; stroke-linejoin: miter"/>
   </g>
   <g id="line2d_80">
    <path d="M 311.427624 392.264421 
L 311.427624 488.419028 
" clip-path="url(#pb0e2629359)" style="fill: none; stroke: #595959"/>
   </g>
   <g id="line2d_81">
    <path d="M 311.427624 186.848558 
L 311.427624 71.474785 
" clip-path="url(#pb0e2629359)" style="fill: none; stroke: #595959"/>
   </g>
   <g id="line2d_82">
    <path d="M 308.227099 488.419028 
L 314.628149 488.419028 
" clip-path="url(#pb0e2629359)" style="fill: none; stroke: #595959; stroke-linecap: round"/>
   </g>
   <g id="line2d_83">
    <path d="M 308.227099 71.474785 
L 314.628149 71.474785 
" clip-path="url(#pb0e2629359)" style="fill: none; stroke: #595959; stroke-linecap: round"/>
   </g>
   <g id="line2d_84"/>
   <g id="patch_17">
    <path d="M 323.315287 334.31305 
L 336.117386 334.31305 
L 336.117386 185.085332 
L 323.315287 185.085332 
L 323.315287 334.31305 
z
" clip-path="url(#pb0e2629359)" style="fill: #72b6a1; stroke: #595959; stroke-linejoin: miter"/>
   </g>
   <g id="line2d_85">
    <path d="M 329.716337 334.31305 
L 329.716337 485.597865 
" clip-path="url(#pb0e2629359)" style="fill: none; stroke: #595959"/>
   </g>
   <g id="line2d_86">
    <path d="M 329.716337 185.085332 
L 329.716337 75.58898 
" clip-path="url(#pb0e2629359)" style="fill: none; stroke: #595959"/>
   </g>
   <g id="line2d_87">
    <path d="M 326.515812 485.597865 
L 332.916861 485.597865 
" clip-path="url(#pb0e2629359)" style="fill: none; stroke: #595959; stroke-linecap: round"/>
   </g>
   <g id="line2d_88">
    <path d="M 326.515812 75.58898 
L 332.916861 75.58898 
" clip-path="url(#pb0e2629359)" style="fill: none; stroke: #595959; stroke-linecap: round"/>
   </g>
   <g id="line2d_89"/>
   <g id="patch_18">
    <path d="M 341.604 361.701832 
L 354.406099 361.701832 
L 354.406099 185.085332 
L 341.604 185.085332 
L 341.604 361.701832 
z
" clip-path="url(#pb0e2629359)" style="fill: #72b6a1; stroke: #595959; stroke-linejoin: miter"/>
   </g>
   <g id="line2d_90">
    <path d="M 348.00505 361.701832 
L 348.00505 484.657478 
" clip-path="url(#pb0e2629359)" style="fill: none; stroke: #595959"/>
   </g>
   <g id="line2d_91">
    <path d="M 348.00505 185.085332 
L 348.00505 91.810662 
" clip-path="url(#pb0e2629359)" style="fill: none; stroke: #595959"/>
   </g>
   <g id="line2d_92">
    <path d="M 344.804525 484.657478 
L 351.205574 484.657478 
" clip-path="url(#pb0e2629359)" style="fill: none; stroke: #595959; stroke-linecap: round"/>
   </g>
   <g id="line2d_93">
    <path d="M 344.804525 91.810662 
L 351.205574 91.810662 
" clip-path="url(#pb0e2629359)" style="fill: none; stroke: #595959; stroke-linecap: round"/>
   </g>
   <g id="line2d_94"/>
   <g id="patch_19">
    <path d="M 359.892713 368.166995 
L 372.694812 368.166995 
L 372.694812 185.849397 
L 359.892713 185.849397 
L 359.892713 368.166995 
z
" clip-path="url(#pb0e2629359)" style="fill: #72b6a1; stroke: #595959; stroke-linejoin: miter"/>
   </g>
   <g id="line2d_95">
    <path d="M 366.293762 368.166995 
L 366.293762 482.424058 
" clip-path="url(#pb0e2629359)" style="fill: none; stroke: #595959"/>
   </g>
   <g id="line2d_96">
    <path d="M 366.293762 185.849397 
L 366.293762 95.924856 
" clip-path="url(#pb0e2629359)" style="fill: none; stroke: #595959"/>
   </g>
   <g id="line2d_97">
    <path d="M 363.093238 482.424058 
L 369.494287 482.424058 
" clip-path="url(#pb0e2629359)" style="fill: none; stroke: #595959; stroke-linecap: round"/>
   </g>
   <g id="line2d_98">
    <path d="M 363.093238 95.924856 
L 369.494287 95.924856 
" clip-path="url(#pb0e2629359)" style="fill: none; stroke: #595959; stroke-linecap: round"/>
   </g>
   <g id="line2d_99"/>
   <g id="patch_20">
    <path d="M 378.181426 355.236669 
L 390.983525 355.236669 
L 390.983525 180.383395 
L 378.181426 180.383395 
L 378.181426 355.236669 
z
" clip-path="url(#pb0e2629359)" style="fill: #72b6a1; stroke: #595959; stroke-linejoin: miter"/>
   </g>
   <g id="line2d_100">
    <path d="M 384.582475 355.236669 
L 384.582475 479.132702 
" clip-path="url(#pb0e2629359)" style="fill: none; stroke: #595959"/>
   </g>
   <g id="line2d_101">
    <path d="M 384.582475 180.383395 
L 384.582475 78.410142 
" clip-path="url(#pb0e2629359)" style="fill: none; stroke: #595959"/>
   </g>
   <g id="line2d_102">
    <path d="M 381.38195 479.132702 
L 387.783 479.132702 
" clip-path="url(#pb0e2629359)" style="fill: none; stroke: #595959; stroke-linecap: round"/>
   </g>
   <g id="line2d_103">
    <path d="M 381.38195 78.410142 
L 387.783 78.410142 
" clip-path="url(#pb0e2629359)" style="fill: none; stroke: #595959; stroke-linecap: round"/>
   </g>
   <g id="line2d_104"/>
   <g id="patch_21">
    <path d="M 396.470139 326.319758 
L 409.272238 326.319758 
L 409.272238 184.556364 
L 396.470139 184.556364 
L 396.470139 326.319758 
z
" clip-path="url(#pb0e2629359)" style="fill: #72b6a1; stroke: #595959; stroke-linejoin: miter"/>
   </g>
   <g id="line2d_105">
    <path d="M 402.871188 326.319758 
L 402.871188 483.599542 
" clip-path="url(#pb0e2629359)" style="fill: none; stroke: #595959"/>
   </g>
   <g id="line2d_106">
    <path d="M 402.871188 184.556364 
L 402.871188 83.817369 
" clip-path="url(#pb0e2629359)" style="fill: none; stroke: #595959"/>
   </g>
   <g id="line2d_107">
    <path d="M 399.670663 483.599542 
L 406.071713 483.599542 
" clip-path="url(#pb0e2629359)" style="fill: none; stroke: #595959; stroke-linecap: round"/>
   </g>
   <g id="line2d_108">
    <path d="M 399.670663 83.817369 
L 406.071713 83.817369 
" clip-path="url(#pb0e2629359)" style="fill: none; stroke: #595959; stroke-linecap: round"/>
   </g>
   <g id="line2d_109"/>
   <g id="patch_22">
    <path d="M 414.758851 333.372663 
L 427.56095 333.372663 
L 427.56095 175.857781 
L 414.758851 175.857781 
L 414.758851 333.372663 
z
" clip-path="url(#pb0e2629359)" style="fill: #72b6a1; stroke: #595959; stroke-linejoin: miter"/>
   </g>
   <g id="line2d_110">
    <path d="M 421.159901 333.372663 
L 421.159901 477.251928 
" clip-path="url(#pb0e2629359)" style="fill: none; stroke: #595959"/>
   </g>
   <g id="line2d_111">
    <path d="M 421.159901 175.857781 
L 421.159901 90.752726 
" clip-path="url(#pb0e2629359)" style="fill: none; stroke: #595959"/>
   </g>
   <g id="line2d_112">
    <path d="M 417.959376 477.251928 
L 424.360426 477.251928 
" clip-path="url(#pb0e2629359)" style="fill: none; stroke: #595959; stroke-linecap: round"/>
   </g>
   <g id="line2d_113">
    <path d="M 417.959376 90.752726 
L 424.360426 90.752726 
" clip-path="url(#pb0e2629359)" style="fill: none; stroke: #595959; stroke-linecap: round"/>
   </g>
   <g id="line2d_114"/>
   <g id="patch_23">
    <path d="M 433.047564 315.7404 
L 445.849663 315.7404 
L 445.849663 179.619331 
L 433.047564 179.619331 
L 433.047564 315.7404 
z
" clip-path="url(#pb0e2629359)" style="fill: #72b6a1; stroke: #595959; stroke-linejoin: miter"/>
   </g>
   <g id="line2d_115">
    <path d="M 439.448614 315.7404 
L 439.448614 477.957218 
" clip-path="url(#pb0e2629359)" style="fill: none; stroke: #595959"/>
   </g>
   <g id="line2d_116">
    <path d="M 439.448614 179.619331 
L 439.448614 86.403434 
" clip-path="url(#pb0e2629359)" style="fill: none; stroke: #595959"/>
   </g>
   <g id="line2d_117">
    <path d="M 436.248089 477.957218 
L 442.649139 477.957218 
" clip-path="url(#pb0e2629359)" style="fill: none; stroke: #595959; stroke-linecap: round"/>
   </g>
   <g id="line2d_118">
    <path d="M 436.248089 86.403434 
L 442.649139 86.403434 
" clip-path="url(#pb0e2629359)" style="fill: none; stroke: #595959; stroke-linecap: round"/>
   </g>
   <g id="line2d_119"/>
   <g id="patch_24">
    <path d="M 451.336277 349.241699 
L 464.138376 349.241699 
L 464.138376 176.563072 
L 451.336277 176.563072 
L 451.336277 349.241699 
z
" clip-path="url(#pb0e2629359)" style="fill: #72b6a1; stroke: #595959; stroke-linejoin: miter"/>
   </g>
   <g id="line2d_120">
    <path d="M 457.737327 349.241699 
L 457.737327 477.369476 
" clip-path="url(#pb0e2629359)" style="fill: none; stroke: #595959"/>
   </g>
   <g id="line2d_121">
    <path d="M 457.737327 176.563072 
L 457.737327 84.640208 
" clip-path="url(#pb0e2629359)" style="fill: none; stroke: #595959"/>
   </g>
   <g id="line2d_122">
    <path d="M 454.536802 477.369476 
L 460.937851 477.369476 
" clip-path="url(#pb0e2629359)" style="fill: none; stroke: #595959; stroke-linecap: round"/>
   </g>
   <g id="line2d_123">
    <path d="M 454.536802 84.640208 
L 460.937851 84.640208 
" clip-path="url(#pb0e2629359)" style="fill: none; stroke: #595959; stroke-linecap: round"/>
   </g>
   <g id="line2d_124"/>
   <g id="patch_25">
    <path d="M 469.62499 355.354217 
L 482.427089 355.354217 
L 482.427089 175.916555 
L 469.62499 175.916555 
L 469.62499 355.354217 
z
" clip-path="url(#pb0e2629359)" style="fill: #72b6a1; stroke: #595959; stroke-linejoin: miter"/>
   </g>
   <g id="line2d_125">
    <path d="M 476.02604 355.354217 
L 476.02604 469.728829 
" clip-path="url(#pb0e2629359)" style="fill: none; stroke: #595959"/>
   </g>
   <g id="line2d_126">
    <path d="M 476.02604 175.916555 
L 476.02604 73.943302 
" clip-path="url(#pb0e2629359)" style="fill: none; stroke: #595959"/>
   </g>
   <g id="line2d_127">
    <path d="M 472.825515 469.728829 
L 479.226564 469.728829 
" clip-path="url(#pb0e2629359)" style="fill: none; stroke: #595959; stroke-linecap: round"/>
   </g>
   <g id="line2d_128">
    <path d="M 472.825515 73.943302 
L 479.226564 73.943302 
" clip-path="url(#pb0e2629359)" style="fill: none; stroke: #595959; stroke-linecap: round"/>
   </g>
   <g id="line2d_129"/>
   <g id="patch_26">
    <path d="M 487.913703 353.943636 
L 500.715802 353.943636 
L 500.715802 173.859458 
L 487.913703 173.859458 
L 487.913703 353.943636 
z
" clip-path="url(#pb0e2629359)" style="fill: #72b6a1; stroke: #595959; stroke-linejoin: miter"/>
   </g>
   <g id="line2d_130">
    <path d="M 494.314752 353.943636 
L 494.314752 474.900959 
" clip-path="url(#pb0e2629359)" style="fill: none; stroke: #595959"/>
   </g>
   <g id="line2d_131">
    <path d="M 494.314752 173.859458 
L 494.314752 85.580595 
" clip-path="url(#pb0e2629359)" style="fill: none; stroke: #595959"/>
   </g>
   <g id="line2d_132">
    <path d="M 491.114228 474.900959 
L 497.515277 474.900959 
" clip-path="url(#pb0e2629359)" style="fill: none; stroke: #595959; stroke-linecap: round"/>
   </g>
   <g id="line2d_133">
    <path d="M 491.114228 85.580595 
L 497.515277 85.580595 
" clip-path="url(#pb0e2629359)" style="fill: none; stroke: #595959; stroke-linecap: round"/>
   </g>
   <g id="line2d_134"/>
   <g id="patch_27">
    <path d="M 506.202416 353.238346 
L 519.004515 353.238346 
L 519.004515 171.449716 
L 506.202416 171.449716 
L 506.202416 353.238346 
z
" clip-path="url(#pb0e2629359)" style="fill: #72b6a1; stroke: #595959; stroke-linejoin: miter"/>
   </g>
   <g id="line2d_135">
    <path d="M 512.603465 353.238346 
L 512.603465 473.020185 
" clip-path="url(#pb0e2629359)" style="fill: none; stroke: #595959"/>
   </g>
   <g id="line2d_136">
    <path d="M 512.603465 171.449716 
L 512.603465 79.468078 
" clip-path="url(#pb0e2629359)" style="fill: none; stroke: #595959"/>
   </g>
   <g id="line2d_137">
    <path d="M 509.402941 473.020185 
L 515.80399 473.020185 
" clip-path="url(#pb0e2629359)" style="fill: none; stroke: #595959; stroke-linecap: round"/>
   </g>
   <g id="line2d_138">
    <path d="M 509.402941 79.468078 
L 515.80399 79.468078 
" clip-path="url(#pb0e2629359)" style="fill: none; stroke: #595959; stroke-linecap: round"/>
   </g>
   <g id="line2d_139"/>
   <g id="patch_28">
    <path d="M 524.491129 365.933575 
L 537.293228 365.933575 
L 537.293228 172.860297 
L 524.491129 172.860297 
L 524.491129 365.933575 
z
" clip-path="url(#pb0e2629359)" style="fill: #72b6a1; stroke: #595959; stroke-linejoin: miter"/>
   </g>
   <g id="line2d_140">
    <path d="M 530.892178 365.933575 
L 530.892178 473.137733 
" clip-path="url(#pb0e2629359)" style="fill: none; stroke: #595959"/>
   </g>
   <g id="line2d_141">
    <path d="M 530.892178 172.860297 
L 530.892178 82.28924 
" clip-path="url(#pb0e2629359)" style="fill: none; stroke: #595959"/>
   </g>
   <g id="line2d_142">
    <path d="M 527.691653 473.137733 
L 534.092703 473.137733 
" clip-path="url(#pb0e2629359)" style="fill: none; stroke: #595959; stroke-linecap: round"/>
   </g>
   <g id="line2d_143">
    <path d="M 527.691653 82.28924 
L 534.092703 82.28924 
" clip-path="url(#pb0e2629359)" style="fill: none; stroke: #595959; stroke-linecap: round"/>
   </g>
   <g id="line2d_144"/>
   <g id="patch_29">
    <path d="M 542.779842 373.456674 
L 555.581941 373.456674 
L 555.581941 172.860297 
L 542.779842 172.860297 
L 542.779842 373.456674 
z
" clip-path="url(#pb0e2629359)" style="fill: #72b6a1; stroke: #595959; stroke-linejoin: miter"/>
   </g>
   <g id="line2d_145">
    <path d="M 549.180891 373.456674 
L 549.180891 466.555022 
" clip-path="url(#pb0e2629359)" style="fill: none; stroke: #595959"/>
   </g>
   <g id="line2d_146">
    <path d="M 549.180891 172.860297 
L 549.180891 70.534398 
" clip-path="url(#pb0e2629359)" style="fill: none; stroke: #595959"/>
   </g>
   <g id="line2d_147">
    <path d="M 545.980366 466.555022 
L 552.381416 466.555022 
" clip-path="url(#pb0e2629359)" style="fill: none; stroke: #595959; stroke-linecap: round"/>
   </g>
   <g id="line2d_148">
    <path d="M 545.980366 70.534398 
L 552.381416 70.534398 
" clip-path="url(#pb0e2629359)" style="fill: none; stroke: #595959; stroke-linecap: round"/>
   </g>
   <g id="line2d_149"/>
   <g id="patch_30">
    <path d="M 561.068554 387.797581 
L 573.870653 387.797581 
L 573.870653 169.862812 
L 561.068554 169.862812 
L 561.068554 387.797581 
z
" clip-path="url(#pb0e2629359)" style="fill: #72b6a1; stroke: #595959; stroke-linejoin: miter"/>
   </g>
   <g id="line2d_150">
    <path d="M 567.469604 387.797581 
L 567.469604 466.67257 
" clip-path="url(#pb0e2629359)" style="fill: none; stroke: #595959"/>
   </g>
   <g id="line2d_151">
    <path d="M 567.469604 169.862812 
L 567.469604 77.117109 
" clip-path="url(#pb0e2629359)" style="fill: none; stroke: #595959"/>
   </g>
   <g id="line2d_152">
    <path d="M 564.269079 466.67257 
L 570.670129 466.67257 
" clip-path="url(#pb0e2629359)" style="fill: none; stroke: #595959; stroke-linecap: round"/>
   </g>
   <g id="line2d_153">
    <path d="M 564.269079 77.117109 
L 570.670129 77.117109 
" clip-path="url(#pb0e2629359)" style="fill: none; stroke: #595959; stroke-linecap: round"/>
   </g>
   <g id="line2d_154"/>
   <g id="patch_31">
    <path d="M 579.357267 369.107382 
L 592.159366 369.107382 
L 592.159366 169.745263 
L 579.357267 169.745263 
L 579.357267 369.107382 
z
" clip-path="url(#pb0e2629359)" style="fill: #72b6a1; stroke: #595959; stroke-linejoin: miter"/>
   </g>
   <g id="line2d_155">
    <path d="M 585.758317 369.107382 
L 585.758317 468.318248 
" clip-path="url(#pb0e2629359)" style="fill: none; stroke: #595959"/>
   </g>
   <g id="line2d_156">
    <path d="M 585.758317 169.745263 
L 585.758317 73.943302 
" clip-path="url(#pb0e2629359)" style="fill: none; stroke: #595959"/>
   </g>
   <g id="line2d_157">
    <path d="M 582.557792 468.318248 
L 588.958842 468.318248 
" clip-path="url(#pb0e2629359)" style="fill: none; stroke: #595959; stroke-linecap: round"/>
   </g>
   <g id="line2d_158">
    <path d="M 582.557792 73.943302 
L 588.958842 73.943302 
" clip-path="url(#pb0e2629359)" style="fill: none; stroke: #595959; stroke-linecap: round"/>
   </g>
   <g id="line2d_159"/>
   <g id="patch_32">
    <path d="M 597.64598 358.88067 
L 610.448079 358.88067 
L 610.448079 170.626877 
L 597.64598 170.626877 
L 597.64598 358.88067 
z
" clip-path="url(#pb0e2629359)" style="fill: #72b6a1; stroke: #595959; stroke-linejoin: miter"/>
   </g>
   <g id="line2d_160">
    <path d="M 604.04703 358.88067 
L 604.04703 471.962249 
" clip-path="url(#pb0e2629359)" style="fill: none; stroke: #595959"/>
   </g>
   <g id="line2d_161">
    <path d="M 604.04703 170.626877 
L 604.04703 77.587303 
" clip-path="url(#pb0e2629359)" style="fill: none; stroke: #595959"/>
   </g>
   <g id="line2d_162">
    <path d="M 600.846505 471.962249 
L 607.247554 471.962249 
" clip-path="url(#pb0e2629359)" style="fill: none; stroke: #595959; stroke-linecap: round"/>
   </g>
   <g id="line2d_163">
    <path d="M 600.846505 77.587303 
L 607.247554 77.587303 
" clip-path="url(#pb0e2629359)" style="fill: none; stroke: #595959; stroke-linecap: round"/>
   </g>
   <g id="line2d_164"/>
   <g id="patch_33">
    <path d="M 615.934693 349.711893 
L 628.736792 349.711893 
L 628.736792 168.452231 
L 615.934693 168.452231 
L 615.934693 349.711893 
z
" clip-path="url(#pb0e2629359)" style="fill: #72b6a1; stroke: #595959; stroke-linejoin: miter"/>
   </g>
   <g id="line2d_165">
    <path d="M 622.335743 349.711893 
L 622.335743 469.376184 
" clip-path="url(#pb0e2629359)" style="fill: none; stroke: #595959"/>
   </g>
   <g id="line2d_166">
    <path d="M 622.335743 168.452231 
L 622.335743 70.887043 
" clip-path="url(#pb0e2629359)" style="fill: none; stroke: #595959"/>
   </g>
   <g id="line2d_167">
    <path d="M 619.135218 469.376184 
L 625.536267 469.376184 
" clip-path="url(#pb0e2629359)" style="fill: none; stroke: #595959; stroke-linecap: round"/>
   </g>
   <g id="line2d_168">
    <path d="M 619.135218 70.887043 
L 625.536267 70.887043 
" clip-path="url(#pb0e2629359)" style="fill: none; stroke: #595959; stroke-linecap: round"/>
   </g>
   <g id="line2d_169"/>
   <g id="patch_34">
    <path d="M 634.223406 371.105705 
L 647.025505 371.105705 
L 647.025505 168.452231 
L 634.223406 168.452231 
L 634.223406 371.105705 
z
" clip-path="url(#pb0e2629359)" style="fill: #72b6a1; stroke: #595959; stroke-linejoin: miter"/>
   </g>
   <g id="line2d_170">
    <path d="M 640.624455 371.105705 
L 640.624455 470.199023 
" clip-path="url(#pb0e2629359)" style="fill: none; stroke: #595959"/>
   </g>
   <g id="line2d_171">
    <path d="M 640.624455 168.452231 
L 640.624455 67.830784 
" clip-path="url(#pb0e2629359)" style="fill: none; stroke: #595959"/>
   </g>
   <g id="line2d_172">
    <path d="M 637.423931 470.199023 
L 643.82498 470.199023 
" clip-path="url(#pb0e2629359)" style="fill: none; stroke: #595959; stroke-linecap: round"/>
   </g>
   <g id="line2d_173">
    <path d="M 637.423931 67.830784 
L 643.82498 67.830784 
" clip-path="url(#pb0e2629359)" style="fill: none; stroke: #595959; stroke-linecap: round"/>
   </g>
   <g id="line2d_174"/>
   <g id="patch_35">
    <path d="M 652.512119 393.439905 
L 665.314218 393.439905 
L 665.314218 167.453069 
L 652.512119 167.453069 
L 652.512119 393.439905 
z
" clip-path="url(#pb0e2629359)" style="fill: #72b6a1; stroke: #595959; stroke-linejoin: miter"/>
   </g>
   <g id="line2d_175">
    <path d="M 658.913168 393.439905 
L 658.913168 467.495409 
" clip-path="url(#pb0e2629359)" style="fill: none; stroke: #595959"/>
   </g>
   <g id="line2d_176">
    <path d="M 658.913168 167.453069 
L 658.913168 77.587303 
" clip-path="url(#pb0e2629359)" style="fill: none; stroke: #595959"/>
   </g>
   <g id="line2d_177">
    <path d="M 655.712644 467.495409 
L 662.113693 467.495409 
" clip-path="url(#pb0e2629359)" style="fill: none; stroke: #595959; stroke-linecap: round"/>
   </g>
   <g id="line2d_178">
    <path d="M 655.712644 77.587303 
L 662.113693 77.587303 
" clip-path="url(#pb0e2629359)" style="fill: none; stroke: #595959; stroke-linecap: round"/>
   </g>
   <g id="line2d_179"/>
   <g id="patch_36">
    <path d="M 670.800832 359.821057 
L 683.602931 359.821057 
L 683.602931 171.684812 
L 670.800832 171.684812 
L 670.800832 359.821057 
z
" clip-path="url(#pb0e2629359)" style="fill: #72b6a1; stroke: #595959; stroke-linejoin: miter"/>
   </g>
   <g id="line2d_180">
    <path d="M 677.201881 359.821057 
L 677.201881 460.677601 
" clip-path="url(#pb0e2629359)" style="fill: none; stroke: #595959"/>
   </g>
   <g id="line2d_181">
    <path d="M 677.201881 171.684812 
L 677.201881 81.231304 
" clip-path="url(#pb0e2629359)" style="fill: none; stroke: #595959"/>
   </g>
   <g id="line2d_182">
    <path d="M 674.001356 460.677601 
L 680.402406 460.677601 
" clip-path="url(#pb0e2629359)" style="fill: none; stroke: #595959; stroke-linecap: round"/>
   </g>
   <g id="line2d_183">
    <path d="M 674.001356 81.231304 
L 680.402406 81.231304 
" clip-path="url(#pb0e2629359)" style="fill: none; stroke: #595959; stroke-linecap: round"/>
   </g>
   <g id="line2d_184"/>
   <g id="patch_37">
    <path d="M 689.089545 370.75306 
L 701.891644 370.75306 
L 701.891644 164.39681 
L 689.089545 164.39681 
L 689.089545 370.75306 
z
" clip-path="url(#pb0e2629359)" style="fill: #72b6a1; stroke: #595959; stroke-linejoin: miter"/>
   </g>
   <g id="line2d_185">
    <path d="M 695.490594 370.75306 
L 695.490594 473.020185 
" clip-path="url(#pb0e2629359)" style="fill: none; stroke: #595959"/>
   </g>
   <g id="line2d_186">
    <path d="M 695.490594 164.39681 
L 695.490594 72.415172 
" clip-path="url(#pb0e2629359)" style="fill: none; stroke: #595959"/>
   </g>
   <g id="line2d_187">
    <path d="M 692.290069 473.020185 
L 698.691119 473.020185 
" clip-path="url(#pb0e2629359)" style="fill: none; stroke: #595959; stroke-linecap: round"/>
   </g>
   <g id="line2d_188">
    <path d="M 692.290069 72.415172 
L 698.691119 72.415172 
" clip-path="url(#pb0e2629359)" style="fill: none; stroke: #595959; stroke-linecap: round"/>
   </g>
   <g id="line2d_189"/>
   <g id="patch_38">
    <path d="M 707.378257 382.507902 
L 720.180356 382.507902 
L 720.180356 163.515197 
L 707.378257 163.515197 
L 707.378257 382.507902 
z
" clip-path="url(#pb0e2629359)" style="fill: #72b6a1; stroke: #595959; stroke-linejoin: miter"/>
   </g>
   <g id="line2d_190">
    <path d="M 713.779307 382.507902 
L 713.779307 456.680954 
" clip-path="url(#pb0e2629359)" style="fill: none; stroke: #595959"/>
   </g>
   <g id="line2d_191">
    <path d="M 713.779307 163.515197 
L 713.779307 76.29427 
" clip-path="url(#pb0e2629359)" style="fill: none; stroke: #595959"/>
   </g>
   <g id="line2d_192">
    <path d="M 710.578782 456.680954 
L 716.979832 456.680954 
" clip-path="url(#pb0e2629359)" style="fill: none; stroke: #595959; stroke-linecap: round"/>
   </g>
   <g id="line2d_193">
    <path d="M 710.578782 76.29427 
L 716.979832 76.29427 
" clip-path="url(#pb0e2629359)" style="fill: none; stroke: #595959; stroke-linecap: round"/>
   </g>
   <g id="line2d_194"/>
   <g id="patch_39">
    <path d="M 725.66697 369.460027 
L 738.469069 369.460027 
L 738.469069 165.219649 
L 725.66697 165.219649 
L 725.66697 369.460027 
z
" clip-path="url(#pb0e2629359)" style="fill: #72b6a1; stroke: #595959; stroke-linejoin: miter"/>
   </g>
   <g id="line2d_195">
    <path d="M 732.06802 369.460027 
L 732.06802 469.258635 
" clip-path="url(#pb0e2629359)" style="fill: none; stroke: #595959"/>
   </g>
   <g id="line2d_196">
    <path d="M 732.06802 165.219649 
L 732.06802 78.292593 
" clip-path="url(#pb0e2629359)" style="fill: none; stroke: #595959"/>
   </g>
   <g id="line2d_197">
    <path d="M 728.867495 469.258635 
L 735.268545 469.258635 
" clip-path="url(#pb0e2629359)" style="fill: none; stroke: #595959; stroke-linecap: round"/>
   </g>
   <g id="line2d_198">
    <path d="M 728.867495 78.292593 
L 735.268545 78.292593 
" clip-path="url(#pb0e2629359)" style="fill: none; stroke: #595959; stroke-linecap: round"/>
   </g>
   <g id="line2d_199"/>
   <g id="patch_40">
    <path d="M 743.955683 387.797581 
L 756.757782 387.797581 
L 756.757782 163.456423 
L 743.955683 163.456423 
L 743.955683 387.797581 
z
" clip-path="url(#pb0e2629359)" style="fill: #72b6a1; stroke: #595959; stroke-linejoin: miter"/>
   </g>
   <g id="line2d_200">
    <path d="M 750.356733 387.797581 
L 750.356733 463.968956 
" clip-path="url(#pb0e2629359)" style="fill: none; stroke: #595959"/>
   </g>
   <g id="line2d_201">
    <path d="M 750.356733 163.456423 
L 750.356733 73.708205 
" clip-path="url(#pb0e2629359)" style="fill: none; stroke: #595959"/>
   </g>
   <g id="line2d_202">
    <path d="M 747.156208 463.968956 
L 753.557257 463.968956 
" clip-path="url(#pb0e2629359)" style="fill: none; stroke: #595959; stroke-linecap: round"/>
   </g>
   <g id="line2d_203">
    <path d="M 747.156208 73.708205 
L 753.557257 73.708205 
" clip-path="url(#pb0e2629359)" style="fill: none; stroke: #595959; stroke-linecap: round"/>
   </g>
   <g id="line2d_204"/>
   <g id="patch_41">
    <path d="M 762.244396 390.383646 
L 775.046495 390.383646 
L 775.046495 165.395972 
L 762.244396 165.395972 
L 762.244396 390.383646 
z
" clip-path="url(#pb0e2629359)" style="fill: #72b6a1; stroke: #595959; stroke-linejoin: miter"/>
   </g>
   <g id="line2d_205">
    <path d="M 768.645446 390.383646 
L 768.645446 466.437473 
" clip-path="url(#pb0e2629359)" style="fill: none; stroke: #595959"/>
   </g>
   <g id="line2d_206">
    <path d="M 768.645446 165.395972 
L 768.645446 66.420203 
" clip-path="url(#pb0e2629359)" style="fill: none; stroke: #595959"/>
   </g>
   <g id="line2d_207">
    <path d="M 765.444921 466.437473 
L 771.84597 466.437473 
" clip-path="url(#pb0e2629359)" style="fill: none; stroke: #595959; stroke-linecap: round"/>
   </g>
   <g id="line2d_208">
    <path d="M 765.444921 66.420203 
L 771.84597 66.420203 
" clip-path="url(#pb0e2629359)" style="fill: none; stroke: #595959; stroke-linecap: round"/>
   </g>
   <g id="line2d_209"/>
   <g id="patch_42">
    <path d="M 780.533109 359.468412 
L 793.335208 359.468412 
L 793.335208 162.457261 
L 780.533109 162.457261 
L 780.533109 359.468412 
z
" clip-path="url(#pb0e2629359)" style="fill: #72b6a1; stroke: #595959; stroke-linejoin: miter"/>
   </g>
   <g id="line2d_210">
    <path d="M 786.934158 359.468412 
L 786.934158 466.67257 
" clip-path="url(#pb0e2629359)" style="fill: none; stroke: #595959"/>
   </g>
   <g id="line2d_211">
    <path d="M 786.934158 162.457261 
L 786.934158 71.82743 
" clip-path="url(#pb0e2629359)" style="fill: none; stroke: #595959"/>
   </g>
   <g id="line2d_212">
    <path d="M 783.733634 466.67257 
L 790.134683 466.67257 
" clip-path="url(#pb0e2629359)" style="fill: none; stroke: #595959; stroke-linecap: round"/>
   </g>
   <g id="line2d_213">
    <path d="M 783.733634 71.82743 
L 790.134683 71.82743 
" clip-path="url(#pb0e2629359)" style="fill: none; stroke: #595959; stroke-linecap: round"/>
   </g>
   <g id="line2d_214"/>
   <g id="patch_43">
    <path d="M 798.821822 382.155257 
L 811.623921 382.155257 
L 811.623921 162.927455 
L 798.821822 162.927455 
L 798.821822 382.155257 
z
" clip-path="url(#pb0e2629359)" style="fill: #72b6a1; stroke: #595959; stroke-linejoin: miter"/>
   </g>
   <g id="line2d_215">
    <path d="M 805.222871 382.155257 
L 805.222871 458.326632 
" clip-path="url(#pb0e2629359)" style="fill: none; stroke: #595959"/>
   </g>
   <g id="line2d_216">
    <path d="M 805.222871 162.927455 
L 805.222871 73.120463 
" clip-path="url(#pb0e2629359)" style="fill: none; stroke: #595959"/>
   </g>
   <g id="line2d_217">
    <path d="M 802.022347 458.326632 
L 808.423396 458.326632 
" clip-path="url(#pb0e2629359)" style="fill: none; stroke: #595959; stroke-linecap: round"/>
   </g>
   <g id="line2d_218">
    <path d="M 802.022347 73.120463 
L 808.423396 73.120463 
" clip-path="url(#pb0e2629359)" style="fill: none; stroke: #595959; stroke-linecap: round"/>
   </g>
   <g id="line2d_219"/>
   <g id="patch_44">
    <path d="M 817.110535 382.390354 
L 829.912634 382.390354 
L 829.912634 161.634423 
L 817.110535 161.634423 
L 817.110535 382.390354 
z
" clip-path="url(#pb0e2629359)" style="fill: #72b6a1; stroke: #595959; stroke-linejoin: miter"/>
   </g>
   <g id="line2d_220">
    <path d="M 823.511584 382.390354 
L 823.511584 455.270373 
" clip-path="url(#pb0e2629359)" style="fill: none; stroke: #595959"/>
   </g>
   <g id="line2d_221">
    <path d="M 823.511584 161.634423 
L 823.511584 74.06085 
" clip-path="url(#pb0e2629359)" style="fill: none; stroke: #595959"/>
   </g>
   <g id="line2d_222">
    <path d="M 820.311059 455.270373 
L 826.712109 455.270373 
" clip-path="url(#pb0e2629359)" style="fill: none; stroke: #595959; stroke-linecap: round"/>
   </g>
   <g id="line2d_223">
    <path d="M 820.311059 74.06085 
L 826.712109 74.06085 
" clip-path="url(#pb0e2629359)" style="fill: none; stroke: #595959; stroke-linecap: round"/>
   </g>
   <g id="line2d_224"/>
   <g id="patch_45">
    <path d="M 835.399248 367.696801 
L 848.201347 367.696801 
L 848.201347 163.515197 
L 835.399248 163.515197 
L 835.399248 367.696801 
z
" clip-path="url(#pb0e2629359)" style="fill: #72b6a1; stroke: #595959; stroke-linejoin: miter"/>
   </g>
   <g id="line2d_225">
    <path d="M 841.800297 367.696801 
L 841.800297 460.795149 
" clip-path="url(#pb0e2629359)" style="fill: none; stroke: #595959"/>
   </g>
   <g id="line2d_226">
    <path d="M 841.800297 163.515197 
L 841.800297 71.944979 
" clip-path="url(#pb0e2629359)" style="fill: none; stroke: #595959"/>
   </g>
   <g id="line2d_227">
    <path d="M 838.599772 460.795149 
L 845.000822 460.795149 
" clip-path="url(#pb0e2629359)" style="fill: none; stroke: #595959; stroke-linecap: round"/>
   </g>
   <g id="line2d_228">
    <path d="M 838.599772 71.944979 
L 845.000822 71.944979 
" clip-path="url(#pb0e2629359)" style="fill: none; stroke: #595959; stroke-linecap: round"/>
   </g>
   <g id="line2d_229"/>
   <g id="patch_46">
    <path d="M 853.68796 373.221577 
L 866.490059 373.221577 
L 866.490059 159.694874 
L 853.68796 159.694874 
L 853.68796 373.221577 
z
" clip-path="url(#pb0e2629359)" style="fill: #72b6a1; stroke: #595959; stroke-linejoin: miter"/>
   </g>
   <g id="line2d_230">
    <path d="M 860.08901 373.221577 
L 860.08901 469.258635 
" clip-path="url(#pb0e2629359)" style="fill: none; stroke: #595959"/>
   </g>
   <g id="line2d_231">
    <path d="M 860.08901 159.694874 
L 860.08901 83.817369 
" clip-path="url(#pb0e2629359)" style="fill: none; stroke: #595959"/>
   </g>
   <g id="line2d_232">
    <path d="M 856.888485 469.258635 
L 863.289535 469.258635 
" clip-path="url(#pb0e2629359)" style="fill: none; stroke: #595959; stroke-linecap: round"/>
   </g>
   <g id="line2d_233">
    <path d="M 856.888485 83.817369 
L 863.289535 83.817369 
" clip-path="url(#pb0e2629359)" style="fill: none; stroke: #595959; stroke-linecap: round"/>
   </g>
   <g id="line2d_234"/>
   <g id="patch_47">
    <path d="M 871.976673 349.006602 
L 884.778772 349.006602 
L 884.778772 158.636938 
L 871.976673 158.636938 
L 871.976673 349.006602 
z
" clip-path="url(#pb0e2629359)" style="fill: #72b6a1; stroke: #595959; stroke-linejoin: miter"/>
   </g>
   <g id="line2d_235">
    <path d="M 878.377723 349.006602 
L 878.377723 462.558375 
" clip-path="url(#pb0e2629359)" style="fill: none; stroke: #595959"/>
   </g>
   <g id="line2d_236">
    <path d="M 878.377723 158.636938 
L 878.377723 79.350529 
" clip-path="url(#pb0e2629359)" style="fill: none; stroke: #595959"/>
   </g>
   <g id="line2d_237">
    <path d="M 875.177198 462.558375 
L 881.578248 462.558375 
" clip-path="url(#pb0e2629359)" style="fill: none; stroke: #595959; stroke-linecap: round"/>
   </g>
   <g id="line2d_238">
    <path d="M 875.177198 79.350529 
L 881.578248 79.350529 
" clip-path="url(#pb0e2629359)" style="fill: none; stroke: #595959; stroke-linecap: round"/>
   </g>
   <g id="line2d_239"/>
   <g id="patch_48">
    <path d="M 890.265386 390.736291 
L 903.067485 390.736291 
L 903.067485 159.22468 
L 890.265386 159.22468 
L 890.265386 390.736291 
z
" clip-path="url(#pb0e2629359)" style="fill: #72b6a1; stroke: #595959; stroke-linejoin: miter"/>
   </g>
   <g id="line2d_240">
    <path d="M 896.666436 390.736291 
L 896.666436 460.912697 
" clip-path="url(#pb0e2629359)" style="fill: none; stroke: #595959"/>
   </g>
   <g id="line2d_241">
    <path d="M 896.666436 159.22468 
L 896.666436 67.125494 
" clip-path="url(#pb0e2629359)" style="fill: none; stroke: #595959"/>
   </g>
   <g id="line2d_242">
    <path d="M 893.465911 460.912697 
L 899.86696 460.912697 
" clip-path="url(#pb0e2629359)" style="fill: none; stroke: #595959; stroke-linecap: round"/>
   </g>
   <g id="line2d_243">
    <path d="M 893.465911 67.125494 
L 899.86696 67.125494 
" clip-path="url(#pb0e2629359)" style="fill: none; stroke: #595959; stroke-linecap: round"/>
   </g>
   <g id="line2d_244"/>
   <g id="patch_49">
    <path d="M 908.554099 374.984803 
L 921.356198 374.984803 
L 921.356198 160.400164 
L 908.554099 160.400164 
L 908.554099 374.984803 
z
" clip-path="url(#pb0e2629359)" style="fill: #72b6a1; stroke: #595959; stroke-linejoin: miter"/>
   </g>
   <g id="line2d_245">
    <path d="M 914.955149 374.984803 
L 914.955149 457.621342 
" clip-path="url(#pb0e2629359)" style="fill: none; stroke: #595959"/>
   </g>
   <g id="line2d_246">
    <path d="M 914.955149 160.400164 
L 914.955149 64.304332 
" clip-path="url(#pb0e2629359)" style="fill: none; stroke: #595959"/>
   </g>
   <g id="line2d_247">
    <path d="M 911.754624 457.621342 
L 918.155673 457.621342 
" clip-path="url(#pb0e2629359)" style="fill: none; stroke: #595959; stroke-linecap: round"/>
   </g>
   <g id="line2d_248">
    <path d="M 911.754624 64.304332 
L 918.155673 64.304332 
" clip-path="url(#pb0e2629359)" style="fill: none; stroke: #595959; stroke-linecap: round"/>
   </g>
   <g id="line2d_249"/>
   <g id="patch_50">
    <path d="M 926.842812 380.039385 
L 939.644911 380.039385 
L 939.644911 158.989583 
L 926.842812 158.989583 
L 926.842812 380.039385 
z
" clip-path="url(#pb0e2629359)" style="fill: #72b6a1; stroke: #595959; stroke-linejoin: miter"/>
   </g>
   <g id="line2d_250">
    <path d="M 933.243861 380.039385 
L 933.243861 460.912697 
" clip-path="url(#pb0e2629359)" style="fill: none; stroke: #595959"/>
   </g>
   <g id="line2d_251">
    <path d="M 933.243861 158.989583 
L 933.243861 77.8224 
" clip-path="url(#pb0e2629359)" style="fill: none; stroke: #595959"/>
   </g>
   <g id="line2d_252">
    <path d="M 930.043337 460.912697 
L 936.444386 460.912697 
" clip-path="url(#pb0e2629359)" style="fill: none; stroke: #595959; stroke-linecap: round"/>
   </g>
   <g id="line2d_253">
    <path d="M 930.043337 77.8224 
L 936.444386 77.8224 
" clip-path="url(#pb0e2629359)" style="fill: none; stroke: #595959; stroke-linecap: round"/>
   </g>
   <g id="line2d_254"/>
   <g id="patch_51">
    <path d="M 945.131525 392.852163 
L 957.933624 392.852163 
L 957.933624 159.459777 
L 945.131525 159.459777 
L 945.131525 392.852163 
z
" clip-path="url(#pb0e2629359)" style="fill: #72b6a1; stroke: #595959; stroke-linejoin: miter"/>
   </g>
   <g id="line2d_255">
    <path d="M 951.532574 392.852163 
L 951.532574 457.386245 
" clip-path="url(#pb0e2629359)" style="fill: none; stroke: #595959"/>
   </g>
   <g id="line2d_256">
    <path d="M 951.532574 159.459777 
L 951.532574 71.709882 
" clip-path="url(#pb0e2629359)" style="fill: none; stroke: #595959"/>
   </g>
   <g id="line2d_257">
    <path d="M 948.33205 457.386245 
L 954.733099 457.386245 
" clip-path="url(#pb0e2629359)" style="fill: none; stroke: #595959; stroke-linecap: round"/>
   </g>
   <g id="line2d_258">
    <path d="M 948.33205 71.709882 
L 954.733099 71.709882 
" clip-path="url(#pb0e2629359)" style="fill: none; stroke: #595959; stroke-linecap: round"/>
   </g>
   <g id="line2d_259"/>
   <g id="patch_52">
    <path d="M 963.420238 385.564161 
L 976.222337 385.564161 
L 976.222337 156.462292 
L 963.420238 156.462292 
L 963.420238 385.564161 
z
" clip-path="url(#pb0e2629359)" style="fill: #72b6a1; stroke: #595959; stroke-linejoin: miter"/>
   </g>
   <g id="line2d_260">
    <path d="M 969.821287 385.564161 
L 969.821287 463.263666 
" clip-path="url(#pb0e2629359)" style="fill: none; stroke: #595959"/>
   </g>
   <g id="line2d_261">
    <path d="M 969.821287 156.462292 
L 969.821287 78.52769 
" clip-path="url(#pb0e2629359)" style="fill: none; stroke: #595959"/>
   </g>
   <g id="line2d_262">
    <path d="M 966.620762 463.263666 
L 973.021812 463.263666 
" clip-path="url(#pb0e2629359)" style="fill: none; stroke: #595959; stroke-linecap: round"/>
   </g>
   <g id="line2d_263">
    <path d="M 966.620762 78.52769 
L 973.021812 78.52769 
" clip-path="url(#pb0e2629359)" style="fill: none; stroke: #595959; stroke-linecap: round"/>
   </g>
   <g id="line2d_264"/>
   <g id="line2d_265">
    <path d="M 67.273307 460.827801 
L 80.075406 460.827801 
" clip-path="url(#pb0e2629359)" style="fill: none; stroke: #595959"/>
   </g>
   <g id="line2d_266">
    <path d="M 85.56202 410.670544 
L 98.364119 410.670544 
" clip-path="url(#pb0e2629359)" style="fill: none; stroke: #595959"/>
   </g>
   <g id="line2d_267">
    <path d="M 103.850733 366.019065 
L 116.652832 366.019065 
" clip-path="url(#pb0e2629359)" style="fill: none; stroke: #595959"/>
   </g>
   <g id="line2d_268">
    <path d="M 122.139446 317.903291 
L 134.941545 317.903291 
" clip-path="url(#pb0e2629359)" style="fill: none; stroke: #595959"/>
   </g>
   <g id="line2d_269">
    <path d="M 140.428158 293.587866 
L 153.230257 293.587866 
" clip-path="url(#pb0e2629359)" style="fill: none; stroke: #595959"/>
   </g>
   <g id="line2d_270">
    <path d="M 158.716871 344.774859 
L 171.51897 344.774859 
" clip-path="url(#pb0e2629359)" style="fill: none; stroke: #595959"/>
   </g>
   <g id="line2d_271">
    <path d="M 177.005584 347.948667 
L 189.807683 347.948667 
" clip-path="url(#pb0e2629359)" style="fill: none; stroke: #595959"/>
   </g>
   <g id="line2d_272">
    <path d="M 195.294297 339.720277 
L 208.096396 339.720277 
" clip-path="url(#pb0e2629359)" style="fill: none; stroke: #595959"/>
   </g>
   <g id="line2d_273">
    <path d="M 213.58301 336.311373 
L 226.385109 336.311373 
" clip-path="url(#pb0e2629359)" style="fill: none; stroke: #595959"/>
   </g>
   <g id="line2d_274">
    <path d="M 231.871723 324.791628 
L 244.673822 324.791628 
" clip-path="url(#pb0e2629359)" style="fill: none; stroke: #595959"/>
   </g>
   <g id="line2d_275">
    <path d="M 250.160436 320.324788 
L 262.962535 320.324788 
" clip-path="url(#pb0e2629359)" style="fill: none; stroke: #595959"/>
   </g>
   <g id="line2d_276">
    <path d="M 268.449149 315.270206 
L 281.251248 315.270206 
" clip-path="url(#pb0e2629359)" style="fill: none; stroke: #595959"/>
   </g>
   <g id="line2d_277">
    <path d="M 286.737861 310.098076 
L 299.53996 310.098076 
" clip-path="url(#pb0e2629359)" style="fill: none; stroke: #595959"/>
   </g>
   <g id="line2d_278">
    <path d="M 305.026574 314.917561 
L 317.828673 314.917561 
" clip-path="url(#pb0e2629359)" style="fill: none; stroke: #595959"/>
   </g>
   <g id="line2d_279">
    <path d="M 323.315287 316.210594 
L 336.117386 316.210594 
" clip-path="url(#pb0e2629359)" style="fill: none; stroke: #595959"/>
   </g>
   <g id="line2d_280">
    <path d="M 341.604 303.515364 
L 354.406099 303.515364 
" clip-path="url(#pb0e2629359)" style="fill: none; stroke: #595959"/>
   </g>
   <g id="line2d_281">
    <path d="M 359.892713 301.164396 
L 372.694812 301.164396 
" clip-path="url(#pb0e2629359)" style="fill: none; stroke: #595959"/>
   </g>
   <g id="line2d_282">
    <path d="M 378.181426 304.103106 
L 390.983525 304.103106 
" clip-path="url(#pb0e2629359)" style="fill: none; stroke: #595959"/>
   </g>
   <g id="line2d_283">
    <path d="M 396.470139 296.227362 
L 409.272238 296.227362 
" clip-path="url(#pb0e2629359)" style="fill: none; stroke: #595959"/>
   </g>
   <g id="line2d_284">
    <path d="M 414.758851 296.462459 
L 427.56095 296.462459 
" clip-path="url(#pb0e2629359)" style="fill: none; stroke: #595959"/>
   </g>
   <g id="line2d_285">
    <path d="M 433.047564 294.816781 
L 445.849663 294.816781 
" clip-path="url(#pb0e2629359)" style="fill: none; stroke: #595959"/>
   </g>
   <g id="line2d_286">
    <path d="M 451.336277 297.16775 
L 464.138376 297.16775 
" clip-path="url(#pb0e2629359)" style="fill: none; stroke: #595959"/>
   </g>
   <g id="line2d_287">
    <path d="M 469.62499 294.816781 
L 482.427089 294.816781 
" clip-path="url(#pb0e2629359)" style="fill: none; stroke: #595959"/>
   </g>
   <g id="line2d_288">
    <path d="M 487.913703 295.286975 
L 500.715802 295.286975 
" clip-path="url(#pb0e2629359)" style="fill: none; stroke: #595959"/>
   </g>
   <g id="line2d_289">
    <path d="M 506.202416 292.70091 
L 519.004515 292.70091 
" clip-path="url(#pb0e2629359)" style="fill: none; stroke: #595959"/>
   </g>
   <g id="line2d_290">
    <path d="M 524.491129 293.4062 
L 537.293228 293.4062 
" clip-path="url(#pb0e2629359)" style="fill: none; stroke: #595959"/>
   </g>
   <g id="line2d_291">
    <path d="M 542.779842 292.230716 
L 555.581941 292.230716 
" clip-path="url(#pb0e2629359)" style="fill: none; stroke: #595959"/>
   </g>
   <g id="line2d_292">
    <path d="M 561.068554 291.642974 
L 573.870653 291.642974 
" clip-path="url(#pb0e2629359)" style="fill: none; stroke: #595959"/>
   </g>
   <g id="line2d_293">
    <path d="M 579.357267 290.114845 
L 592.159366 290.114845 
" clip-path="url(#pb0e2629359)" style="fill: none; stroke: #595959"/>
   </g>
   <g id="line2d_294">
    <path d="M 597.64598 291.878071 
L 610.448079 291.878071 
" clip-path="url(#pb0e2629359)" style="fill: none; stroke: #595959"/>
   </g>
   <g id="line2d_295">
    <path d="M 615.934693 292.348265 
L 628.736792 292.348265 
" clip-path="url(#pb0e2629359)" style="fill: none; stroke: #595959"/>
   </g>
   <g id="line2d_296">
    <path d="M 634.223406 290.46749 
L 647.025505 290.46749 
" clip-path="url(#pb0e2629359)" style="fill: none; stroke: #595959"/>
   </g>
   <g id="line2d_297">
    <path d="M 652.512119 291.995619 
L 665.314218 291.995619 
" clip-path="url(#pb0e2629359)" style="fill: none; stroke: #595959"/>
   </g>
   <g id="line2d_298">
    <path d="M 670.800832 290.585038 
L 683.602931 290.585038 
" clip-path="url(#pb0e2629359)" style="fill: none; stroke: #595959"/>
   </g>
   <g id="line2d_299">
    <path d="M 689.089545 289.997296 
L 701.891644 289.997296 
" clip-path="url(#pb0e2629359)" style="fill: none; stroke: #595959"/>
   </g>
   <g id="line2d_300">
    <path d="M 707.378257 291.995619 
L 720.180356 291.995619 
" clip-path="url(#pb0e2629359)" style="fill: none; stroke: #595959"/>
   </g>
   <g id="line2d_301">
    <path d="M 725.66697 290.937683 
L 738.469069 290.937683 
" clip-path="url(#pb0e2629359)" style="fill: none; stroke: #595959"/>
   </g>
   <g id="line2d_302">
    <path d="M 743.955683 289.174457 
L 756.757782 289.174457 
" clip-path="url(#pb0e2629359)" style="fill: none; stroke: #595959"/>
   </g>
   <g id="line2d_303">
    <path d="M 762.244396 290.349941 
L 775.046495 290.349941 
" clip-path="url(#pb0e2629359)" style="fill: none; stroke: #595959"/>
   </g>
   <g id="line2d_304">
    <path d="M 780.533109 288.93936 
L 793.335208 288.93936 
" clip-path="url(#pb0e2629359)" style="fill: none; stroke: #595959"/>
   </g>
   <g id="line2d_305">
    <path d="M 798.821822 290.820135 
L 811.623921 290.820135 
" clip-path="url(#pb0e2629359)" style="fill: none; stroke: #595959"/>
   </g>
   <g id="line2d_306">
    <path d="M 817.110535 289.056909 
L 829.912634 289.056909 
" clip-path="url(#pb0e2629359)" style="fill: none; stroke: #595959"/>
   </g>
   <g id="line2d_307">
    <path d="M 835.399248 288.469167 
L 848.201347 288.469167 
" clip-path="url(#pb0e2629359)" style="fill: none; stroke: #595959"/>
   </g>
   <g id="line2d_308">
    <path d="M 853.68796 290.114845 
L 866.490059 290.114845 
" clip-path="url(#pb0e2629359)" style="fill: none; stroke: #595959"/>
   </g>
   <g id="line2d_309">
    <path d="M 871.976673 290.114845 
L 884.778772 290.114845 
" clip-path="url(#pb0e2629359)" style="fill: none; stroke: #595959"/>
   </g>
   <g id="line2d_310">
    <path d="M 890.265386 289.174457 
L 903.067485 289.174457 
" clip-path="url(#pb0e2629359)" style="fill: none; stroke: #595959"/>
   </g>
   <g id="line2d_311">
    <path d="M 908.554099 290.46749 
L 921.356198 290.46749 
" clip-path="url(#pb0e2629359)" style="fill: none; stroke: #595959"/>
   </g>
   <g id="line2d_312">
    <path d="M 926.842812 289.174457 
L 939.644911 289.174457 
" clip-path="url(#pb0e2629359)" style="fill: none; stroke: #595959"/>
   </g>
   <g id="line2d_313">
    <path d="M 945.131525 290.46749 
L 957.933624 290.46749 
" clip-path="url(#pb0e2629359)" style="fill: none; stroke: #595959"/>
   </g>
   <g id="line2d_314">
    <path d="M 963.420238 289.527102 
L 976.222337 289.527102 
" clip-path="url(#pb0e2629359)" style="fill: none; stroke: #595959"/>
   </g>
   <g id="patch_53">
    <path d="M 64.53 525.06 
L 64.53 30.48 
" style="fill: none; stroke: #cccccc; stroke-width: 1.25; stroke-linejoin: miter; stroke-linecap: square"/>
   </g>
   <g id="patch_54">
    <path d="M 988.11 525.06 
L 988.11 30.48 
" style="fill: none; stroke: #cccccc; stroke-width: 1.25; stroke-linejoin: miter; stroke-linecap: square"/>
   </g>
   <g id="patch_55">
    <path d="M 64.53 525.06 
L 988.11 525.06 
" style="fill: none; stroke: #cccccc; stroke-width: 1.25; stroke-linejoin: miter; stroke-linecap: square"/>
   </g>
   <g id="patch_56">
    <path d="M 64.53 30.48 
L 988.11 30.48 
" style="fill: none; stroke: #cccccc; stroke-width: 1.25; stroke-linejoin: miter; stroke-linecap: square"/>
   </g>
   <g id="text_17">
    <!-- img-classification - cifar-100 (Accuracy_mean Distribution) -->
    <g style="fill: #262626" transform="translate(261.46125 24.48) scale(0.16 -0.16)">
     <defs>
      <path id="DejaVuSans-Bold-69" d="M 538 3500 
L 1656 3500 
L 1656 0 
L 538 0 
L 538 3500 
z
M 538 4863 
L 1656 4863 
L 1656 3950 
L 538 3950 
L 538 4863 
z
" transform="scale(0.015625)"/>
      <path id="DejaVuSans-Bold-6d" d="M 3781 2919 
Q 3994 3244 4286 3414 
Q 4578 3584 4928 3584 
Q 5531 3584 5847 3212 
Q 6163 2841 6163 2131 
L 6163 0 
L 5038 0 
L 5038 1825 
Q 5041 1866 5042 1909 
Q 5044 1953 5044 2034 
Q 5044 2406 4934 2573 
Q 4825 2741 4581 2741 
Q 4263 2741 4089 2478 
Q 3916 2216 3909 1719 
L 3909 0 
L 2784 0 
L 2784 1825 
Q 2784 2406 2684 2573 
Q 2584 2741 2328 2741 
Q 2006 2741 1831 2477 
Q 1656 2213 1656 1722 
L 1656 0 
L 531 0 
L 531 3500 
L 1656 3500 
L 1656 2988 
Q 1863 3284 2130 3434 
Q 2397 3584 2719 3584 
Q 3081 3584 3359 3409 
Q 3638 3234 3781 2919 
z
" transform="scale(0.015625)"/>
      <path id="DejaVuSans-Bold-67" d="M 2919 594 
Q 2688 288 2409 144 
Q 2131 0 1766 0 
Q 1125 0 706 504 
Q 288 1009 288 1791 
Q 288 2575 706 3076 
Q 1125 3578 1766 3578 
Q 2131 3578 2409 3434 
Q 2688 3291 2919 2981 
L 2919 3500 
L 4044 3500 
L 4044 353 
Q 4044 -491 3511 -936 
Q 2978 -1381 1966 -1381 
Q 1638 -1381 1331 -1331 
Q 1025 -1281 716 -1178 
L 716 -306 
Q 1009 -475 1290 -558 
Q 1572 -641 1856 -641 
Q 2406 -641 2662 -400 
Q 2919 -159 2919 353 
L 2919 594 
z
M 2181 2772 
Q 1834 2772 1640 2515 
Q 1447 2259 1447 1791 
Q 1447 1309 1634 1061 
Q 1822 813 2181 813 
Q 2531 813 2725 1069 
Q 2919 1325 2919 1791 
Q 2919 2259 2725 2515 
Q 2531 2772 2181 2772 
z
" transform="scale(0.015625)"/>
      <path id="DejaVuSans-Bold-2d" d="M 347 2297 
L 2309 2297 
L 2309 1388 
L 347 1388 
L 347 2297 
z
" transform="scale(0.015625)"/>
      <path id="DejaVuSans-Bold-63" d="M 3366 3391 
L 3366 2478 
Q 3138 2634 2908 2709 
Q 2678 2784 2431 2784 
Q 1963 2784 1702 2511 
Q 1441 2238 1441 1747 
Q 1441 1256 1702 982 
Q 1963 709 2431 709 
Q 2694 709 2930 787 
Q 3166 866 3366 1019 
L 3366 103 
Q 3103 6 2833 -42 
Q 2563 -91 2291 -91 
Q 1344 -91 809 395 
Q 275 881 275 1747 
Q 275 2613 809 3098 
Q 1344 3584 2291 3584 
Q 2566 3584 2833 3536 
Q 3100 3488 3366 3391 
z
" transform="scale(0.015625)"/>
      <path id="DejaVuSans-Bold-6c" d="M 538 4863 
L 1656 4863 
L 1656 0 
L 538 0 
L 538 4863 
z
" transform="scale(0.015625)"/>
      <path id="DejaVuSans-Bold-61" d="M 2106 1575 
Q 1756 1575 1579 1456 
Q 1403 1338 1403 1106 
Q 1403 894 1545 773 
Q 1688 653 1941 653 
Q 2256 653 2472 879 
Q 2688 1106 2688 1447 
L 2688 1575 
L 2106 1575 
z
M 3816 1997 
L 3816 0 
L 2688 0 
L 2688 519 
Q 2463 200 2181 54 
Q 1900 -91 1497 -91 
Q 953 -91 614 226 
Q 275 544 275 1050 
Q 275 1666 698 1953 
Q 1122 2241 2028 2241 
L 2688 2241 
L 2688 2328 
Q 2688 2594 2478 2717 
Q 2269 2841 1825 2841 
Q 1466 2841 1156 2769 
Q 847 2697 581 2553 
L 581 3406 
Q 941 3494 1303 3539 
Q 1666 3584 2028 3584 
Q 2975 3584 3395 3211 
Q 3816 2838 3816 1997 
z
" transform="scale(0.015625)"/>
      <path id="DejaVuSans-Bold-73" d="M 3272 3391 
L 3272 2541 
Q 2913 2691 2578 2766 
Q 2244 2841 1947 2841 
Q 1628 2841 1473 2761 
Q 1319 2681 1319 2516 
Q 1319 2381 1436 2309 
Q 1553 2238 1856 2203 
L 2053 2175 
Q 2913 2066 3209 1816 
Q 3506 1566 3506 1031 
Q 3506 472 3093 190 
Q 2681 -91 1863 -91 
Q 1516 -91 1145 -36 
Q 775 19 384 128 
L 384 978 
Q 719 816 1070 734 
Q 1422 653 1784 653 
Q 2113 653 2278 743 
Q 2444 834 2444 1013 
Q 2444 1163 2330 1236 
Q 2216 1309 1875 1350 
L 1678 1375 
Q 931 1469 631 1722 
Q 331 1975 331 2491 
Q 331 3047 712 3315 
Q 1094 3584 1881 3584 
Q 2191 3584 2531 3537 
Q 2872 3491 3272 3391 
z
" transform="scale(0.015625)"/>
      <path id="DejaVuSans-Bold-66" d="M 2841 4863 
L 2841 4128 
L 2222 4128 
Q 1984 4128 1890 4042 
Q 1797 3956 1797 3744 
L 1797 3500 
L 2753 3500 
L 2753 2700 
L 1797 2700 
L 1797 0 
L 678 0 
L 678 2700 
L 122 2700 
L 122 3500 
L 678 3500 
L 678 3744 
Q 678 4316 997 4589 
Q 1316 4863 1984 4863 
L 2841 4863 
z
" transform="scale(0.015625)"/>
      <path id="DejaVuSans-Bold-74" d="M 1759 4494 
L 1759 3500 
L 2913 3500 
L 2913 2700 
L 1759 2700 
L 1759 1216 
Q 1759 972 1856 886 
Q 1953 800 2241 800 
L 2816 800 
L 2816 0 
L 1856 0 
Q 1194 0 917 276 
Q 641 553 641 1216 
L 641 2700 
L 84 2700 
L 84 3500 
L 641 3500 
L 641 4494 
L 1759 4494 
z
" transform="scale(0.015625)"/>
      <path id="DejaVuSans-Bold-6f" d="M 2203 2784 
Q 1831 2784 1636 2517 
Q 1441 2250 1441 1747 
Q 1441 1244 1636 976 
Q 1831 709 2203 709 
Q 2569 709 2762 976 
Q 2956 1244 2956 1747 
Q 2956 2250 2762 2517 
Q 2569 2784 2203 2784 
z
M 2203 3584 
Q 3106 3584 3614 3096 
Q 4122 2609 4122 1747 
Q 4122 884 3614 396 
Q 3106 -91 2203 -91 
Q 1297 -91 786 396 
Q 275 884 275 1747 
Q 275 2609 786 3096 
Q 1297 3584 2203 3584 
z
" transform="scale(0.015625)"/>
      <path id="DejaVuSans-Bold-6e" d="M 4056 2131 
L 4056 0 
L 2931 0 
L 2931 347 
L 2931 1631 
Q 2931 2084 2911 2256 
Q 2891 2428 2841 2509 
Q 2775 2619 2662 2680 
Q 2550 2741 2406 2741 
Q 2056 2741 1856 2470 
Q 1656 2200 1656 1722 
L 1656 0 
L 538 0 
L 538 3500 
L 1656 3500 
L 1656 2988 
Q 1909 3294 2193 3439 
Q 2478 3584 2822 3584 
Q 3428 3584 3742 3212 
Q 4056 2841 4056 2131 
z
" transform="scale(0.015625)"/>
      <path id="DejaVuSans-Bold-20" transform="scale(0.015625)"/>
      <path id="DejaVuSans-Bold-72" d="M 3138 2547 
Q 2991 2616 2845 2648 
Q 2700 2681 2553 2681 
Q 2122 2681 1889 2404 
Q 1656 2128 1656 1613 
L 1656 0 
L 538 0 
L 538 3500 
L 1656 3500 
L 1656 2925 
Q 1872 3269 2151 3426 
Q 2431 3584 2822 3584 
Q 2878 3584 2943 3579 
Q 3009 3575 3134 3559 
L 3138 2547 
z
" transform="scale(0.015625)"/>
      <path id="DejaVuSans-Bold-31" d="M 750 831 
L 1813 831 
L 1813 3847 
L 722 3622 
L 722 4441 
L 1806 4666 
L 2950 4666 
L 2950 831 
L 4013 831 
L 4013 0 
L 750 0 
L 750 831 
z
" transform="scale(0.015625)"/>
      <path id="DejaVuSans-Bold-30" d="M 2944 2338 
Q 2944 3213 2780 3570 
Q 2616 3928 2228 3928 
Q 1841 3928 1675 3570 
Q 1509 3213 1509 2338 
Q 1509 1453 1675 1090 
Q 1841 728 2228 728 
Q 2613 728 2778 1090 
Q 2944 1453 2944 2338 
z
M 4147 2328 
Q 4147 1169 3647 539 
Q 3147 -91 2228 -91 
Q 1306 -91 806 539 
Q 306 1169 306 2328 
Q 306 3491 806 4120 
Q 1306 4750 2228 4750 
Q 3147 4750 3647 4120 
Q 4147 3491 4147 2328 
z
" transform="scale(0.015625)"/>
      <path id="DejaVuSans-Bold-28" d="M 2413 -844 
L 1484 -844 
Q 1006 -72 778 623 
Q 550 1319 550 2003 
Q 550 2688 779 3389 
Q 1009 4091 1484 4856 
L 2413 4856 
Q 2013 4116 1813 3408 
Q 1613 2700 1613 2009 
Q 1613 1319 1811 609 
Q 2009 -100 2413 -844 
z
" transform="scale(0.015625)"/>
      <path id="DejaVuSans-Bold-41" d="M 3419 850 
L 1538 850 
L 1241 0 
L 31 0 
L 1759 4666 
L 3194 4666 
L 4922 0 
L 3713 0 
L 3419 850 
z
M 1838 1716 
L 3116 1716 
L 2478 3572 
L 1838 1716 
z
" transform="scale(0.015625)"/>
      <path id="DejaVuSans-Bold-75" d="M 500 1363 
L 500 3500 
L 1625 3500 
L 1625 3150 
Q 1625 2866 1622 2436 
Q 1619 2006 1619 1863 
Q 1619 1441 1641 1255 
Q 1663 1069 1716 984 
Q 1784 875 1895 815 
Q 2006 756 2150 756 
Q 2500 756 2700 1025 
Q 2900 1294 2900 1772 
L 2900 3500 
L 4019 3500 
L 4019 0 
L 2900 0 
L 2900 506 
Q 2647 200 2364 54 
Q 2081 -91 1741 -91 
Q 1134 -91 817 281 
Q 500 653 500 1363 
z
" transform="scale(0.015625)"/>
      <path id="DejaVuSans-Bold-79" d="M 78 3500 
L 1197 3500 
L 2138 1125 
L 2938 3500 
L 4056 3500 
L 2584 -331 
Q 2363 -916 2067 -1148 
Q 1772 -1381 1288 -1381 
L 641 -1381 
L 641 -647 
L 991 -647 
Q 1275 -647 1404 -556 
Q 1534 -466 1606 -231 
L 1638 -134 
L 78 3500 
z
" transform="scale(0.015625)"/>
      <path id="DejaVuSans-Bold-5f" d="M 3200 -916 
L 3200 -1509 
L 0 -1509 
L 0 -916 
L 3200 -916 
z
" transform="scale(0.015625)"/>
      <path id="DejaVuSans-Bold-65" d="M 4031 1759 
L 4031 1441 
L 1416 1441 
Q 1456 1047 1700 850 
Q 1944 653 2381 653 
Q 2734 653 3104 758 
Q 3475 863 3866 1075 
L 3866 213 
Q 3469 63 3072 -14 
Q 2675 -91 2278 -91 
Q 1328 -91 801 392 
Q 275 875 275 1747 
Q 275 2603 792 3093 
Q 1309 3584 2216 3584 
Q 3041 3584 3536 3087 
Q 4031 2591 4031 1759 
z
M 2881 2131 
Q 2881 2450 2695 2645 
Q 2509 2841 2209 2841 
Q 1884 2841 1681 2658 
Q 1478 2475 1428 2131 
L 2881 2131 
z
" transform="scale(0.015625)"/>
      <path id="DejaVuSans-Bold-44" d="M 1791 3756 
L 1791 909 
L 2222 909 
Q 2959 909 3348 1275 
Q 3738 1641 3738 2338 
Q 3738 3031 3350 3393 
Q 2963 3756 2222 3756 
L 1791 3756 
z
M 588 4666 
L 1856 4666 
Q 2919 4666 3439 4514 
Q 3959 4363 4331 4000 
Q 4659 3684 4818 3271 
Q 4978 2859 4978 2338 
Q 4978 1809 4818 1395 
Q 4659 981 4331 666 
Q 3956 303 3431 151 
Q 2906 0 1856 0 
L 588 0 
L 588 4666 
z
" transform="scale(0.015625)"/>
      <path id="DejaVuSans-Bold-62" d="M 2400 722 
Q 2759 722 2948 984 
Q 3138 1247 3138 1747 
Q 3138 2247 2948 2509 
Q 2759 2772 2400 2772 
Q 2041 2772 1848 2508 
Q 1656 2244 1656 1747 
Q 1656 1250 1848 986 
Q 2041 722 2400 722 
z
M 1656 2988 
Q 1888 3294 2169 3439 
Q 2450 3584 2816 3584 
Q 3463 3584 3878 3070 
Q 4294 2556 4294 1747 
Q 4294 938 3878 423 
Q 3463 -91 2816 -91 
Q 2450 -91 2169 54 
Q 1888 200 1656 506 
L 1656 0 
L 538 0 
L 538 4863 
L 1656 4863 
L 1656 2988 
z
" transform="scale(0.015625)"/>
      <path id="DejaVuSans-Bold-29" d="M 513 -844 
Q 913 -100 1113 609 
Q 1313 1319 1313 2009 
Q 1313 2700 1113 3408 
Q 913 4116 513 4856 
L 1441 4856 
Q 1916 4091 2145 3389 
Q 2375 2688 2375 2003 
Q 2375 1319 2147 623 
Q 1919 -72 1441 -844 
L 513 -844 
z
" transform="scale(0.015625)"/>
     </defs>
     <use xlink:href="#DejaVuSans-Bold-69"/>
     <use xlink:href="#DejaVuSans-Bold-6d" transform="translate(34.277344 0)"/>
     <use xlink:href="#DejaVuSans-Bold-67" transform="translate(138.476562 0)"/>
     <use xlink:href="#DejaVuSans-Bold-2d" transform="translate(210.058594 0)"/>
     <use xlink:href="#DejaVuSans-Bold-63" transform="translate(251.5625 0)"/>
     <use xlink:href="#DejaVuSans-Bold-6c" transform="translate(310.839844 0)"/>
     <use xlink:href="#DejaVuSans-Bold-61" transform="translate(345.117188 0)"/>
     <use xlink:href="#DejaVuSans-Bold-73" transform="translate(412.597656 0)"/>
     <use xlink:href="#DejaVuSans-Bold-73" transform="translate(472.119141 0)"/>
     <use xlink:href="#DejaVuSans-Bold-69" transform="translate(531.640625 0)"/>
     <use xlink:href="#DejaVuSans-Bold-66" transform="translate(565.917969 0)"/>
     <use xlink:href="#DejaVuSans-Bold-69" transform="translate(609.423828 0)"/>
     <use xlink:href="#DejaVuSans-Bold-63" transform="translate(643.701172 0)"/>
     <use xlink:href="#DejaVuSans-Bold-61" transform="translate(702.978516 0)"/>
     <use xlink:href="#DejaVuSans-Bold-74" transform="translate(770.458984 0)"/>
     <use xlink:href="#DejaVuSans-Bold-69" transform="translate(818.261719 0)"/>
     <use xlink:href="#DejaVuSans-Bold-6f" transform="translate(852.539062 0)"/>
     <use xlink:href="#DejaVuSans-Bold-6e" transform="translate(921.240234 0)"/>
     <use xlink:href="#DejaVuSans-Bold-20" transform="translate(992.431641 0)"/>
     <use xlink:href="#DejaVuSans-Bold-2d" transform="translate(1027.246094 0)"/>
     <use xlink:href="#DejaVuSans-Bold-20" transform="translate(1068.75 0)"/>
     <use xlink:href="#DejaVuSans-Bold-63" transform="translate(1103.564453 0)"/>
     <use xlink:href="#DejaVuSans-Bold-69" transform="translate(1162.841797 0)"/>
     <use xlink:href="#DejaVuSans-Bold-66" transform="translate(1197.119141 0)"/>
     <use xlink:href="#DejaVuSans-Bold-61" transform="translate(1240.625 0)"/>
     <use xlink:href="#DejaVuSans-Bold-72" transform="translate(1308.105469 0)"/>
     <use xlink:href="#DejaVuSans-Bold-2d" transform="translate(1357.421875 0)"/>
     <use xlink:href="#DejaVuSans-Bold-31" transform="translate(1398.925781 0)"/>
     <use xlink:href="#DejaVuSans-Bold-30" transform="translate(1468.505859 0)"/>
     <use xlink:href="#DejaVuSans-Bold-30" transform="translate(1538.085938 0)"/>
     <use xlink:href="#DejaVuSans-Bold-20" transform="translate(1607.666016 0)"/>
     <use xlink:href="#DejaVuSans-Bold-28" transform="translate(1642.480469 0)"/>
     <use xlink:href="#DejaVuSans-Bold-41" transform="translate(1688.183594 0)"/>
     <use xlink:href="#DejaVuSans-Bold-63" transform="translate(1765.576172 0)"/>
     <use xlink:href="#DejaVuSans-Bold-63" transform="translate(1824.853516 0)"/>
     <use xlink:href="#DejaVuSans-Bold-75" transform="translate(1884.130859 0)"/>
     <use xlink:href="#DejaVuSans-Bold-72" transform="translate(1955.322266 0)"/>
     <use xlink:href="#DejaVuSans-Bold-61" transform="translate(2004.638672 0)"/>
     <use xlink:href="#DejaVuSans-Bold-63" transform="translate(2072.119141 0)"/>
     <use xlink:href="#DejaVuSans-Bold-79" transform="translate(2131.396484 0)"/>
     <use xlink:href="#DejaVuSans-Bold-5f" transform="translate(2196.582031 0)"/>
     <use xlink:href="#DejaVuSans-Bold-6d" transform="translate(2246.582031 0)"/>
     <use xlink:href="#DejaVuSans-Bold-65" transform="translate(2350.78125 0)"/>
     <use xlink:href="#DejaVuSans-Bold-61" transform="translate(2418.603516 0)"/>
     <use xlink:href="#DejaVuSans-Bold-6e" transform="translate(2486.083984 0)"/>
     <use xlink:href="#DejaVuSans-Bold-20" transform="translate(2557.275391 0)"/>
     <use xlink:href="#DejaVuSans-Bold-44" transform="translate(2592.089844 0)"/>
     <use xlink:href="#DejaVuSans-Bold-69" transform="translate(2675.097656 0)"/>
     <use xlink:href="#DejaVuSans-Bold-73" transform="translate(2709.375 0)"/>
     <use xlink:href="#DejaVuSans-Bold-74" transform="translate(2768.896484 0)"/>
     <use xlink:href="#DejaVuSans-Bold-72" transform="translate(2816.699219 0)"/>
     <use xlink:href="#DejaVuSans-Bold-69" transform="translate(2866.015625 0)"/>
     <use xlink:href="#DejaVuSans-Bold-62" transform="translate(2900.292969 0)"/>
     <use xlink:href="#DejaVuSans-Bold-75" transform="translate(2971.875 0)"/>
     <use xlink:href="#DejaVuSans-Bold-74" transform="translate(3043.066406 0)"/>
     <use xlink:href="#DejaVuSans-Bold-69" transform="translate(3090.869141 0)"/>
     <use xlink:href="#DejaVuSans-Bold-6f" transform="translate(3125.146484 0)"/>
     <use xlink:href="#DejaVuSans-Bold-6e" transform="translate(3193.847656 0)"/>
     <use xlink:href="#DejaVuSans-Bold-29" transform="translate(3265.039062 0)"/>
    </g>
   </g>
  </g>
 </g>
 <defs>
  <clipPath id="pb0e2629359">
   <rect x="64.53" y="30.48" width="923.58" height="494.58"/>
  </clipPath>
 </defs>
</svg>
