<?xml version="1.0" encoding="utf-8" standalone="no"?>
<!DOCTYPE svg PUBLIC "-//W3C//DTD SVG 1.1//EN"
  "http://www.w3.org/Graphics/SVG/1.1/DTD/svg11.dtd">
<svg xmlns:xlink="http://www.w3.org/1999/xlink" width="1008pt" height="576pt" viewBox="0 0 1008 576" xmlns="http://www.w3.org/2000/svg" version="1.1">
 <metadata>
  <rdf:RDF xmlns:dc="http://purl.org/dc/elements/1.1/" xmlns:cc="http://creativecommons.org/ns#" xmlns:rdf="http://www.w3.org/1999/02/22-rdf-syntax-ns#">
   <cc:Work>
    <dc:type rdf:resource="http://purl.org/dc/dcmitype/StillImage"/>
    <dc:date>2025-02-05T22:42:07.258361</dc:date>
    <dc:format>image/svg+xml</dc:format>
    <dc:creator>
     <cc:Agent>
      <dc:title>Matplotlib v3.10.0, https://matplotlib.org/</dc:title>
     </cc:Agent>
    </dc:creator>
   </cc:Work>
  </rdf:RDF>
 </metadata>
 <defs>
  <style type="text/css">*{stroke-linejoin: round; stroke-linecap: butt}</style>
 </defs>
 <g id="figure_1">
  <g id="patch_1">
   <path d="M 0 576 
L 1008 576 
L 1008 0 
L 0 0 
z
" style="fill: #ffffff"/>
  </g>
  <g id="axes_1">
   <g id="patch_2">
    <path d="M 57.6 525.06 
L 838.84 525.06 
L 838.84 30.48 
L 57.6 30.48 
z
" style="fill: #ffffff"/>
   </g>
   <g id="matplotlib.axis_1">
    <g id="xtick_1">
     <g id="line2d_1">
      <path d="M 78.61666 525.06 
L 78.61666 30.48 
" clip-path="url(#p254bf581d9)" style="fill: none; stroke-dasharray: 3.7,1.6; stroke-dashoffset: 0; stroke: #cccccc; stroke-opacity: 0.5"/>
     </g>
     <g id="text_1">
      <!-- 0 -->
      <g style="fill: #262626" transform="translate(75.117285 542.918281) scale(0.11 -0.11)">
       <defs>
        <path id="DejaVuSans-30" d="M 2034 4250 
Q 1547 4250 1301 3770 
Q 1056 3291 1056 2328 
Q 1056 1369 1301 889 
Q 1547 409 2034 409 
Q 2525 409 2770 889 
Q 3016 1369 3016 2328 
Q 3016 3291 2770 3770 
Q 2525 4250 2034 4250 
z
M 2034 4750 
Q 2819 4750 3233 4129 
Q 3647 3509 3647 2328 
Q 3647 1150 3233 529 
Q 2819 -91 2034 -91 
Q 1250 -91 836 529 
Q 422 1150 422 2328 
Q 422 3509 836 4129 
Q 1250 4750 2034 4750 
z
" transform="scale(0.015625)"/>
       </defs>
       <use xlink:href="#DejaVuSans-30"/>
      </g>
     </g>
    </g>
    <g id="xtick_2">
     <g id="line2d_2">
      <path d="M 223.559147 525.06 
L 223.559147 30.48 
" clip-path="url(#p254bf581d9)" style="fill: none; stroke-dasharray: 3.7,1.6; stroke-dashoffset: 0; stroke: #cccccc; stroke-opacity: 0.5"/>
     </g>
     <g id="text_2">
      <!-- 10 -->
      <g style="fill: #262626" transform="translate(216.560397 542.918281) scale(0.11 -0.11)">
       <defs>
        <path id="DejaVuSans-31" d="M 794 531 
L 1825 531 
L 1825 4091 
L 703 3866 
L 703 4441 
L 1819 4666 
L 2450 4666 
L 2450 531 
L 3481 531 
L 3481 0 
L 794 0 
L 794 531 
z
" transform="scale(0.015625)"/>
       </defs>
       <use xlink:href="#DejaVuSans-31"/>
       <use xlink:href="#DejaVuSans-30" transform="translate(63.623047 0)"/>
      </g>
     </g>
    </g>
    <g id="xtick_3">
     <g id="line2d_3">
      <path d="M 368.501633 525.06 
L 368.501633 30.48 
" clip-path="url(#p254bf581d9)" style="fill: none; stroke-dasharray: 3.7,1.6; stroke-dashoffset: 0; stroke: #cccccc; stroke-opacity: 0.5"/>
     </g>
     <g id="text_3">
      <!-- 20 -->
      <g style="fill: #262626" transform="translate(361.502883 542.918281) scale(0.11 -0.11)">
       <defs>
        <path id="DejaVuSans-32" d="M 1228 531 
L 3431 531 
L 3431 0 
L 469 0 
L 469 531 
Q 828 903 1448 1529 
Q 2069 2156 2228 2338 
Q 2531 2678 2651 2914 
Q 2772 3150 2772 3378 
Q 2772 3750 2511 3984 
Q 2250 4219 1831 4219 
Q 1534 4219 1204 4116 
Q 875 4013 500 3803 
L 500 4441 
Q 881 4594 1212 4672 
Q 1544 4750 1819 4750 
Q 2544 4750 2975 4387 
Q 3406 4025 3406 3419 
Q 3406 3131 3298 2873 
Q 3191 2616 2906 2266 
Q 2828 2175 2409 1742 
Q 1991 1309 1228 531 
z
" transform="scale(0.015625)"/>
       </defs>
       <use xlink:href="#DejaVuSans-32"/>
       <use xlink:href="#DejaVuSans-30" transform="translate(63.623047 0)"/>
      </g>
     </g>
    </g>
    <g id="xtick_4">
     <g id="line2d_4">
      <path d="M 513.444119 525.06 
L 513.444119 30.48 
" clip-path="url(#p254bf581d9)" style="fill: none; stroke-dasharray: 3.7,1.6; stroke-dashoffset: 0; stroke: #cccccc; stroke-opacity: 0.5"/>
     </g>
     <g id="text_4">
      <!-- 30 -->
      <g style="fill: #262626" transform="translate(506.445369 542.918281) scale(0.11 -0.11)">
       <defs>
        <path id="DejaVuSans-33" d="M 2597 2516 
Q 3050 2419 3304 2112 
Q 3559 1806 3559 1356 
Q 3559 666 3084 287 
Q 2609 -91 1734 -91 
Q 1441 -91 1130 -33 
Q 819 25 488 141 
L 488 750 
Q 750 597 1062 519 
Q 1375 441 1716 441 
Q 2309 441 2620 675 
Q 2931 909 2931 1356 
Q 2931 1769 2642 2001 
Q 2353 2234 1838 2234 
L 1294 2234 
L 1294 2753 
L 1863 2753 
Q 2328 2753 2575 2939 
Q 2822 3125 2822 3475 
Q 2822 3834 2567 4026 
Q 2313 4219 1838 4219 
Q 1578 4219 1281 4162 
Q 984 4106 628 3988 
L 628 4550 
Q 988 4650 1302 4700 
Q 1616 4750 1894 4750 
Q 2613 4750 3031 4423 
Q 3450 4097 3450 3541 
Q 3450 3153 3228 2886 
Q 3006 2619 2597 2516 
z
" transform="scale(0.015625)"/>
       </defs>
       <use xlink:href="#DejaVuSans-33"/>
       <use xlink:href="#DejaVuSans-30" transform="translate(63.623047 0)"/>
      </g>
     </g>
    </g>
    <g id="xtick_5">
     <g id="line2d_5">
      <path d="M 658.386605 525.06 
L 658.386605 30.48 
" clip-path="url(#p254bf581d9)" style="fill: none; stroke-dasharray: 3.7,1.6; stroke-dashoffset: 0; stroke: #cccccc; stroke-opacity: 0.5"/>
     </g>
     <g id="text_5">
      <!-- 40 -->
      <g style="fill: #262626" transform="translate(651.387855 542.918281) scale(0.11 -0.11)">
       <defs>
        <path id="DejaVuSans-34" d="M 2419 4116 
L 825 1625 
L 2419 1625 
L 2419 4116 
z
M 2253 4666 
L 3047 4666 
L 3047 1625 
L 3713 1625 
L 3713 1100 
L 3047 1100 
L 3047 0 
L 2419 0 
L 2419 1100 
L 313 1100 
L 313 1709 
L 2253 4666 
z
" transform="scale(0.015625)"/>
       </defs>
       <use xlink:href="#DejaVuSans-34"/>
       <use xlink:href="#DejaVuSans-30" transform="translate(63.623047 0)"/>
      </g>
     </g>
    </g>
    <g id="xtick_6">
     <g id="line2d_6">
      <path d="M 803.329091 525.06 
L 803.329091 30.48 
" clip-path="url(#p254bf581d9)" style="fill: none; stroke-dasharray: 3.7,1.6; stroke-dashoffset: 0; stroke: #cccccc; stroke-opacity: 0.5"/>
     </g>
     <g id="text_6">
      <!-- 50 -->
      <g style="fill: #262626" transform="translate(796.330341 542.918281) scale(0.11 -0.11)">
       <defs>
        <path id="DejaVuSans-35" d="M 691 4666 
L 3169 4666 
L 3169 4134 
L 1269 4134 
L 1269 2991 
Q 1406 3038 1543 3061 
Q 1681 3084 1819 3084 
Q 2600 3084 3056 2656 
Q 3513 2228 3513 1497 
Q 3513 744 3044 326 
Q 2575 -91 1722 -91 
Q 1428 -91 1123 -41 
Q 819 9 494 109 
L 494 744 
Q 775 591 1075 516 
Q 1375 441 1709 441 
Q 2250 441 2565 725 
Q 2881 1009 2881 1497 
Q 2881 1984 2565 2268 
Q 2250 2553 1709 2553 
Q 1456 2553 1204 2497 
Q 953 2441 691 2322 
L 691 4666 
z
" transform="scale(0.015625)"/>
       </defs>
       <use xlink:href="#DejaVuSans-35"/>
       <use xlink:href="#DejaVuSans-30" transform="translate(63.623047 0)"/>
      </g>
     </g>
    </g>
    <g id="text_7">
     <!-- Epoch -->
     <g style="fill: #262626" transform="translate(426.784688 559.84375) scale(0.14 -0.14)">
      <defs>
       <path id="DejaVuSans-45" d="M 628 4666 
L 3578 4666 
L 3578 4134 
L 1259 4134 
L 1259 2753 
L 3481 2753 
L 3481 2222 
L 1259 2222 
L 1259 531 
L 3634 531 
L 3634 0 
L 628 0 
L 628 4666 
z
" transform="scale(0.015625)"/>
       <path id="DejaVuSans-70" d="M 1159 525 
L 1159 -1331 
L 581 -1331 
L 581 3500 
L 1159 3500 
L 1159 2969 
Q 1341 3281 1617 3432 
Q 1894 3584 2278 3584 
Q 2916 3584 3314 3078 
Q 3713 2572 3713 1747 
Q 3713 922 3314 415 
Q 2916 -91 2278 -91 
Q 1894 -91 1617 61 
Q 1341 213 1159 525 
z
M 3116 1747 
Q 3116 2381 2855 2742 
Q 2594 3103 2138 3103 
Q 1681 3103 1420 2742 
Q 1159 2381 1159 1747 
Q 1159 1113 1420 752 
Q 1681 391 2138 391 
Q 2594 391 2855 752 
Q 3116 1113 3116 1747 
z
" transform="scale(0.015625)"/>
       <path id="DejaVuSans-6f" d="M 1959 3097 
Q 1497 3097 1228 2736 
Q 959 2375 959 1747 
Q 959 1119 1226 758 
Q 1494 397 1959 397 
Q 2419 397 2687 759 
Q 2956 1122 2956 1747 
Q 2956 2369 2687 2733 
Q 2419 3097 1959 3097 
z
M 1959 3584 
Q 2709 3584 3137 3096 
Q 3566 2609 3566 1747 
Q 3566 888 3137 398 
Q 2709 -91 1959 -91 
Q 1206 -91 779 398 
Q 353 888 353 1747 
Q 353 2609 779 3096 
Q 1206 3584 1959 3584 
z
" transform="scale(0.015625)"/>
       <path id="DejaVuSans-63" d="M 3122 3366 
L 3122 2828 
Q 2878 2963 2633 3030 
Q 2388 3097 2138 3097 
Q 1578 3097 1268 2742 
Q 959 2388 959 1747 
Q 959 1106 1268 751 
Q 1578 397 2138 397 
Q 2388 397 2633 464 
Q 2878 531 3122 666 
L 3122 134 
Q 2881 22 2623 -34 
Q 2366 -91 2075 -91 
Q 1284 -91 818 406 
Q 353 903 353 1747 
Q 353 2603 823 3093 
Q 1294 3584 2113 3584 
Q 2378 3584 2631 3529 
Q 2884 3475 3122 3366 
z
" transform="scale(0.015625)"/>
       <path id="DejaVuSans-68" d="M 3513 2113 
L 3513 0 
L 2938 0 
L 2938 2094 
Q 2938 2591 2744 2837 
Q 2550 3084 2163 3084 
Q 1697 3084 1428 2787 
Q 1159 2491 1159 1978 
L 1159 0 
L 581 0 
L 581 4863 
L 1159 4863 
L 1159 2956 
Q 1366 3272 1645 3428 
Q 1925 3584 2291 3584 
Q 2894 3584 3203 3211 
Q 3513 2838 3513 2113 
z
" transform="scale(0.015625)"/>
      </defs>
      <use xlink:href="#DejaVuSans-45"/>
      <use xlink:href="#DejaVuSans-70" transform="translate(63.183594 0)"/>
      <use xlink:href="#DejaVuSans-6f" transform="translate(126.660156 0)"/>
      <use xlink:href="#DejaVuSans-63" transform="translate(187.841797 0)"/>
      <use xlink:href="#DejaVuSans-68" transform="translate(242.822266 0)"/>
     </g>
    </g>
   </g>
   <g id="matplotlib.axis_2">
    <g id="ytick_1">
     <g id="line2d_7">
      <path d="M 57.6 434.758743 
L 838.84 434.758743 
" clip-path="url(#p254bf581d9)" style="fill: none; stroke-dasharray: 3.7,1.6; stroke-dashoffset: 0; stroke: #cccccc; stroke-opacity: 0.5"/>
     </g>
     <g id="text_8">
      <!-- 0.2 -->
      <g style="fill: #262626" transform="translate(30.606563 438.937883) scale(0.11 -0.11)">
       <defs>
        <path id="DejaVuSans-2e" d="M 684 794 
L 1344 794 
L 1344 0 
L 684 0 
L 684 794 
z
" transform="scale(0.015625)"/>
       </defs>
       <use xlink:href="#DejaVuSans-30"/>
       <use xlink:href="#DejaVuSans-2e" transform="translate(63.623047 0)"/>
       <use xlink:href="#DejaVuSans-32" transform="translate(95.410156 0)"/>
      </g>
     </g>
    </g>
    <g id="ytick_2">
     <g id="line2d_8">
      <path d="M 57.6 335.389035 
L 838.84 335.389035 
" clip-path="url(#p254bf581d9)" style="fill: none; stroke-dasharray: 3.7,1.6; stroke-dashoffset: 0; stroke: #cccccc; stroke-opacity: 0.5"/>
     </g>
     <g id="text_9">
      <!-- 0.4 -->
      <g style="fill: #262626" transform="translate(30.606563 339.568176) scale(0.11 -0.11)">
       <use xlink:href="#DejaVuSans-30"/>
       <use xlink:href="#DejaVuSans-2e" transform="translate(63.623047 0)"/>
       <use xlink:href="#DejaVuSans-34" transform="translate(95.410156 0)"/>
      </g>
     </g>
    </g>
    <g id="ytick_3">
     <g id="line2d_9">
      <path d="M 57.6 236.019328 
L 838.84 236.019328 
" clip-path="url(#p254bf581d9)" style="fill: none; stroke-dasharray: 3.7,1.6; stroke-dashoffset: 0; stroke: #cccccc; stroke-opacity: 0.5"/>
     </g>
     <g id="text_10">
      <!-- 0.6 -->
      <g style="fill: #262626" transform="translate(30.606563 240.198469) scale(0.11 -0.11)">
       <defs>
        <path id="DejaVuSans-36" d="M 2113 2584 
Q 1688 2584 1439 2293 
Q 1191 2003 1191 1497 
Q 1191 994 1439 701 
Q 1688 409 2113 409 
Q 2538 409 2786 701 
Q 3034 994 3034 1497 
Q 3034 2003 2786 2293 
Q 2538 2584 2113 2584 
z
M 3366 4563 
L 3366 3988 
Q 3128 4100 2886 4159 
Q 2644 4219 2406 4219 
Q 1781 4219 1451 3797 
Q 1122 3375 1075 2522 
Q 1259 2794 1537 2939 
Q 1816 3084 2150 3084 
Q 2853 3084 3261 2657 
Q 3669 2231 3669 1497 
Q 3669 778 3244 343 
Q 2819 -91 2113 -91 
Q 1303 -91 875 529 
Q 447 1150 447 2328 
Q 447 3434 972 4092 
Q 1497 4750 2381 4750 
Q 2619 4750 2861 4703 
Q 3103 4656 3366 4563 
z
" transform="scale(0.015625)"/>
       </defs>
       <use xlink:href="#DejaVuSans-30"/>
       <use xlink:href="#DejaVuSans-2e" transform="translate(63.623047 0)"/>
       <use xlink:href="#DejaVuSans-36" transform="translate(95.410156 0)"/>
      </g>
     </g>
    </g>
    <g id="ytick_4">
     <g id="line2d_10">
      <path d="M 57.6 136.649621 
L 838.84 136.649621 
" clip-path="url(#p254bf581d9)" style="fill: none; stroke-dasharray: 3.7,1.6; stroke-dashoffset: 0; stroke: #cccccc; stroke-opacity: 0.5"/>
     </g>
     <g id="text_11">
      <!-- 0.8 -->
      <g style="fill: #262626" transform="translate(30.606563 140.828761) scale(0.11 -0.11)">
       <defs>
        <path id="DejaVuSans-38" d="M 2034 2216 
Q 1584 2216 1326 1975 
Q 1069 1734 1069 1313 
Q 1069 891 1326 650 
Q 1584 409 2034 409 
Q 2484 409 2743 651 
Q 3003 894 3003 1313 
Q 3003 1734 2745 1975 
Q 2488 2216 2034 2216 
z
M 1403 2484 
Q 997 2584 770 2862 
Q 544 3141 544 3541 
Q 544 4100 942 4425 
Q 1341 4750 2034 4750 
Q 2731 4750 3128 4425 
Q 3525 4100 3525 3541 
Q 3525 3141 3298 2862 
Q 3072 2584 2669 2484 
Q 3125 2378 3379 2068 
Q 3634 1759 3634 1313 
Q 3634 634 3220 271 
Q 2806 -91 2034 -91 
Q 1263 -91 848 271 
Q 434 634 434 1313 
Q 434 1759 690 2068 
Q 947 2378 1403 2484 
z
M 1172 3481 
Q 1172 3119 1398 2916 
Q 1625 2713 2034 2713 
Q 2441 2713 2670 2916 
Q 2900 3119 2900 3481 
Q 2900 3844 2670 4047 
Q 2441 4250 2034 4250 
Q 1625 4250 1398 4047 
Q 1172 3844 1172 3481 
z
" transform="scale(0.015625)"/>
       </defs>
       <use xlink:href="#DejaVuSans-30"/>
       <use xlink:href="#DejaVuSans-2e" transform="translate(63.623047 0)"/>
       <use xlink:href="#DejaVuSans-38" transform="translate(95.410156 0)"/>
      </g>
     </g>
    </g>
    <g id="ytick_5">
     <g id="line2d_11">
      <path d="M 57.6 37.279914 
L 838.84 37.279914 
" clip-path="url(#p254bf581d9)" style="fill: none; stroke-dasharray: 3.7,1.6; stroke-dashoffset: 0; stroke: #cccccc; stroke-opacity: 0.5"/>
     </g>
     <g id="text_12">
      <!-- 1.0 -->
      <g style="fill: #262626" transform="translate(30.606563 41.459054) scale(0.11 -0.11)">
       <use xlink:href="#DejaVuSans-31"/>
       <use xlink:href="#DejaVuSans-2e" transform="translate(63.623047 0)"/>
       <use xlink:href="#DejaVuSans-30" transform="translate(95.410156 0)"/>
      </g>
     </g>
    </g>
    <g id="text_13">
     <!-- Accuracy -->
     <g style="fill: #262626" transform="translate(23.695 309.729375) rotate(-90) scale(0.14 -0.14)">
      <defs>
       <path id="DejaVuSans-41" d="M 2188 4044 
L 1331 1722 
L 3047 1722 
L 2188 4044 
z
M 1831 4666 
L 2547 4666 
L 4325 0 
L 3669 0 
L 3244 1197 
L 1141 1197 
L 716 0 
L 50 0 
L 1831 4666 
z
" transform="scale(0.015625)"/>
       <path id="DejaVuSans-75" d="M 544 1381 
L 544 3500 
L 1119 3500 
L 1119 1403 
Q 1119 906 1312 657 
Q 1506 409 1894 409 
Q 2359 409 2629 706 
Q 2900 1003 2900 1516 
L 2900 3500 
L 3475 3500 
L 3475 0 
L 2900 0 
L 2900 538 
Q 2691 219 2414 64 
Q 2138 -91 1772 -91 
Q 1169 -91 856 284 
Q 544 659 544 1381 
z
M 1991 3584 
L 1991 3584 
z
" transform="scale(0.015625)"/>
       <path id="DejaVuSans-72" d="M 2631 2963 
Q 2534 3019 2420 3045 
Q 2306 3072 2169 3072 
Q 1681 3072 1420 2755 
Q 1159 2438 1159 1844 
L 1159 0 
L 581 0 
L 581 3500 
L 1159 3500 
L 1159 2956 
Q 1341 3275 1631 3429 
Q 1922 3584 2338 3584 
Q 2397 3584 2469 3576 
Q 2541 3569 2628 3553 
L 2631 2963 
z
" transform="scale(0.015625)"/>
       <path id="DejaVuSans-61" d="M 2194 1759 
Q 1497 1759 1228 1600 
Q 959 1441 959 1056 
Q 959 750 1161 570 
Q 1363 391 1709 391 
Q 2188 391 2477 730 
Q 2766 1069 2766 1631 
L 2766 1759 
L 2194 1759 
z
M 3341 1997 
L 3341 0 
L 2766 0 
L 2766 531 
Q 2569 213 2275 61 
Q 1981 -91 1556 -91 
Q 1019 -91 701 211 
Q 384 513 384 1019 
Q 384 1609 779 1909 
Q 1175 2209 1959 2209 
L 2766 2209 
L 2766 2266 
Q 2766 2663 2505 2880 
Q 2244 3097 1772 3097 
Q 1472 3097 1187 3025 
Q 903 2953 641 2809 
L 641 3341 
Q 956 3463 1253 3523 
Q 1550 3584 1831 3584 
Q 2591 3584 2966 3190 
Q 3341 2797 3341 1997 
z
" transform="scale(0.015625)"/>
       <path id="DejaVuSans-79" d="M 2059 -325 
Q 1816 -950 1584 -1140 
Q 1353 -1331 966 -1331 
L 506 -1331 
L 506 -850 
L 844 -850 
Q 1081 -850 1212 -737 
Q 1344 -625 1503 -206 
L 1606 56 
L 191 3500 
L 800 3500 
L 1894 763 
L 2988 3500 
L 3597 3500 
L 2059 -325 
z
" transform="scale(0.015625)"/>
      </defs>
      <use xlink:href="#DejaVuSans-41"/>
      <use xlink:href="#DejaVuSans-63" transform="translate(66.658203 0)"/>
      <use xlink:href="#DejaVuSans-63" transform="translate(121.638672 0)"/>
      <use xlink:href="#DejaVuSans-75" transform="translate(176.619141 0)"/>
      <use xlink:href="#DejaVuSans-72" transform="translate(239.998047 0)"/>
      <use xlink:href="#DejaVuSans-61" transform="translate(281.111328 0)"/>
      <use xlink:href="#DejaVuSans-63" transform="translate(342.390625 0)"/>
      <use xlink:href="#DejaVuSans-79" transform="translate(397.371094 0)"/>
     </g>
    </g>
   </g>
   <g id="FillBetweenPolyCollection_1">
    <defs>
     <path id="mb01c82b305" d="M 93.110909 -422.721963 
L 93.110909 -161.862479 
L 107.605158 -196.97256 
L 122.099406 -212.231333 
L 136.593655 -219.522479 
L 151.087904 -233.153358 
L 165.582152 -183.002736 
L 180.076401 -174.305164 
L 194.570649 -215.117811 
L 209.064898 -240.587776 
L 223.559147 -206.431652 
L 238.053395 -266.420376 
L 252.547644 -247.619238 
L 267.041892 -252.590898 
L 281.536141 -263.661091 
L 296.03039 -243.984398 
L 310.524638 -298.727222 
L 325.018887 -248.956038 
L 339.513135 -305.870644 
L 354.007384 -300.766177 
L 368.501633 -307.894466 
L 382.995881 -339.60234 
L 397.49013 -351.341689 
L 411.984378 -319.999046 
L 426.478627 -337.51382 
L 440.972876 -314.524812 
L 455.467124 -377.464107 
L 469.961373 -353.291413 
L 484.455622 -348.105175 
L 498.94987 -380.737379 
L 513.444119 -372.162442 
L 527.938367 -387.400083 
L 542.432616 -376.054218 
L 556.926865 -372.51787 
L 571.421113 -404.205069 
L 585.915362 -395.954674 
L 600.40961 -373.535748 
L 614.903859 -392.975173 
L 629.398108 -337.456562 
L 643.892356 -342.978114 
L 658.386605 -396.424229 
L 672.880853 -380.115385 
L 687.375102 -362.768316 
L 701.869351 -415.952207 
L 716.363599 -385.658154 
L 730.857848 -397.599098 
L 745.352096 -409.980591 
L 759.846345 -393.983789 
L 774.340594 -381.023494 
L 788.834842 -406.626732 
L 803.329091 -378.728515 
L 803.329091 -495.845835 
L 803.329091 -495.845835 
L 788.834842 -490.679126 
L 774.340594 -493.417254 
L 759.846345 -491.774997 
L 745.352096 -489.768284 
L 730.857848 -489.991951 
L 716.363599 -493.382336 
L 701.869351 -484.80823 
L 687.375102 -495.162982 
L 672.880853 -491.672399 
L 658.386605 -489.410901 
L 643.892356 -496.993194 
L 629.398108 -498.678446 
L 614.903859 -488.661023 
L 600.40961 -490.922986 
L 585.915362 -482.112426 
L 571.421113 -486.287063 
L 556.926865 -488.123651 
L 542.432616 -490.580328 
L 527.938367 -491.831268 
L 513.444119 -492.410808 
L 498.94987 -478.663546 
L 484.455622 -496.694908 
L 469.961373 -496.833683 
L 455.467124 -490.964529 
L 440.972876 -503.440259 
L 426.478627 -498.735704 
L 411.984378 -501.248829 
L 397.49013 -496.989317 
L 382.995881 -499.204718 
L 368.501633 -502.856071 
L 354.007384 -504.392142 
L 339.513135 -505.528819 
L 325.018887 -514.690082 
L 310.524638 -507.022765 
L 296.03039 -510.042344 
L 281.536141 -510.17699 
L 267.041892 -509.795541 
L 252.547644 -509.709393 
L 238.053395 -501.653712 
L 223.559147 -511.789625 
L 209.064898 -501.949152 
L 194.570649 -502.607228 
L 180.076401 -506.411988 
L 165.582152 -495.729465 
L 151.087904 -523.039091 
L 136.593655 -515.026368 
L 122.099406 -501.003989 
L 107.605158 -481.883138 
L 93.110909 -422.721963 
z
" style="stroke: #1f77b4; stroke-opacity: 0.3"/>
    </defs>
    <g clip-path="url(#p254bf581d9)">
     <use xlink:href="#mb01c82b305" x="0" y="576" style="fill: #1f77b4; fill-opacity: 0.3; stroke: #1f77b4; stroke-opacity: 0.3"/>
    </g>
   </g>
   <g id="FillBetweenPolyCollection_2">
    <defs>
     <path id="md2da913f37" d="M 93.110909 -413.154794 
L 93.110909 -118.676341 
L 107.605158 -130.330318 
L 122.099406 -130.050063 
L 136.593655 -130.081787 
L 151.087904 -129.910149 
L 151.087904 -484.998239 
L 151.087904 -484.998239 
L 136.593655 -479.490136 
L 122.099406 -479.166859 
L 107.605158 -466.873832 
L 93.110909 -413.154794 
z
" style="stroke: #aec7e8; stroke-opacity: 0.3"/>
    </defs>
    <g clip-path="url(#p254bf581d9)">
     <use xlink:href="#md2da913f37" x="0" y="576" style="fill: #aec7e8; fill-opacity: 0.3; stroke: #aec7e8; stroke-opacity: 0.3"/>
    </g>
   </g>
   <g id="FillBetweenPolyCollection_3">
    <defs>
     <path id="m9e54486347" d="M 93.110909 -265.17093 
L 93.110909 -87.617572 
L 107.605158 -73.420909 
L 122.099406 -90.883064 
L 136.593655 -94.204971 
L 151.087904 -93.314842 
L 165.582152 -139.191414 
L 180.076401 -130.937854 
L 194.570649 -120.759254 
L 209.064898 -120.909463 
L 223.559147 -119.09115 
L 238.053395 -111.375178 
L 252.547644 -102.599842 
L 267.041892 -150.34154 
L 281.536141 -136.628533 
L 296.03039 -175.509591 
L 310.524638 -173.683662 
L 325.018887 -173.756944 
L 339.513135 -152.703571 
L 354.007384 -191.817867 
L 368.501633 -191.123056 
L 382.995881 -188.947573 
L 397.49013 -159.944242 
L 411.984378 -173.026281 
L 426.478627 -206.998074 
L 440.972876 -210.673915 
L 455.467124 -193.720407 
L 469.961373 -217.845297 
L 484.455622 -210.182831 
L 498.94987 -223.234836 
L 513.444119 -206.765028 
L 527.938367 -192.850955 
L 542.432616 -181.422891 
L 556.926865 -227.414994 
L 571.421113 -235.498149 
L 585.915362 -227.065786 
L 600.40961 -220.121809 
L 614.903859 -239.326543 
L 629.398108 -238.532155 
L 643.892356 -247.425761 
L 658.386605 -245.384985 
L 672.880853 -249.561599 
L 687.375102 -250.895822 
L 701.869351 -252.944581 
L 716.363599 -257.887447 
L 730.857848 -262.226594 
L 745.352096 -241.459338 
L 759.846345 -263.605285 
L 774.340594 -267.971713 
L 788.834842 -261.902981 
L 803.329091 -260.41981 
L 803.329091 -515.384135 
L 803.329091 -515.384135 
L 788.834842 -518.729739 
L 774.340594 -515.810209 
L 759.846345 -513.630115 
L 745.352096 -519.285699 
L 730.857848 -507.069003 
L 716.363599 -516.198753 
L 701.869351 -517.248061 
L 687.375102 -514.983368 
L 672.880853 -514.809791 
L 658.386605 -519.864365 
L 643.892356 -513.8346 
L 629.398108 -519.273628 
L 614.903859 -519.98704 
L 600.40961 -519.8385 
L 585.915362 -518.334052 
L 571.421113 -516.104662 
L 556.926865 -516.038065 
L 542.432616 -518.361243 
L 527.938367 -498.019986 
L 513.444119 -514.147384 
L 498.94987 -505.082971 
L 484.455622 -508.172049 
L 469.961373 -508.735678 
L 455.467124 -507.418839 
L 440.972876 -499.054061 
L 426.478627 -500.668607 
L 411.984378 -505.915867 
L 397.49013 -507.355404 
L 382.995881 -493.792702 
L 368.501633 -493.754859 
L 354.007384 -486.83799 
L 339.513135 -485.566165 
L 325.018887 -461.516279 
L 310.524638 -458.554876 
L 296.03039 -436.574058 
L 281.536141 -429.381347 
L 267.041892 -403.281482 
L 252.547644 -352.462722 
L 238.053395 -301.316313 
L 223.559147 -256.344336 
L 209.064898 -245.746431 
L 194.570649 -246.62191 
L 180.076401 -187.296684 
L 165.582152 -139.191414 
L 151.087904 -401.010946 
L 136.593655 -370.901269 
L 122.099406 -341.471483 
L 107.605158 -305.780405 
L 93.110909 -265.17093 
z
" style="stroke: #ff7f0e; stroke-opacity: 0.3"/>
    </defs>
    <g clip-path="url(#p254bf581d9)">
     <use xlink:href="#m9e54486347" x="0" y="576" style="fill: #ff7f0e; fill-opacity: 0.3; stroke: #ff7f0e; stroke-opacity: 0.3"/>
    </g>
   </g>
   <g id="line2d_12">
    <path d="M 93.110909 283.707779 
L 107.605158 236.572151 
L 122.099406 219.382339 
L 136.593655 208.725576 
L 151.087904 197.903776 
L 165.582152 236.6339 
L 180.076401 235.641424 
L 194.570649 217.137481 
L 209.064898 204.731536 
L 223.559147 216.889362 
L 238.053395 191.962956 
L 252.547644 197.335684 
L 267.041892 194.80678 
L 281.536141 189.08096 
L 296.03039 198.986629 
L 310.524638 173.125006 
L 325.018887 194.17694 
L 339.513135 170.300268 
L 354.007384 173.420841 
L 368.501633 170.624731 
L 382.995881 156.596471 
L 397.49013 151.834497 
L 411.984378 165.376063 
L 426.478627 157.875238 
L 440.972876 167.017465 
L 455.467124 141.785682 
L 469.961373 150.937452 
L 484.455622 153.599958 
L 498.94987 146.299537 
L 513.444119 143.713375 
L 527.938367 136.384325 
L 542.432616 142.682727 
L 556.926865 145.67924 
L 571.421113 130.753934 
L 585.915362 136.96645 
L 600.40961 143.770633 
L 614.903859 135.181902 
L 629.398108 157.932496 
L 643.892356 156.014346 
L 658.386605 133.082435 
L 672.880853 140.106108 
L 687.375102 147.034351 
L 701.869351 125.619782 
L 716.363599 136.479755 
L 730.857848 132.204476 
L 745.352096 126.125563 
L 759.846345 133.120607 
L 774.340594 138.779626 
L 788.834842 127.347071 
L 803.329091 138.712825 
" clip-path="url(#p254bf581d9)" style="fill: none; stroke: #1f77b4; stroke-width: 2; stroke-linecap: round"/>
    <defs>
     <path id="m7584cc7bcb" d="M 0 3 
C 0.795609 3 1.55874 2.683901 2.12132 2.12132 
C 2.683901 1.55874 3 0.795609 3 0 
C 3 -0.795609 2.683901 -1.55874 2.12132 -2.12132 
C 1.55874 -2.683901 0.795609 -3 0 -3 
C -0.795609 -3 -1.55874 -2.683901 -2.12132 -2.12132 
C -2.683901 -1.55874 -3 -0.795609 -3 0 
C -3 0.795609 -2.683901 1.55874 -2.12132 2.12132 
C -1.55874 2.683901 -0.795609 3 0 3 
z
" style="stroke: #1f77b4"/>
    </defs>
    <g clip-path="url(#p254bf581d9)">
     <use xlink:href="#m7584cc7bcb" x="93.110909" y="283.707779" style="fill: #1f77b4; stroke: #1f77b4"/>
     <use xlink:href="#m7584cc7bcb" x="107.605158" y="236.572151" style="fill: #1f77b4; stroke: #1f77b4"/>
     <use xlink:href="#m7584cc7bcb" x="122.099406" y="219.382339" style="fill: #1f77b4; stroke: #1f77b4"/>
     <use xlink:href="#m7584cc7bcb" x="136.593655" y="208.725576" style="fill: #1f77b4; stroke: #1f77b4"/>
     <use xlink:href="#m7584cc7bcb" x="151.087904" y="197.903776" style="fill: #1f77b4; stroke: #1f77b4"/>
     <use xlink:href="#m7584cc7bcb" x="165.582152" y="236.6339" style="fill: #1f77b4; stroke: #1f77b4"/>
     <use xlink:href="#m7584cc7bcb" x="180.076401" y="235.641424" style="fill: #1f77b4; stroke: #1f77b4"/>
     <use xlink:href="#m7584cc7bcb" x="194.570649" y="217.137481" style="fill: #1f77b4; stroke: #1f77b4"/>
     <use xlink:href="#m7584cc7bcb" x="209.064898" y="204.731536" style="fill: #1f77b4; stroke: #1f77b4"/>
     <use xlink:href="#m7584cc7bcb" x="223.559147" y="216.889362" style="fill: #1f77b4; stroke: #1f77b4"/>
     <use xlink:href="#m7584cc7bcb" x="238.053395" y="191.962956" style="fill: #1f77b4; stroke: #1f77b4"/>
     <use xlink:href="#m7584cc7bcb" x="252.547644" y="197.335684" style="fill: #1f77b4; stroke: #1f77b4"/>
     <use xlink:href="#m7584cc7bcb" x="267.041892" y="194.80678" style="fill: #1f77b4; stroke: #1f77b4"/>
     <use xlink:href="#m7584cc7bcb" x="281.536141" y="189.08096" style="fill: #1f77b4; stroke: #1f77b4"/>
     <use xlink:href="#m7584cc7bcb" x="296.03039" y="198.986629" style="fill: #1f77b4; stroke: #1f77b4"/>
     <use xlink:href="#m7584cc7bcb" x="310.524638" y="173.125006" style="fill: #1f77b4; stroke: #1f77b4"/>
     <use xlink:href="#m7584cc7bcb" x="325.018887" y="194.17694" style="fill: #1f77b4; stroke: #1f77b4"/>
     <use xlink:href="#m7584cc7bcb" x="339.513135" y="170.300268" style="fill: #1f77b4; stroke: #1f77b4"/>
     <use xlink:href="#m7584cc7bcb" x="354.007384" y="173.420841" style="fill: #1f77b4; stroke: #1f77b4"/>
     <use xlink:href="#m7584cc7bcb" x="368.501633" y="170.624731" style="fill: #1f77b4; stroke: #1f77b4"/>
     <use xlink:href="#m7584cc7bcb" x="382.995881" y="156.596471" style="fill: #1f77b4; stroke: #1f77b4"/>
     <use xlink:href="#m7584cc7bcb" x="397.49013" y="151.834497" style="fill: #1f77b4; stroke: #1f77b4"/>
     <use xlink:href="#m7584cc7bcb" x="411.984378" y="165.376063" style="fill: #1f77b4; stroke: #1f77b4"/>
     <use xlink:href="#m7584cc7bcb" x="426.478627" y="157.875238" style="fill: #1f77b4; stroke: #1f77b4"/>
     <use xlink:href="#m7584cc7bcb" x="440.972876" y="167.017465" style="fill: #1f77b4; stroke: #1f77b4"/>
     <use xlink:href="#m7584cc7bcb" x="455.467124" y="141.785682" style="fill: #1f77b4; stroke: #1f77b4"/>
     <use xlink:href="#m7584cc7bcb" x="469.961373" y="150.937452" style="fill: #1f77b4; stroke: #1f77b4"/>
     <use xlink:href="#m7584cc7bcb" x="484.455622" y="153.599958" style="fill: #1f77b4; stroke: #1f77b4"/>
     <use xlink:href="#m7584cc7bcb" x="498.94987" y="146.299537" style="fill: #1f77b4; stroke: #1f77b4"/>
     <use xlink:href="#m7584cc7bcb" x="513.444119" y="143.713375" style="fill: #1f77b4; stroke: #1f77b4"/>
     <use xlink:href="#m7584cc7bcb" x="527.938367" y="136.384325" style="fill: #1f77b4; stroke: #1f77b4"/>
     <use xlink:href="#m7584cc7bcb" x="542.432616" y="142.682727" style="fill: #1f77b4; stroke: #1f77b4"/>
     <use xlink:href="#m7584cc7bcb" x="556.926865" y="145.67924" style="fill: #1f77b4; stroke: #1f77b4"/>
     <use xlink:href="#m7584cc7bcb" x="571.421113" y="130.753934" style="fill: #1f77b4; stroke: #1f77b4"/>
     <use xlink:href="#m7584cc7bcb" x="585.915362" y="136.96645" style="fill: #1f77b4; stroke: #1f77b4"/>
     <use xlink:href="#m7584cc7bcb" x="600.40961" y="143.770633" style="fill: #1f77b4; stroke: #1f77b4"/>
     <use xlink:href="#m7584cc7bcb" x="614.903859" y="135.181902" style="fill: #1f77b4; stroke: #1f77b4"/>
     <use xlink:href="#m7584cc7bcb" x="629.398108" y="157.932496" style="fill: #1f77b4; stroke: #1f77b4"/>
     <use xlink:href="#m7584cc7bcb" x="643.892356" y="156.014346" style="fill: #1f77b4; stroke: #1f77b4"/>
     <use xlink:href="#m7584cc7bcb" x="658.386605" y="133.082435" style="fill: #1f77b4; stroke: #1f77b4"/>
     <use xlink:href="#m7584cc7bcb" x="672.880853" y="140.106108" style="fill: #1f77b4; stroke: #1f77b4"/>
     <use xlink:href="#m7584cc7bcb" x="687.375102" y="147.034351" style="fill: #1f77b4; stroke: #1f77b4"/>
     <use xlink:href="#m7584cc7bcb" x="701.869351" y="125.619782" style="fill: #1f77b4; stroke: #1f77b4"/>
     <use xlink:href="#m7584cc7bcb" x="716.363599" y="136.479755" style="fill: #1f77b4; stroke: #1f77b4"/>
     <use xlink:href="#m7584cc7bcb" x="730.857848" y="132.204476" style="fill: #1f77b4; stroke: #1f77b4"/>
     <use xlink:href="#m7584cc7bcb" x="745.352096" y="126.125563" style="fill: #1f77b4; stroke: #1f77b4"/>
     <use xlink:href="#m7584cc7bcb" x="759.846345" y="133.120607" style="fill: #1f77b4; stroke: #1f77b4"/>
     <use xlink:href="#m7584cc7bcb" x="774.340594" y="138.779626" style="fill: #1f77b4; stroke: #1f77b4"/>
     <use xlink:href="#m7584cc7bcb" x="788.834842" y="127.347071" style="fill: #1f77b4; stroke: #1f77b4"/>
     <use xlink:href="#m7584cc7bcb" x="803.329091" y="138.712825" style="fill: #1f77b4; stroke: #1f77b4"/>
    </g>
   </g>
   <g id="line2d_13">
    <path d="M 93.110909 310.084432 
L 107.605158 277.397925 
L 122.099406 271.391539 
L 136.593655 271.214039 
L 151.087904 268.545806 
" clip-path="url(#p254bf581d9)" style="fill: none; stroke: #aec7e8; stroke-width: 2; stroke-linecap: round"/>
    <defs>
     <path id="m5ba1c8c5f4" d="M 0 3 
C 0.795609 3 1.55874 2.683901 2.12132 2.12132 
C 2.683901 1.55874 3 0.795609 3 0 
C 3 -0.795609 2.683901 -1.55874 2.12132 -2.12132 
C 1.55874 -2.683901 0.795609 -3 0 -3 
C -0.795609 -3 -1.55874 -2.683901 -2.12132 -2.12132 
C -2.683901 -1.55874 -3 -0.795609 -3 0 
C -3 0.795609 -2.683901 1.55874 -2.12132 2.12132 
C -1.55874 2.683901 -0.795609 3 0 3 
z
" style="stroke: #aec7e8"/>
    </defs>
    <g clip-path="url(#p254bf581d9)">
     <use xlink:href="#m5ba1c8c5f4" x="93.110909" y="310.084432" style="fill: #aec7e8; stroke: #aec7e8"/>
     <use xlink:href="#m5ba1c8c5f4" x="107.605158" y="277.397925" style="fill: #aec7e8; stroke: #aec7e8"/>
     <use xlink:href="#m5ba1c8c5f4" x="122.099406" y="271.391539" style="fill: #aec7e8; stroke: #aec7e8"/>
     <use xlink:href="#m5ba1c8c5f4" x="136.593655" y="271.214039" style="fill: #aec7e8; stroke: #aec7e8"/>
     <use xlink:href="#m5ba1c8c5f4" x="151.087904" y="268.545806" style="fill: #aec7e8; stroke: #aec7e8"/>
    </g>
   </g>
   <g id="line2d_14">
    <path d="M 93.110909 399.605749 
L 107.605158 386.399343 
L 122.099406 359.822727 
L 136.593655 343.44688 
L 151.087904 328.837106 
L 165.582152 436.808586 
L 180.076401 416.882731 
L 194.570649 392.309418 
L 209.064898 392.672053 
L 223.559147 388.282257 
L 238.053395 369.654254 
L 252.547644 348.468718 
L 267.041892 299.188489 
L 281.536141 292.99506 
L 296.03039 269.958175 
L 310.524638 259.880731 
L 325.018887 258.363389 
L 339.513135 256.865132 
L 354.007384 236.672072 
L 368.501633 233.561043 
L 382.995881 234.629862 
L 397.49013 242.350177 
L 411.984378 236.528926 
L 426.478627 222.16666 
L 440.972876 221.136012 
L 455.467124 225.430377 
L 469.961373 212.709513 
L 484.455622 216.82256 
L 498.94987 211.841097 
L 513.444119 215.543794 
L 527.938367 230.56453 
L 542.432616 226.107933 
L 556.926865 204.27347 
L 571.421113 200.198595 
L 585.915362 203.300081 
L 600.40961 206.019846 
L 614.903859 196.343209 
L 629.398108 197.097109 
L 643.892356 195.369819 
L 658.386605 193.375325 
L 672.880853 193.814305 
L 687.375102 193.060405 
L 701.869351 190.903679 
L 716.363599 188.9569 
L 730.857848 191.352202 
L 745.352096 195.627481 
L 759.846345 187.3823 
L 774.340594 184.109039 
L 788.834842 185.68364 
L 803.329091 188.098027 
" clip-path="url(#p254bf581d9)" style="fill: none; stroke: #ff7f0e; stroke-width: 2; stroke-linecap: round"/>
    <defs>
     <path id="m8a9acec82e" d="M 0 3 
C 0.795609 3 1.55874 2.683901 2.12132 2.12132 
C 2.683901 1.55874 3 0.795609 3 0 
C 3 -0.795609 2.683901 -1.55874 2.12132 -2.12132 
C 1.55874 -2.683901 0.795609 -3 0 -3 
C -0.795609 -3 -1.55874 -2.683901 -2.12132 -2.12132 
C -2.683901 -1.55874 -3 -0.795609 -3 0 
C -3 0.795609 -2.683901 1.55874 -2.12132 2.12132 
C -1.55874 2.683901 -0.795609 3 0 3 
z
" style="stroke: #ff7f0e"/>
    </defs>
    <g clip-path="url(#p254bf581d9)">
     <use xlink:href="#m8a9acec82e" x="93.110909" y="399.605749" style="fill: #ff7f0e; stroke: #ff7f0e"/>
     <use xlink:href="#m8a9acec82e" x="107.605158" y="386.399343" style="fill: #ff7f0e; stroke: #ff7f0e"/>
     <use xlink:href="#m8a9acec82e" x="122.099406" y="359.822727" style="fill: #ff7f0e; stroke: #ff7f0e"/>
     <use xlink:href="#m8a9acec82e" x="136.593655" y="343.44688" style="fill: #ff7f0e; stroke: #ff7f0e"/>
     <use xlink:href="#m8a9acec82e" x="151.087904" y="328.837106" style="fill: #ff7f0e; stroke: #ff7f0e"/>
     <use xlink:href="#m8a9acec82e" x="165.582152" y="436.808586" style="fill: #ff7f0e; stroke: #ff7f0e"/>
     <use xlink:href="#m8a9acec82e" x="180.076401" y="416.882731" style="fill: #ff7f0e; stroke: #ff7f0e"/>
     <use xlink:href="#m8a9acec82e" x="194.570649" y="392.309418" style="fill: #ff7f0e; stroke: #ff7f0e"/>
     <use xlink:href="#m8a9acec82e" x="209.064898" y="392.672053" style="fill: #ff7f0e; stroke: #ff7f0e"/>
     <use xlink:href="#m8a9acec82e" x="223.559147" y="388.282257" style="fill: #ff7f0e; stroke: #ff7f0e"/>
     <use xlink:href="#m8a9acec82e" x="238.053395" y="369.654254" style="fill: #ff7f0e; stroke: #ff7f0e"/>
     <use xlink:href="#m8a9acec82e" x="252.547644" y="348.468718" style="fill: #ff7f0e; stroke: #ff7f0e"/>
     <use xlink:href="#m8a9acec82e" x="267.041892" y="299.188489" style="fill: #ff7f0e; stroke: #ff7f0e"/>
     <use xlink:href="#m8a9acec82e" x="281.536141" y="292.99506" style="fill: #ff7f0e; stroke: #ff7f0e"/>
     <use xlink:href="#m8a9acec82e" x="296.03039" y="269.958175" style="fill: #ff7f0e; stroke: #ff7f0e"/>
     <use xlink:href="#m8a9acec82e" x="310.524638" y="259.880731" style="fill: #ff7f0e; stroke: #ff7f0e"/>
     <use xlink:href="#m8a9acec82e" x="325.018887" y="258.363389" style="fill: #ff7f0e; stroke: #ff7f0e"/>
     <use xlink:href="#m8a9acec82e" x="339.513135" y="256.865132" style="fill: #ff7f0e; stroke: #ff7f0e"/>
     <use xlink:href="#m8a9acec82e" x="354.007384" y="236.672072" style="fill: #ff7f0e; stroke: #ff7f0e"/>
     <use xlink:href="#m8a9acec82e" x="368.501633" y="233.561043" style="fill: #ff7f0e; stroke: #ff7f0e"/>
     <use xlink:href="#m8a9acec82e" x="382.995881" y="234.629862" style="fill: #ff7f0e; stroke: #ff7f0e"/>
     <use xlink:href="#m8a9acec82e" x="397.49013" y="242.350177" style="fill: #ff7f0e; stroke: #ff7f0e"/>
     <use xlink:href="#m8a9acec82e" x="411.984378" y="236.528926" style="fill: #ff7f0e; stroke: #ff7f0e"/>
     <use xlink:href="#m8a9acec82e" x="426.478627" y="222.16666" style="fill: #ff7f0e; stroke: #ff7f0e"/>
     <use xlink:href="#m8a9acec82e" x="440.972876" y="221.136012" style="fill: #ff7f0e; stroke: #ff7f0e"/>
     <use xlink:href="#m8a9acec82e" x="455.467124" y="225.430377" style="fill: #ff7f0e; stroke: #ff7f0e"/>
     <use xlink:href="#m8a9acec82e" x="469.961373" y="212.709513" style="fill: #ff7f0e; stroke: #ff7f0e"/>
     <use xlink:href="#m8a9acec82e" x="484.455622" y="216.82256" style="fill: #ff7f0e; stroke: #ff7f0e"/>
     <use xlink:href="#m8a9acec82e" x="498.94987" y="211.841097" style="fill: #ff7f0e; stroke: #ff7f0e"/>
     <use xlink:href="#m8a9acec82e" x="513.444119" y="215.543794" style="fill: #ff7f0e; stroke: #ff7f0e"/>
     <use xlink:href="#m8a9acec82e" x="527.938367" y="230.56453" style="fill: #ff7f0e; stroke: #ff7f0e"/>
     <use xlink:href="#m8a9acec82e" x="542.432616" y="226.107933" style="fill: #ff7f0e; stroke: #ff7f0e"/>
     <use xlink:href="#m8a9acec82e" x="556.926865" y="204.27347" style="fill: #ff7f0e; stroke: #ff7f0e"/>
     <use xlink:href="#m8a9acec82e" x="571.421113" y="200.198595" style="fill: #ff7f0e; stroke: #ff7f0e"/>
     <use xlink:href="#m8a9acec82e" x="585.915362" y="203.300081" style="fill: #ff7f0e; stroke: #ff7f0e"/>
     <use xlink:href="#m8a9acec82e" x="600.40961" y="206.019846" style="fill: #ff7f0e; stroke: #ff7f0e"/>
     <use xlink:href="#m8a9acec82e" x="614.903859" y="196.343209" style="fill: #ff7f0e; stroke: #ff7f0e"/>
     <use xlink:href="#m8a9acec82e" x="629.398108" y="197.097109" style="fill: #ff7f0e; stroke: #ff7f0e"/>
     <use xlink:href="#m8a9acec82e" x="643.892356" y="195.369819" style="fill: #ff7f0e; stroke: #ff7f0e"/>
     <use xlink:href="#m8a9acec82e" x="658.386605" y="193.375325" style="fill: #ff7f0e; stroke: #ff7f0e"/>
     <use xlink:href="#m8a9acec82e" x="672.880853" y="193.814305" style="fill: #ff7f0e; stroke: #ff7f0e"/>
     <use xlink:href="#m8a9acec82e" x="687.375102" y="193.060405" style="fill: #ff7f0e; stroke: #ff7f0e"/>
     <use xlink:href="#m8a9acec82e" x="701.869351" y="190.903679" style="fill: #ff7f0e; stroke: #ff7f0e"/>
     <use xlink:href="#m8a9acec82e" x="716.363599" y="188.9569" style="fill: #ff7f0e; stroke: #ff7f0e"/>
     <use xlink:href="#m8a9acec82e" x="730.857848" y="191.352202" style="fill: #ff7f0e; stroke: #ff7f0e"/>
     <use xlink:href="#m8a9acec82e" x="745.352096" y="195.627481" style="fill: #ff7f0e; stroke: #ff7f0e"/>
     <use xlink:href="#m8a9acec82e" x="759.846345" y="187.3823" style="fill: #ff7f0e; stroke: #ff7f0e"/>
     <use xlink:href="#m8a9acec82e" x="774.340594" y="184.109039" style="fill: #ff7f0e; stroke: #ff7f0e"/>
     <use xlink:href="#m8a9acec82e" x="788.834842" y="185.68364" style="fill: #ff7f0e; stroke: #ff7f0e"/>
     <use xlink:href="#m8a9acec82e" x="803.329091" y="188.098027" style="fill: #ff7f0e; stroke: #ff7f0e"/>
    </g>
   </g>
   <g id="patch_3">
    <path d="M 57.6 525.06 
L 57.6 30.48 
" style="fill: none; stroke: #cccccc; stroke-width: 1.25; stroke-linejoin: miter; stroke-linecap: square"/>
   </g>
   <g id="patch_4">
    <path d="M 838.84 525.06 
L 838.84 30.48 
" style="fill: none; stroke: #cccccc; stroke-width: 1.25; stroke-linejoin: miter; stroke-linecap: square"/>
   </g>
   <g id="patch_5">
    <path d="M 57.6 525.06 
L 838.84 525.06 
" style="fill: none; stroke: #cccccc; stroke-width: 1.25; stroke-linejoin: miter; stroke-linecap: square"/>
   </g>
   <g id="patch_6">
    <path d="M 57.6 30.48 
L 838.84 30.48 
" style="fill: none; stroke: #cccccc; stroke-width: 1.25; stroke-linejoin: miter; stroke-linecap: square"/>
   </g>
   <g id="text_14">
    <!-- img-classification - svhn (Accuracy) -->
    <g style="fill: #262626" transform="translate(287.79875 24.48) scale(0.16 -0.16)">
     <defs>
      <path id="DejaVuSans-Bold-69" d="M 538 3500 
L 1656 3500 
L 1656 0 
L 538 0 
L 538 3500 
z
M 538 4863 
L 1656 4863 
L 1656 3950 
L 538 3950 
L 538 4863 
z
" transform="scale(0.015625)"/>
      <path id="DejaVuSans-Bold-6d" d="M 3781 2919 
Q 3994 3244 4286 3414 
Q 4578 3584 4928 3584 
Q 5531 3584 5847 3212 
Q 6163 2841 6163 2131 
L 6163 0 
L 5038 0 
L 5038 1825 
Q 5041 1866 5042 1909 
Q 5044 1953 5044 2034 
Q 5044 2406 4934 2573 
Q 4825 2741 4581 2741 
Q 4263 2741 4089 2478 
Q 3916 2216 3909 1719 
L 3909 0 
L 2784 0 
L 2784 1825 
Q 2784 2406 2684 2573 
Q 2584 2741 2328 2741 
Q 2006 2741 1831 2477 
Q 1656 2213 1656 1722 
L 1656 0 
L 531 0 
L 531 3500 
L 1656 3500 
L 1656 2988 
Q 1863 3284 2130 3434 
Q 2397 3584 2719 3584 
Q 3081 3584 3359 3409 
Q 3638 3234 3781 2919 
z
" transform="scale(0.015625)"/>
      <path id="DejaVuSans-Bold-67" d="M 2919 594 
Q 2688 288 2409 144 
Q 2131 0 1766 0 
Q 1125 0 706 504 
Q 288 1009 288 1791 
Q 288 2575 706 3076 
Q 1125 3578 1766 3578 
Q 2131 3578 2409 3434 
Q 2688 3291 2919 2981 
L 2919 3500 
L 4044 3500 
L 4044 353 
Q 4044 -491 3511 -936 
Q 2978 -1381 1966 -1381 
Q 1638 -1381 1331 -1331 
Q 1025 -1281 716 -1178 
L 716 -306 
Q 1009 -475 1290 -558 
Q 1572 -641 1856 -641 
Q 2406 -641 2662 -400 
Q 2919 -159 2919 353 
L 2919 594 
z
M 2181 2772 
Q 1834 2772 1640 2515 
Q 1447 2259 1447 1791 
Q 1447 1309 1634 1061 
Q 1822 813 2181 813 
Q 2531 813 2725 1069 
Q 2919 1325 2919 1791 
Q 2919 2259 2725 2515 
Q 2531 2772 2181 2772 
z
" transform="scale(0.015625)"/>
      <path id="DejaVuSans-Bold-2d" d="M 347 2297 
L 2309 2297 
L 2309 1388 
L 347 1388 
L 347 2297 
z
" transform="scale(0.015625)"/>
      <path id="DejaVuSans-Bold-63" d="M 3366 3391 
L 3366 2478 
Q 3138 2634 2908 2709 
Q 2678 2784 2431 2784 
Q 1963 2784 1702 2511 
Q 1441 2238 1441 1747 
Q 1441 1256 1702 982 
Q 1963 709 2431 709 
Q 2694 709 2930 787 
Q 3166 866 3366 1019 
L 3366 103 
Q 3103 6 2833 -42 
Q 2563 -91 2291 -91 
Q 1344 -91 809 395 
Q 275 881 275 1747 
Q 275 2613 809 3098 
Q 1344 3584 2291 3584 
Q 2566 3584 2833 3536 
Q 3100 3488 3366 3391 
z
" transform="scale(0.015625)"/>
      <path id="DejaVuSans-Bold-6c" d="M 538 4863 
L 1656 4863 
L 1656 0 
L 538 0 
L 538 4863 
z
" transform="scale(0.015625)"/>
      <path id="DejaVuSans-Bold-61" d="M 2106 1575 
Q 1756 1575 1579 1456 
Q 1403 1338 1403 1106 
Q 1403 894 1545 773 
Q 1688 653 1941 653 
Q 2256 653 2472 879 
Q 2688 1106 2688 1447 
L 2688 1575 
L 2106 1575 
z
M 3816 1997 
L 3816 0 
L 2688 0 
L 2688 519 
Q 2463 200 2181 54 
Q 1900 -91 1497 -91 
Q 953 -91 614 226 
Q 275 544 275 1050 
Q 275 1666 698 1953 
Q 1122 2241 2028 2241 
L 2688 2241 
L 2688 2328 
Q 2688 2594 2478 2717 
Q 2269 2841 1825 2841 
Q 1466 2841 1156 2769 
Q 847 2697 581 2553 
L 581 3406 
Q 941 3494 1303 3539 
Q 1666 3584 2028 3584 
Q 2975 3584 3395 3211 
Q 3816 2838 3816 1997 
z
" transform="scale(0.015625)"/>
      <path id="DejaVuSans-Bold-73" d="M 3272 3391 
L 3272 2541 
Q 2913 2691 2578 2766 
Q 2244 2841 1947 2841 
Q 1628 2841 1473 2761 
Q 1319 2681 1319 2516 
Q 1319 2381 1436 2309 
Q 1553 2238 1856 2203 
L 2053 2175 
Q 2913 2066 3209 1816 
Q 3506 1566 3506 1031 
Q 3506 472 3093 190 
Q 2681 -91 1863 -91 
Q 1516 -91 1145 -36 
Q 775 19 384 128 
L 384 978 
Q 719 816 1070 734 
Q 1422 653 1784 653 
Q 2113 653 2278 743 
Q 2444 834 2444 1013 
Q 2444 1163 2330 1236 
Q 2216 1309 1875 1350 
L 1678 1375 
Q 931 1469 631 1722 
Q 331 1975 331 2491 
Q 331 3047 712 3315 
Q 1094 3584 1881 3584 
Q 2191 3584 2531 3537 
Q 2872 3491 3272 3391 
z
" transform="scale(0.015625)"/>
      <path id="DejaVuSans-Bold-66" d="M 2841 4863 
L 2841 4128 
L 2222 4128 
Q 1984 4128 1890 4042 
Q 1797 3956 1797 3744 
L 1797 3500 
L 2753 3500 
L 2753 2700 
L 1797 2700 
L 1797 0 
L 678 0 
L 678 2700 
L 122 2700 
L 122 3500 
L 678 3500 
L 678 3744 
Q 678 4316 997 4589 
Q 1316 4863 1984 4863 
L 2841 4863 
z
" transform="scale(0.015625)"/>
      <path id="DejaVuSans-Bold-74" d="M 1759 4494 
L 1759 3500 
L 2913 3500 
L 2913 2700 
L 1759 2700 
L 1759 1216 
Q 1759 972 1856 886 
Q 1953 800 2241 800 
L 2816 800 
L 2816 0 
L 1856 0 
Q 1194 0 917 276 
Q 641 553 641 1216 
L 641 2700 
L 84 2700 
L 84 3500 
L 641 3500 
L 641 4494 
L 1759 4494 
z
" transform="scale(0.015625)"/>
      <path id="DejaVuSans-Bold-6f" d="M 2203 2784 
Q 1831 2784 1636 2517 
Q 1441 2250 1441 1747 
Q 1441 1244 1636 976 
Q 1831 709 2203 709 
Q 2569 709 2762 976 
Q 2956 1244 2956 1747 
Q 2956 2250 2762 2517 
Q 2569 2784 2203 2784 
z
M 2203 3584 
Q 3106 3584 3614 3096 
Q 4122 2609 4122 1747 
Q 4122 884 3614 396 
Q 3106 -91 2203 -91 
Q 1297 -91 786 396 
Q 275 884 275 1747 
Q 275 2609 786 3096 
Q 1297 3584 2203 3584 
z
" transform="scale(0.015625)"/>
      <path id="DejaVuSans-Bold-6e" d="M 4056 2131 
L 4056 0 
L 2931 0 
L 2931 347 
L 2931 1631 
Q 2931 2084 2911 2256 
Q 2891 2428 2841 2509 
Q 2775 2619 2662 2680 
Q 2550 2741 2406 2741 
Q 2056 2741 1856 2470 
Q 1656 2200 1656 1722 
L 1656 0 
L 538 0 
L 538 3500 
L 1656 3500 
L 1656 2988 
Q 1909 3294 2193 3439 
Q 2478 3584 2822 3584 
Q 3428 3584 3742 3212 
Q 4056 2841 4056 2131 
z
" transform="scale(0.015625)"/>
      <path id="DejaVuSans-Bold-20" transform="scale(0.015625)"/>
      <path id="DejaVuSans-Bold-76" d="M 97 3500 
L 1216 3500 
L 2088 1081 
L 2956 3500 
L 4078 3500 
L 2700 0 
L 1472 0 
L 97 3500 
z
" transform="scale(0.015625)"/>
      <path id="DejaVuSans-Bold-68" d="M 4056 2131 
L 4056 0 
L 2931 0 
L 2931 347 
L 2931 1625 
Q 2931 2084 2911 2256 
Q 2891 2428 2841 2509 
Q 2775 2619 2662 2680 
Q 2550 2741 2406 2741 
Q 2056 2741 1856 2470 
Q 1656 2200 1656 1722 
L 1656 0 
L 538 0 
L 538 4863 
L 1656 4863 
L 1656 2988 
Q 1909 3294 2193 3439 
Q 2478 3584 2822 3584 
Q 3428 3584 3742 3212 
Q 4056 2841 4056 2131 
z
" transform="scale(0.015625)"/>
      <path id="DejaVuSans-Bold-28" d="M 2413 -844 
L 1484 -844 
Q 1006 -72 778 623 
Q 550 1319 550 2003 
Q 550 2688 779 3389 
Q 1009 4091 1484 4856 
L 2413 4856 
Q 2013 4116 1813 3408 
Q 1613 2700 1613 2009 
Q 1613 1319 1811 609 
Q 2009 -100 2413 -844 
z
" transform="scale(0.015625)"/>
      <path id="DejaVuSans-Bold-41" d="M 3419 850 
L 1538 850 
L 1241 0 
L 31 0 
L 1759 4666 
L 3194 4666 
L 4922 0 
L 3713 0 
L 3419 850 
z
M 1838 1716 
L 3116 1716 
L 2478 3572 
L 1838 1716 
z
" transform="scale(0.015625)"/>
      <path id="DejaVuSans-Bold-75" d="M 500 1363 
L 500 3500 
L 1625 3500 
L 1625 3150 
Q 1625 2866 1622 2436 
Q 1619 2006 1619 1863 
Q 1619 1441 1641 1255 
Q 1663 1069 1716 984 
Q 1784 875 1895 815 
Q 2006 756 2150 756 
Q 2500 756 2700 1025 
Q 2900 1294 2900 1772 
L 2900 3500 
L 4019 3500 
L 4019 0 
L 2900 0 
L 2900 506 
Q 2647 200 2364 54 
Q 2081 -91 1741 -91 
Q 1134 -91 817 281 
Q 500 653 500 1363 
z
" transform="scale(0.015625)"/>
      <path id="DejaVuSans-Bold-72" d="M 3138 2547 
Q 2991 2616 2845 2648 
Q 2700 2681 2553 2681 
Q 2122 2681 1889 2404 
Q 1656 2128 1656 1613 
L 1656 0 
L 538 0 
L 538 3500 
L 1656 3500 
L 1656 2925 
Q 1872 3269 2151 3426 
Q 2431 3584 2822 3584 
Q 2878 3584 2943 3579 
Q 3009 3575 3134 3559 
L 3138 2547 
z
" transform="scale(0.015625)"/>
      <path id="DejaVuSans-Bold-79" d="M 78 3500 
L 1197 3500 
L 2138 1125 
L 2938 3500 
L 4056 3500 
L 2584 -331 
Q 2363 -916 2067 -1148 
Q 1772 -1381 1288 -1381 
L 641 -1381 
L 641 -647 
L 991 -647 
Q 1275 -647 1404 -556 
Q 1534 -466 1606 -231 
L 1638 -134 
L 78 3500 
z
" transform="scale(0.015625)"/>
      <path id="DejaVuSans-Bold-29" d="M 513 -844 
Q 913 -100 1113 609 
Q 1313 1319 1313 2009 
Q 1313 2700 1113 3408 
Q 913 4116 513 4856 
L 1441 4856 
Q 1916 4091 2145 3389 
Q 2375 2688 2375 2003 
Q 2375 1319 2147 623 
Q 1919 -72 1441 -844 
L 513 -844 
z
" transform="scale(0.015625)"/>
     </defs>
     <use xlink:href="#DejaVuSans-Bold-69"/>
     <use xlink:href="#DejaVuSans-Bold-6d" transform="translate(34.277344 0)"/>
     <use xlink:href="#DejaVuSans-Bold-67" transform="translate(138.476562 0)"/>
     <use xlink:href="#DejaVuSans-Bold-2d" transform="translate(210.058594 0)"/>
     <use xlink:href="#DejaVuSans-Bold-63" transform="translate(251.5625 0)"/>
     <use xlink:href="#DejaVuSans-Bold-6c" transform="translate(310.839844 0)"/>
     <use xlink:href="#DejaVuSans-Bold-61" transform="translate(345.117188 0)"/>
     <use xlink:href="#DejaVuSans-Bold-73" transform="translate(412.597656 0)"/>
     <use xlink:href="#DejaVuSans-Bold-73" transform="translate(472.119141 0)"/>
     <use xlink:href="#DejaVuSans-Bold-69" transform="translate(531.640625 0)"/>
     <use xlink:href="#DejaVuSans-Bold-66" transform="translate(565.917969 0)"/>
     <use xlink:href="#DejaVuSans-Bold-69" transform="translate(609.423828 0)"/>
     <use xlink:href="#DejaVuSans-Bold-63" transform="translate(643.701172 0)"/>
     <use xlink:href="#DejaVuSans-Bold-61" transform="translate(702.978516 0)"/>
     <use xlink:href="#DejaVuSans-Bold-74" transform="translate(770.458984 0)"/>
     <use xlink:href="#DejaVuSans-Bold-69" transform="translate(818.261719 0)"/>
     <use xlink:href="#DejaVuSans-Bold-6f" transform="translate(852.539062 0)"/>
     <use xlink:href="#DejaVuSans-Bold-6e" transform="translate(921.240234 0)"/>
     <use xlink:href="#DejaVuSans-Bold-20" transform="translate(992.431641 0)"/>
     <use xlink:href="#DejaVuSans-Bold-2d" transform="translate(1027.246094 0)"/>
     <use xlink:href="#DejaVuSans-Bold-20" transform="translate(1068.75 0)"/>
     <use xlink:href="#DejaVuSans-Bold-73" transform="translate(1103.564453 0)"/>
     <use xlink:href="#DejaVuSans-Bold-76" transform="translate(1163.085938 0)"/>
     <use xlink:href="#DejaVuSans-Bold-68" transform="translate(1228.271484 0)"/>
     <use xlink:href="#DejaVuSans-Bold-6e" transform="translate(1299.462891 0)"/>
     <use xlink:href="#DejaVuSans-Bold-20" transform="translate(1370.654297 0)"/>
     <use xlink:href="#DejaVuSans-Bold-28" transform="translate(1405.46875 0)"/>
     <use xlink:href="#DejaVuSans-Bold-41" transform="translate(1451.171875 0)"/>
     <use xlink:href="#DejaVuSans-Bold-63" transform="translate(1528.564453 0)"/>
     <use xlink:href="#DejaVuSans-Bold-63" transform="translate(1587.841797 0)"/>
     <use xlink:href="#DejaVuSans-Bold-75" transform="translate(1647.119141 0)"/>
     <use xlink:href="#DejaVuSans-Bold-72" transform="translate(1718.310547 0)"/>
     <use xlink:href="#DejaVuSans-Bold-61" transform="translate(1767.626953 0)"/>
     <use xlink:href="#DejaVuSans-Bold-63" transform="translate(1835.107422 0)"/>
     <use xlink:href="#DejaVuSans-Bold-79" transform="translate(1894.384766 0)"/>
     <use xlink:href="#DejaVuSans-Bold-29" transform="translate(1959.570312 0)"/>
    </g>
   </g>
   <g id="legend_1">
    <g id="patch_7">
     <path d="M 884.902 82.514375 
L 993.18325 82.514375 
Q 995.18325 82.514375 995.18325 80.514375 
L 995.18325 37.48 
Q 995.18325 35.48 993.18325 35.48 
L 884.902 35.48 
Q 882.902 35.48 882.902 37.48 
L 882.902 80.514375 
Q 882.902 82.514375 884.902 82.514375 
z
" style="fill: #ffffff; opacity: 0.8; stroke: #cccccc; stroke-linejoin: miter"/>
    </g>
    <g id="line2d_15">
     <path d="M 886.902 43.578437 
L 896.902 43.578437 
L 906.902 43.578437 
" style="fill: none; stroke: #1f77b4; stroke-width: 2; stroke-linecap: round"/>
     <g>
      <use xlink:href="#m7584cc7bcb" x="896.902" y="43.578437" style="fill: #1f77b4; stroke: #1f77b4"/>
     </g>
    </g>
    <g id="text_15">
     <!-- AirNet - Mean -->
     <g style="fill: #262626" transform="translate(914.902 47.078437) scale(0.1 -0.1)">
      <defs>
       <path id="DejaVuSans-69" d="M 603 3500 
L 1178 3500 
L 1178 0 
L 603 0 
L 603 3500 
z
M 603 4863 
L 1178 4863 
L 1178 4134 
L 603 4134 
L 603 4863 
z
" transform="scale(0.015625)"/>
       <path id="DejaVuSans-4e" d="M 628 4666 
L 1478 4666 
L 3547 763 
L 3547 4666 
L 4159 4666 
L 4159 0 
L 3309 0 
L 1241 3903 
L 1241 0 
L 628 0 
L 628 4666 
z
" transform="scale(0.015625)"/>
       <path id="DejaVuSans-65" d="M 3597 1894 
L 3597 1613 
L 953 1613 
Q 991 1019 1311 708 
Q 1631 397 2203 397 
Q 2534 397 2845 478 
Q 3156 559 3463 722 
L 3463 178 
Q 3153 47 2828 -22 
Q 2503 -91 2169 -91 
Q 1331 -91 842 396 
Q 353 884 353 1716 
Q 353 2575 817 3079 
Q 1281 3584 2069 3584 
Q 2775 3584 3186 3129 
Q 3597 2675 3597 1894 
z
M 3022 2063 
Q 3016 2534 2758 2815 
Q 2500 3097 2075 3097 
Q 1594 3097 1305 2825 
Q 1016 2553 972 2059 
L 3022 2063 
z
" transform="scale(0.015625)"/>
       <path id="DejaVuSans-74" d="M 1172 4494 
L 1172 3500 
L 2356 3500 
L 2356 3053 
L 1172 3053 
L 1172 1153 
Q 1172 725 1289 603 
Q 1406 481 1766 481 
L 2356 481 
L 2356 0 
L 1766 0 
Q 1100 0 847 248 
Q 594 497 594 1153 
L 594 3053 
L 172 3053 
L 172 3500 
L 594 3500 
L 594 4494 
L 1172 4494 
z
" transform="scale(0.015625)"/>
       <path id="DejaVuSans-20" transform="scale(0.015625)"/>
       <path id="DejaVuSans-2d" d="M 313 2009 
L 1997 2009 
L 1997 1497 
L 313 1497 
L 313 2009 
z
" transform="scale(0.015625)"/>
       <path id="DejaVuSans-4d" d="M 628 4666 
L 1569 4666 
L 2759 1491 
L 3956 4666 
L 4897 4666 
L 4897 0 
L 4281 0 
L 4281 4097 
L 3078 897 
L 2444 897 
L 1241 4097 
L 1241 0 
L 628 0 
L 628 4666 
z
" transform="scale(0.015625)"/>
       <path id="DejaVuSans-6e" d="M 3513 2113 
L 3513 0 
L 2938 0 
L 2938 2094 
Q 2938 2591 2744 2837 
Q 2550 3084 2163 3084 
Q 1697 3084 1428 2787 
Q 1159 2491 1159 1978 
L 1159 0 
L 581 0 
L 581 3500 
L 1159 3500 
L 1159 2956 
Q 1366 3272 1645 3428 
Q 1925 3584 2291 3584 
Q 2894 3584 3203 3211 
Q 3513 2838 3513 2113 
z
" transform="scale(0.015625)"/>
      </defs>
      <use xlink:href="#DejaVuSans-41"/>
      <use xlink:href="#DejaVuSans-69" transform="translate(68.408203 0)"/>
      <use xlink:href="#DejaVuSans-72" transform="translate(96.191406 0)"/>
      <use xlink:href="#DejaVuSans-4e" transform="translate(137.304688 0)"/>
      <use xlink:href="#DejaVuSans-65" transform="translate(212.109375 0)"/>
      <use xlink:href="#DejaVuSans-74" transform="translate(273.632812 0)"/>
      <use xlink:href="#DejaVuSans-20" transform="translate(312.841797 0)"/>
      <use xlink:href="#DejaVuSans-2d" transform="translate(344.628906 0)"/>
      <use xlink:href="#DejaVuSans-20" transform="translate(380.712891 0)"/>
      <use xlink:href="#DejaVuSans-4d" transform="translate(412.5 0)"/>
      <use xlink:href="#DejaVuSans-65" transform="translate(498.779297 0)"/>
      <use xlink:href="#DejaVuSans-61" transform="translate(560.302734 0)"/>
      <use xlink:href="#DejaVuSans-6e" transform="translate(621.582031 0)"/>
     </g>
    </g>
    <g id="line2d_16">
     <path d="M 886.902 58.256562 
L 896.902 58.256562 
L 906.902 58.256562 
" style="fill: none; stroke: #aec7e8; stroke-width: 2; stroke-linecap: round"/>
     <g>
      <use xlink:href="#m5ba1c8c5f4" x="896.902" y="58.256562" style="fill: #aec7e8; stroke: #aec7e8"/>
     </g>
    </g>
    <g id="text_16">
     <!-- AirNext - Mean -->
     <g style="fill: #262626" transform="translate(914.902 61.756562) scale(0.1 -0.1)">
      <defs>
       <path id="DejaVuSans-78" d="M 3513 3500 
L 2247 1797 
L 3578 0 
L 2900 0 
L 1881 1375 
L 863 0 
L 184 0 
L 1544 1831 
L 300 3500 
L 978 3500 
L 1906 2253 
L 2834 3500 
L 3513 3500 
z
" transform="scale(0.015625)"/>
      </defs>
      <use xlink:href="#DejaVuSans-41"/>
      <use xlink:href="#DejaVuSans-69" transform="translate(68.408203 0)"/>
      <use xlink:href="#DejaVuSans-72" transform="translate(96.191406 0)"/>
      <use xlink:href="#DejaVuSans-4e" transform="translate(137.304688 0)"/>
      <use xlink:href="#DejaVuSans-65" transform="translate(212.109375 0)"/>
      <use xlink:href="#DejaVuSans-78" transform="translate(271.882812 0)"/>
      <use xlink:href="#DejaVuSans-74" transform="translate(331.0625 0)"/>
      <use xlink:href="#DejaVuSans-20" transform="translate(370.271484 0)"/>
      <use xlink:href="#DejaVuSans-2d" transform="translate(402.058594 0)"/>
      <use xlink:href="#DejaVuSans-20" transform="translate(438.142578 0)"/>
      <use xlink:href="#DejaVuSans-4d" transform="translate(469.929688 0)"/>
      <use xlink:href="#DejaVuSans-65" transform="translate(556.208984 0)"/>
      <use xlink:href="#DejaVuSans-61" transform="translate(617.732422 0)"/>
      <use xlink:href="#DejaVuSans-6e" transform="translate(679.011719 0)"/>
     </g>
    </g>
    <g id="line2d_17">
     <path d="M 886.902 72.934687 
L 896.902 72.934687 
L 906.902 72.934687 
" style="fill: none; stroke: #ff7f0e; stroke-width: 2; stroke-linecap: round"/>
     <g>
      <use xlink:href="#m8a9acec82e" x="896.902" y="72.934687" style="fill: #ff7f0e; stroke: #ff7f0e"/>
     </g>
    </g>
    <g id="text_17">
     <!-- AlexNet - Mean -->
     <g style="fill: #262626" transform="translate(914.902 76.434687) scale(0.1 -0.1)">
      <defs>
       <path id="DejaVuSans-6c" d="M 603 4863 
L 1178 4863 
L 1178 0 
L 603 0 
L 603 4863 
z
" transform="scale(0.015625)"/>
      </defs>
      <use xlink:href="#DejaVuSans-41"/>
      <use xlink:href="#DejaVuSans-6c" transform="translate(68.408203 0)"/>
      <use xlink:href="#DejaVuSans-65" transform="translate(96.191406 0)"/>
      <use xlink:href="#DejaVuSans-78" transform="translate(155.964844 0)"/>
      <use xlink:href="#DejaVuSans-4e" transform="translate(215.144531 0)"/>
      <use xlink:href="#DejaVuSans-65" transform="translate(289.949219 0)"/>
      <use xlink:href="#DejaVuSans-74" transform="translate(351.472656 0)"/>
      <use xlink:href="#DejaVuSans-20" transform="translate(390.681641 0)"/>
      <use xlink:href="#DejaVuSans-2d" transform="translate(422.46875 0)"/>
      <use xlink:href="#DejaVuSans-20" transform="translate(458.552734 0)"/>
      <use xlink:href="#DejaVuSans-4d" transform="translate(490.339844 0)"/>
      <use xlink:href="#DejaVuSans-65" transform="translate(576.619141 0)"/>
      <use xlink:href="#DejaVuSans-61" transform="translate(638.142578 0)"/>
      <use xlink:href="#DejaVuSans-6e" transform="translate(699.421875 0)"/>
     </g>
    </g>
   </g>
  </g>
 </g>
 <defs>
  <clipPath id="p254bf581d9">
   <rect x="57.6" y="30.48" width="781.24" height="494.58"/>
  </clipPath>
 </defs>
</svg>
