<svg width="20" height="20" viewBox="0 0 20 20" fill="none" xmlns="http://www.w3.org/2000/svg">
<path d="M12.25 17.5C12.25 17.9142 12.5858 18.25 13 18.25C13.4142 18.25 13.75 17.9142 13.75 17.5H12.25ZM2.5 17.5C2.5 17.9142 2.83579 18.25 3.25 18.25C3.66421 18.25 4 17.9142 4 17.5H2.5ZM6.25 13C5.83579 13 5.5 13.3358 5.5 13.75C5.5 14.1642 5.83579 14.5 6.25 14.5V13ZM10 14.5C10.4142 14.5 10.75 14.1642 10.75 13.75C10.75 13.3358 10.4142 13 10 13V14.5ZM13.75 18.25C14.1642 18.25 14.5 17.9142 14.5 17.5C14.5 17.0858 14.1642 16.75 13.75 16.75V18.25ZM2.5 16.75C2.08579 16.75 1.75 17.0858 1.75 17.5C1.75 17.9142 2.08579 18.25 2.5 18.25V16.75ZM16.0935 3.41435C15.7701 3.15559 15.2981 3.20803 15.0393 3.53148C14.7806 3.85493 14.833 4.32689 15.1565 4.58565L16.0935 3.41435ZM16.5498 4.73985L17.0183 4.1542V4.1542L16.5498 4.73985ZM13 13C12.5858 13 12.25 13.3358 12.25 13.75C12.25 14.1642 12.5858 14.5 13 14.5V13ZM16.7519 4.90604L16.2513 5.46449L16.7519 4.90604ZM17.4965 6.45523L18.2453 6.41317V6.41317L17.4965 6.45523ZM17.5 7.75C17.9142 7.75 18.25 7.41421 18.25 7C18.25 6.58579 17.9142 6.25 17.5 6.25V7.75ZM16.0192 11.0064L15.7821 11.7179H15.7821L16.0192 11.0064ZM17.2628 12.2115C17.6558 12.3425 18.0805 12.1301 18.2115 11.7372C18.3425 11.3442 18.1301 10.9195 17.7372 10.7885L17.2628 12.2115ZM7.75 3.25H8.5V1.75H7.75V3.25ZM12.25 7V17.5H13.75V7H12.25ZM4 17.5V7H2.5V17.5H4ZM8.5 3.25C9.58186 3.25 10.3178 3.25159 10.8689 3.32569C11.3985 3.39688 11.6437 3.52241 11.8107 3.68934L12.8713 2.62868C12.3792 2.1366 11.7647 1.93262 11.0688 1.83906C10.3945 1.74841 9.53946 1.75 8.5 1.75V3.25ZM13.75 7C13.75 5.96054 13.7516 5.1055 13.6609 4.4312C13.5674 3.73533 13.3634 3.12076 12.8713 2.62868L11.8107 3.68934C11.9776 3.85627 12.1031 4.10153 12.1743 4.63107C12.2484 5.18219 12.25 5.91814 12.25 7H13.75ZM7.75 1.75C6.71054 1.75 5.8555 1.74841 5.1812 1.83906C4.48533 1.93262 3.87076 2.1366 3.37868 2.62868L4.43934 3.68934C4.60627 3.52241 4.85153 3.39688 5.38107 3.32569C5.93219 3.25159 6.66814 3.25 7.75 3.25V1.75ZM4 7C4 5.91814 4.00159 5.18219 4.07569 4.63107C4.14688 4.10153 4.27241 3.85627 4.43934 3.68934L3.37868 2.62868C2.8866 3.12076 2.68262 3.73533 2.58906 4.4312C2.49841 5.1055 2.5 5.96054 2.5 7H4ZM7 6.25H9.25V4.75H7V6.25ZM9.25 7.75H7V9.25H9.25V7.75ZM4.75 7C4.75 7.33235 4.74841 7.65706 4.78415 7.92289C4.82279 8.21029 4.91693 8.53825 5.18934 8.81066L6.25 7.75C6.30274 7.80274 6.28705 7.84409 6.27077 7.72302C6.25159 7.58037 6.25 7.37476 6.25 7H4.75ZM7 7.75C6.62524 7.75 6.41963 7.74841 6.27698 7.72923C6.15591 7.71295 6.19726 7.69726 6.25 7.75L5.18934 8.81066C5.46175 9.08307 5.78971 9.17721 6.07711 9.21585C6.34294 9.25159 6.66765 9.25 7 9.25V7.75ZM10 7C10 7.37476 9.99841 7.58037 9.97923 7.72302C9.96295 7.84409 9.94726 7.80274 10 7.75L11.0607 8.81066C11.3331 8.53825 11.4272 8.21029 11.4659 7.92289C11.5016 7.65706 11.5 7.33235 11.5 7H10ZM9.25 9.25C9.58235 9.25 9.90706 9.25159 10.1729 9.21585C10.4603 9.17721 10.7882 9.08307 11.0607 8.81066L10 7.75C10.0527 7.69726 10.0941 7.71295 9.97302 7.72923C9.83037 7.74841 9.62476 7.75 9.25 7.75V9.25ZM9.25 6.25C9.62476 6.25 9.83037 6.25159 9.97302 6.27077C10.0941 6.28705 10.0527 6.30274 10 6.25L11.0607 5.18934C10.7882 4.91693 10.4603 4.82279 10.1729 4.78415C9.90706 4.74841 9.58235 4.75 9.25 4.75V6.25ZM11.5 7C11.5 6.66765 11.5016 6.34294 11.4659 6.07711C11.4272 5.78971 11.3331 5.46175 11.0607 5.18934L10 6.25C9.94726 6.19726 9.96295 6.15591 9.97923 6.27698C9.99841 6.41963 10 6.62524 10 7H11.5ZM7 4.75C6.66765 4.75 6.34294 4.74841 6.07711 4.78415C5.78971 4.82279 5.46175 4.91693 5.18934 5.18934L6.25 6.25C6.19726 6.30274 6.15591 6.28705 6.27698 6.27077C6.41963 6.25159 6.62524 6.25 7 6.25V4.75ZM6.25 7C6.25 6.62524 6.25159 6.41963 6.27077 6.27698C6.28705 6.15591 6.30274 6.19726 6.25 6.25L5.18934 5.18934C4.91693 5.46175 4.82279 5.78971 4.78415 6.07711C4.74841 6.34294 4.75 6.66765 4.75 7H6.25ZM6.25 14.5H10V13H6.25V14.5ZM13.75 16.75H2.5V18.25H13.75V16.75ZM15.1565 4.58565L16.0813 5.3255L17.0183 4.1542L16.0935 3.41435L15.1565 4.58565ZM16.75 6.71683V14.875H18.25V6.71683H16.75ZM16 14.875V14.8214H14.5V14.875H16ZM14.1786 13H13V14.5H14.1786V13ZM16 14.8214C16 13.8155 15.1845 13 14.1786 13V14.5C14.3561 14.5 14.5 14.6439 14.5 14.8214H16ZM16.375 15.25C16.1679 15.25 16 15.0821 16 14.875H14.5C14.5 15.9105 15.3395 16.75 16.375 16.75V15.25ZM16.75 14.875C16.75 15.0821 16.5821 15.25 16.375 15.25V16.75C17.4105 16.75 18.25 15.9105 18.25 14.875H16.75ZM16.0813 5.3255C16.1913 5.41353 16.2236 5.43969 16.2513 5.46449L17.2525 4.34758C17.1861 4.2881 17.115 4.23156 17.0183 4.1542L16.0813 5.3255ZM18.25 6.71683C18.25 6.59299 18.2503 6.50215 18.2453 6.41317L16.7476 6.49729C16.7497 6.53439 16.75 6.57592 16.75 6.71683H18.25ZM16.2513 5.46449C16.5469 5.7295 16.7254 6.1009 16.7476 6.49729L18.2453 6.41317C18.2008 5.62039 17.8437 4.8776 17.2525 4.34758L16.2513 5.46449ZM17.5 6.25H16.375V7.75H17.5V6.25ZM14.5 8.125V9.93915H16V8.125H14.5ZM15.7821 11.7179L17.2628 12.2115L17.7372 10.7885L16.2564 10.2949L15.7821 11.7179ZM14.5 9.93915C14.5 10.7462 15.0164 11.4627 15.7821 11.7179L16.2564 10.2949C16.1033 10.2439 16 10.1006 16 9.93915H14.5ZM16.375 6.25C15.3395 6.25 14.5 7.08947 14.5 8.125H16C16 7.91789 16.1679 7.75 16.375 7.75V6.25Z" fill="#8B94B2"/>
</svg>
