<svg width="12" height="12" viewBox="0 0 12 12" fill="none" xmlns="http://www.w3.org/2000/svg">
<path fill-rule="evenodd" clip-rule="evenodd" d="M5.78417 1.02257C5.92657 0.992478 6.07343 0.992478 6.21583 1.02257C6.38256 1.0578 6.53013 1.14325 6.61964 1.19508C6.62876 1.20036 6.63729 1.2053 6.64517 1.20979L9.81638 3.01989C9.8247 3.02464 9.83377 3.02974 9.84349 3.03521C9.93847 3.0886 10.0951 3.17664 10.2162 3.31166C10.3195 3.4269 10.3978 3.56348 10.4456 3.71228C10.5017 3.88662 10.5005 4.07002 10.4998 4.18125C10.4998 4.19263 10.4997 4.20326 10.4997 4.21304V7.78696C10.4997 7.79674 10.4998 7.80737 10.4998 7.81875C10.5005 7.92998 10.5017 8.11338 10.4456 8.28772C10.3978 8.43652 10.3195 8.5731 10.2162 8.68834C10.0951 8.82337 9.93847 8.9114 9.84348 8.9648C9.83377 8.97026 9.8247 8.97536 9.81638 8.98011L6.64517 10.7902C6.63729 10.7947 6.62877 10.7996 6.61964 10.8049C6.53013 10.8568 6.38256 10.9422 6.21583 10.9774C6.07343 11.0075 5.92657 11.0075 5.78417 10.9774C5.61744 10.9422 5.46987 10.8568 5.38036 10.8049C5.37124 10.7996 5.36271 10.7947 5.35483 10.7902L2.18362 8.98011C2.1753 8.97536 2.16623 8.97026 2.15651 8.96479C2.06153 8.9114 1.90494 8.82336 1.78382 8.68834C1.68046 8.5731 1.60224 8.43652 1.5544 8.28772C1.49833 8.11338 1.49947 7.92998 1.50017 7.81874C1.50024 7.80736 1.50031 7.79674 1.50031 7.78696V4.21304C1.50031 4.20326 1.50024 4.19264 1.50017 4.18126C1.49947 4.07002 1.49833 3.88662 1.5544 3.71228C1.60224 3.56348 1.68046 3.4269 1.78382 3.31166C1.90494 3.17664 2.06153 3.0886 2.15651 3.03521C2.16623 3.02974 2.1753 3.02464 2.18362 3.01989L5.35483 1.20979C5.36271 1.2053 5.37124 1.20036 5.38036 1.19508C5.46987 1.14325 5.61744 1.0578 5.78417 1.02257ZM6 2.35258C5.99347 2.3563 5.98656 2.36025 5.97919 2.36445L2.80798 4.17455C2.80017 4.17901 2.79285 4.18319 2.78594 4.18714C2.78594 4.19526 2.78593 4.20387 2.78593 4.21304V7.78696C2.78593 7.79613 2.78594 7.80474 2.78594 7.81286C2.79285 7.81681 2.80017 7.82099 2.80798 7.82545L5.97919 9.63555C5.98656 9.63975 5.99347 9.6437 6 9.64742C6.00653 9.6437 6.01344 9.63975 6.02081 9.63555L9.19202 7.82545C9.19983 7.82099 9.20715 7.81681 9.21406 7.81286C9.21407 7.80474 9.21407 7.79613 9.21407 7.78696V4.21304C9.21407 4.20387 9.21407 4.19526 9.21406 4.18714C9.20715 4.18319 9.19983 4.17901 9.19202 4.17455L6.02081 2.36445C6.01344 2.36025 6.00653 2.3563 6 2.35258ZM6 3.57838C6.35502 3.57838 6.64281 3.87407 6.64281 4.23882V6C6.64281 6.36475 6.35502 6.66044 6 6.66044C5.64498 6.66044 5.35719 6.36475 5.35719 6V4.23882C5.35719 3.87407 5.64498 3.57838 6 3.57838ZM5.35719 7.76118C5.35719 7.39643 5.64498 7.10074 6 7.10074C6.35502 7.10074 6.6471 7.39643 6.6471 7.76118C6.6471 8.12593 6.3593 8.42162 6.00429 8.42162C5.64927 8.42162 5.35719 8.12593 5.35719 7.76118Z" fill="white"/>
</svg>
