<svg width="18" height="18" viewBox="0 0 18 18" fill="none" xmlns="http://www.w3.org/2000/svg">
<path d="M14.0002 7.33338L10.6669 4.00005M1.0835 16.9167L3.9038 16.6033C4.24838 16.5651 4.42067 16.5459 4.5817 16.4938C4.72457 16.4475 4.86054 16.3822 4.9859 16.2995C5.12721 16.2063 5.24978 16.0838 5.49493 15.8386L16.5002 4.83338C17.4207 3.91291 17.4207 2.42052 16.5002 1.50005C15.5797 0.579575 14.0873 0.579573 13.1669 1.50005L2.1616 12.5053C1.91645 12.7504 1.79388 12.873 1.70069 13.0143C1.61802 13.1397 1.55268 13.2756 1.50642 13.4185C1.45429 13.5795 1.43515 13.7518 1.39686 14.0964L1.0835 16.9167Z" stroke="#515D8A" stroke-width="1.5" stroke-linecap="round" stroke-linejoin="round"/>
</svg>
