<svg width="20" height="20" viewBox="0 0 20 20" fill="none" xmlns="http://www.w3.org/2000/svg">
<g clip-path="url(#clip0_694_9647)">
<path d="M8.33342 12.5L5.7707 15.0947C5.41324 15.4567 5.2345 15.6376 5.08087 15.6504C4.94759 15.6615 4.81709 15.6079 4.73005 15.5064C4.62971 15.3893 4.62971 15.135 4.62971 14.6263V13.3263C4.62971 12.87 4.25598 12.5397 3.80442 12.4736V12.4736C2.71153 12.3135 1.85323 11.4552 1.69314 10.3623C1.66675 10.1821 1.66675 9.96709 1.66675 9.53703V5.66666C1.66675 4.26653 1.66675 3.56646 1.93923 3.03168C2.17892 2.56128 2.56137 2.17882 3.03177 1.93914C3.56655 1.66666 4.26662 1.66666 5.66675 1.66666H11.8334C13.2335 1.66666 13.9336 1.66666 14.4684 1.93914C14.9388 2.17882 15.3212 2.56128 15.5609 3.03168C15.8334 3.56646 15.8334 4.26653 15.8334 5.66666V9.16666M15.8334 18.3333L14.0197 17.0724C13.7648 16.8951 13.6373 16.8065 13.4986 16.7437C13.3755 16.6879 13.246 16.6473 13.1131 16.6228C12.9633 16.5952 12.808 16.5952 12.4975 16.5952H11.0001C10.0667 16.5952 9.59995 16.5952 9.24343 16.4136C8.92983 16.2538 8.67486 15.9988 8.51507 15.6852C8.33342 15.3287 8.33342 14.862 8.33342 13.9286V11.8333C8.33342 10.8999 8.33342 10.4332 8.51507 10.0767C8.67486 9.76307 8.92983 9.5081 9.24343 9.34831C9.59995 9.16666 10.0667 9.16666 11.0001 9.16666H15.6667C16.6002 9.16666 17.0669 9.16666 17.4234 9.34831C17.737 9.5081 17.992 9.76307 18.1518 10.0767C18.3334 10.4332 18.3334 10.8999 18.3334 11.8333V14.0952C18.3334 14.8718 18.3334 15.2601 18.2065 15.5664C18.0374 15.9747 17.7129 16.2992 17.3046 16.4684C16.9983 16.5952 16.61 16.5952 15.8334 16.5952V18.3333Z" stroke="#8B94B2" stroke-width="1.5" stroke-linecap="round" stroke-linejoin="round"/>
</g>
<defs>
<clipPath id="clip0_694_9647">
<rect width="20" height="20" fill="white"/>
</clipPath>
</defs>
</svg>
