<svg width="20" height="20" viewBox="0 0 20 20" fill="none" xmlns="http://www.w3.org/2000/svg">
<path d="M16.6666 8.74999V5.66666C16.6666 4.26653 16.6666 3.56646 16.3941 3.03168C16.1544 2.56128 15.772 2.17882 15.3016 1.93914C14.7668 1.66666 14.0667 1.66666 12.6666 1.66666H7.33325C5.93312 1.66666 5.23306 1.66666 4.69828 1.93914C4.22787 2.17882 3.84542 2.56128 3.60574 3.03168C3.33325 3.56646 3.33325 4.26653 3.33325 5.66666V14.3333C3.33325 15.7335 3.33325 16.4335 3.60574 16.9683C3.84542 17.4387 4.22787 17.8212 4.69828 18.0608C5.23306 18.3333 5.93312 18.3333 7.33325 18.3333H9.99992M14.9999 17.5V12.5M12.4999 15H17.4999" stroke="#8B94B2" stroke-width="1.5" stroke-linecap="round" stroke-linejoin="round"/>
</svg>
