<?xml version="1.0" encoding="UTF-8" standalone="no"?>
<!DOCTYPE svg PUBLIC "-//W3C//DTD SVG 1.1//EN" "http://www.w3.org/Graphics/SVG/1.1/DTD/svg11.dtd">
<svg width="100%" height="100%" viewBox="0 0 849 148" version="1.1" xmlns="http://www.w3.org/2000/svg" xmlns:xlink="http://www.w3.org/1999/xlink" xml:space="preserve" xmlns:serif="http://www.serif.com/" style="fill-rule:evenodd;clip-rule:evenodd;stroke-linejoin:round;stroke-miterlimit:2;">
    <g transform="matrix(1,0,0,1,-1202,-235)">
        <g id="logo_inactive" transform="matrix(1,0,0,0.838249,626.513,-1898.74)">
            <rect x="575.617" y="2546.61" width="848.871" height="174.717" style="fill:none;"/>
            <clipPath id="_clip1">
                <rect x="575.617" y="2546.61" width="848.871" height="174.717"/>
            </clipPath>
            <g clip-path="url(#_clip1)">
                <g transform="matrix(1,0,0,1.18895,114.133,179.765)">
                    <g transform="matrix(4.35654,0,0,4.35654,-2353.18,-7067.1)">
                        <g transform="matrix(50,0,0,50,643.34,2112.13)">
                            <path d="M0.672,-0.66L0.672,-0L0.584,-0L0.584,-0.603L0.619,-0.601L0.404,-0.038L0.322,-0.038L0.107,-0.601L0.143,-0.603L0.143,-0L0.055,-0L0.055,-0.66L0.174,-0.66L0.395,-0.073L0.332,-0.073L0.554,-0.66L0.672,-0.66Z" style="fill:rgb(35,31,32);fill-rule:nonzero;"/>
                        </g>
                        <g transform="matrix(50,0,0,50,680.902,2112.13)">
                            <path d="M0.489,-0.66L0.578,-0.66L0.578,-0.25C0.578,-0.196 0.566,-0.149 0.542,-0.11C0.519,-0.071 0.488,-0.041 0.448,-0.02C0.408,0.001 0.364,0.012 0.315,0.012C0.266,0.012 0.221,0.001 0.182,-0.02C0.142,-0.041 0.11,-0.071 0.087,-0.11C0.063,-0.149 0.052,-0.196 0.052,-0.25L0.052,-0.66L0.139,-0.66L0.139,-0.255C0.139,-0.217 0.147,-0.184 0.164,-0.156C0.18,-0.129 0.201,-0.107 0.228,-0.092C0.254,-0.078 0.284,-0.07 0.315,-0.07C0.346,-0.07 0.375,-0.078 0.402,-0.092C0.428,-0.107 0.449,-0.129 0.465,-0.156C0.481,-0.184 0.489,-0.217 0.489,-0.255L0.489,-0.66Z" style="fill:rgb(35,31,32);fill-rule:nonzero;"/>
                        </g>
                        <g transform="matrix(50,0,0,50,713.581,2112.13)">
                            <path d="M0.19,-0.58L0.013,-0.58L0.013,-0.66L0.456,-0.66L0.456,-0.58L0.279,-0.58L0.279,-0L0.19,-0L0.19,-0.58Z" style="fill:rgb(35,31,32);fill-rule:nonzero;"/>
                        </g>
                        <g transform="matrix(50,0,0,50,738.331,2112.13)">
                            <path d="M0.055,-0.66L0.446,-0.66L0.446,-0.58L0.142,-0.58L0.142,-0.37L0.44,-0.37L0.44,-0.292L0.142,-0.292L0.142,-0.08L0.446,-0.08L0.446,-0L0.055,-0L0.055,-0.66Z" style="fill:rgb(35,31,32);fill-rule:nonzero;"/>
                        </g>
                        <g transform="matrix(50,0,0,50,764.617,2112.13)">
                        </g>
                    </g>
                    <g transform="matrix(4.35654,0,0,4.35654,-1824.83,-7067.1)">
                        <g transform="matrix(50,0,0,50,643.34,2112.13)">
                            <path d="M0.125,-0.577L0.143,-0.576L0.143,-0L0.055,-0L0.055,-0.66L0.176,-0.66L0.53,-0.085L0.513,-0.084L0.513,-0.66L0.601,-0.66L0.601,-0L0.484,-0L0.125,-0.577Z" style="fill:rgb(234,0,55);fill-rule:nonzero;"/>
                        </g>
                        <g transform="matrix(50,0,0,50,677.335,2112.13)">
                            <rect x="0.07" y="-0.66" width="0.089" height="0.66" style="fill:rgb(234,0,55);fill-rule:nonzero;"/>
                        </g>
                        <g transform="matrix(50,0,0,50,689.715,2112.13)">
                        </g>
                    </g>
                    <g transform="matrix(1.00399,0,0,1.00338,-168.212,-218.195)">
                        <g transform="matrix(4.35654,0,0,4.35654,-1460.47,-6856.83)">
                            <path d="M653.077,2105.79L648.894,2112.13L643.573,2112.13L650.018,2102.41C650.736,2103.77 651.791,2104.93 653.077,2105.79ZM652.175,2089.83L644.72,2079.13L650.277,2079.13L652.457,2082.32C652.274,2082.91 652.175,2083.53 652.175,2084.18L652.175,2089.83ZM664.322,2082.12L666.345,2079.13L671.718,2079.13L664.669,2089.38L664.669,2084.18C664.669,2083.46 664.547,2082.77 664.322,2082.12ZM666.767,2102.53L673.276,2112.13L667.589,2112.13L665.268,2108.63L665.268,2108.54L665.206,2108.54L663.5,2105.97C664.871,2105.12 665.998,2103.93 666.767,2102.53Z" style="fill:rgb(35,31,32);"/>
                        </g>
                        <g id="rect4651" transform="matrix(0.321161,0,0,0.338765,1286.35,2083.01)">
                            <path d="M447.298,413.164L447.298,591.646C447.298,627.476 416.568,656.568 378.715,656.568C340.862,656.568 310.132,627.476 310.132,591.646L310.132,413.164C310.132,377.334 340.862,348.242 378.715,348.242C416.568,348.242 447.298,377.334 447.298,413.164ZM363.628,695.525C308.604,688.743 266.597,645.474 266.597,592.983L266.597,542.386L296.703,542.386L296.703,592.983C296.703,634.637 333.42,667.942 378.753,667.942C424.076,667.942 460.792,634.637 460.792,592.983L460.792,542.386L490.897,542.386L490.897,592.983C490.897,645.484 448.875,688.759 393.845,695.529L393.845,741.808L455.427,741.808L455.427,772.578L302.03,772.578L302.03,741.808L363.627,741.808L363.628,695.525Z" style="fill:rgb(234,0,55);"/>
                        </g>
                    </g>
                </g>
            </g>
        </g>
    </g>
</svg>
