<svg width="12" height="12" viewBox="0 0 12 12" fill="none" xmlns="http://www.w3.org/2000/svg">
<path d="M4 8.49987H8M5.50885 1.38188L2.1177 4.01944C1.89101 4.19575 1.77767 4.28391 1.69601 4.39431C1.62368 4.4921 1.5698 4.60227 1.53701 4.7194C1.5 4.85164 1.5 4.99523 1.5 5.2824V8.89987C1.5 9.45992 1.5 9.73995 1.60899 9.95386C1.70487 10.142 1.85785 10.295 2.04601 10.3909C2.25992 10.4999 2.53995 10.4999 3.1 10.4999H8.9C9.46005 10.4999 9.74008 10.4999 9.95399 10.3909C10.1422 10.295 10.2951 10.142 10.391 9.95386C10.5 9.73995 10.5 9.45992 10.5 8.89987V5.2824C10.5 4.99523 10.5 4.85164 10.463 4.7194C10.4302 4.60227 10.3763 4.4921 10.304 4.39431C10.2223 4.28391 10.109 4.19575 9.88231 4.01944L6.49115 1.38188C6.31549 1.24525 6.22766 1.17694 6.13067 1.15068C6.0451 1.12751 5.9549 1.12751 5.86933 1.15068C5.77234 1.17694 5.68451 1.24525 5.50885 1.38188Z" stroke="#8B94B2" stroke-linecap="round" stroke-linejoin="round"/>
</svg>
