<?xml version="1.0" encoding="UTF-8"?>
<!--Generator: Apple Native CoreSVG 232.5-->
<!DOCTYPE svg
PUBLIC "-//W3C//DTD SVG 1.1//EN"
       "http://www.w3.org/Graphics/SVG/1.1/DTD/svg11.dtd">
<svg version="1.1" xmlns="http://www.w3.org/2000/svg" xmlns:xlink="http://www.w3.org/1999/xlink" width="78.8281" height="65.0271">
 <g>
  <rect height="65.0271" opacity="0" width="78.8281" x="0" y="0"/>
  <path d="M0.733266 32.4947C-0.670391 34.4232-0.0157056 36.2096 2.32784 36.2096L6.93873 36.2096C8.72412 52.172 22.5458 65.0271 39.2625 65.0271C48.4647 65.0271 56.7679 61.0108 62.5186 54.8003C64.0231 53.3667 63.9698 51.4061 62.8357 50.2533C61.6306 49.0385 59.8176 48.9332 58.1857 50.3934C53.5235 55.462 46.7915 58.6772 39.2625 58.6772C25.8732 58.6772 15.0729 48.7869 13.3929 36.2096L18.369 36.2096C20.6726 36.2096 21.3339 34.431 19.9558 32.5114L12.339 21.824C11.2261 20.2584 9.4874 20.2572 8.36557 21.824ZM16.0154 10.2268C14.4942 11.6604 14.5475 13.6044 15.706 14.7571C16.9034 15.972 18.7241 16.085 20.3561 14.6337C25.0182 9.58952 31.7669 6.37433 39.2625 6.37433C52.6275 6.37433 63.4522 16.2647 65.1244 28.8419L60.1173 28.8419C57.8136 28.8419 57.1446 30.6128 58.5227 32.5402L66.1472 43.2275C67.2602 44.7932 68.9911 44.7943 70.1207 43.2275L77.753 32.5568C79.14 30.6283 78.502 28.8419 76.1584 28.8419L71.5864 28.8419C69.7932 12.8795 55.9793 0.0244141 39.2625 0.0244141C30.077 0.0244141 21.7738 4.02413 16.0154 10.2268Z" fill="#202120" fill-opacity="0.5"/>
 </g>
</svg>
