<?xml version="1.0" encoding="UTF-8"?>
<!--Generator: Apple Native CoreSVG 232.5-->
<!DOCTYPE svg
PUBLIC "-//W3C//DTD SVG 1.1//EN"
       "http://www.w3.org/Graphics/SVG/1.1/DTD/svg11.dtd">
<svg version="1.1" xmlns="http://www.w3.org/2000/svg" xmlns:xlink="http://www.w3.org/1999/xlink" width="65.3612" height="65.0449">
 <g>
  <rect height="65.0449" opacity="0" width="65.3612" x="0" y="0"/>
  <path d="M65.0194 32.518C65.0194 50.32 50.32 65.0194 32.5014 65.0194C14.6993 65.0194 0 50.32 0 32.518C0 14.6993 14.6749 0 32.4769 0C50.3034 0 65.0194 14.6993 65.0194 32.518ZM40.7294 20.2911L32.5014 28.4703L24.3221 20.3077C23.7507 19.744 23.0916 19.4622 22.2472 19.4622C20.6295 19.4622 19.349 20.7016 19.349 22.3349C19.349 23.085 19.663 23.8007 20.2267 24.3488L28.4126 32.5502L20.2267 40.7438C19.663 41.2919 19.349 42.0243 19.349 42.7577C19.349 44.4077 20.6295 45.6881 22.2472 45.6881C23.0916 45.6881 23.8084 45.3896 24.3798 44.8182L32.5014 36.6712L40.6473 44.8182C41.2187 45.3896 41.9277 45.6881 42.7799 45.6881C44.4054 45.6881 45.6781 44.4077 45.6781 42.7577C45.6781 41.9998 45.3974 41.2753 44.8171 40.7194L36.639 32.5502L44.8337 24.3321C45.4385 23.7352 45.6948 23.0683 45.6948 22.2938C45.6948 20.6772 44.4221 19.4211 42.8209 19.4211C41.9932 19.4211 41.3419 19.6786 40.7294 20.2911Z" fill="#202120" fill-opacity="0.75"/>
 </g>
</svg>
