<?xml version="1.0" encoding="UTF-8" standalone="no"?>
<!--Generator: Apple Native CoreSVG 232.5-->

<svg
   version="1.1"
   width="23.768"
   height="26.316999"
   id="svg2"
   sodipodi:docname="contact-global.svg"
   viewBox="3 1 23.768 26.317"
   inkscape:version="1.3 (0e150ed, 2023-07-21)"
   xmlns:inkscape="http://www.inkscape.org/namespaces/inkscape"
   xmlns:sodipodi="http://sodipodi.sourceforge.net/DTD/sodipodi-0.dtd"
   xmlns="http://www.w3.org/2000/svg"
   xmlns:svg="http://www.w3.org/2000/svg">
  <defs
     id="defs2" />
  <sodipodi:namedview
     id="namedview2"
     pagecolor="#ffffff"
     bordercolor="#000000"
     borderopacity="0.25"
     inkscape:showpageshadow="2"
     inkscape:pageopacity="0.0"
     inkscape:pagecheckerboard="0"
     inkscape:deskcolor="#d1d1d1"
     inkscape:zoom="8.6391824"
     inkscape:cx="13.369321"
     inkscape:cy="13.6587"
     inkscape:window-width="1536"
     inkscape:window-height="449"
     inkscape:window-x="0"
     inkscape:window-y="25"
     inkscape:window-maximized="0"
     inkscape:current-layer="svg2" />
  <g
     id="g2">
    <rect
       height="27.3174"
       opacity="0"
       width="26.767599"
       x="0"
       y="0"
       id="rect1" />
    <path
       d="m 17.5205,15.7514 -0.2451,0.0899 c -0.542,0.1967 -0.938,0.5206 -1.1998,0.9271 -0.8009,-0.2641 -1.7166,-0.4192 -2.7358,-0.4192 -4.48238,0 -6.96285,2.9882 -6.96285,4.5996 0,0.205 0.10743,0.2734 0.36133,0.2734 h 8.93552 v 0.5273 c 0,0.3432 0.0257,0.6576 0.081,0.9473 H 7.19727 c -1.6211,0 -2.39258,-0.4883 -2.39258,-1.5625 0,-2.5586 3.23242,-6.2598 8.53511,-6.2598 1.5921,0 2.9977,0.3349 4.1807,0.8769 z m 0.0381,-6.67764 c 0,2.51954 -1.8945,4.58004 -4.2188,4.58004 -2.3242,0 -4.21871,-2.0507 -4.21871,-4.56051 0,-2.48047 1.90431,-4.48242 4.21871,-4.48242 2.334,0 4.2188,1.96289 4.2188,4.46289 z m -6.8652,0.01953 c 0,1.72851 1.2207,3.08591 2.6464,3.08591 1.4356,0 2.6465,-1.3769 2.6465,-3.10544 0,-1.70898 -1.1914,-2.98828 -2.6465,-2.98828 -1.4453,0 -2.6464,1.30859 -2.6464,3.00781 z"
       fill="#bf5af2"
       id="path1" />
    <path
       d="m 21.6992,16.1343 c 0.5567,0.1953 2.3633,0.8399 2.9395,1.0742 0.5761,0.2442 0.791,0.6153 0.791,1.1817 v 3.5156 c 0,1.875 -1.1035,2.5488 -3.7598,4.1113 -0.3027,0.1758 -0.6738,0.1465 -0.9082,0 -2.6562,-1.5527 -3.75,-2.2363 -3.75,-4.1113 v -3.5156 c 0,-0.5664 0.2149,-0.9375 0.791,-1.1817 0.5664,-0.2343 2.3731,-0.8593 2.8516,-1.0351 0.3613,-0.1465 0.7227,-0.1465 1.0449,-0.0391 z m 1.2891,2.6563 -2.3828,3.3105 -1.2012,-1.2988 c -0.1074,-0.1172 -0.2637,-0.2149 -0.4688,-0.2149 -0.3417,0 -0.6054,0.2735 -0.6054,0.6153 0,0.1465 0.0488,0.3222 0.1562,0.4492 l 1.6602,1.8066 c 0.1172,0.1465 0.3223,0.2149 0.4785,0.2149 0.2148,0 0.4102,-0.0977 0.5176,-0.2344 l 2.8418,-3.9453 c 0.0879,-0.1172 0.1367,-0.2539 0.1367,-0.3613 0,-0.3516 -0.293,-0.6055 -0.6152,-0.6055 -0.2247,0 -0.4102,0.1074 -0.5176,0.2637 z"
       fill="#bf5af2"
       id="path2" />
  </g>
</svg>
