<?xml version="1.0" encoding="UTF-8"?>
<!--Generator: Apple Native CoreSVG 232.5-->
<!DOCTYPE svg
PUBLIC "-//W3C//DTD SVG 1.1//EN"
       "http://www.w3.org/Graphics/SVG/1.1/DTD/svg11.dtd">
<svg version="1.1" xmlns="http://www.w3.org/2000/svg" xmlns:xlink="http://www.w3.org/1999/xlink" width="66.965" height="60.6309">
 <g>
  <rect height="60.6309" opacity="0" width="66.965" x="0" y="0"/>
  <path d="M40.8752 4.40209L65.3715 47.2246C66.2082 48.686 66.6232 50.2696 66.6232 51.8121C66.6232 56.6314 63.2055 60.5841 57.8001 60.5841L8.81419 60.5841C3.41777 60.5841 0 56.6314 0 51.8121C0 50.2696 0.406152 48.7104 1.25952 47.2323L25.7558 4.40209C27.4181 1.47475 30.3443 0 33.3194 0C36.27 0 39.1896 1.45146 40.8752 4.40209ZM29.5156 46.1225C29.5156 48.1486 31.2211 49.6334 33.3271 49.6334C35.4165 49.6334 37.1154 48.1653 37.1154 46.1225C37.1154 44.0708 35.4332 42.6026 33.3271 42.6026C31.1967 42.6026 29.5156 44.0874 29.5156 46.1225ZM29.9851 20.638L30.43 36.0321C30.501 37.8541 31.5229 38.8782 33.3271 38.8782C35.0581 38.8782 36.0889 37.8785 36.1599 36.0088L36.6126 20.6546C36.6759 18.755 35.2822 17.4168 33.295 17.4168C31.2911 17.4168 29.9218 18.7384 29.9851 20.638Z" fill="#ed6a5f"/>
 </g>
</svg>
