<?xml version="1.0" encoding="UTF-8"?>
<!--Generator: Apple Native CoreSVG 232.5-->
<!DOCTYPE svg
PUBLIC "-//W3C//DTD SVG 1.1//EN"
       "http://www.w3.org/Graphics/SVG/1.1/DTD/svg11.dtd">
<svg version="1.1" xmlns="http://www.w3.org/2000/svg" xmlns:xlink="http://www.w3.org/1999/xlink" width="59.1134" height="58.8127">
 <g>
  <rect height="58.8127" opacity="0" width="59.1134" x="0" y="0"/>
  <path d="M6.8341 26.9825L20.1074 26.9825C24.6878 26.9825 26.9415 24.8033 26.9415 20.0907L26.9415 6.9573C26.9415 2.24477 24.6878 0.0654787 20.1074 0.0654787L6.8341 0.0654787C2.24589 0.0654787 0 2.24477 0 6.9573L0 20.0907C0 24.8033 2.24589 26.9825 6.8341 26.9825ZM6.6345 22.1802C5.39715 22.1802 4.82674 21.5854 4.82674 20.2903L4.82674 6.74104C4.82674 5.46263 5.39715 4.88445 6.6345 4.88445L20.2826 4.88445C21.5277 4.88445 22.1147 5.46263 22.1147 6.74104L22.1147 20.2903C22.1147 21.5854 21.5277 22.1802 20.2826 22.1802ZM10.6399 16.9995L16.245 16.9995C16.731 16.9995 16.9341 16.7887 16.9341 16.2205L16.9341 10.7864C16.9341 10.2593 16.731 10.0485 16.245 10.0485L10.6399 10.0485C10.1694 10.0485 10.0074 10.2593 10.0074 10.7864L10.0074 16.2205C10.0074 16.7887 10.1694 16.9995 10.6399 16.9995ZM38.6565 26.9825L51.9375 26.9825C56.5179 26.9825 58.7716 24.8033 58.7716 20.0907L58.7716 6.9573C58.7716 2.24477 56.5179 0.0654787 51.9375 0.0654787L38.6565 0.0654787C34.0594 0.0654787 31.8301 2.24477 31.8301 6.9573L31.8301 20.0907C31.8301 24.8033 34.0594 26.9825 38.6565 26.9825ZM38.4813 22.1802C37.2028 22.1802 36.6491 21.5854 36.6491 20.2903L36.6491 6.74104C36.6491 5.46263 37.2028 4.88445 38.4813 4.88445L52.1293 4.88445C53.3745 4.88445 53.9449 5.46263 53.9449 6.74104L53.9449 20.2903C53.9449 21.5854 53.3745 22.1802 52.1293 22.1802ZM42.5855 16.9995L48.1983 16.9995C48.6765 16.9995 48.8796 16.7887 48.8796 16.2205L48.8796 10.7864C48.8796 10.2593 48.6765 10.0485 48.1983 10.0485L42.5855 10.0485C42.115 10.0485 41.953 10.2593 41.953 10.7864L41.953 16.2205C41.953 16.7887 42.115 16.9995 42.5855 16.9995ZM6.8341 58.8127L20.1074 58.8127C24.6878 58.8127 26.9415 56.6256 26.9415 51.9131L26.9415 38.7874C26.9415 34.0749 24.6878 31.8712 20.1074 31.8712L6.8341 31.8712C2.24589 31.8712 0 34.0749 0 38.7874L0 51.9131C0 56.6256 2.24589 58.8127 6.8341 58.8127ZM6.6345 53.9859C5.39715 53.9859 4.82674 53.4155 4.82674 52.1371L4.82674 38.5712C4.82674 37.285 5.39715 36.6979 6.6345 36.6979L20.2826 36.6979C21.5277 36.6979 22.1147 37.285 22.1147 38.5712L22.1147 52.1371C22.1147 53.4155 21.5277 53.9859 20.2826 53.9859ZM10.6399 48.8052L16.245 48.8052C16.731 48.8052 16.9341 48.6188 16.9341 48.0429L16.9341 42.6088C16.9341 42.0817 16.731 41.8786 16.245 41.8786L10.6399 41.8786C10.1694 41.8786 10.0074 42.0817 10.0074 42.6088L10.0074 48.0429C10.0074 48.6188 10.1694 48.8052 10.6399 48.8052ZM33.9962 40.2227L39.5924 40.2227C40.0873 40.2227 40.2815 40.0119 40.2815 39.4604L40.2815 34.0096C40.2815 33.4825 40.0873 33.2883 39.5924 33.2883L33.9962 33.2883C33.5091 33.2883 33.3471 33.4825 33.3471 34.0096L33.3471 39.4604C33.3471 40.0119 33.5091 40.2227 33.9962 40.2227ZM50.9062 40.2227L56.5023 40.2227C56.9972 40.2227 57.1914 40.0119 57.1914 39.4604L57.1914 34.0096C57.1914 33.4825 56.9972 33.2883 56.5023 33.2883L50.9062 33.2883C50.419 33.2883 50.2648 33.4825 50.2648 34.0096L50.2648 39.4604C50.2648 40.0119 50.419 40.2227 50.9062 40.2227ZM42.52 48.6655L48.1328 48.6655C48.6277 48.6655 48.8219 48.4791 48.8219 47.9032L48.8219 42.469C48.8219 41.9419 48.6277 41.7389 48.1328 41.7389L42.52 41.7389C42.0495 41.7389 41.8875 41.9419 41.8875 42.469L41.8875 47.9032C41.8875 48.4791 42.0495 48.6655 42.52 48.6655ZM33.9962 57.1327L39.5924 57.1327C40.0873 57.1327 40.2815 56.9219 40.2815 56.3703L40.2815 50.9362C40.2815 50.3925 40.0873 50.206 39.5924 50.206L33.9962 50.206C33.5091 50.206 33.3471 50.3925 33.3471 50.9362L33.3471 56.3703C33.3471 56.9219 33.5091 57.1327 33.9962 57.1327ZM50.9062 57.1327L56.5023 57.1327C56.9972 57.1327 57.1914 56.9219 57.1914 56.3703L57.1914 50.9362C57.1914 50.3925 56.9972 50.206 56.5023 50.206L50.9062 50.206C50.419 50.206 50.2648 50.3925 50.2648 50.9362L50.2648 56.3703C50.2648 56.9219 50.419 57.1327 50.9062 57.1327Z" fill="#202120" fill-opacity="0.75"/>
 </g>
</svg>
