<?xml version="1.0" encoding="UTF-8"?>
<!--Generator: Apple Native CoreSVG 232.5-->
<!DOCTYPE svg
PUBLIC "-//W3C//DTD SVG 1.1//EN"
       "http://www.w3.org/Graphics/SVG/1.1/DTD/svg11.dtd">
<svg version="1.1" xmlns="http://www.w3.org/2000/svg" xmlns:xlink="http://www.w3.org/1999/xlink" width="55.9823" height="55.7455">
 <g>
  <rect height="55.7455" opacity="0" width="55.9823" x="0" y="0"/>
  <path d="M21.1406 55.7455C22.7694 55.7455 24.0121 55.0853 24.9031 53.7849L54.724 7.59278C55.3753 6.60304 55.6405 5.72985 55.6405 4.90325C55.6405 2.69975 54.0584 1.15645 51.8238 1.15645C50.2938 1.15645 49.3496 1.70122 48.4287 3.17577L21.0186 46.4279L7.06987 28.9721C6.17779 27.8281 5.23248 27.3288 3.85886 27.3288C1.61654 27.3288 0 28.9132 0 31.1078C0 32.0764 0.321776 32.9763 1.14613 33.9537L17.3892 53.8758C18.4511 55.1652 19.5984 55.7455 21.1406 55.7455Z" fill="#202120" fill-opacity="0.75"/>
 </g>
</svg>
