<?xml version="1.0" encoding="UTF-8"?>
<!--Generator: Apple Native CoreSVG 232.5-->
<!DOCTYPE svg
PUBLIC "-//W3C//DTD SVG 1.1//EN"
       "http://www.w3.org/Graphics/SVG/1.1/DTD/svg11.dtd">
<svg version="1.1" xmlns="http://www.w3.org/2000/svg" xmlns:xlink="http://www.w3.org/1999/xlink" width="59.1134" height="58.8127">
 <g>
  <rect height="58.8127" opacity="0" width="59.1134" x="0" y="0"/>
  <path d="M58.7716 10.2568L58.7716 48.6136C58.7716 55.274 55.2085 58.8127 48.4738 58.8127L10.2812 58.8127C3.56313 58.8127 0 55.2906 0 48.6136L0 10.2568C0 3.57978 3.56313 0.0654787 10.2812 0.0654787L48.4738 0.0654787C55.2085 0.0654787 58.7716 3.59643 58.7716 10.2568ZM37.7231 17.1749L29.4873 25.3542L21.3081 17.1916C20.7366 16.6279 20.0853 16.3461 19.2332 16.3461C17.6154 16.3461 16.3427 17.5855 16.3427 19.2188C16.3427 19.9689 16.6567 20.6845 17.2037 21.2327L25.3896 29.4341L17.2037 37.6277C16.6567 38.1758 16.3427 38.9082 16.3427 39.6416C16.3427 41.2915 17.6154 42.572 19.2332 42.572C20.0853 42.572 20.8021 42.2735 21.3735 41.7021L29.4873 33.555L37.641 41.7021C38.188 42.2735 38.9214 42.572 39.7736 42.572C41.3913 42.572 42.6718 41.2915 42.6718 39.6416C42.6718 38.8837 42.3911 38.1592 41.8108 37.6033L33.6327 29.4341L41.8274 21.216C42.4322 20.6191 42.6885 19.9522 42.6885 19.1777C42.6885 17.5611 41.4158 16.305 39.8146 16.305C38.9791 16.305 38.3112 16.5624 37.7231 17.1749Z" fill="#202120" fill-opacity="0.15"/>
 </g>
</svg>
