<?xml version="1.0" encoding="UTF-8"?>
<!--Generator: Apple Native CoreSVG 232.5-->
<!DOCTYPE svg
PUBLIC "-//W3C//DTD SVG 1.1//EN"
       "http://www.w3.org/Graphics/SVG/1.1/DTD/svg11.dtd">
<svg version="1.1" xmlns="http://www.w3.org/2000/svg" xmlns:xlink="http://www.w3.org/1999/xlink" width="51.158" height="52.2566">
 <g>
  <rect height="52.2566" opacity="0" width="51.158" x="0" y="0"/>
  <path d="M50.8162 4.49158C50.8162 2.02709 48.9343 0.204098 45.8773 0.204098L4.95555 0.187448C1.88193 0.187448 0 2.00267 0 4.47493C0 5.76213 0.519335 6.79631 1.26167 8.30539L20.7389 48.5249C22.0427 51.1726 23.4674 52.2566 25.4081 52.2566C27.3576 52.2566 28.7823 51.1726 30.0696 48.5249L49.5712 8.30539C50.2969 6.81296 50.8162 5.77878 50.8162 4.49158ZM43.216 6.76373C43.216 6.91133 43.1339 7.05118 43.0607 7.21431L25.8354 43.4436C25.7455 43.6157 25.6057 43.7888 25.4081 43.7888C25.2194 43.7888 25.0873 43.6157 24.9974 43.4436L7.7644 7.1899C7.67451 7.02676 7.60903 6.88692 7.60903 6.74708C7.60903 6.55064 7.74775 6.40303 8.0352 6.40303L42.7732 6.4441C43.0607 6.4441 43.216 6.56729 43.216 6.76373Z" fill="#202120" fill-opacity="0.15"/>
 </g>
</svg>
