<?xml version="1.0" encoding="UTF-8" standalone="no"?>
<!DOCTYPE svg PUBLIC "-//W3C//DTD SVG 1.1//EN" "http://www.w3.org/Graphics/SVG/1.1/DTD/svg11.dtd">
<svg width="100%" height="100%" viewBox="0 0 131 145" version="1.1" xmlns="http://www.w3.org/2000/svg" xmlns:xlink="http://www.w3.org/1999/xlink" xml:space="preserve" xmlns:serif="http://www.serif.com/" style="fill-rule:evenodd;clip-rule:evenodd;stroke-linejoin:round;stroke-miterlimit:2;">
    <g transform="matrix(1,0,0,1,-1202,0)">
        <g id="icon_inactive" transform="matrix(1.00399,0,0,0.954434,1201.51,239.513)">
            <rect x="0.617" y="-250.948" width="129.405" height="150.974" style="fill:none;"/>
            <g transform="matrix(1,0,0,1.04774,-1342.67,-2557)">
                <g transform="matrix(4.35654,0,0,4.35654,-1460.47,-6856.83)">
                    <path d="M653.077,2105.79L648.894,2112.13L643.573,2112.13L650.018,2102.41C650.736,2103.77 651.791,2104.93 653.077,2105.79ZM652.175,2089.83L644.72,2079.13L650.277,2079.13L652.457,2082.32C652.274,2082.91 652.175,2083.53 652.175,2084.18L652.175,2089.83ZM664.322,2082.12L666.345,2079.13L671.718,2079.13L664.669,2089.38L664.669,2084.18C664.669,2083.46 664.547,2082.77 664.322,2082.12ZM666.767,2102.53L673.276,2112.13L667.589,2112.13L665.268,2108.63L665.268,2108.54L665.206,2108.54L663.5,2105.97C664.871,2105.12 665.998,2103.93 666.767,2102.53Z" style="fill:rgb(35,31,32);"/>
                </g>
                <g id="rect4651" transform="matrix(0.321161,0,0,0.338765,1286.35,2083.01)">
                    <path d="M447.298,413.164L447.298,591.646C447.298,627.476 416.568,656.568 378.715,656.568C340.862,656.568 310.132,627.476 310.132,591.646L310.132,413.164C310.132,377.334 340.862,348.242 378.715,348.242C416.568,348.242 447.298,377.334 447.298,413.164ZM363.628,695.525C308.604,688.743 266.597,645.474 266.597,592.983L266.597,542.386L296.703,542.386L296.703,592.983C296.703,634.637 333.42,667.942 378.753,667.942C424.076,667.942 460.792,634.637 460.792,592.983L460.792,542.386L490.897,542.386L490.897,592.983C490.897,645.484 448.875,688.759 393.845,695.529L393.845,741.808L455.427,741.808L455.427,772.578L302.03,772.578L302.03,741.808L363.627,741.808L363.628,695.525Z" style="fill:rgb(234,0,55);"/>
                </g>
            </g>
        </g>
    </g>
</svg>
