<?xml version="1.0" encoding="UTF-8" standalone="no"?>
<!DOCTYPE svg PUBLIC "-//W3C//DTD SVG 1.1//EN" "http://www.w3.org/Graphics/SVG/1.1/DTD/svg11.dtd">
<svg width="100%" height="100%" viewBox="0 0 131 145" version="1.1" xmlns="http://www.w3.org/2000/svg" xmlns:xlink="http://www.w3.org/1999/xlink" xml:space="preserve" xmlns:serif="http://www.serif.com/" style="fill-rule:evenodd;clip-rule:evenodd;stroke-linejoin:round;stroke-miterlimit:2;">
    <g transform="matrix(1,0,0,1,-528,0)">
        <g id="icon_all_red" transform="matrix(1.00399,0,0,0.954434,527.727,239.513)">
            <rect x="0.617" y="-250.948" width="129.405" height="150.974" style="fill:none;"/>
            <g transform="matrix(1,0,0,1.04774,-1342.67,-2557)">
                <g id="rect4651" transform="matrix(0.322479,0,0,0.338802,1285.85,2082.99)">
                    <path d="M268.976,614.36C267.417,607.464 266.597,600.314 266.597,592.983L266.597,542.386L296.703,542.386L296.703,574.57L268.976,614.36ZM310.132,555.297L310.132,534.318L317.622,544.549L310.132,555.297ZM315.982,386.906C326.643,364.14 350.732,348.242 378.715,348.242C405.797,348.242 429.233,363.134 440.378,384.73L377.752,472.998L315.982,386.906ZM447.298,529.151L447.298,559.838L436.291,544.394L447.298,529.151ZM460.792,578.774L460.792,542.386L490.897,542.386L490.897,592.983C490.897,601.198 489.869,609.186 487.922,616.844L460.792,578.774ZM424.004,687.743C414.573,691.564 404.45,694.224 393.845,695.529L393.845,741.808L455.427,741.808L455.427,772.578L302.03,772.578L302.03,741.808L363.627,741.808L363.628,695.525C351.484,694.028 339.974,690.755 329.41,685.997L346.169,661.839C356.156,665.769 367.173,667.942 378.753,667.942C388.69,667.942 398.214,666.341 407.028,663.402C412.387,671.086 418.133,679.325 424.004,687.743ZM400.028,653.367C393.318,655.444 386.154,656.568 378.715,656.568C369.655,656.568 361.002,654.901 353.082,651.874L375.973,618.876C375.973,618.876 385.974,633.215 400.028,653.367Z" style="fill:rgb(234,0,52);"/>
                </g>
                <g transform="matrix(4.35654,0,0,4.35654,-1460.47,-6856.83)">
                    <path d="M661.236,2094.38L673.276,2112.13L667.589,2112.13L658.216,2098.01L648.894,2112.13L643.573,2112.13L655.345,2094.38L644.72,2079.13L650.277,2079.13L658.356,2090.96L666.345,2079.13L671.718,2079.13L661.236,2094.38Z" style="fill:rgb(234,0,55);fill-rule:nonzero;"/>
                </g>
            </g>
        </g>
    </g>
</svg>
