<svg width="12" height="12" viewBox="0 0 12 12" fill="none" xmlns="http://www.w3.org/2000/svg">
<path fill-rule="evenodd" clip-rule="evenodd" d="M6 2.30435C3.95895 2.30435 2.30435 3.95895 2.30435 6C2.30435 8.04105 3.95895 9.69565 6 9.69565C8.04105 9.69565 9.69565 8.04105 9.69565 6C9.69565 3.95895 8.04105 2.30435 6 2.30435ZM1 6C1 3.23858 3.23858 1 6 1C8.76142 1 11 3.23858 11 6C11 8.76142 8.76142 11 6 11C3.23858 11 1 8.76142 1 6ZM5.34783 8.17391C5.34783 7.81373 5.63981 7.52174 6 7.52174H6.00435C6.36453 7.52174 6.65652 7.81373 6.65652 8.17391C6.65652 8.5341 6.36453 8.82609 6.00435 8.82609H6C5.63981 8.82609 5.34783 8.5341 5.34783 8.17391Z" fill="white"/>
<path d="M5.63477 4.56623C5.76756 4.48819 5.92367 4.45967 6.07547 4.4857C6.22727 4.51174 6.36496 4.59066 6.46415 4.70849C6.56333 4.82632 6.61762 4.97545 6.61739 5.12946L6.61739 5.13043C6.61739 5.219 6.54233 5.37492 6.25563 5.56605C6.13213 5.64839 6.00399 5.71292 5.90415 5.7573C5.85516 5.77907 5.78299 5.80683 5.75684 5.81679C5.74382 5.82175 5.7621 5.81492 5.75684 5.81679C5.41651 5.93152 5.23285 6.30003 5.34651 6.64102C5.46041 6.98272 5.83364 7.16608 6.17534 7.05218C6.18919 7.04726 6.23079 7.03248 6.25343 7.02385C6.29862 7.00664 6.3606 6.9818 6.43389 6.94922C6.57862 6.8849 6.77657 6.78639 6.97915 6.65134C7.34457 6.40772 7.92155 5.9116 7.92174 5.13082C7.92229 4.66898 7.75944 4.22182 7.46201 3.86849C7.16444 3.51501 6.75138 3.27824 6.29598 3.20013C5.84058 3.12202 5.37223 3.2076 4.97388 3.44171C4.57553 3.67582 4.27289 4.04336 4.11956 4.47923C4.00004 4.81901 4.17859 5.19135 4.51836 5.31087C4.85814 5.4304 5.23048 5.25185 5.35 4.91207C5.40111 4.76678 5.50199 4.64427 5.63477 4.56623Z" fill="white"/>
</svg>
