<?xml version="1.0" encoding="UTF-8" standalone="no"?>
<!--Generator: Apple Native CoreSVG 232.5-->

<svg
   version="1.1"
   width="68.906998"
   height="65.836998"
   id="svg1"
   sodipodi:docname="contact-local.svg"
   viewBox="-8 -8 75.906998 72.836998"
   inkscape:version="1.3 (0e150ed, 2023-07-21)"
   xmlns:inkscape="http://www.inkscape.org/namespaces/inkscape"
   xmlns:sodipodi="http://sodipodi.sourceforge.net/DTD/sodipodi-0.dtd"
   xmlns="http://www.w3.org/2000/svg"
   xmlns:svg="http://www.w3.org/2000/svg">
  <defs
     id="defs1" />
  <sodipodi:namedview
     id="namedview1"
     pagecolor="#ffffff"
     bordercolor="#000000"
     borderopacity="0.25"
     inkscape:showpageshadow="2"
     inkscape:pageopacity="0.0"
     inkscape:pagecheckerboard="0"
     inkscape:deskcolor="#d1d1d1"
     inkscape:zoom="4.0804401"
     inkscape:cx="27.570556"
     inkscape:cy="29.040985"
     inkscape:window-width="1536"
     inkscape:window-height="570"
     inkscape:window-x="0"
     inkscape:window-y="25"
     inkscape:window-maximized="0"
     inkscape:current-layer="svg1" />
  <g
     id="g1">
    <rect
       height="57.836899"
       opacity="0"
       width="54.9072"
       x="0"
       y="0"
       id="rect1" />
    <path
       d="M 7.15332,57.8125 H 47.4121 c 4.8584,0 7.1533,-1.5137 7.1533,-4.7852 0,-8.2275 -10.3759,-20.0439 -27.2949,-20.0439 C 10.376,32.9834 0,44.7998 0,53.0273 c 0,3.2715 2.29492,4.7852 7.15332,4.7852 z M 5.95703,53.7354 c -1.19629,0 -1.63574,-0.3174 -1.63574,-1.1963 0,-5.6885 8.27641,-15.4541 22.94921,-15.4541 14.6973,0 22.9736,9.7656 22.9736,15.4541 0,0.8789 -0.4394,1.1963 -1.6357,1.1963 z M 27.3193,28.833 c 7.3975,0 13.3545,-6.5185 13.3545,-14.5996 C 40.6738,6.29883 34.7168,0 27.3193,0 19.9463,0 13.9404,6.39648 13.9404,14.2822 c 0,8.0567 5.9815,14.5508 13.3789,14.5508 z m 0,-4.0771 c -4.956,0 -9.0576,-4.5899 -9.0576,-10.4737 0,-5.71286 4.0772,-10.20505 9.0576,-10.20505 4.9805,0 9.0332,4.41894 9.0332,10.15625 0,5.8838 -4.0771,10.5225 -9.0332,10.5225 z"
       fill="#0a84ff"
       id="path1" />
  </g>
</svg>
