<?xml version="1.0" encoding="UTF-8"?>
<!--Generator: Apple Native CoreSVG 232.5-->
<!DOCTYPE svg
PUBLIC "-//W3C//DTD SVG 1.1//EN"
       "http://www.w3.org/Graphics/SVG/1.1/DTD/svg11.dtd">
<svg version="1.1" xmlns="http://www.w3.org/2000/svg" xmlns:xlink="http://www.w3.org/1999/xlink" width="66.0379" height="80.2127">
 <g>
  <rect height="80.2127" opacity="0" width="66.0379" x="0" y="0"/>
  <path d="M15.6935 10.2812C15.6935 3.56313 19.2489 0 25.9093 0L37.8868 0C41.3522 0 44.0342 0.910982 46.3256 3.23461L62.477 19.6445C64.865 22.0969 65.6961 24.6335 65.6961 28.5605L65.6961 53.7054C65.6961 60.4235 62.1818 63.9866 55.5048 63.9866L50.0026 63.9866L50.0026 57.8176L54.8969 57.8176C57.9999 57.8176 59.5349 56.2106 59.5349 53.2207L59.5349 27.1512L45.4981 27.1512C41.6698 27.1512 39.5427 25.0907 39.5427 21.1958L39.5427 6.169L26.5094 6.169C23.3897 6.169 21.8548 7.82599 21.8548 10.7825L21.8548 16.1658L21.8548 16.1658C21.6614 16.1612 21.4615 16.1595 21.2566 16.1595L15.6935 16.1595ZM44.5525 20.5089C44.5525 21.6609 45.0497 22.1414 46.185 22.1414L57.8716 22.1414L44.5525 8.66578Z" fill="#202120" fill-opacity="0.75"/>
  <path d="M0 69.8649C0 76.6073 3.52206 80.1461 10.1991 80.1461L39.8113 80.1461C46.4883 80.1461 50.0026 76.5829 50.0026 69.8649L50.0026 45.4071C50.0026 41.3502 49.4699 39.3984 46.9277 36.8395L29.5278 19.2343C27.0844 16.7498 24.9928 16.1595 21.2566 16.1595L10.1991 16.1595C3.55536 16.1595 0 19.7315 0 26.4329ZM6.169 69.3802L6.169 26.9342C6.169 23.9854 7.69616 22.3207 10.8158 22.3207L20.6721 22.3207L20.6721 39.4315C20.6721 44.0208 22.9013 46.1912 27.4318 46.1912L43.8413 46.1912L43.8413 69.3802C43.8413 72.37 42.3064 73.9771 39.1867 73.9771L10.7992 73.9771C7.69616 73.9771 6.169 72.37 6.169 69.3802ZM27.9744 40.8797C26.5751 40.8797 25.9836 40.2882 25.9836 38.8888L25.9836 23.5547L43.1033 40.8797Z" fill="#202120" fill-opacity="0.75"/>
 </g>
</svg>
