<?xml version="1.0" encoding="UTF-8"?>
<!--Generator: Apple Native CoreSVG 232.5-->
<!DOCTYPE svg
PUBLIC "-//W3C//DTD SVG 1.1//EN"
       "http://www.w3.org/Graphics/SVG/1.1/DTD/svg11.dtd">
<svg version="1.1" xmlns="http://www.w3.org/2000/svg" xmlns:xlink="http://www.w3.org/1999/xlink" width="77.7532" height="75.7243">
 <g>
  <rect height="75.7243" opacity="0" width="77.7532" x="0" y="0"/>
  <path d="M49.8358 16.8776L21.2499 16.8776C18.2601 16.8776 16.653 18.4125 16.653 21.5322L16.653 56.3527C16.653 59.4724 18.2601 61.0073 21.2499 61.0073L56.1615 61.0073C59.1514 61.0073 60.7584 59.4724 60.7584 56.3527L60.7584 28.0041L66.9196 21.8353L66.9196 56.9695C66.9196 63.6465 63.3643 67.1686 56.6462 67.1686L20.7652 67.1686C14.0471 67.1686 10.484 63.6465 10.484 56.9695L10.484 20.932C10.484 14.2473 14.0471 10.7163 20.7652 10.7163L55.994 10.7163Z" fill="#202120"  fill-opacity="0.15"/>
  <path d="M33.1651 45.7124L39.3959 43.0813L67.8577 14.6195L63.1141 9.90034L34.6767 38.3621L31.9302 44.4531C31.6007 45.1964 32.4428 46.002 33.1651 45.7124ZM70.2269 12.2759L72.3198 10.1329C73.5626 8.87353 73.6181 7.15034 72.4075 5.96304L71.603 5.16636C70.52 4.10665 68.748 4.28307 67.5618 5.46924L65.4833 7.53116Z" fill="#202120"  fill-opacity="0.15"/>
 </g>
</svg>
