<?xml version="1.0" encoding="UTF-8"?>
<!--Generator: Apple Native CoreSVG 232.5-->
<!DOCTYPE svg
PUBLIC "-//W3C//DTD SVG 1.1//EN"
       "http://www.w3.org/Graphics/SVG/1.1/DTD/svg11.dtd">
<svg version="1.1" xmlns="http://www.w3.org/2000/svg" xmlns:xlink="http://www.w3.org/1999/xlink" width="86.5139" height="67.1235">
 <g>
  <rect height="67.1235" opacity="0" width="86.5139" x="0" y="0"/>
  <path d="M20.5056 19.5924C12.4057 24.842 7.33823 31.4183 7.33823 33.5895C7.33823 38.0307 22.9405 54.7717 43.0905 54.7717C46.9462 54.7717 50.6364 54.1572 54.0782 53.1249L59.0251 58.0659C54.2243 59.8048 48.8694 60.8553 43.0905 60.8553C17.6725 60.8553 0 40.0004 0 33.5895C0 29.887 5.89684 21.3893 15.7809 14.8733ZM86.1721 33.5895C86.1721 37.2851 80.4124 45.7804 70.5764 52.301L65.9086 47.6374C73.8611 42.5179 78.8339 36.0955 78.8339 33.5895C78.8339 29.7797 63.2161 12.4073 43.0905 12.4073C39.3032 12.4073 35.6766 13.021 32.2847 14.0439L27.3487 9.11241C32.119 7.3836 37.4133 6.34032 43.0905 6.34032C68.7726 6.34032 86.1721 27.1708 86.1721 33.5895ZM49.8108 48.8626C47.7614 49.7781 45.4903 50.2848 43.0983 50.2848C33.7873 50.2848 26.3375 42.6641 26.3375 33.574C26.3375 31.1612 26.8377 28.8794 27.7496 26.8278ZM59.8347 33.574C59.8347 35.9095 59.3422 38.1481 58.4461 40.1817L36.4779 18.2334C38.5038 17.3746 40.7414 16.903 43.0983 16.903C52.3748 16.903 59.8347 24.2708 59.8347 33.574Z" fill="#878685"/>
  <path d="M67.9183 61.6075C68.8415 62.5219 70.3063 62.563 71.2218 61.6075C72.1783 60.6266 72.1283 59.2273 71.2218 58.3041L17.3615 4.47597C16.4549 3.56938 14.9491 3.55273 14.0258 4.47597C13.1514 5.35038 13.1514 6.88836 14.0258 7.77943Z" fill="#878685"/>
 </g>
</svg>
