<?xml version="1.0" encoding="UTF-8"?>
<!--Generator: Apple Native CoreSVG 232.5-->
<!DOCTYPE svg
PUBLIC "-//W3C//DTD SVG 1.1//EN"
       "http://www.w3.org/Graphics/SVG/1.1/DTD/svg11.dtd">
<svg version="1.1" xmlns="http://www.w3.org/2000/svg" xmlns:xlink="http://www.w3.org/1999/xlink" width="62.4705" height="62.6991">
 <g>
  <rect height="62.6991" opacity="0" width="62.4705" x="0" y="0"/>
  <path d="M0 25.5843C0 39.6876 11.4644 51.1597 25.5843 51.1597C30.7592 51.1597 35.5412 49.5705 39.5185 46.8836L53.9382 61.3122C54.8436 62.242 56.094 62.6913 57.3766 62.6913C60.1438 62.6913 62.1287 60.5744 62.1287 57.8816C62.1287 56.5978 61.6793 55.4206 60.7751 54.4997L46.4597 40.1266C49.4151 36.0527 51.1764 31.0188 51.1764 25.5843C51.1764 11.4644 39.7042 0 25.5843 0C11.4644 0 0 11.4644 0 25.5843ZM6.70816 25.5843C6.70816 15.1669 15.1746 6.70816 25.5843 6.70816C36.0018 6.70816 44.4516 15.1669 44.4516 25.5843C44.4516 35.9851 36.0018 44.4438 25.5843 44.4438C15.1746 44.4438 6.70816 35.9851 6.70816 25.5843Z" fill="#202120"/>
 </g>
</svg>
