<?xml version="1.0" encoding="UTF-8"?>
<!--Generator: Apple Native CoreSVG 232.5-->
<!DOCTYPE svg
PUBLIC "-//W3C//DTD SVG 1.1//EN"
       "http://www.w3.org/Graphics/SVG/1.1/DTD/svg11.dtd">
<svg version="1.1" xmlns="http://www.w3.org/2000/svg" xmlns:xlink="http://www.w3.org/1999/xlink" width="65.3612" height="65.0449">
 <g>
  <rect height="65.0449" opacity="0" width="65.3612" x="0" y="0"/>
  <path d="M32.5014 65.0194C50.32 65.0194 65.0194 50.32 65.0194 32.518C65.0194 14.6993 50.3034 0 32.4769 0C14.6749 0 0 14.6993 0 32.518C0 50.32 14.6993 65.0194 32.5014 65.0194ZM32.5014 58.6694C18.019 58.6694 6.36656 47.0003 6.36656 32.518C6.36656 18.019 17.9946 6.36656 32.4769 6.36656C46.9759 6.36656 58.6528 18.019 58.6528 32.518C58.6528 47.0003 47.0003 58.6694 32.5014 58.6694Z" fill="#202120" fill-opacity="0.75"/>
  <path d="M18.6486 33.9351C18.6486 41.6689 24.8331 47.8701 32.4769 47.8701C40.1452 47.8701 46.3053 41.6689 46.3053 33.9929C46.3053 32.7667 45.2634 31.7414 44.0372 31.7414C42.779 31.7414 41.7537 32.7667 41.7537 33.9929C41.7537 39.1667 37.6264 43.3029 32.4769 43.3029C27.3031 43.3029 23.208 39.1589 23.208 33.9929C23.208 29.1229 26.8916 25.1442 31.6074 24.9734C32.1113 24.9579 32.6141 24.9602 33.0337 25.0124L30.2943 27.7417C29.9502 28.1002 29.7949 28.5707 29.7949 29.0911C29.7949 30.3228 30.7147 31.1739 31.9176 31.1739C32.4657 31.1739 33.0383 30.9154 33.3933 30.5525L39.3572 24.5476C40.1883 23.7242 40.1561 22.2617 39.3727 21.4373L33.4755 15.4412C33.0716 15.0129 32.5145 14.7156 31.8776 14.7156C30.6049 14.7156 29.7627 15.6676 29.7627 16.7529C29.7627 17.3731 30.0201 17.8447 30.3286 18.2254L32.4486 20.3931C32.1434 20.3676 31.7316 20.3254 31.3609 20.3331C24.5182 20.6049 18.6486 26.5331 18.6486 33.9351Z" fill="#202120" fill-opacity="0.75"/>
 </g>
</svg>
