<?xml version="1.0" encoding="UTF-8" standalone="no"?>
<!-- Created with Inkscape (http://www.inkscape.org/) -->

<svg
   width="68.614044mm"
   height="30.018232mm"
   viewBox="0 0 68.614044 30.018232"
   version="1.1"
   id="svg1"
   inkscape:version="1.3.2 (1:1.3.2+202311252150+091e20ef0f)"
   sodipodi:docname="sqfa.svg"
   xmlns:inkscape="http://www.inkscape.org/namespaces/inkscape"
   xmlns:sodipodi="http://sodipodi.sourceforge.net/DTD/sodipodi-0.dtd"
   xmlns="http://www.w3.org/2000/svg"
   xmlns:svg="http://www.w3.org/2000/svg">
  <sodipodi:namedview
     id="namedview1"
     pagecolor="#ffffff"
     bordercolor="#cccccc"
     borderopacity="1"
     inkscape:showpageshadow="0"
     inkscape:pageopacity="1"
     inkscape:pagecheckerboard="0"
     inkscape:deskcolor="#d1d1d1"
     inkscape:document-units="mm"
     inkscape:zoom="1.4539462"
     inkscape:cx="317.41202"
     inkscape:cy="100.07248"
     inkscape:window-width="1680"
     inkscape:window-height="1013"
     inkscape:window-x="0"
     inkscape:window-y="30"
     inkscape:window-maximized="1"
     inkscape:current-layer="layer1" />
  <defs
     id="defs1" />
  <g
     inkscape:label="Layer 1"
     inkscape:groupmode="layer"
     id="layer1"
     transform="translate(-0.63286479,-2.4559705)">
    <path
       style="fill:#cccccc;stroke:#4d4d4d;stroke-width:0.39617;stroke-linecap:butt;stroke-linejoin:miter;stroke-dasharray:none;stroke-opacity:1"
       d="M 0.89583249,4.6654776 22.099231,32.150848 43.520019,4.6406446"
       id="path1"
       sodipodi:nodetypes="ccc" />
    <ellipse
       style="fill:#cccccc;stroke:#4d4d4d;stroke-width:0.39617;stroke-dasharray:none"
       id="path2"
       cx="22.199793"
       cy="4.5898671"
       rx="21.368843"
       ry="1.9358116" />
    <circle
       style="fill:#000000;stroke:#000000;stroke-width:0.753658;stroke-dasharray:none"
       id="path3"
       cx="12.730276"
       cy="10.532392"
       r="0.62608474" />
    <circle
       style="fill:#000000;stroke:#000000;stroke-width:0.753658;stroke-dasharray:none"
       id="path3-3"
       cx="20.656054"
       cy="12.49862"
       r="0.62608474" />
    <path
       style="fill:none;stroke:#000000;stroke-width:0.264583px;stroke-linecap:butt;stroke-linejoin:miter;stroke-opacity:1"
       d="m 12.785958,10.706708 c 0,0 4.570177,-1.9007412 7.155982,-2.2276542 2.582665,-0.326515 8.10083,0.242213 8.10083,0.242213"
       id="path4"
       sodipodi:nodetypes="csc" />
    <path
       style="fill:none;stroke:#000000;stroke-width:0.264583px;stroke-linecap:butt;stroke-linejoin:miter;stroke-opacity:1"
       d="m 17.834447,21.173209 c 0,0 3.772038,0.659728 6.320581,0.113663 4.582357,-0.981841 5.969309,-3.494459 5.969309,-3.494459"
       id="path4-6"
       sodipodi:nodetypes="csc" />
    <path
       style="fill:none;stroke:#000000;stroke-width:0.264583px;stroke-linecap:butt;stroke-linejoin:miter;stroke-opacity:1"
       d="m 20.478264,12.429376 c 0,0 1.155617,-1.665233 3.575394,-2.6337072 1.716496,-0.686998 3.981228,-0.949716 3.981228,-0.949716"
       id="path4-6-9"
       sodipodi:nodetypes="csc" />
    <path
       style="fill:none;stroke:#000000;stroke-width:0.264583px;stroke-linecap:butt;stroke-linejoin:miter;stroke-opacity:1"
       d="m 12.63956,10.754173 c 0,0 1.912094,-0.672568 4.440526,-0.03988 1.793571,0.448807 3.782896,1.562637 3.782896,1.562637"
       id="path4-6-9-3"
       sodipodi:nodetypes="csc" />
    <path
       style="fill:none;stroke:#000000;stroke-width:0.264583px;stroke-linecap:butt;stroke-linejoin:miter;stroke-opacity:1"
       d="m 20.729819,12.421558 c 0,0 3.337738,0.344666 5.578138,1.676494 2.868488,1.705252 3.78091,3.588997 3.78091,3.588997"
       id="path4-6-9-3-2"
       sodipodi:nodetypes="csc" />
    <path
       style="fill:none;stroke:#000000;stroke-width:0.264583px;stroke-linecap:butt;stroke-linejoin:miter;stroke-opacity:1"
       d="m 28.00981,8.7316888 c 0,0 1.184303,1.8116652 1.776734,3.9306802 0.89852,3.21384 0.279288,5.140089 0.279288,5.140089"
       id="path4-6-9-3-2-9"
       sodipodi:nodetypes="csc" />
    <path
       style="fill:none;stroke:#000000;stroke-width:0.264583px;stroke-linecap:butt;stroke-linejoin:miter;stroke-opacity:1"
       d="m 27.966885,8.7640908 c 0,0 -2.286721,3.4812172 -3.532992,5.2945042 -2.490189,3.62315 -6.578933,7.039833 -6.578933,7.039833"
       id="path4-6-9-3-2-9-4"
       sodipodi:nodetypes="csc" />
    <path
       style="fill:none;stroke:#000000;stroke-width:0.264583px;stroke-linecap:butt;stroke-linejoin:miter;stroke-opacity:1"
       d="m 12.833955,10.584758 c 0,0 7.739192,-0.0061 11.087487,1.64709 3.942054,1.9464 6.144261,5.525008 6.144261,5.525008"
       id="path4-6-9-3-2-9-4-6"
       sodipodi:nodetypes="csc" />
    <path
       style="fill:none;stroke:#000000;stroke-width:0.264583px;stroke-linecap:butt;stroke-linejoin:miter;stroke-opacity:1"
       d="m 12.714334,10.700841 c 0,0 2.309893,2.340155 3.460395,4.678851 1.581728,3.215273 1.680051,5.642023 1.680051,5.642023"
       id="path4-6-9-3-2-7"
       sodipodi:nodetypes="csc" />
    <path
       style="fill:none;stroke:#000000;stroke-width:0.264583px;stroke-linecap:butt;stroke-linejoin:miter;stroke-opacity:1"
       d="m 20.561715,12.26593 c 0,0 -0.804782,1.546771 -1.463704,4.068472 -0.653303,2.500203 -1.092034,4.712156 -1.092034,4.712156"
       id="path4-6-9-3-2-7-2"
       sodipodi:nodetypes="csc" />
    <circle
       style="fill:#000000;stroke:#000000;stroke-width:0.753658;stroke-dasharray:none"
       id="path3-1"
       cx="28.064386"
       cy="9.0590353"
       r="0.62608474" />
    <circle
       style="fill:#000000;stroke:#000000;stroke-width:0.753658;stroke-dasharray:none"
       id="path3-7"
       cx="30.181051"
       cy="17.790285"
       r="0.62608474" />
    <circle
       style="fill:#000000;stroke:#000000;stroke-width:0.753658;stroke-dasharray:none"
       id="path3-9"
       cx="18.010218"
       cy="21.229868"
       r="0.62608474" />
    <text
       xml:space="preserve"
       style="font-size:12.7px;line-height:1.25;font-family:helvetica;-inkscape-font-specification:helvetica;letter-spacing:0px;word-spacing:0px;stroke-width:0.264583"
       x="45.612255"
       y="22.142216"
       id="text4"><tspan
         sodipodi:role="line"
         id="tspan4"
         style="font-size:12.7px;stroke-width:0.264583"
         x="45.612255"
         y="22.142216">sqfa</tspan></text>
  </g>
</svg>
