<?xml version="1.0" encoding="utf-8" standalone="no"?>
<!DOCTYPE svg PUBLIC "-//W3C//DTD SVG 1.1//EN"
  "http://www.w3.org/Graphics/SVG/1.1/DTD/svg11.dtd">
<svg xmlns:xlink="http://www.w3.org/1999/xlink" width="1440pt" height="864pt" viewBox="0 0 1440 864" xmlns="http://www.w3.org/2000/svg" version="1.1">
 <metadata>
  <rdf:RDF xmlns:dc="http://purl.org/dc/elements/1.1/" xmlns:cc="http://creativecommons.org/ns#" xmlns:rdf="http://www.w3.org/1999/02/22-rdf-syntax-ns#">
   <cc:Work>
    <dc:type rdf:resource="http://purl.org/dc/dcmitype/StillImage"/>
    <dc:date>2025-02-05T22:42:08.257903</dc:date>
    <dc:format>image/svg+xml</dc:format>
    <dc:creator>
     <cc:Agent>
      <dc:title>Matplotlib v3.10.0, https://matplotlib.org/</dc:title>
     </cc:Agent>
    </dc:creator>
   </cc:Work>
  </rdf:RDF>
 </metadata>
 <defs>
  <style type="text/css">*{stroke-linejoin: round; stroke-linecap: butt}</style>
 </defs>
 <g id="figure_1">
  <g id="patch_1">
   <path d="M 0 864 
L 1440 864 
L 1440 0 
L 0 0 
z
" style="fill: #ffffff"/>
  </g>
  <g id="axes_1">
   <g id="patch_2">
    <path d="M 58.32 684.768 
L 1427.04 684.768 
L 1427.04 32.64 
L 58.32 32.64 
z
" style="fill: #ffffff"/>
   </g>
   <g id="matplotlib.axis_1">
    <g id="xtick_1">
     <g id="line2d_1">
      <path d="M 95.140853 684.768 
L 95.140853 32.64 
" clip-path="url(#p4c020bdc04)" style="fill: none; stroke-dasharray: 3.7,1.6; stroke-dashoffset: 0; stroke: #cccccc; stroke-opacity: 0.5"/>
     </g>
     <g id="text_1">
      <!-- 0 -->
      <g style="fill: #262626" transform="translate(91.641478 702.626281) scale(0.11 -0.11)">
       <defs>
        <path id="DejaVuSans-30" d="M 2034 4250 
Q 1547 4250 1301 3770 
Q 1056 3291 1056 2328 
Q 1056 1369 1301 889 
Q 1547 409 2034 409 
Q 2525 409 2770 889 
Q 3016 1369 3016 2328 
Q 3016 3291 2770 3770 
Q 2525 4250 2034 4250 
z
M 2034 4750 
Q 2819 4750 3233 4129 
Q 3647 3509 3647 2328 
Q 3647 1150 3233 529 
Q 2819 -91 2034 -91 
Q 1250 -91 836 529 
Q 422 1150 422 2328 
Q 422 3509 836 4129 
Q 1250 4750 2034 4750 
z
" transform="scale(0.015625)"/>
       </defs>
       <use xlink:href="#DejaVuSans-30"/>
      </g>
     </g>
    </g>
    <g id="xtick_2">
     <g id="line2d_2">
      <path d="M 349.077774 684.768 
L 349.077774 32.64 
" clip-path="url(#p4c020bdc04)" style="fill: none; stroke-dasharray: 3.7,1.6; stroke-dashoffset: 0; stroke: #cccccc; stroke-opacity: 0.5"/>
     </g>
     <g id="text_2">
      <!-- 10 -->
      <g style="fill: #262626" transform="translate(342.079024 702.626281) scale(0.11 -0.11)">
       <defs>
        <path id="DejaVuSans-31" d="M 794 531 
L 1825 531 
L 1825 4091 
L 703 3866 
L 703 4441 
L 1819 4666 
L 2450 4666 
L 2450 531 
L 3481 531 
L 3481 0 
L 794 0 
L 794 531 
z
" transform="scale(0.015625)"/>
       </defs>
       <use xlink:href="#DejaVuSans-31"/>
       <use xlink:href="#DejaVuSans-30" transform="translate(63.623047 0)"/>
      </g>
     </g>
    </g>
    <g id="xtick_3">
     <g id="line2d_3">
      <path d="M 603.014694 684.768 
L 603.014694 32.64 
" clip-path="url(#p4c020bdc04)" style="fill: none; stroke-dasharray: 3.7,1.6; stroke-dashoffset: 0; stroke: #cccccc; stroke-opacity: 0.5"/>
     </g>
     <g id="text_3">
      <!-- 20 -->
      <g style="fill: #262626" transform="translate(596.015944 702.626281) scale(0.11 -0.11)">
       <defs>
        <path id="DejaVuSans-32" d="M 1228 531 
L 3431 531 
L 3431 0 
L 469 0 
L 469 531 
Q 828 903 1448 1529 
Q 2069 2156 2228 2338 
Q 2531 2678 2651 2914 
Q 2772 3150 2772 3378 
Q 2772 3750 2511 3984 
Q 2250 4219 1831 4219 
Q 1534 4219 1204 4116 
Q 875 4013 500 3803 
L 500 4441 
Q 881 4594 1212 4672 
Q 1544 4750 1819 4750 
Q 2544 4750 2975 4387 
Q 3406 4025 3406 3419 
Q 3406 3131 3298 2873 
Q 3191 2616 2906 2266 
Q 2828 2175 2409 1742 
Q 1991 1309 1228 531 
z
" transform="scale(0.015625)"/>
       </defs>
       <use xlink:href="#DejaVuSans-32"/>
       <use xlink:href="#DejaVuSans-30" transform="translate(63.623047 0)"/>
      </g>
     </g>
    </g>
    <g id="xtick_4">
     <g id="line2d_4">
      <path d="M 856.951614 684.768 
L 856.951614 32.64 
" clip-path="url(#p4c020bdc04)" style="fill: none; stroke-dasharray: 3.7,1.6; stroke-dashoffset: 0; stroke: #cccccc; stroke-opacity: 0.5"/>
     </g>
     <g id="text_4">
      <!-- 30 -->
      <g style="fill: #262626" transform="translate(849.952864 702.626281) scale(0.11 -0.11)">
       <defs>
        <path id="DejaVuSans-33" d="M 2597 2516 
Q 3050 2419 3304 2112 
Q 3559 1806 3559 1356 
Q 3559 666 3084 287 
Q 2609 -91 1734 -91 
Q 1441 -91 1130 -33 
Q 819 25 488 141 
L 488 750 
Q 750 597 1062 519 
Q 1375 441 1716 441 
Q 2309 441 2620 675 
Q 2931 909 2931 1356 
Q 2931 1769 2642 2001 
Q 2353 2234 1838 2234 
L 1294 2234 
L 1294 2753 
L 1863 2753 
Q 2328 2753 2575 2939 
Q 2822 3125 2822 3475 
Q 2822 3834 2567 4026 
Q 2313 4219 1838 4219 
Q 1578 4219 1281 4162 
Q 984 4106 628 3988 
L 628 4550 
Q 988 4650 1302 4700 
Q 1616 4750 1894 4750 
Q 2613 4750 3031 4423 
Q 3450 4097 3450 3541 
Q 3450 3153 3228 2886 
Q 3006 2619 2597 2516 
z
" transform="scale(0.015625)"/>
       </defs>
       <use xlink:href="#DejaVuSans-33"/>
       <use xlink:href="#DejaVuSans-30" transform="translate(63.623047 0)"/>
      </g>
     </g>
    </g>
    <g id="xtick_5">
     <g id="line2d_5">
      <path d="M 1110.888534 684.768 
L 1110.888534 32.64 
" clip-path="url(#p4c020bdc04)" style="fill: none; stroke-dasharray: 3.7,1.6; stroke-dashoffset: 0; stroke: #cccccc; stroke-opacity: 0.5"/>
     </g>
     <g id="text_5">
      <!-- 40 -->
      <g style="fill: #262626" transform="translate(1103.889784 702.626281) scale(0.11 -0.11)">
       <defs>
        <path id="DejaVuSans-34" d="M 2419 4116 
L 825 1625 
L 2419 1625 
L 2419 4116 
z
M 2253 4666 
L 3047 4666 
L 3047 1625 
L 3713 1625 
L 3713 1100 
L 3047 1100 
L 3047 0 
L 2419 0 
L 2419 1100 
L 313 1100 
L 313 1709 
L 2253 4666 
z
" transform="scale(0.015625)"/>
       </defs>
       <use xlink:href="#DejaVuSans-34"/>
       <use xlink:href="#DejaVuSans-30" transform="translate(63.623047 0)"/>
      </g>
     </g>
    </g>
    <g id="xtick_6">
     <g id="line2d_6">
      <path d="M 1364.825455 684.768 
L 1364.825455 32.64 
" clip-path="url(#p4c020bdc04)" style="fill: none; stroke-dasharray: 3.7,1.6; stroke-dashoffset: 0; stroke: #cccccc; stroke-opacity: 0.5"/>
     </g>
     <g id="text_6">
      <!-- 50 -->
      <g style="fill: #262626" transform="translate(1357.826705 702.626281) scale(0.11 -0.11)">
       <defs>
        <path id="DejaVuSans-35" d="M 691 4666 
L 3169 4666 
L 3169 4134 
L 1269 4134 
L 1269 2991 
Q 1406 3038 1543 3061 
Q 1681 3084 1819 3084 
Q 2600 3084 3056 2656 
Q 3513 2228 3513 1497 
Q 3513 744 3044 326 
Q 2575 -91 1722 -91 
Q 1428 -91 1123 -41 
Q 819 9 494 109 
L 494 744 
Q 775 591 1075 516 
Q 1375 441 1709 441 
Q 2250 441 2565 725 
Q 2881 1009 2881 1497 
Q 2881 1984 2565 2268 
Q 2250 2553 1709 2553 
Q 1456 2553 1204 2497 
Q 953 2441 691 2322 
L 691 4666 
z
" transform="scale(0.015625)"/>
       </defs>
       <use xlink:href="#DejaVuSans-35"/>
       <use xlink:href="#DejaVuSans-30" transform="translate(63.623047 0)"/>
      </g>
     </g>
    </g>
    <g id="text_7">
     <!-- Epoch -->
     <g style="fill: #262626" transform="translate(718.1825 721.071438) scale(0.16 -0.16)">
      <defs>
       <path id="DejaVuSans-45" d="M 628 4666 
L 3578 4666 
L 3578 4134 
L 1259 4134 
L 1259 2753 
L 3481 2753 
L 3481 2222 
L 1259 2222 
L 1259 531 
L 3634 531 
L 3634 0 
L 628 0 
L 628 4666 
z
" transform="scale(0.015625)"/>
       <path id="DejaVuSans-70" d="M 1159 525 
L 1159 -1331 
L 581 -1331 
L 581 3500 
L 1159 3500 
L 1159 2969 
Q 1341 3281 1617 3432 
Q 1894 3584 2278 3584 
Q 2916 3584 3314 3078 
Q 3713 2572 3713 1747 
Q 3713 922 3314 415 
Q 2916 -91 2278 -91 
Q 1894 -91 1617 61 
Q 1341 213 1159 525 
z
M 3116 1747 
Q 3116 2381 2855 2742 
Q 2594 3103 2138 3103 
Q 1681 3103 1420 2742 
Q 1159 2381 1159 1747 
Q 1159 1113 1420 752 
Q 1681 391 2138 391 
Q 2594 391 2855 752 
Q 3116 1113 3116 1747 
z
" transform="scale(0.015625)"/>
       <path id="DejaVuSans-6f" d="M 1959 3097 
Q 1497 3097 1228 2736 
Q 959 2375 959 1747 
Q 959 1119 1226 758 
Q 1494 397 1959 397 
Q 2419 397 2687 759 
Q 2956 1122 2956 1747 
Q 2956 2369 2687 2733 
Q 2419 3097 1959 3097 
z
M 1959 3584 
Q 2709 3584 3137 3096 
Q 3566 2609 3566 1747 
Q 3566 888 3137 398 
Q 2709 -91 1959 -91 
Q 1206 -91 779 398 
Q 353 888 353 1747 
Q 353 2609 779 3096 
Q 1206 3584 1959 3584 
z
" transform="scale(0.015625)"/>
       <path id="DejaVuSans-63" d="M 3122 3366 
L 3122 2828 
Q 2878 2963 2633 3030 
Q 2388 3097 2138 3097 
Q 1578 3097 1268 2742 
Q 959 2388 959 1747 
Q 959 1106 1268 751 
Q 1578 397 2138 397 
Q 2388 397 2633 464 
Q 2878 531 3122 666 
L 3122 134 
Q 2881 22 2623 -34 
Q 2366 -91 2075 -91 
Q 1284 -91 818 406 
Q 353 903 353 1747 
Q 353 2603 823 3093 
Q 1294 3584 2113 3584 
Q 2378 3584 2631 3529 
Q 2884 3475 3122 3366 
z
" transform="scale(0.015625)"/>
       <path id="DejaVuSans-68" d="M 3513 2113 
L 3513 0 
L 2938 0 
L 2938 2094 
Q 2938 2591 2744 2837 
Q 2550 3084 2163 3084 
Q 1697 3084 1428 2787 
Q 1159 2491 1159 1978 
L 1159 0 
L 581 0 
L 581 4863 
L 1159 4863 
L 1159 2956 
Q 1366 3272 1645 3428 
Q 1925 3584 2291 3584 
Q 2894 3584 3203 3211 
Q 3513 2838 3513 2113 
z
" transform="scale(0.015625)"/>
      </defs>
      <use xlink:href="#DejaVuSans-45"/>
      <use xlink:href="#DejaVuSans-70" transform="translate(63.183594 0)"/>
      <use xlink:href="#DejaVuSans-6f" transform="translate(126.660156 0)"/>
      <use xlink:href="#DejaVuSans-63" transform="translate(187.841797 0)"/>
      <use xlink:href="#DejaVuSans-68" transform="translate(242.822266 0)"/>
     </g>
    </g>
   </g>
   <g id="matplotlib.axis_2">
    <g id="ytick_1">
     <g id="line2d_7">
      <path d="M 58.32 651.220675 
L 1427.04 651.220675 
" clip-path="url(#p4c020bdc04)" style="fill: none; stroke-dasharray: 3.7,1.6; stroke-dashoffset: 0; stroke: #cccccc; stroke-opacity: 0.5"/>
     </g>
     <g id="text_8">
      <!-- 0.2 -->
      <g style="fill: #262626" transform="translate(31.326563 655.399816) scale(0.11 -0.11)">
       <defs>
        <path id="DejaVuSans-2e" d="M 684 794 
L 1344 794 
L 1344 0 
L 684 0 
L 684 794 
z
" transform="scale(0.015625)"/>
       </defs>
       <use xlink:href="#DejaVuSans-30"/>
       <use xlink:href="#DejaVuSans-2e" transform="translate(63.623047 0)"/>
       <use xlink:href="#DejaVuSans-32" transform="translate(95.410156 0)"/>
      </g>
     </g>
    </g>
    <g id="ytick_2">
     <g id="line2d_8">
      <path d="M 58.32 556.566404 
L 1427.04 556.566404 
" clip-path="url(#p4c020bdc04)" style="fill: none; stroke-dasharray: 3.7,1.6; stroke-dashoffset: 0; stroke: #cccccc; stroke-opacity: 0.5"/>
     </g>
     <g id="text_9">
      <!-- 0.3 -->
      <g style="fill: #262626" transform="translate(31.326563 560.745545) scale(0.11 -0.11)">
       <use xlink:href="#DejaVuSans-30"/>
       <use xlink:href="#DejaVuSans-2e" transform="translate(63.623047 0)"/>
       <use xlink:href="#DejaVuSans-33" transform="translate(95.410156 0)"/>
      </g>
     </g>
    </g>
    <g id="ytick_3">
     <g id="line2d_9">
      <path d="M 58.32 461.912134 
L 1427.04 461.912134 
" clip-path="url(#p4c020bdc04)" style="fill: none; stroke-dasharray: 3.7,1.6; stroke-dashoffset: 0; stroke: #cccccc; stroke-opacity: 0.5"/>
     </g>
     <g id="text_10">
      <!-- 0.4 -->
      <g style="fill: #262626" transform="translate(31.326563 466.091275) scale(0.11 -0.11)">
       <use xlink:href="#DejaVuSans-30"/>
       <use xlink:href="#DejaVuSans-2e" transform="translate(63.623047 0)"/>
       <use xlink:href="#DejaVuSans-34" transform="translate(95.410156 0)"/>
      </g>
     </g>
    </g>
    <g id="ytick_4">
     <g id="line2d_10">
      <path d="M 58.32 367.257863 
L 1427.04 367.257863 
" clip-path="url(#p4c020bdc04)" style="fill: none; stroke-dasharray: 3.7,1.6; stroke-dashoffset: 0; stroke: #cccccc; stroke-opacity: 0.5"/>
     </g>
     <g id="text_11">
      <!-- 0.5 -->
      <g style="fill: #262626" transform="translate(31.326563 371.437004) scale(0.11 -0.11)">
       <use xlink:href="#DejaVuSans-30"/>
       <use xlink:href="#DejaVuSans-2e" transform="translate(63.623047 0)"/>
       <use xlink:href="#DejaVuSans-35" transform="translate(95.410156 0)"/>
      </g>
     </g>
    </g>
    <g id="ytick_5">
     <g id="line2d_11">
      <path d="M 58.32 272.603593 
L 1427.04 272.603593 
" clip-path="url(#p4c020bdc04)" style="fill: none; stroke-dasharray: 3.7,1.6; stroke-dashoffset: 0; stroke: #cccccc; stroke-opacity: 0.5"/>
     </g>
     <g id="text_12">
      <!-- 0.6 -->
      <g style="fill: #262626" transform="translate(31.326563 276.782733) scale(0.11 -0.11)">
       <defs>
        <path id="DejaVuSans-36" d="M 2113 2584 
Q 1688 2584 1439 2293 
Q 1191 2003 1191 1497 
Q 1191 994 1439 701 
Q 1688 409 2113 409 
Q 2538 409 2786 701 
Q 3034 994 3034 1497 
Q 3034 2003 2786 2293 
Q 2538 2584 2113 2584 
z
M 3366 4563 
L 3366 3988 
Q 3128 4100 2886 4159 
Q 2644 4219 2406 4219 
Q 1781 4219 1451 3797 
Q 1122 3375 1075 2522 
Q 1259 2794 1537 2939 
Q 1816 3084 2150 3084 
Q 2853 3084 3261 2657 
Q 3669 2231 3669 1497 
Q 3669 778 3244 343 
Q 2819 -91 2113 -91 
Q 1303 -91 875 529 
Q 447 1150 447 2328 
Q 447 3434 972 4092 
Q 1497 4750 2381 4750 
Q 2619 4750 2861 4703 
Q 3103 4656 3366 4563 
z
" transform="scale(0.015625)"/>
       </defs>
       <use xlink:href="#DejaVuSans-30"/>
       <use xlink:href="#DejaVuSans-2e" transform="translate(63.623047 0)"/>
       <use xlink:href="#DejaVuSans-36" transform="translate(95.410156 0)"/>
      </g>
     </g>
    </g>
    <g id="ytick_6">
     <g id="line2d_12">
      <path d="M 58.32 177.949322 
L 1427.04 177.949322 
" clip-path="url(#p4c020bdc04)" style="fill: none; stroke-dasharray: 3.7,1.6; stroke-dashoffset: 0; stroke: #cccccc; stroke-opacity: 0.5"/>
     </g>
     <g id="text_13">
      <!-- 0.7 -->
      <g style="fill: #262626" transform="translate(31.326563 182.128463) scale(0.11 -0.11)">
       <defs>
        <path id="DejaVuSans-37" d="M 525 4666 
L 3525 4666 
L 3525 4397 
L 1831 0 
L 1172 0 
L 2766 4134 
L 525 4134 
L 525 4666 
z
" transform="scale(0.015625)"/>
       </defs>
       <use xlink:href="#DejaVuSans-30"/>
       <use xlink:href="#DejaVuSans-2e" transform="translate(63.623047 0)"/>
       <use xlink:href="#DejaVuSans-37" transform="translate(95.410156 0)"/>
      </g>
     </g>
    </g>
    <g id="ytick_7">
     <g id="line2d_13">
      <path d="M 58.32 83.295052 
L 1427.04 83.295052 
" clip-path="url(#p4c020bdc04)" style="fill: none; stroke-dasharray: 3.7,1.6; stroke-dashoffset: 0; stroke: #cccccc; stroke-opacity: 0.5"/>
     </g>
     <g id="text_14">
      <!-- 0.8 -->
      <g style="fill: #262626" transform="translate(31.326563 87.474192) scale(0.11 -0.11)">
       <defs>
        <path id="DejaVuSans-38" d="M 2034 2216 
Q 1584 2216 1326 1975 
Q 1069 1734 1069 1313 
Q 1069 891 1326 650 
Q 1584 409 2034 409 
Q 2484 409 2743 651 
Q 3003 894 3003 1313 
Q 3003 1734 2745 1975 
Q 2488 2216 2034 2216 
z
M 1403 2484 
Q 997 2584 770 2862 
Q 544 3141 544 3541 
Q 544 4100 942 4425 
Q 1341 4750 2034 4750 
Q 2731 4750 3128 4425 
Q 3525 4100 3525 3541 
Q 3525 3141 3298 2862 
Q 3072 2584 2669 2484 
Q 3125 2378 3379 2068 
Q 3634 1759 3634 1313 
Q 3634 634 3220 271 
Q 2806 -91 2034 -91 
Q 1263 -91 848 271 
Q 434 634 434 1313 
Q 434 1759 690 2068 
Q 947 2378 1403 2484 
z
M 1172 3481 
Q 1172 3119 1398 2916 
Q 1625 2713 2034 2713 
Q 2441 2713 2670 2916 
Q 2900 3119 2900 3481 
Q 2900 3844 2670 4047 
Q 2441 4250 2034 4250 
Q 1625 4250 1398 4047 
Q 1172 3844 1172 3481 
z
" transform="scale(0.015625)"/>
       </defs>
       <use xlink:href="#DejaVuSans-30"/>
       <use xlink:href="#DejaVuSans-2e" transform="translate(63.623047 0)"/>
       <use xlink:href="#DejaVuSans-38" transform="translate(95.410156 0)"/>
      </g>
     </g>
    </g>
    <g id="text_15">
     <!-- Accuracy -->
     <g style="fill: #262626" transform="translate(23.999063 395.229) rotate(-90) scale(0.16 -0.16)">
      <defs>
       <path id="DejaVuSans-41" d="M 2188 4044 
L 1331 1722 
L 3047 1722 
L 2188 4044 
z
M 1831 4666 
L 2547 4666 
L 4325 0 
L 3669 0 
L 3244 1197 
L 1141 1197 
L 716 0 
L 50 0 
L 1831 4666 
z
" transform="scale(0.015625)"/>
       <path id="DejaVuSans-75" d="M 544 1381 
L 544 3500 
L 1119 3500 
L 1119 1403 
Q 1119 906 1312 657 
Q 1506 409 1894 409 
Q 2359 409 2629 706 
Q 2900 1003 2900 1516 
L 2900 3500 
L 3475 3500 
L 3475 0 
L 2900 0 
L 2900 538 
Q 2691 219 2414 64 
Q 2138 -91 1772 -91 
Q 1169 -91 856 284 
Q 544 659 544 1381 
z
M 1991 3584 
L 1991 3584 
z
" transform="scale(0.015625)"/>
       <path id="DejaVuSans-72" d="M 2631 2963 
Q 2534 3019 2420 3045 
Q 2306 3072 2169 3072 
Q 1681 3072 1420 2755 
Q 1159 2438 1159 1844 
L 1159 0 
L 581 0 
L 581 3500 
L 1159 3500 
L 1159 2956 
Q 1341 3275 1631 3429 
Q 1922 3584 2338 3584 
Q 2397 3584 2469 3576 
Q 2541 3569 2628 3553 
L 2631 2963 
z
" transform="scale(0.015625)"/>
       <path id="DejaVuSans-61" d="M 2194 1759 
Q 1497 1759 1228 1600 
Q 959 1441 959 1056 
Q 959 750 1161 570 
Q 1363 391 1709 391 
Q 2188 391 2477 730 
Q 2766 1069 2766 1631 
L 2766 1759 
L 2194 1759 
z
M 3341 1997 
L 3341 0 
L 2766 0 
L 2766 531 
Q 2569 213 2275 61 
Q 1981 -91 1556 -91 
Q 1019 -91 701 211 
Q 384 513 384 1019 
Q 384 1609 779 1909 
Q 1175 2209 1959 2209 
L 2766 2209 
L 2766 2266 
Q 2766 2663 2505 2880 
Q 2244 3097 1772 3097 
Q 1472 3097 1187 3025 
Q 903 2953 641 2809 
L 641 3341 
Q 956 3463 1253 3523 
Q 1550 3584 1831 3584 
Q 2591 3584 2966 3190 
Q 3341 2797 3341 1997 
z
" transform="scale(0.015625)"/>
       <path id="DejaVuSans-79" d="M 2059 -325 
Q 1816 -950 1584 -1140 
Q 1353 -1331 966 -1331 
L 506 -1331 
L 506 -850 
L 844 -850 
Q 1081 -850 1212 -737 
Q 1344 -625 1503 -206 
L 1606 56 
L 191 3500 
L 800 3500 
L 1894 763 
L 2988 3500 
L 3597 3500 
L 2059 -325 
z
" transform="scale(0.015625)"/>
      </defs>
      <use xlink:href="#DejaVuSans-41"/>
      <use xlink:href="#DejaVuSans-63" transform="translate(66.658203 0)"/>
      <use xlink:href="#DejaVuSans-63" transform="translate(121.638672 0)"/>
      <use xlink:href="#DejaVuSans-75" transform="translate(176.619141 0)"/>
      <use xlink:href="#DejaVuSans-72" transform="translate(239.998047 0)"/>
      <use xlink:href="#DejaVuSans-61" transform="translate(281.111328 0)"/>
      <use xlink:href="#DejaVuSans-63" transform="translate(342.390625 0)"/>
      <use xlink:href="#DejaVuSans-79" transform="translate(397.371094 0)"/>
     </g>
    </g>
   </g>
   <g id="line2d_14">
    <path d="M 120.534545 363.45453 
L 145.928237 273.656771 
L 171.321929 240.90858 
L 196.715622 220.606456 
L 222.109314 199.989918 
L 247.503006 273.774409 
L 272.896698 271.88365 
L 298.29039 236.631916 
L 323.684082 212.997437 
L 349.077774 236.159226 
L 374.471466 188.672104 
L 399.865158 198.907651 
L 425.25885 194.089853 
L 450.652542 183.181632 
L 476.046234 202.052855 
L 501.439926 152.784056 
L 526.833618 192.889949 
L 552.22731 147.402667 
L 577.621002 153.347648 
L 603.014694 148.0208 
L 628.408386 121.295658 
L 653.802078 112.223654 
L 679.19577 138.021597 
L 704.589462 123.731827 
L 729.983154 141.14862 
L 755.376846 93.079726 
L 780.770538 110.514699 
L 806.16423 115.587022 
L 831.557922 101.67904 
L 856.951614 96.75216 
L 882.345306 82.789637 
L 907.738998 94.788681 
L 933.13269 100.497316 
L 958.526382 72.06322 
L 983.920074 83.89864 
L 1009.313766 96.861243 
L 1034.707458 80.498911 
L 1060.10115 123.84091 
L 1085.494842 120.186655 
L 1110.888534 76.49923 
L 1136.282226 89.879981 
L 1161.675918 103.078929 
L 1187.06961 62.282182 
L 1212.463302 82.971441 
L 1237.856994 74.826636 
L 1263.250686 63.245741 
L 1288.644378 76.571951 
L 1314.038071 87.35291 
L 1339.431763 65.572829 
L 1364.825455 87.225647 
" clip-path="url(#p4c020bdc04)" style="fill: none; stroke: #1f77b4; stroke-width: 1.5; stroke-linecap: round"/>
    <defs>
     <path id="me564c9e1d4" d="M 0 3 
C 0.795609 3 1.55874 2.683901 2.12132 2.12132 
C 2.683901 1.55874 3 0.795609 3 0 
C 3 -0.795609 2.683901 -1.55874 2.12132 -2.12132 
C 1.55874 -2.683901 0.795609 -3 0 -3 
C -0.795609 -3 -1.55874 -2.683901 -2.12132 -2.12132 
C -2.683901 -1.55874 -3 -0.795609 -3 0 
C -3 0.795609 -2.683901 1.55874 -2.12132 2.12132 
C -1.55874 2.683901 -0.795609 3 0 3 
z
" style="stroke: #1f77b4"/>
    </defs>
    <g clip-path="url(#p4c020bdc04)">
     <use xlink:href="#me564c9e1d4" x="120.534545" y="363.45453" style="fill: #1f77b4; stroke: #1f77b4"/>
     <use xlink:href="#me564c9e1d4" x="145.928237" y="273.656771" style="fill: #1f77b4; stroke: #1f77b4"/>
     <use xlink:href="#me564c9e1d4" x="171.321929" y="240.90858" style="fill: #1f77b4; stroke: #1f77b4"/>
     <use xlink:href="#me564c9e1d4" x="196.715622" y="220.606456" style="fill: #1f77b4; stroke: #1f77b4"/>
     <use xlink:href="#me564c9e1d4" x="222.109314" y="199.989918" style="fill: #1f77b4; stroke: #1f77b4"/>
     <use xlink:href="#me564c9e1d4" x="247.503006" y="273.774409" style="fill: #1f77b4; stroke: #1f77b4"/>
     <use xlink:href="#me564c9e1d4" x="272.896698" y="271.88365" style="fill: #1f77b4; stroke: #1f77b4"/>
     <use xlink:href="#me564c9e1d4" x="298.29039" y="236.631916" style="fill: #1f77b4; stroke: #1f77b4"/>
     <use xlink:href="#me564c9e1d4" x="323.684082" y="212.997437" style="fill: #1f77b4; stroke: #1f77b4"/>
     <use xlink:href="#me564c9e1d4" x="349.077774" y="236.159226" style="fill: #1f77b4; stroke: #1f77b4"/>
     <use xlink:href="#me564c9e1d4" x="374.471466" y="188.672104" style="fill: #1f77b4; stroke: #1f77b4"/>
     <use xlink:href="#me564c9e1d4" x="399.865158" y="198.907651" style="fill: #1f77b4; stroke: #1f77b4"/>
     <use xlink:href="#me564c9e1d4" x="425.25885" y="194.089853" style="fill: #1f77b4; stroke: #1f77b4"/>
     <use xlink:href="#me564c9e1d4" x="450.652542" y="183.181632" style="fill: #1f77b4; stroke: #1f77b4"/>
     <use xlink:href="#me564c9e1d4" x="476.046234" y="202.052855" style="fill: #1f77b4; stroke: #1f77b4"/>
     <use xlink:href="#me564c9e1d4" x="501.439926" y="152.784056" style="fill: #1f77b4; stroke: #1f77b4"/>
     <use xlink:href="#me564c9e1d4" x="526.833618" y="192.889949" style="fill: #1f77b4; stroke: #1f77b4"/>
     <use xlink:href="#me564c9e1d4" x="552.22731" y="147.402667" style="fill: #1f77b4; stroke: #1f77b4"/>
     <use xlink:href="#me564c9e1d4" x="577.621002" y="153.347648" style="fill: #1f77b4; stroke: #1f77b4"/>
     <use xlink:href="#me564c9e1d4" x="603.014694" y="148.0208" style="fill: #1f77b4; stroke: #1f77b4"/>
     <use xlink:href="#me564c9e1d4" x="628.408386" y="121.295658" style="fill: #1f77b4; stroke: #1f77b4"/>
     <use xlink:href="#me564c9e1d4" x="653.802078" y="112.223654" style="fill: #1f77b4; stroke: #1f77b4"/>
     <use xlink:href="#me564c9e1d4" x="679.19577" y="138.021597" style="fill: #1f77b4; stroke: #1f77b4"/>
     <use xlink:href="#me564c9e1d4" x="704.589462" y="123.731827" style="fill: #1f77b4; stroke: #1f77b4"/>
     <use xlink:href="#me564c9e1d4" x="729.983154" y="141.14862" style="fill: #1f77b4; stroke: #1f77b4"/>
     <use xlink:href="#me564c9e1d4" x="755.376846" y="93.079726" style="fill: #1f77b4; stroke: #1f77b4"/>
     <use xlink:href="#me564c9e1d4" x="780.770538" y="110.514699" style="fill: #1f77b4; stroke: #1f77b4"/>
     <use xlink:href="#me564c9e1d4" x="806.16423" y="115.587022" style="fill: #1f77b4; stroke: #1f77b4"/>
     <use xlink:href="#me564c9e1d4" x="831.557922" y="101.67904" style="fill: #1f77b4; stroke: #1f77b4"/>
     <use xlink:href="#me564c9e1d4" x="856.951614" y="96.75216" style="fill: #1f77b4; stroke: #1f77b4"/>
     <use xlink:href="#me564c9e1d4" x="882.345306" y="82.789637" style="fill: #1f77b4; stroke: #1f77b4"/>
     <use xlink:href="#me564c9e1d4" x="907.738998" y="94.788681" style="fill: #1f77b4; stroke: #1f77b4"/>
     <use xlink:href="#me564c9e1d4" x="933.13269" y="100.497316" style="fill: #1f77b4; stroke: #1f77b4"/>
     <use xlink:href="#me564c9e1d4" x="958.526382" y="72.06322" style="fill: #1f77b4; stroke: #1f77b4"/>
     <use xlink:href="#me564c9e1d4" x="983.920074" y="83.89864" style="fill: #1f77b4; stroke: #1f77b4"/>
     <use xlink:href="#me564c9e1d4" x="1009.313766" y="96.861243" style="fill: #1f77b4; stroke: #1f77b4"/>
     <use xlink:href="#me564c9e1d4" x="1034.707458" y="80.498911" style="fill: #1f77b4; stroke: #1f77b4"/>
     <use xlink:href="#me564c9e1d4" x="1060.10115" y="123.84091" style="fill: #1f77b4; stroke: #1f77b4"/>
     <use xlink:href="#me564c9e1d4" x="1085.494842" y="120.186655" style="fill: #1f77b4; stroke: #1f77b4"/>
     <use xlink:href="#me564c9e1d4" x="1110.888534" y="76.49923" style="fill: #1f77b4; stroke: #1f77b4"/>
     <use xlink:href="#me564c9e1d4" x="1136.282226" y="89.879981" style="fill: #1f77b4; stroke: #1f77b4"/>
     <use xlink:href="#me564c9e1d4" x="1161.675918" y="103.078929" style="fill: #1f77b4; stroke: #1f77b4"/>
     <use xlink:href="#me564c9e1d4" x="1187.06961" y="62.282182" style="fill: #1f77b4; stroke: #1f77b4"/>
     <use xlink:href="#me564c9e1d4" x="1212.463302" y="82.971441" style="fill: #1f77b4; stroke: #1f77b4"/>
     <use xlink:href="#me564c9e1d4" x="1237.856994" y="74.826636" style="fill: #1f77b4; stroke: #1f77b4"/>
     <use xlink:href="#me564c9e1d4" x="1263.250686" y="63.245741" style="fill: #1f77b4; stroke: #1f77b4"/>
     <use xlink:href="#me564c9e1d4" x="1288.644378" y="76.571951" style="fill: #1f77b4; stroke: #1f77b4"/>
     <use xlink:href="#me564c9e1d4" x="1314.038071" y="87.35291" style="fill: #1f77b4; stroke: #1f77b4"/>
     <use xlink:href="#me564c9e1d4" x="1339.431763" y="65.572829" style="fill: #1f77b4; stroke: #1f77b4"/>
     <use xlink:href="#me564c9e1d4" x="1364.825455" y="87.225647" style="fill: #1f77b4; stroke: #1f77b4"/>
    </g>
   </g>
   <g id="line2d_15">
    <path d="M 120.534545 363.45453 
L 145.928237 318.555651 
L 171.321929 292.673294 
L 196.715622 274.656584 
L 222.109314 259.723251 
L 247.503006 241.787227 
L 272.896698 241.432602 
L 298.29039 240.57727 
L 323.684082 239.055466 
L 349.077774 246.289327 
L 374.471466 229.268866 
L 399.865158 214.673667 
L 425.25885 206.165254 
L 450.652542 200.202093 
L 476.046234 193.380819 
L 501.439926 186.20321 
L 526.833618 184.999669 
L 552.22731 175.662232 
L 577.621002 169.695435 
L 603.014694 158.889024 
L 628.408386 152.591344 
L 653.802078 136.458085 
L 679.19577 134.581871 
L 704.589462 128.658707 
L 729.983154 127.284271 
L 755.376846 121.641085 
L 780.770538 121.299294 
L 806.16423 116.812379 
L 831.557922 112.401822 
L 856.951614 103.52253 
L 882.345306 101.464512 
L 907.738998 98.319308 
L 933.13269 95.301367 
L 958.526382 89.378203 
L 983.920074 86.807499 
L 1009.313766 89.62182 
L 1034.707458 86.763866 
L 1060.10115 91.432585 
L 1085.494842 101.057272 
L 1110.888534 99.57739 
L 1136.282226 98.181137 
L 1161.675918 102.697141 
L 1187.06961 90.385395 
L 1212.463302 82.942353 
L 1237.856994 82.607834 
L 1263.250686 77.280986 
L 1288.644378 71.97959 
L 1314.038071 76.993736 
L 1339.431763 73.514013 
L 1364.825455 75.993816 
" clip-path="url(#p4c020bdc04)" style="fill: none; stroke-dasharray: 2,3.3; stroke-dashoffset: 0; stroke: #1f77b4; stroke-width: 2"/>
   </g>
   <g id="line2d_16">
    <path d="M 120.534545 413.704509 
L 145.928237 351.433671 
L 171.321929 339.990947 
L 196.715622 339.652792 
L 222.109314 334.569561 
" clip-path="url(#p4c020bdc04)" style="fill: none; stroke-dasharray: 5.55,2.4; stroke-dashoffset: 0; stroke: #aec7e8; stroke-width: 1.5"/>
    <defs>
     <path id="mb2713ceeb1" d="M 0 3 
C 0.795609 3 1.55874 2.683901 2.12132 2.12132 
C 2.683901 1.55874 3 0.795609 3 0 
C 3 -0.795609 2.683901 -1.55874 2.12132 -2.12132 
C 1.55874 -2.683901 0.795609 -3 0 -3 
C -0.795609 -3 -1.55874 -2.683901 -2.12132 -2.12132 
C -2.683901 -1.55874 -3 -0.795609 -3 0 
C -3 0.795609 -2.683901 1.55874 -2.12132 2.12132 
C -1.55874 2.683901 -0.795609 3 0 3 
z
" style="stroke: #aec7e8"/>
    </defs>
    <g clip-path="url(#p4c020bdc04)">
     <use xlink:href="#mb2713ceeb1" x="120.534545" y="413.704509" style="fill: #aec7e8; stroke: #aec7e8"/>
     <use xlink:href="#mb2713ceeb1" x="145.928237" y="351.433671" style="fill: #aec7e8; stroke: #aec7e8"/>
     <use xlink:href="#mb2713ceeb1" x="171.321929" y="339.990947" style="fill: #aec7e8; stroke: #aec7e8"/>
     <use xlink:href="#mb2713ceeb1" x="196.715622" y="339.652792" style="fill: #aec7e8; stroke: #aec7e8"/>
     <use xlink:href="#mb2713ceeb1" x="222.109314" y="334.569561" style="fill: #aec7e8; stroke: #aec7e8"/>
    </g>
   </g>
   <g id="line2d_17">
    <path d="M 120.534545 146.085569 
L 145.928237 201.057913 
L 171.321929 251.585521 
L 196.715622 306.401513 
L 222.109314 355.870296 
" clip-path="url(#p4c020bdc04)" style="fill: none; stroke-dasharray: 2,3.3; stroke-dashoffset: 0; stroke: #aec7e8; stroke-width: 2"/>
   </g>
   <g id="line2d_18">
    <path d="M 120.534545 584.25095 
L 145.928237 559.091518 
L 171.321929 508.46059 
L 196.715622 477.263078 
L 222.109314 449.430099 
L 247.503006 655.125818 
L 272.896698 617.165209 
L 298.29039 570.35076 
L 323.684082 571.041614 
L 349.077774 562.678644 
L 374.471466 527.190565 
L 399.865158 486.830147 
L 425.25885 392.946724 
L 450.652542 381.147665 
L 476.046234 337.260255 
L 501.439926 318.061786 
L 526.833618 315.171108 
L 552.22731 312.31679 
L 577.621002 273.84713 
L 603.014694 267.92033 
L 628.408386 269.956531 
L 653.802078 284.664449 
L 679.19577 273.574425 
L 704.589462 246.21297 
L 729.983154 244.24949 
L 755.376846 252.430656 
L 780.770538 228.196225 
L 806.16423 236.031964 
L 831.557922 226.541811 
L 856.951614 233.595794 
L 882.345306 262.211694 
L 907.738998 253.721462 
L 933.13269 212.124779 
L 958.526382 204.361762 
L 983.920074 210.270381 
L 1009.313766 215.451786 
L 1034.707458 197.016893 
L 1060.10115 198.453142 
L 1085.494842 195.162495 
L 1110.888534 191.362798 
L 1136.282226 192.199095 
L 1161.675918 190.762846 
L 1187.06961 186.654083 
L 1212.463302 182.945288 
L 1237.856994 187.50856 
L 1263.250686 195.653365 
L 1288.644378 179.945527 
L 1314.038071 173.70966 
L 1339.431763 176.709421 
L 1364.825455 181.309054 
" clip-path="url(#p4c020bdc04)" style="fill: none; stroke: #ff7f0e; stroke-width: 1.5; stroke-linecap: round"/>
    <defs>
     <path id="mdfcd08a0fe" d="M 0 3 
C 0.795609 3 1.55874 2.683901 2.12132 2.12132 
C 2.683901 1.55874 3 0.795609 3 0 
C 3 -0.795609 2.683901 -1.55874 2.12132 -2.12132 
C 1.55874 -2.683901 0.795609 -3 0 -3 
C -0.795609 -3 -1.55874 -2.683901 -2.12132 -2.12132 
C -2.683901 -1.55874 -3 -0.795609 -3 0 
C -3 0.795609 -2.683901 1.55874 -2.12132 2.12132 
C -1.55874 2.683901 -0.795609 3 0 3 
z
" style="stroke: #ff7f0e"/>
    </defs>
    <g clip-path="url(#p4c020bdc04)">
     <use xlink:href="#mdfcd08a0fe" x="120.534545" y="584.25095" style="fill: #ff7f0e; stroke: #ff7f0e"/>
     <use xlink:href="#mdfcd08a0fe" x="145.928237" y="559.091518" style="fill: #ff7f0e; stroke: #ff7f0e"/>
     <use xlink:href="#mdfcd08a0fe" x="171.321929" y="508.46059" style="fill: #ff7f0e; stroke: #ff7f0e"/>
     <use xlink:href="#mdfcd08a0fe" x="196.715622" y="477.263078" style="fill: #ff7f0e; stroke: #ff7f0e"/>
     <use xlink:href="#mdfcd08a0fe" x="222.109314" y="449.430099" style="fill: #ff7f0e; stroke: #ff7f0e"/>
     <use xlink:href="#mdfcd08a0fe" x="247.503006" y="655.125818" style="fill: #ff7f0e; stroke: #ff7f0e"/>
     <use xlink:href="#mdfcd08a0fe" x="272.896698" y="617.165209" style="fill: #ff7f0e; stroke: #ff7f0e"/>
     <use xlink:href="#mdfcd08a0fe" x="298.29039" y="570.35076" style="fill: #ff7f0e; stroke: #ff7f0e"/>
     <use xlink:href="#mdfcd08a0fe" x="323.684082" y="571.041614" style="fill: #ff7f0e; stroke: #ff7f0e"/>
     <use xlink:href="#mdfcd08a0fe" x="349.077774" y="562.678644" style="fill: #ff7f0e; stroke: #ff7f0e"/>
     <use xlink:href="#mdfcd08a0fe" x="374.471466" y="527.190565" style="fill: #ff7f0e; stroke: #ff7f0e"/>
     <use xlink:href="#mdfcd08a0fe" x="399.865158" y="486.830147" style="fill: #ff7f0e; stroke: #ff7f0e"/>
     <use xlink:href="#mdfcd08a0fe" x="425.25885" y="392.946724" style="fill: #ff7f0e; stroke: #ff7f0e"/>
     <use xlink:href="#mdfcd08a0fe" x="450.652542" y="381.147665" style="fill: #ff7f0e; stroke: #ff7f0e"/>
     <use xlink:href="#mdfcd08a0fe" x="476.046234" y="337.260255" style="fill: #ff7f0e; stroke: #ff7f0e"/>
     <use xlink:href="#mdfcd08a0fe" x="501.439926" y="318.061786" style="fill: #ff7f0e; stroke: #ff7f0e"/>
     <use xlink:href="#mdfcd08a0fe" x="526.833618" y="315.171108" style="fill: #ff7f0e; stroke: #ff7f0e"/>
     <use xlink:href="#mdfcd08a0fe" x="552.22731" y="312.31679" style="fill: #ff7f0e; stroke: #ff7f0e"/>
     <use xlink:href="#mdfcd08a0fe" x="577.621002" y="273.84713" style="fill: #ff7f0e; stroke: #ff7f0e"/>
     <use xlink:href="#mdfcd08a0fe" x="603.014694" y="267.92033" style="fill: #ff7f0e; stroke: #ff7f0e"/>
     <use xlink:href="#mdfcd08a0fe" x="628.408386" y="269.956531" style="fill: #ff7f0e; stroke: #ff7f0e"/>
     <use xlink:href="#mdfcd08a0fe" x="653.802078" y="284.664449" style="fill: #ff7f0e; stroke: #ff7f0e"/>
     <use xlink:href="#mdfcd08a0fe" x="679.19577" y="273.574425" style="fill: #ff7f0e; stroke: #ff7f0e"/>
     <use xlink:href="#mdfcd08a0fe" x="704.589462" y="246.21297" style="fill: #ff7f0e; stroke: #ff7f0e"/>
     <use xlink:href="#mdfcd08a0fe" x="729.983154" y="244.24949" style="fill: #ff7f0e; stroke: #ff7f0e"/>
     <use xlink:href="#mdfcd08a0fe" x="755.376846" y="252.430656" style="fill: #ff7f0e; stroke: #ff7f0e"/>
     <use xlink:href="#mdfcd08a0fe" x="780.770538" y="228.196225" style="fill: #ff7f0e; stroke: #ff7f0e"/>
     <use xlink:href="#mdfcd08a0fe" x="806.16423" y="236.031964" style="fill: #ff7f0e; stroke: #ff7f0e"/>
     <use xlink:href="#mdfcd08a0fe" x="831.557922" y="226.541811" style="fill: #ff7f0e; stroke: #ff7f0e"/>
     <use xlink:href="#mdfcd08a0fe" x="856.951614" y="233.595794" style="fill: #ff7f0e; stroke: #ff7f0e"/>
     <use xlink:href="#mdfcd08a0fe" x="882.345306" y="262.211694" style="fill: #ff7f0e; stroke: #ff7f0e"/>
     <use xlink:href="#mdfcd08a0fe" x="907.738998" y="253.721462" style="fill: #ff7f0e; stroke: #ff7f0e"/>
     <use xlink:href="#mdfcd08a0fe" x="933.13269" y="212.124779" style="fill: #ff7f0e; stroke: #ff7f0e"/>
     <use xlink:href="#mdfcd08a0fe" x="958.526382" y="204.361762" style="fill: #ff7f0e; stroke: #ff7f0e"/>
     <use xlink:href="#mdfcd08a0fe" x="983.920074" y="210.270381" style="fill: #ff7f0e; stroke: #ff7f0e"/>
     <use xlink:href="#mdfcd08a0fe" x="1009.313766" y="215.451786" style="fill: #ff7f0e; stroke: #ff7f0e"/>
     <use xlink:href="#mdfcd08a0fe" x="1034.707458" y="197.016893" style="fill: #ff7f0e; stroke: #ff7f0e"/>
     <use xlink:href="#mdfcd08a0fe" x="1060.10115" y="198.453142" style="fill: #ff7f0e; stroke: #ff7f0e"/>
     <use xlink:href="#mdfcd08a0fe" x="1085.494842" y="195.162495" style="fill: #ff7f0e; stroke: #ff7f0e"/>
     <use xlink:href="#mdfcd08a0fe" x="1110.888534" y="191.362798" style="fill: #ff7f0e; stroke: #ff7f0e"/>
     <use xlink:href="#mdfcd08a0fe" x="1136.282226" y="192.199095" style="fill: #ff7f0e; stroke: #ff7f0e"/>
     <use xlink:href="#mdfcd08a0fe" x="1161.675918" y="190.762846" style="fill: #ff7f0e; stroke: #ff7f0e"/>
     <use xlink:href="#mdfcd08a0fe" x="1187.06961" y="186.654083" style="fill: #ff7f0e; stroke: #ff7f0e"/>
     <use xlink:href="#mdfcd08a0fe" x="1212.463302" y="182.945288" style="fill: #ff7f0e; stroke: #ff7f0e"/>
     <use xlink:href="#mdfcd08a0fe" x="1237.856994" y="187.50856" style="fill: #ff7f0e; stroke: #ff7f0e"/>
     <use xlink:href="#mdfcd08a0fe" x="1263.250686" y="195.653365" style="fill: #ff7f0e; stroke: #ff7f0e"/>
     <use xlink:href="#mdfcd08a0fe" x="1288.644378" y="179.945527" style="fill: #ff7f0e; stroke: #ff7f0e"/>
     <use xlink:href="#mdfcd08a0fe" x="1314.038071" y="173.70966" style="fill: #ff7f0e; stroke: #ff7f0e"/>
     <use xlink:href="#mdfcd08a0fe" x="1339.431763" y="176.709421" style="fill: #ff7f0e; stroke: #ff7f0e"/>
     <use xlink:href="#mdfcd08a0fe" x="1364.825455" y="181.309054" style="fill: #ff7f0e; stroke: #ff7f0e"/>
    </g>
   </g>
   <g id="line2d_19">
    <path d="M 120.534545 389.979584 
L 145.928237 431.511153 
L 171.321929 465.205082 
L 196.715622 492.727139 
L 222.109314 515.699247 
L 247.503006 529.874221 
L 272.896698 541.488959 
L 298.29039 553.866993 
L 323.684082 572.6227 
L 349.077774 595.272409 
L 374.471466 569.685358 
L 399.865158 543.618346 
L 425.25885 508.137539 
L 450.652542 470.158749 
L 476.046234 425.075071 
L 501.439926 383.249316 
L 526.833618 348.917508 
L 552.22731 332.791521 
L 577.621002 311.331414 
L 603.014694 297.463429 
L 628.408386 287.842378 
L 653.802078 281.741046 
L 679.19577 273.992573 
L 704.589462 268.465741 
L 729.983154 263.731573 
L 755.376846 260.226398 
L 780.770538 248.932753 
L 806.16423 241.424261 
L 831.557922 237.490029 
L 856.951614 235.35929 
L 882.345306 237.315498 
L 907.738998 242.420545 
L 933.13269 237.639108 
L 958.526382 233.203098 
L 983.920074 228.538016 
L 1009.313766 219.186034 
L 1034.707458 207.84512 
L 1060.10115 205.110793 
L 1085.494842 203.27094 
L 1110.888534 199.489423 
L 1136.282226 194.838885 
L 1161.675918 193.588075 
L 1187.06961 191.228263 
L 1212.463302 188.784822 
L 1237.856994 188.013974 
L 1263.250686 188.704828 
L 1288.644378 186.541364 
L 1314.038071 183.95248 
L 1339.431763 182.705307 
L 1364.825455 181.465406 
" clip-path="url(#p4c020bdc04)" style="fill: none; stroke-dasharray: 2,3.3; stroke-dashoffset: 0; stroke: #ff7f0e; stroke-width: 2"/>
   </g>
   <g id="patch_3">
    <path d="M 58.32 684.768 
L 58.32 32.64 
" style="fill: none; stroke: #cccccc; stroke-width: 1.25; stroke-linejoin: miter; stroke-linecap: square"/>
   </g>
   <g id="patch_4">
    <path d="M 1427.04 684.768 
L 1427.04 32.64 
" style="fill: none; stroke: #cccccc; stroke-width: 1.25; stroke-linejoin: miter; stroke-linecap: square"/>
   </g>
   <g id="patch_5">
    <path d="M 58.32 684.768 
L 1427.04 684.768 
" style="fill: none; stroke: #cccccc; stroke-width: 1.25; stroke-linejoin: miter; stroke-linecap: square"/>
   </g>
   <g id="patch_6">
    <path d="M 58.32 32.64 
L 1427.04 32.64 
" style="fill: none; stroke: #cccccc; stroke-width: 1.25; stroke-linejoin: miter; stroke-linecap: square"/>
   </g>
   <g id="text_16">
    <!-- img-classification - svhn (Rolling Mean) -->
    <g style="fill: #262626" transform="translate(542.07 26.64) scale(0.18 -0.18)">
     <defs>
      <path id="DejaVuSans-Bold-69" d="M 538 3500 
L 1656 3500 
L 1656 0 
L 538 0 
L 538 3500 
z
M 538 4863 
L 1656 4863 
L 1656 3950 
L 538 3950 
L 538 4863 
z
" transform="scale(0.015625)"/>
      <path id="DejaVuSans-Bold-6d" d="M 3781 2919 
Q 3994 3244 4286 3414 
Q 4578 3584 4928 3584 
Q 5531 3584 5847 3212 
Q 6163 2841 6163 2131 
L 6163 0 
L 5038 0 
L 5038 1825 
Q 5041 1866 5042 1909 
Q 5044 1953 5044 2034 
Q 5044 2406 4934 2573 
Q 4825 2741 4581 2741 
Q 4263 2741 4089 2478 
Q 3916 2216 3909 1719 
L 3909 0 
L 2784 0 
L 2784 1825 
Q 2784 2406 2684 2573 
Q 2584 2741 2328 2741 
Q 2006 2741 1831 2477 
Q 1656 2213 1656 1722 
L 1656 0 
L 531 0 
L 531 3500 
L 1656 3500 
L 1656 2988 
Q 1863 3284 2130 3434 
Q 2397 3584 2719 3584 
Q 3081 3584 3359 3409 
Q 3638 3234 3781 2919 
z
" transform="scale(0.015625)"/>
      <path id="DejaVuSans-Bold-67" d="M 2919 594 
Q 2688 288 2409 144 
Q 2131 0 1766 0 
Q 1125 0 706 504 
Q 288 1009 288 1791 
Q 288 2575 706 3076 
Q 1125 3578 1766 3578 
Q 2131 3578 2409 3434 
Q 2688 3291 2919 2981 
L 2919 3500 
L 4044 3500 
L 4044 353 
Q 4044 -491 3511 -936 
Q 2978 -1381 1966 -1381 
Q 1638 -1381 1331 -1331 
Q 1025 -1281 716 -1178 
L 716 -306 
Q 1009 -475 1290 -558 
Q 1572 -641 1856 -641 
Q 2406 -641 2662 -400 
Q 2919 -159 2919 353 
L 2919 594 
z
M 2181 2772 
Q 1834 2772 1640 2515 
Q 1447 2259 1447 1791 
Q 1447 1309 1634 1061 
Q 1822 813 2181 813 
Q 2531 813 2725 1069 
Q 2919 1325 2919 1791 
Q 2919 2259 2725 2515 
Q 2531 2772 2181 2772 
z
" transform="scale(0.015625)"/>
      <path id="DejaVuSans-Bold-2d" d="M 347 2297 
L 2309 2297 
L 2309 1388 
L 347 1388 
L 347 2297 
z
" transform="scale(0.015625)"/>
      <path id="DejaVuSans-Bold-63" d="M 3366 3391 
L 3366 2478 
Q 3138 2634 2908 2709 
Q 2678 2784 2431 2784 
Q 1963 2784 1702 2511 
Q 1441 2238 1441 1747 
Q 1441 1256 1702 982 
Q 1963 709 2431 709 
Q 2694 709 2930 787 
Q 3166 866 3366 1019 
L 3366 103 
Q 3103 6 2833 -42 
Q 2563 -91 2291 -91 
Q 1344 -91 809 395 
Q 275 881 275 1747 
Q 275 2613 809 3098 
Q 1344 3584 2291 3584 
Q 2566 3584 2833 3536 
Q 3100 3488 3366 3391 
z
" transform="scale(0.015625)"/>
      <path id="DejaVuSans-Bold-6c" d="M 538 4863 
L 1656 4863 
L 1656 0 
L 538 0 
L 538 4863 
z
" transform="scale(0.015625)"/>
      <path id="DejaVuSans-Bold-61" d="M 2106 1575 
Q 1756 1575 1579 1456 
Q 1403 1338 1403 1106 
Q 1403 894 1545 773 
Q 1688 653 1941 653 
Q 2256 653 2472 879 
Q 2688 1106 2688 1447 
L 2688 1575 
L 2106 1575 
z
M 3816 1997 
L 3816 0 
L 2688 0 
L 2688 519 
Q 2463 200 2181 54 
Q 1900 -91 1497 -91 
Q 953 -91 614 226 
Q 275 544 275 1050 
Q 275 1666 698 1953 
Q 1122 2241 2028 2241 
L 2688 2241 
L 2688 2328 
Q 2688 2594 2478 2717 
Q 2269 2841 1825 2841 
Q 1466 2841 1156 2769 
Q 847 2697 581 2553 
L 581 3406 
Q 941 3494 1303 3539 
Q 1666 3584 2028 3584 
Q 2975 3584 3395 3211 
Q 3816 2838 3816 1997 
z
" transform="scale(0.015625)"/>
      <path id="DejaVuSans-Bold-73" d="M 3272 3391 
L 3272 2541 
Q 2913 2691 2578 2766 
Q 2244 2841 1947 2841 
Q 1628 2841 1473 2761 
Q 1319 2681 1319 2516 
Q 1319 2381 1436 2309 
Q 1553 2238 1856 2203 
L 2053 2175 
Q 2913 2066 3209 1816 
Q 3506 1566 3506 1031 
Q 3506 472 3093 190 
Q 2681 -91 1863 -91 
Q 1516 -91 1145 -36 
Q 775 19 384 128 
L 384 978 
Q 719 816 1070 734 
Q 1422 653 1784 653 
Q 2113 653 2278 743 
Q 2444 834 2444 1013 
Q 2444 1163 2330 1236 
Q 2216 1309 1875 1350 
L 1678 1375 
Q 931 1469 631 1722 
Q 331 1975 331 2491 
Q 331 3047 712 3315 
Q 1094 3584 1881 3584 
Q 2191 3584 2531 3537 
Q 2872 3491 3272 3391 
z
" transform="scale(0.015625)"/>
      <path id="DejaVuSans-Bold-66" d="M 2841 4863 
L 2841 4128 
L 2222 4128 
Q 1984 4128 1890 4042 
Q 1797 3956 1797 3744 
L 1797 3500 
L 2753 3500 
L 2753 2700 
L 1797 2700 
L 1797 0 
L 678 0 
L 678 2700 
L 122 2700 
L 122 3500 
L 678 3500 
L 678 3744 
Q 678 4316 997 4589 
Q 1316 4863 1984 4863 
L 2841 4863 
z
" transform="scale(0.015625)"/>
      <path id="DejaVuSans-Bold-74" d="M 1759 4494 
L 1759 3500 
L 2913 3500 
L 2913 2700 
L 1759 2700 
L 1759 1216 
Q 1759 972 1856 886 
Q 1953 800 2241 800 
L 2816 800 
L 2816 0 
L 1856 0 
Q 1194 0 917 276 
Q 641 553 641 1216 
L 641 2700 
L 84 2700 
L 84 3500 
L 641 3500 
L 641 4494 
L 1759 4494 
z
" transform="scale(0.015625)"/>
      <path id="DejaVuSans-Bold-6f" d="M 2203 2784 
Q 1831 2784 1636 2517 
Q 1441 2250 1441 1747 
Q 1441 1244 1636 976 
Q 1831 709 2203 709 
Q 2569 709 2762 976 
Q 2956 1244 2956 1747 
Q 2956 2250 2762 2517 
Q 2569 2784 2203 2784 
z
M 2203 3584 
Q 3106 3584 3614 3096 
Q 4122 2609 4122 1747 
Q 4122 884 3614 396 
Q 3106 -91 2203 -91 
Q 1297 -91 786 396 
Q 275 884 275 1747 
Q 275 2609 786 3096 
Q 1297 3584 2203 3584 
z
" transform="scale(0.015625)"/>
      <path id="DejaVuSans-Bold-6e" d="M 4056 2131 
L 4056 0 
L 2931 0 
L 2931 347 
L 2931 1631 
Q 2931 2084 2911 2256 
Q 2891 2428 2841 2509 
Q 2775 2619 2662 2680 
Q 2550 2741 2406 2741 
Q 2056 2741 1856 2470 
Q 1656 2200 1656 1722 
L 1656 0 
L 538 0 
L 538 3500 
L 1656 3500 
L 1656 2988 
Q 1909 3294 2193 3439 
Q 2478 3584 2822 3584 
Q 3428 3584 3742 3212 
Q 4056 2841 4056 2131 
z
" transform="scale(0.015625)"/>
      <path id="DejaVuSans-Bold-20" transform="scale(0.015625)"/>
      <path id="DejaVuSans-Bold-76" d="M 97 3500 
L 1216 3500 
L 2088 1081 
L 2956 3500 
L 4078 3500 
L 2700 0 
L 1472 0 
L 97 3500 
z
" transform="scale(0.015625)"/>
      <path id="DejaVuSans-Bold-68" d="M 4056 2131 
L 4056 0 
L 2931 0 
L 2931 347 
L 2931 1625 
Q 2931 2084 2911 2256 
Q 2891 2428 2841 2509 
Q 2775 2619 2662 2680 
Q 2550 2741 2406 2741 
Q 2056 2741 1856 2470 
Q 1656 2200 1656 1722 
L 1656 0 
L 538 0 
L 538 4863 
L 1656 4863 
L 1656 2988 
Q 1909 3294 2193 3439 
Q 2478 3584 2822 3584 
Q 3428 3584 3742 3212 
Q 4056 2841 4056 2131 
z
" transform="scale(0.015625)"/>
      <path id="DejaVuSans-Bold-28" d="M 2413 -844 
L 1484 -844 
Q 1006 -72 778 623 
Q 550 1319 550 2003 
Q 550 2688 779 3389 
Q 1009 4091 1484 4856 
L 2413 4856 
Q 2013 4116 1813 3408 
Q 1613 2700 1613 2009 
Q 1613 1319 1811 609 
Q 2009 -100 2413 -844 
z
" transform="scale(0.015625)"/>
      <path id="DejaVuSans-Bold-52" d="M 2297 2597 
Q 2675 2597 2839 2737 
Q 3003 2878 3003 3200 
Q 3003 3519 2839 3656 
Q 2675 3794 2297 3794 
L 1791 3794 
L 1791 2597 
L 2297 2597 
z
M 1791 1766 
L 1791 0 
L 588 0 
L 588 4666 
L 2425 4666 
Q 3347 4666 3776 4356 
Q 4206 4047 4206 3378 
Q 4206 2916 3982 2619 
Q 3759 2322 3309 2181 
Q 3556 2125 3751 1926 
Q 3947 1728 4147 1325 
L 4800 0 
L 3519 0 
L 2950 1159 
Q 2778 1509 2601 1637 
Q 2425 1766 2131 1766 
L 1791 1766 
z
" transform="scale(0.015625)"/>
      <path id="DejaVuSans-Bold-4d" d="M 588 4666 
L 2119 4666 
L 3181 2169 
L 4250 4666 
L 5778 4666 
L 5778 0 
L 4641 0 
L 4641 3413 
L 3566 897 
L 2803 897 
L 1728 3413 
L 1728 0 
L 588 0 
L 588 4666 
z
" transform="scale(0.015625)"/>
      <path id="DejaVuSans-Bold-65" d="M 4031 1759 
L 4031 1441 
L 1416 1441 
Q 1456 1047 1700 850 
Q 1944 653 2381 653 
Q 2734 653 3104 758 
Q 3475 863 3866 1075 
L 3866 213 
Q 3469 63 3072 -14 
Q 2675 -91 2278 -91 
Q 1328 -91 801 392 
Q 275 875 275 1747 
Q 275 2603 792 3093 
Q 1309 3584 2216 3584 
Q 3041 3584 3536 3087 
Q 4031 2591 4031 1759 
z
M 2881 2131 
Q 2881 2450 2695 2645 
Q 2509 2841 2209 2841 
Q 1884 2841 1681 2658 
Q 1478 2475 1428 2131 
L 2881 2131 
z
" transform="scale(0.015625)"/>
      <path id="DejaVuSans-Bold-29" d="M 513 -844 
Q 913 -100 1113 609 
Q 1313 1319 1313 2009 
Q 1313 2700 1113 3408 
Q 913 4116 513 4856 
L 1441 4856 
Q 1916 4091 2145 3389 
Q 2375 2688 2375 2003 
Q 2375 1319 2147 623 
Q 1919 -72 1441 -844 
L 513 -844 
z
" transform="scale(0.015625)"/>
     </defs>
     <use xlink:href="#DejaVuSans-Bold-69"/>
     <use xlink:href="#DejaVuSans-Bold-6d" transform="translate(34.277344 0)"/>
     <use xlink:href="#DejaVuSans-Bold-67" transform="translate(138.476562 0)"/>
     <use xlink:href="#DejaVuSans-Bold-2d" transform="translate(210.058594 0)"/>
     <use xlink:href="#DejaVuSans-Bold-63" transform="translate(251.5625 0)"/>
     <use xlink:href="#DejaVuSans-Bold-6c" transform="translate(310.839844 0)"/>
     <use xlink:href="#DejaVuSans-Bold-61" transform="translate(345.117188 0)"/>
     <use xlink:href="#DejaVuSans-Bold-73" transform="translate(412.597656 0)"/>
     <use xlink:href="#DejaVuSans-Bold-73" transform="translate(472.119141 0)"/>
     <use xlink:href="#DejaVuSans-Bold-69" transform="translate(531.640625 0)"/>
     <use xlink:href="#DejaVuSans-Bold-66" transform="translate(565.917969 0)"/>
     <use xlink:href="#DejaVuSans-Bold-69" transform="translate(609.423828 0)"/>
     <use xlink:href="#DejaVuSans-Bold-63" transform="translate(643.701172 0)"/>
     <use xlink:href="#DejaVuSans-Bold-61" transform="translate(702.978516 0)"/>
     <use xlink:href="#DejaVuSans-Bold-74" transform="translate(770.458984 0)"/>
     <use xlink:href="#DejaVuSans-Bold-69" transform="translate(818.261719 0)"/>
     <use xlink:href="#DejaVuSans-Bold-6f" transform="translate(852.539062 0)"/>
     <use xlink:href="#DejaVuSans-Bold-6e" transform="translate(921.240234 0)"/>
     <use xlink:href="#DejaVuSans-Bold-20" transform="translate(992.431641 0)"/>
     <use xlink:href="#DejaVuSans-Bold-2d" transform="translate(1027.246094 0)"/>
     <use xlink:href="#DejaVuSans-Bold-20" transform="translate(1068.75 0)"/>
     <use xlink:href="#DejaVuSans-Bold-73" transform="translate(1103.564453 0)"/>
     <use xlink:href="#DejaVuSans-Bold-76" transform="translate(1163.085938 0)"/>
     <use xlink:href="#DejaVuSans-Bold-68" transform="translate(1228.271484 0)"/>
     <use xlink:href="#DejaVuSans-Bold-6e" transform="translate(1299.462891 0)"/>
     <use xlink:href="#DejaVuSans-Bold-20" transform="translate(1370.654297 0)"/>
     <use xlink:href="#DejaVuSans-Bold-28" transform="translate(1405.46875 0)"/>
     <use xlink:href="#DejaVuSans-Bold-52" transform="translate(1451.171875 0)"/>
     <use xlink:href="#DejaVuSans-Bold-6f" transform="translate(1528.173828 0)"/>
     <use xlink:href="#DejaVuSans-Bold-6c" transform="translate(1596.875 0)"/>
     <use xlink:href="#DejaVuSans-Bold-6c" transform="translate(1631.152344 0)"/>
     <use xlink:href="#DejaVuSans-Bold-69" transform="translate(1665.429688 0)"/>
     <use xlink:href="#DejaVuSans-Bold-6e" transform="translate(1699.707031 0)"/>
     <use xlink:href="#DejaVuSans-Bold-67" transform="translate(1770.898438 0)"/>
     <use xlink:href="#DejaVuSans-Bold-20" transform="translate(1842.480469 0)"/>
     <use xlink:href="#DejaVuSans-Bold-4d" transform="translate(1877.294922 0)"/>
     <use xlink:href="#DejaVuSans-Bold-65" transform="translate(1976.806641 0)"/>
     <use xlink:href="#DejaVuSans-Bold-61" transform="translate(2044.628906 0)"/>
     <use xlink:href="#DejaVuSans-Bold-6e" transform="translate(2112.109375 0)"/>
     <use xlink:href="#DejaVuSans-Bold-29" transform="translate(2183.300781 0)"/>
    </g>
   </g>
   <g id="legend_1">
    <g id="patch_7">
     <path d="M 468.2025 845.02845 
L 1017.1575 845.02845 
Q 1019.5575 845.02845 1019.5575 842.62845 
L 1019.5575 790.9872 
Q 1019.5575 788.5872 1017.1575 788.5872 
L 468.2025 788.5872 
Q 465.8025 788.5872 465.8025 790.9872 
L 465.8025 842.62845 
Q 465.8025 845.02845 468.2025 845.02845 
z
" style="fill: #ffffff; opacity: 0.8; stroke: #cccccc; stroke-linejoin: miter"/>
    </g>
    <g id="text_17">
     <!-- Neural Network Model -->
     <g style="fill: #262626" transform="translate(676.005 802.505325) scale(0.12 -0.12)">
      <defs>
       <path id="DejaVuSans-4e" d="M 628 4666 
L 1478 4666 
L 3547 763 
L 3547 4666 
L 4159 4666 
L 4159 0 
L 3309 0 
L 1241 3903 
L 1241 0 
L 628 0 
L 628 4666 
z
" transform="scale(0.015625)"/>
       <path id="DejaVuSans-65" d="M 3597 1894 
L 3597 1613 
L 953 1613 
Q 991 1019 1311 708 
Q 1631 397 2203 397 
Q 2534 397 2845 478 
Q 3156 559 3463 722 
L 3463 178 
Q 3153 47 2828 -22 
Q 2503 -91 2169 -91 
Q 1331 -91 842 396 
Q 353 884 353 1716 
Q 353 2575 817 3079 
Q 1281 3584 2069 3584 
Q 2775 3584 3186 3129 
Q 3597 2675 3597 1894 
z
M 3022 2063 
Q 3016 2534 2758 2815 
Q 2500 3097 2075 3097 
Q 1594 3097 1305 2825 
Q 1016 2553 972 2059 
L 3022 2063 
z
" transform="scale(0.015625)"/>
       <path id="DejaVuSans-6c" d="M 603 4863 
L 1178 4863 
L 1178 0 
L 603 0 
L 603 4863 
z
" transform="scale(0.015625)"/>
       <path id="DejaVuSans-20" transform="scale(0.015625)"/>
       <path id="DejaVuSans-74" d="M 1172 4494 
L 1172 3500 
L 2356 3500 
L 2356 3053 
L 1172 3053 
L 1172 1153 
Q 1172 725 1289 603 
Q 1406 481 1766 481 
L 2356 481 
L 2356 0 
L 1766 0 
Q 1100 0 847 248 
Q 594 497 594 1153 
L 594 3053 
L 172 3053 
L 172 3500 
L 594 3500 
L 594 4494 
L 1172 4494 
z
" transform="scale(0.015625)"/>
       <path id="DejaVuSans-77" d="M 269 3500 
L 844 3500 
L 1563 769 
L 2278 3500 
L 2956 3500 
L 3675 769 
L 4391 3500 
L 4966 3500 
L 4050 0 
L 3372 0 
L 2619 2869 
L 1863 0 
L 1184 0 
L 269 3500 
z
" transform="scale(0.015625)"/>
       <path id="DejaVuSans-6b" d="M 581 4863 
L 1159 4863 
L 1159 1991 
L 2875 3500 
L 3609 3500 
L 1753 1863 
L 3688 0 
L 2938 0 
L 1159 1709 
L 1159 0 
L 581 0 
L 581 4863 
z
" transform="scale(0.015625)"/>
       <path id="DejaVuSans-4d" d="M 628 4666 
L 1569 4666 
L 2759 1491 
L 3956 4666 
L 4897 4666 
L 4897 0 
L 4281 0 
L 4281 4097 
L 3078 897 
L 2444 897 
L 1241 4097 
L 1241 0 
L 628 0 
L 628 4666 
z
" transform="scale(0.015625)"/>
       <path id="DejaVuSans-64" d="M 2906 2969 
L 2906 4863 
L 3481 4863 
L 3481 0 
L 2906 0 
L 2906 525 
Q 2725 213 2448 61 
Q 2172 -91 1784 -91 
Q 1150 -91 751 415 
Q 353 922 353 1747 
Q 353 2572 751 3078 
Q 1150 3584 1784 3584 
Q 2172 3584 2448 3432 
Q 2725 3281 2906 2969 
z
M 947 1747 
Q 947 1113 1208 752 
Q 1469 391 1925 391 
Q 2381 391 2643 752 
Q 2906 1113 2906 1747 
Q 2906 2381 2643 2742 
Q 2381 3103 1925 3103 
Q 1469 3103 1208 2742 
Q 947 2381 947 1747 
z
" transform="scale(0.015625)"/>
      </defs>
      <use xlink:href="#DejaVuSans-4e"/>
      <use xlink:href="#DejaVuSans-65" transform="translate(74.804688 0)"/>
      <use xlink:href="#DejaVuSans-75" transform="translate(136.328125 0)"/>
      <use xlink:href="#DejaVuSans-72" transform="translate(199.707031 0)"/>
      <use xlink:href="#DejaVuSans-61" transform="translate(240.820312 0)"/>
      <use xlink:href="#DejaVuSans-6c" transform="translate(302.099609 0)"/>
      <use xlink:href="#DejaVuSans-20" transform="translate(329.882812 0)"/>
      <use xlink:href="#DejaVuSans-4e" transform="translate(361.669922 0)"/>
      <use xlink:href="#DejaVuSans-65" transform="translate(436.474609 0)"/>
      <use xlink:href="#DejaVuSans-74" transform="translate(497.998047 0)"/>
      <use xlink:href="#DejaVuSans-77" transform="translate(537.207031 0)"/>
      <use xlink:href="#DejaVuSans-6f" transform="translate(618.994141 0)"/>
      <use xlink:href="#DejaVuSans-72" transform="translate(680.175781 0)"/>
      <use xlink:href="#DejaVuSans-6b" transform="translate(721.289062 0)"/>
      <use xlink:href="#DejaVuSans-20" transform="translate(779.199219 0)"/>
      <use xlink:href="#DejaVuSans-4d" transform="translate(810.986328 0)"/>
      <use xlink:href="#DejaVuSans-6f" transform="translate(897.265625 0)"/>
      <use xlink:href="#DejaVuSans-64" transform="translate(958.447266 0)"/>
      <use xlink:href="#DejaVuSans-65" transform="translate(1021.923828 0)"/>
      <use xlink:href="#DejaVuSans-6c" transform="translate(1083.447266 0)"/>
     </g>
    </g>
    <g id="line2d_20">
     <path d="M 470.6025 815.919075 
L 482.6025 815.919075 
L 494.6025 815.919075 
" style="fill: none; stroke: #1f77b4; stroke-width: 1.5; stroke-linecap: round"/>
     <g>
      <use xlink:href="#me564c9e1d4" x="482.6025" y="815.919075" style="fill: #1f77b4; stroke: #1f77b4"/>
     </g>
    </g>
    <g id="text_18">
     <!-- AirNet - Mean -->
     <g style="fill: #262626" transform="translate(504.2025 820.119075) scale(0.12 -0.12)">
      <defs>
       <path id="DejaVuSans-69" d="M 603 3500 
L 1178 3500 
L 1178 0 
L 603 0 
L 603 3500 
z
M 603 4863 
L 1178 4863 
L 1178 4134 
L 603 4134 
L 603 4863 
z
" transform="scale(0.015625)"/>
       <path id="DejaVuSans-2d" d="M 313 2009 
L 1997 2009 
L 1997 1497 
L 313 1497 
L 313 2009 
z
" transform="scale(0.015625)"/>
       <path id="DejaVuSans-6e" d="M 3513 2113 
L 3513 0 
L 2938 0 
L 2938 2094 
Q 2938 2591 2744 2837 
Q 2550 3084 2163 3084 
Q 1697 3084 1428 2787 
Q 1159 2491 1159 1978 
L 1159 0 
L 581 0 
L 581 3500 
L 1159 3500 
L 1159 2956 
Q 1366 3272 1645 3428 
Q 1925 3584 2291 3584 
Q 2894 3584 3203 3211 
Q 3513 2838 3513 2113 
z
" transform="scale(0.015625)"/>
      </defs>
      <use xlink:href="#DejaVuSans-41"/>
      <use xlink:href="#DejaVuSans-69" transform="translate(68.408203 0)"/>
      <use xlink:href="#DejaVuSans-72" transform="translate(96.191406 0)"/>
      <use xlink:href="#DejaVuSans-4e" transform="translate(137.304688 0)"/>
      <use xlink:href="#DejaVuSans-65" transform="translate(212.109375 0)"/>
      <use xlink:href="#DejaVuSans-74" transform="translate(273.632812 0)"/>
      <use xlink:href="#DejaVuSans-20" transform="translate(312.841797 0)"/>
      <use xlink:href="#DejaVuSans-2d" transform="translate(344.628906 0)"/>
      <use xlink:href="#DejaVuSans-20" transform="translate(380.712891 0)"/>
      <use xlink:href="#DejaVuSans-4d" transform="translate(412.5 0)"/>
      <use xlink:href="#DejaVuSans-65" transform="translate(498.779297 0)"/>
      <use xlink:href="#DejaVuSans-61" transform="translate(560.302734 0)"/>
      <use xlink:href="#DejaVuSans-6e" transform="translate(621.582031 0)"/>
     </g>
    </g>
    <g id="line2d_21">
     <path d="M 470.6025 833.532825 
L 482.6025 833.532825 
L 494.6025 833.532825 
" style="fill: none; stroke-dasharray: 2,3.3; stroke-dashoffset: 0; stroke: #1f77b4; stroke-width: 2"/>
    </g>
    <g id="text_19">
     <!-- AirNet - Rolling Mean -->
     <g style="fill: #262626" transform="translate(504.2025 837.732825) scale(0.12 -0.12)">
      <defs>
       <path id="DejaVuSans-52" d="M 2841 2188 
Q 3044 2119 3236 1894 
Q 3428 1669 3622 1275 
L 4263 0 
L 3584 0 
L 2988 1197 
Q 2756 1666 2539 1819 
Q 2322 1972 1947 1972 
L 1259 1972 
L 1259 0 
L 628 0 
L 628 4666 
L 2053 4666 
Q 2853 4666 3247 4331 
Q 3641 3997 3641 3322 
Q 3641 2881 3436 2590 
Q 3231 2300 2841 2188 
z
M 1259 4147 
L 1259 2491 
L 2053 2491 
Q 2509 2491 2742 2702 
Q 2975 2913 2975 3322 
Q 2975 3731 2742 3939 
Q 2509 4147 2053 4147 
L 1259 4147 
z
" transform="scale(0.015625)"/>
       <path id="DejaVuSans-67" d="M 2906 1791 
Q 2906 2416 2648 2759 
Q 2391 3103 1925 3103 
Q 1463 3103 1205 2759 
Q 947 2416 947 1791 
Q 947 1169 1205 825 
Q 1463 481 1925 481 
Q 2391 481 2648 825 
Q 2906 1169 2906 1791 
z
M 3481 434 
Q 3481 -459 3084 -895 
Q 2688 -1331 1869 -1331 
Q 1566 -1331 1297 -1286 
Q 1028 -1241 775 -1147 
L 775 -588 
Q 1028 -725 1275 -790 
Q 1522 -856 1778 -856 
Q 2344 -856 2625 -561 
Q 2906 -266 2906 331 
L 2906 616 
Q 2728 306 2450 153 
Q 2172 0 1784 0 
Q 1141 0 747 490 
Q 353 981 353 1791 
Q 353 2603 747 3093 
Q 1141 3584 1784 3584 
Q 2172 3584 2450 3431 
Q 2728 3278 2906 2969 
L 2906 3500 
L 3481 3500 
L 3481 434 
z
" transform="scale(0.015625)"/>
      </defs>
      <use xlink:href="#DejaVuSans-41"/>
      <use xlink:href="#DejaVuSans-69" transform="translate(68.408203 0)"/>
      <use xlink:href="#DejaVuSans-72" transform="translate(96.191406 0)"/>
      <use xlink:href="#DejaVuSans-4e" transform="translate(137.304688 0)"/>
      <use xlink:href="#DejaVuSans-65" transform="translate(212.109375 0)"/>
      <use xlink:href="#DejaVuSans-74" transform="translate(273.632812 0)"/>
      <use xlink:href="#DejaVuSans-20" transform="translate(312.841797 0)"/>
      <use xlink:href="#DejaVuSans-2d" transform="translate(344.628906 0)"/>
      <use xlink:href="#DejaVuSans-20" transform="translate(380.712891 0)"/>
      <use xlink:href="#DejaVuSans-52" transform="translate(412.5 0)"/>
      <use xlink:href="#DejaVuSans-6f" transform="translate(477.482422 0)"/>
      <use xlink:href="#DejaVuSans-6c" transform="translate(538.664062 0)"/>
      <use xlink:href="#DejaVuSans-6c" transform="translate(566.447266 0)"/>
      <use xlink:href="#DejaVuSans-69" transform="translate(594.230469 0)"/>
      <use xlink:href="#DejaVuSans-6e" transform="translate(622.013672 0)"/>
      <use xlink:href="#DejaVuSans-67" transform="translate(685.392578 0)"/>
      <use xlink:href="#DejaVuSans-20" transform="translate(748.869141 0)"/>
      <use xlink:href="#DejaVuSans-4d" transform="translate(780.65625 0)"/>
      <use xlink:href="#DejaVuSans-65" transform="translate(866.935547 0)"/>
      <use xlink:href="#DejaVuSans-61" transform="translate(928.458984 0)"/>
      <use xlink:href="#DejaVuSans-6e" transform="translate(989.738281 0)"/>
     </g>
    </g>
    <g id="line2d_22">
     <path d="M 654.575625 815.919075 
L 666.575625 815.919075 
L 678.575625 815.919075 
" style="fill: none; stroke-dasharray: 5.55,2.4; stroke-dashoffset: 0; stroke: #aec7e8; stroke-width: 1.5"/>
     <g>
      <use xlink:href="#mb2713ceeb1" x="666.575625" y="815.919075" style="fill: #aec7e8; stroke: #aec7e8"/>
     </g>
    </g>
    <g id="text_20">
     <!-- AirNext - Mean -->
     <g style="fill: #262626" transform="translate(688.175625 820.119075) scale(0.12 -0.12)">
      <defs>
       <path id="DejaVuSans-78" d="M 3513 3500 
L 2247 1797 
L 3578 0 
L 2900 0 
L 1881 1375 
L 863 0 
L 184 0 
L 1544 1831 
L 300 3500 
L 978 3500 
L 1906 2253 
L 2834 3500 
L 3513 3500 
z
" transform="scale(0.015625)"/>
      </defs>
      <use xlink:href="#DejaVuSans-41"/>
      <use xlink:href="#DejaVuSans-69" transform="translate(68.408203 0)"/>
      <use xlink:href="#DejaVuSans-72" transform="translate(96.191406 0)"/>
      <use xlink:href="#DejaVuSans-4e" transform="translate(137.304688 0)"/>
      <use xlink:href="#DejaVuSans-65" transform="translate(212.109375 0)"/>
      <use xlink:href="#DejaVuSans-78" transform="translate(271.882812 0)"/>
      <use xlink:href="#DejaVuSans-74" transform="translate(331.0625 0)"/>
      <use xlink:href="#DejaVuSans-20" transform="translate(370.271484 0)"/>
      <use xlink:href="#DejaVuSans-2d" transform="translate(402.058594 0)"/>
      <use xlink:href="#DejaVuSans-20" transform="translate(438.142578 0)"/>
      <use xlink:href="#DejaVuSans-4d" transform="translate(469.929688 0)"/>
      <use xlink:href="#DejaVuSans-65" transform="translate(556.208984 0)"/>
      <use xlink:href="#DejaVuSans-61" transform="translate(617.732422 0)"/>
      <use xlink:href="#DejaVuSans-6e" transform="translate(679.011719 0)"/>
     </g>
    </g>
    <g id="line2d_23">
     <path d="M 654.575625 833.532825 
L 666.575625 833.532825 
L 678.575625 833.532825 
" style="fill: none; stroke-dasharray: 2,3.3; stroke-dashoffset: 0; stroke: #aec7e8; stroke-width: 2"/>
    </g>
    <g id="text_21">
     <!-- AirNext - Rolling Mean -->
     <g style="fill: #262626" transform="translate(688.175625 837.732825) scale(0.12 -0.12)">
      <use xlink:href="#DejaVuSans-41"/>
      <use xlink:href="#DejaVuSans-69" transform="translate(68.408203 0)"/>
      <use xlink:href="#DejaVuSans-72" transform="translate(96.191406 0)"/>
      <use xlink:href="#DejaVuSans-4e" transform="translate(137.304688 0)"/>
      <use xlink:href="#DejaVuSans-65" transform="translate(212.109375 0)"/>
      <use xlink:href="#DejaVuSans-78" transform="translate(271.882812 0)"/>
      <use xlink:href="#DejaVuSans-74" transform="translate(331.0625 0)"/>
      <use xlink:href="#DejaVuSans-20" transform="translate(370.271484 0)"/>
      <use xlink:href="#DejaVuSans-2d" transform="translate(402.058594 0)"/>
      <use xlink:href="#DejaVuSans-20" transform="translate(438.142578 0)"/>
      <use xlink:href="#DejaVuSans-52" transform="translate(469.929688 0)"/>
      <use xlink:href="#DejaVuSans-6f" transform="translate(534.912109 0)"/>
      <use xlink:href="#DejaVuSans-6c" transform="translate(596.09375 0)"/>
      <use xlink:href="#DejaVuSans-6c" transform="translate(623.876953 0)"/>
      <use xlink:href="#DejaVuSans-69" transform="translate(651.660156 0)"/>
      <use xlink:href="#DejaVuSans-6e" transform="translate(679.443359 0)"/>
      <use xlink:href="#DejaVuSans-67" transform="translate(742.822266 0)"/>
      <use xlink:href="#DejaVuSans-20" transform="translate(806.298828 0)"/>
      <use xlink:href="#DejaVuSans-4d" transform="translate(838.085938 0)"/>
      <use xlink:href="#DejaVuSans-65" transform="translate(924.365234 0)"/>
      <use xlink:href="#DejaVuSans-61" transform="translate(985.888672 0)"/>
      <use xlink:href="#DejaVuSans-6e" transform="translate(1047.167969 0)"/>
     </g>
    </g>
    <g id="line2d_24">
     <path d="M 845.44125 815.919075 
L 857.44125 815.919075 
L 869.44125 815.919075 
" style="fill: none; stroke: #ff7f0e; stroke-width: 1.5; stroke-linecap: round"/>
     <g>
      <use xlink:href="#mdfcd08a0fe" x="857.44125" y="815.919075" style="fill: #ff7f0e; stroke: #ff7f0e"/>
     </g>
    </g>
    <g id="text_22">
     <!-- AlexNet - Mean -->
     <g style="fill: #262626" transform="translate(879.04125 820.119075) scale(0.12 -0.12)">
      <use xlink:href="#DejaVuSans-41"/>
      <use xlink:href="#DejaVuSans-6c" transform="translate(68.408203 0)"/>
      <use xlink:href="#DejaVuSans-65" transform="translate(96.191406 0)"/>
      <use xlink:href="#DejaVuSans-78" transform="translate(155.964844 0)"/>
      <use xlink:href="#DejaVuSans-4e" transform="translate(215.144531 0)"/>
      <use xlink:href="#DejaVuSans-65" transform="translate(289.949219 0)"/>
      <use xlink:href="#DejaVuSans-74" transform="translate(351.472656 0)"/>
      <use xlink:href="#DejaVuSans-20" transform="translate(390.681641 0)"/>
      <use xlink:href="#DejaVuSans-2d" transform="translate(422.46875 0)"/>
      <use xlink:href="#DejaVuSans-20" transform="translate(458.552734 0)"/>
      <use xlink:href="#DejaVuSans-4d" transform="translate(490.339844 0)"/>
      <use xlink:href="#DejaVuSans-65" transform="translate(576.619141 0)"/>
      <use xlink:href="#DejaVuSans-61" transform="translate(638.142578 0)"/>
      <use xlink:href="#DejaVuSans-6e" transform="translate(699.421875 0)"/>
     </g>
    </g>
    <g id="line2d_25">
     <path d="M 845.44125 833.532825 
L 857.44125 833.532825 
L 869.44125 833.532825 
" style="fill: none; stroke-dasharray: 2,3.3; stroke-dashoffset: 0; stroke: #ff7f0e; stroke-width: 2"/>
    </g>
    <g id="text_23">
     <!-- AlexNet - Rolling Mean -->
     <g style="fill: #262626" transform="translate(879.04125 837.732825) scale(0.12 -0.12)">
      <use xlink:href="#DejaVuSans-41"/>
      <use xlink:href="#DejaVuSans-6c" transform="translate(68.408203 0)"/>
      <use xlink:href="#DejaVuSans-65" transform="translate(96.191406 0)"/>
      <use xlink:href="#DejaVuSans-78" transform="translate(155.964844 0)"/>
      <use xlink:href="#DejaVuSans-4e" transform="translate(215.144531 0)"/>
      <use xlink:href="#DejaVuSans-65" transform="translate(289.949219 0)"/>
      <use xlink:href="#DejaVuSans-74" transform="translate(351.472656 0)"/>
      <use xlink:href="#DejaVuSans-20" transform="translate(390.681641 0)"/>
      <use xlink:href="#DejaVuSans-2d" transform="translate(422.46875 0)"/>
      <use xlink:href="#DejaVuSans-20" transform="translate(458.552734 0)"/>
      <use xlink:href="#DejaVuSans-52" transform="translate(490.339844 0)"/>
      <use xlink:href="#DejaVuSans-6f" transform="translate(555.322266 0)"/>
      <use xlink:href="#DejaVuSans-6c" transform="translate(616.503906 0)"/>
      <use xlink:href="#DejaVuSans-6c" transform="translate(644.287109 0)"/>
      <use xlink:href="#DejaVuSans-69" transform="translate(672.070312 0)"/>
      <use xlink:href="#DejaVuSans-6e" transform="translate(699.853516 0)"/>
      <use xlink:href="#DejaVuSans-67" transform="translate(763.232422 0)"/>
      <use xlink:href="#DejaVuSans-20" transform="translate(826.708984 0)"/>
      <use xlink:href="#DejaVuSans-4d" transform="translate(858.496094 0)"/>
      <use xlink:href="#DejaVuSans-65" transform="translate(944.775391 0)"/>
      <use xlink:href="#DejaVuSans-61" transform="translate(1006.298828 0)"/>
      <use xlink:href="#DejaVuSans-6e" transform="translate(1067.578125 0)"/>
     </g>
    </g>
   </g>
  </g>
 </g>
 <defs>
  <clipPath id="p4c020bdc04">
   <rect x="58.32" y="32.64" width="1368.72" height="652.128"/>
  </clipPath>
 </defs>
</svg>
