<?xml version="1.0" encoding="UTF-8"?>
<!--Generator: Apple Native CoreSVG 232.5-->
<!DOCTYPE svg
PUBLIC "-//W3C//DTD SVG 1.1//EN"
       "http://www.w3.org/Graphics/SVG/1.1/DTD/svg11.dtd">
<svg version="1.1" xmlns="http://www.w3.org/2000/svg" xmlns:xlink="http://www.w3.org/1999/xlink" width="86.5139" height="54.5871">
 <g>
  <rect height="54.5871" opacity="0" width="86.5139" x="0" y="0"/>
  <path d="M43.0905 54.5871C68.8392 54.5871 86.1721 33.7322 86.1721 27.3213C86.1721 20.9026 68.7726 0.0721186 43.0905 0.0721186C17.7225 0.0721186 0 20.9026 0 27.3213C0 33.7322 17.6725 54.5871 43.0905 54.5871ZM43.0905 48.5035C22.9405 48.5035 7.33823 31.7625 7.33823 27.3213C7.33823 23.5115 22.9405 6.13907 43.0905 6.13907C63.2161 6.13907 78.8339 23.5115 78.8339 27.3213C78.8339 31.7625 63.2161 48.5035 43.0905 48.5035ZM43.0983 44.0166C52.3748 44.0166 59.8347 36.3959 59.8347 27.3058C59.8347 18.0026 52.3748 10.6348 43.0983 10.6348C33.7873 10.6348 26.3375 17.9948 26.3375 27.3058C26.3375 36.3959 33.7873 44.0166 43.0983 44.0166ZM43.0994 32.5672C40.1651 32.5672 37.8024 30.1901 37.8024 27.3213C37.8024 24.4203 40.1651 22.0587 43.0994 22.0587C46.0081 22.0587 48.3864 24.4203 48.3864 27.3213C48.3864 30.1901 46.0081 32.5672 43.0994 32.5672Z" fill="#dfdedf" fill-opacity="0.5"/>
 </g>
</svg>
