<?xml version="1.0" encoding="UTF-8" standalone="no"?>
<!--Generator: Apple Native CoreSVG 232.5-->

<svg
   version="1.1"
   width="70.223999"
   height="76.329002"
   id="svg2"
   sodipodi:docname="file-circle-plus-solid.svg"
   inkscape:version="1.3 (0e150ed, 2023-07-21)"
   viewBox="3 9 70.224 76.329"
   xmlns:inkscape="http://www.inkscape.org/namespaces/inkscape"
   xmlns:sodipodi="http://sodipodi.sourceforge.net/DTD/sodipodi-0.dtd"
   xmlns="http://www.w3.org/2000/svg"
   xmlns:svg="http://www.w3.org/2000/svg">
  <defs
     id="defs2" />
  <sodipodi:namedview
     id="namedview2"
     pagecolor="#ffffff"
     bordercolor="#000000"
     borderopacity="0.25"
     inkscape:showpageshadow="2"
     inkscape:pageopacity="0.0"
     inkscape:pagecheckerboard="0"
     inkscape:deskcolor="#d1d1d1"
     inkscape:zoom="2.6718171"
     inkscape:cx="44.538977"
     inkscape:cy="44.1647"
     inkscape:window-width="1536"
     inkscape:window-height="449"
     inkscape:window-x="178"
     inkscape:window-y="173"
     inkscape:window-maximized="0"
     inkscape:current-layer="g2" />
  <g
     id="g2">
    <rect
       height="88.329399"
       opacity="0"
       width="89.223701"
       x="0"
       y="0"
       id="rect1" />
    <path
       d="m 51.56,13.2909 16.6545,16.8599 c 2.682,2.7063 3.2612,4.7047 3.2612,8.948 v 28.9441 c 0,6.7014 -3.5221,10.2812 -10.1991,10.2812 H 37.9624 c 1.1624,-1.8765 2.0092,-3.9587 2.4835,-6.169 h 20.214 c 3.1196,0 4.6546,-1.607 4.6546,-4.6135 V 40.0614 H 48.4179 c -4.5394,0 -6.7686,-2.1792 -6.7686,-6.7686 V 16.1987 H 28.1976 c -3.1197,0 -4.6468,1.657 -4.6468,4.6135 v 26.8617 c -1.0003,-0.1808 -2.0315,-0.2616 -3.0801,-0.2616 -1.0513,0 -2.0856,0.0814 -3.0889,0.2633 V 20.3109 c 0,-6.7181 3.5554,-10.2812 10.199,-10.2812 H 42.916 c 3.9225,0 6.0608,0.628 8.644,3.2612 z m -4.5992,19.4682 c 0,1.3993 0.6081,1.9908 1.9831,1.9908 H 64.5764 L 46.9608,16.929 Z"
       fill="#dfdedf"
       id="path1"
       style="fill:#dfdedf;fill-opacity:0.75" />
    <path
       d="m 36.6304,67.8753 c 0,8.82 -7.3652,16.1596 -16.1597,16.1596 -8.8688,0 -16.17627,-7.2819 -16.17627,-16.1596 0,-8.8611 7.30747,-16.1686 16.17627,-16.1686 8.8522,0 16.1597,7.3075 16.1597,16.1686 z m -18.3068,-8.171 v 6.0316 h -6.056 c -1.2827,0 -2.1471,0.8389 -2.1471,2.1471 0,1.2916 0.8799,2.1227 2.1471,2.1227 h 6.056 v 6.0793 c 0,1.2595 0.8389,2.1316 2.1471,2.1316 1.2916,0 2.1227,-0.8721 2.1227,-2.1316 v -6.0793 h 6.0716 c 1.2594,0 2.1149,-0.8311 2.1149,-2.1227 0,-1.3082 -0.8555,-2.1471 -2.1149,-2.1471 h -6.0716 v -6.0316 c 0,-1.2827 -0.8311,-2.1393 -2.1227,-2.1393 -1.3082,0 -2.1471,0.8799 -2.1471,2.1393 z"
       fill="#dfdedf"
       id="path2"
       style="fill:#dfdedf;fill-opacity:0.75" />
  </g>
</svg>
