<?xml version="1.0" encoding="UTF-8" standalone="no"?>
<!--Generator: Apple Native CoreSVG 232.5-->

<svg
   version="1.1"
   width="20"
   height="20.9473"
   id="svg1"
   sodipodi:docname="wallet-solid.svg"
   viewBox="-2 0 20 20.9473"
   inkscape:version="1.3 (0e150ed, 2023-07-21)"
   xmlns:inkscape="http://www.inkscape.org/namespaces/inkscape"
   xmlns:sodipodi="http://sodipodi.sourceforge.net/DTD/sodipodi-0.dtd"
   xmlns="http://www.w3.org/2000/svg"
   xmlns:svg="http://www.w3.org/2000/svg">
  <defs
     id="defs1" />
  <sodipodi:namedview
     id="namedview1"
     pagecolor="#ffffff"
     bordercolor="#000000"
     borderopacity="0.25"
     inkscape:showpageshadow="2"
     inkscape:pageopacity="0.0"
     inkscape:pagecheckerboard="0"
     inkscape:deskcolor="#d1d1d1"
     inkscape:zoom="11.266368"
     inkscape:cx="8.387796"
     inkscape:cy="10.42927"
     inkscape:window-width="1536"
     inkscape:window-height="650"
     inkscape:window-x="0"
     inkscape:window-y="25"
     inkscape:window-maximized="0"
     inkscape:current-layer="g1" />
  <g
     id="g1">
    <rect
       height="20.9473"
       opacity="0"
       width="16.7871"
       x="0"
       y="0"
       id="rect1" />
    <path
       d="M 3.02734,20.9375 H 13.3984 c 2.0118,0 3.0274,-1.0254 3.0274,-3.0566 V 3.06641 C 16.4258,1.02539 15.4199,0 13.3984,0 H 10.498 C 10.166,0 9.95117,0.234375 9.95117,0.585938 9.95117,1.60156 9.24805,2.31445 8.21289,2.31445 7.17773,2.31445 6.46484,1.60156 6.46484,0.585938 6.46484,0.234375 6.25,0 5.91797,0 H 3.02734 C 1.00586,0 0,1.02539 0,3.06641 V 17.8809 c 0,2.0312 1.01562,3.0566 3.02734,3.0566 z m 0.07813,-1.5723 c -1.01563,0 -1.5332,-0.5468 -1.5332,-1.5136 V 3.0957 c 0,-0.97656 0.51757,-1.52343 1.5332,-1.52343 h 2.7832 L 4.98047,1.01562 C 5.15625,2.72461 6.42578,3.83789 8.21289,3.83789 10,3.83789 11.2695,2.72461 11.4551,1.01562 l -0.918,0.55665 h 2.7832 c 1.0156,0 1.5332,0.54687 1.5332,1.52343 v 14.7559 c 0,0.9668 -0.5176,1.5136 -1.5332,1.5136 z M 4.51172,7.27539 h 7.41208 c 0.3418,0 0.5957,-0.26367 0.5957,-0.61523 0,-0.33204 -0.2539,-0.59571 -0.5957,-0.59571 H 4.51172 c -0.35156,0 -0.60547,0.26367 -0.60547,0.59571 0,0.35156 0.25391,0.61523 0.60547,0.61523 z m 0,3.46681 h 3.50586 c 0.35156,0 0.60547,-0.2637 0.60547,-0.5957 0,-0.34181 -0.25391,-0.60548 -0.60547,-0.60548 H 4.51172 c -0.35156,0 -0.60547,0.26367 -0.60547,0.60548 0,0.332 0.25391,0.5957 0.60547,0.5957 z"
       fill="#dfdedf"
       fill-opacity="0.75"
       id="path1" />
  </g>
</svg>
