<?xml version="1.0" encoding="UTF-8" standalone="no"?>
<svg
   width="309.7868pt"
   height="316.97073pt"
   viewBox="0 0 309.78681 316.97073"
   version="1.1"
   id="svg250"
   sodipodi:docname="Figure_2.svg"
   inkscape:version="1.2.2 (732a01da63, 2022-12-09)"
   xmlns:inkscape="http://www.inkscape.org/namespaces/inkscape"
   xmlns:sodipodi="http://sodipodi.sourceforge.net/DTD/sodipodi-0.dtd"
   xmlns:xlink="http://www.w3.org/1999/xlink"
   xmlns="http://www.w3.org/2000/svg"
   xmlns:svg="http://www.w3.org/2000/svg"
   xmlns:rdf="http://www.w3.org/1999/02/22-rdf-syntax-ns#"
   xmlns:cc="http://creativecommons.org/ns#"
   xmlns:dc="http://purl.org/dc/elements/1.1/">
  <sodipodi:namedview
     id="namedview252"
     pagecolor="#ffffff"
     bordercolor="#000000"
     borderopacity="0.25"
     inkscape:showpageshadow="2"
     inkscape:pageopacity="0.0"
     inkscape:pagecheckerboard="0"
     inkscape:deskcolor="#d1d1d1"
     inkscape:document-units="pt"
     showgrid="false"
     inkscape:zoom="4.0972221"
     inkscape:cx="290.44068"
     inkscape:cy="216.48814"
     inkscape:window-width="2560"
     inkscape:window-height="1506"
     inkscape:window-x="-11"
     inkscape:window-y="-11"
     inkscape:window-maximized="1"
     inkscape:current-layer="svg250" />
  <metadata
     id="metadata2">
    <rdf:RDF>
      <cc:Work>
        <dc:type
           rdf:resource="http://purl.org/dc/dcmitype/StillImage" />
        <dc:date>2025-02-04T15:08:14.508585</dc:date>
        <dc:format>image/svg+xml</dc:format>
        <dc:creator>
          <cc:Agent>
            <dc:title>Matplotlib v3.7.5, https://matplotlib.org/</dc:title>
          </cc:Agent>
        </dc:creator>
      </cc:Work>
    </rdf:RDF>
  </metadata>
  <defs
     id="defs6">
    <style
       type="text/css"
       id="style4">*{stroke-linejoin: round; stroke-linecap: butt}</style>
  </defs>
  <g
     id="PolyCollection_1"
     transform="translate(-78.158687,-7.514813)">
    <path
       d="m 103.104,174.528 h 49.8074 l 0.004,1.04824 0.0105,1.04831 0.0175,1.04844 0.0245,1.04865 0.0315,1.04892 0.0386,1.04926 0.0456,1.04966 0.0527,1.05014 0.0598,1.05068 0.0669,1.05128 0.0741,1.05195 0.0813,1.0527 0.0885,1.05349 0.0957,1.05436 0.10303,1.05529 0.11036,1.05629 0.11774,1.05733 0.12518,1.05846 0.13266,1.05964 0.1402,1.06087 0.14781,1.06216 0.15547,1.06353 0.1632,1.06493 0.17099,1.06639 0.17886,1.06792 0.18681,1.06949 0.19483,1.07111 0.20293,1.07279 0.21112,1.07451 0.21939,1.07628 0.22776,1.0781 0.23622,1.07995 0.24478,1.08185 0.25343,1.08379 0.26221,1.08576 0.27107,1.08777 0.28005,1.08982 0.28915,1.09188 0.29836,1.09399 0.30769,1.09611 0.31716,1.09826 0.32674,1.10042 0.33645,1.10261 0.34631,1.1048 0.3563,1.107 0.36642,1.10922 0.62206,0.9465 1.18845,0.55571 1.18099,0.54055 1.17348,0.52576 1.16591,0.51133 1.15831,0.49725 1.15067,0.48352 1.14302,0.47012 1.13538,0.45706 1.12772,0.44433 1.12009,0.4319 1.11249,0.4198 1.10491,0.40798 1.09738,0.39648 1.08989,0.38526 1.08247,0.37432 1.0751,0.36365 1.0678,0.35326 1.06058,0.34311 1.05343,0.33323 1.04637,0.32359 1.03939,0.31419 1.03251,0.30501 1.02573,0.29608 1.01904,0.28734 1.01246,0.27884 1.00599,0.27053 0.99961,0.26242 0.99336,0.2545 0.98721,0.24678 0.98118,0.23924 0.97527,0.23187 0.96948,0.22467 0.9638,0.21763 0.95825,0.21076 0.95282,0.20404 0.94751,0.19746 0.94232,0.19104 0.93727,0.18475 0.93233,0.17858 0.92752,0.17257 0.92284,0.16665 0.91829,0.16088 0.91386,0.1552 0.90955,0.14965 0.90538,0.14419 0.90133,0.13885 0.89741,0.1336 0.89361,0.12844 0.88995,0.12337 0.8864,0.1184 0.88299,0.11351 0.8797,0.10869 0.87654,0.10394 0.87351,0.0993 0.87059,0.0947 0.86781,0.0901 0.86514,0.0857 0.86261,0.0813 0.8602,0.0769 0.85792,0.0726 0.85575,0.0684 0.8537,0.0642 0.8518,0.06 0.85,0.0559 0.84833,0.0518 0.84678,0.0478 0.84536,0.0437 0.84405,0.0397 0.84287,0.0358 0.84182,0.0319 0.84087,0.028 0.84006,0.0241 0.83936,0.0202 0.83879,0.0163 0.83833,0.0125 0.838,0.009 0.83779,0.005 0.8377,9.6e-4 0.83773,-0.003 0.83788,-0.007 0.83816,-0.0105 0.83854,-0.0144 0.83906,-0.0183 0.8397,-0.0221 0.84045,-0.026 0.84133,-0.0299 0.84232,-0.0338 0.84345,-0.0378 0.84469,-0.0417 0.84605,-0.0457 0.84754,-0.0498 0.84915,-0.0538 0.85089,-0.0579 0.85273,-0.0621 0.85472,-0.0663 0.85681,-0.0705 0.85904,-0.0748 0.86139,-0.0791 0.86386,-0.0835 0.86647,-0.0879 0.86918,-0.0924 0.87203,-0.097 0.87501,-0.1016 0.8781,-0.10631 0.88133,-0.11109 0.88469,-0.11594 0.88816,-0.12088 0.89176,-0.12589 0.89549,-0.13101 0.89936,-0.13621 0.90334,-0.14151 0.90745,-0.14691 0.91169,-0.15241 0.91605,-0.15802 0.66519,-0.66766 0.31447,-1.32264 0.30022,-1.29457 0.2867,-1.2672 0.27386,-1.24052 0.26165,-1.21452 0.25007,-1.18924 0.23906,-1.16462 0.2286,-1.14071 0.21866,-1.11747 0.20921,-1.09491 0.20023,-1.07299 0.19169,-1.05173 0.18357,-1.0311 0.17583,-1.01111 0.16847,-0.99172 0.16147,-0.97293 0.15479,-0.95471 0.14844,-0.93708 0.14237,-0.91999 0.13659,-0.90344 0.13109,-0.88742 0.12582,-0.87191 0.1208,-0.85689 0.11601,-0.84236 0.11143,-0.82829 0.10704,-0.81468 0.10287,-0.80151 0.0989,-0.78877 0.095,-0.77644 0.0914,-0.76452 0.0878,-0.75299 0.0845,-0.74184 0.0813,-0.73105 0.0781,-0.72063 0.0752,-0.71054 0.0723,-0.7008 0.0696,-0.69138 0.067,-0.68227 0.0644,-0.67348 0.062,-0.66498 0.0596,-0.65677 0.0574,-0.64883 0.0552,-0.64119 0.0531,-0.63379 0.0511,-0.62665 0.0491,-0.61977 0.0472,-0.61313 0.0454,-0.60672 0.0436,-0.60055 0.0419,-0.5946 0.0403,-0.58887 0.0387,-0.58334 0.0371,-0.57804 0.0356,-0.57292 0.0342,-0.56801 0.0327,-0.56329 0.0314,-0.55875 0.03,-0.55441 0.0287,-0.55023 0.0274,-0.54624 0.0262,-0.54241 0.025,-0.53876 0.0238,-0.53527 0.0227,-0.53193 0.0216,-0.52877 0.0205,-0.52574 0.0194,-0.52289 0.0183,-0.52017 0.0173,-0.5176 0.0163,-0.51518 0.0153,-0.5129 0.0143,-0.51076 0.0133,-0.50877 0.0124,-0.5069 0.0114,-0.50518 0.0105,-0.50358 0.01,-0.50212 0.009,-0.5008 0.008,-0.49959 0.007,-0.49853 0.006,-0.49758 0.005,-0.49678 0.004,-0.49608 0.003,-0.49552 0.003,-0.49508 0.002,-0.49477 8.6e-4,-0.49459 v -0.49452 l -8.6e-4,-0.49459 -0.002,-0.49477 -0.003,-0.49508 -0.003,-0.49552 -0.004,-0.49609 -0.005,-0.49677 -0.006,-0.49758 -0.007,-0.49853 -0.008,-0.49959 -0.009,-0.5008 -0.01,-0.50212 -0.0105,-0.50359 -0.0114,-0.50517 -0.0124,-0.5069 -0.0133,-0.50877 -0.0143,-0.51076 -0.0153,-0.5129 -0.0163,-0.51518 -0.0173,-0.51761 -0.0183,-0.52016 -0.0194,-0.52289 -0.0205,-0.52574 -0.0216,-0.52877 -0.0227,-0.53193 -0.0238,-0.53527 -0.025,-0.53876 -0.0262,-0.54241 -0.0274,-0.54624 -0.0287,-0.55023 -0.03,-0.55441 -0.0314,-0.55875 -0.0327,-0.56329 -0.0342,-0.56801 -0.0356,-0.57292 -0.0371,-0.57804 -0.0387,-0.58334 -0.0403,-0.58887 -0.0419,-0.5946 -0.0436,-0.60055 -0.0454,-0.60672 -0.0472,-0.61313 -0.0491,-0.61977 -0.0511,-0.62665 -0.0531,-0.63379 -0.0552,-0.64119 -0.0574,-0.64883 -0.0596,-0.65677 -0.062,-0.66498 -0.0644,-0.67348 -0.067,-0.68227 -0.0696,-0.69138 -0.0723,-0.7008 -0.0752,-0.71054 -0.0781,-0.72063 -0.0813,-0.73105 -0.0845,-0.74184 -0.0878,-0.75299 -0.0914,-0.76452 -0.095,-0.77644 -0.0989,-0.78877 -0.10287,-0.80151 -0.10704,-0.81468 -0.11143,-0.8283 -0.11601,-0.84235 -0.1208,-0.85689 -0.12582,-0.87191 -0.13109,-0.88742 -0.13659,-0.90344 -0.14237,-0.91999 -0.14844,-0.93708 -0.15479,-0.95471 -0.16147,-0.97293 -0.16847,-0.99172 -0.17583,-1.01111 -0.18357,-1.0311 -0.19169,-1.05173 -0.20023,-1.073 -0.20921,-1.0949 -0.21866,-1.11747 -0.2286,-1.14071 -0.23906,-1.16462 -0.25007,-1.18924 -0.26165,-1.21452 -0.27386,-1.24052 -0.2867,-1.2672 -0.30022,-1.29457 -0.31447,-1.32264 -0.66519,-0.66766 -0.91605,-0.15802 -0.91169,-0.15241 -0.90745,-0.14691 -0.90334,-0.14151 -0.89936,-0.13621 -0.89549,-0.13101 -0.89176,-0.12589 -0.88816,-0.12088 -0.88469,-0.11594 -0.88133,-0.11109 -0.8781,-0.10631 -0.87501,-0.1016 -0.87203,-0.097 -0.86918,-0.0924 -0.86647,-0.0879 -0.86386,-0.0835 -0.86139,-0.0791 -0.85904,-0.0748 -0.85681,-0.0705 -0.85472,-0.0663 -0.85273,-0.0621 -0.85089,-0.0579 -0.84915,-0.0538 -0.84754,-0.0498 -0.84605,-0.0457 -0.84469,-0.0417 -0.84345,-0.0378 -0.84232,-0.0338 -0.84133,-0.0299 -0.84045,-0.026 -0.8397,-0.0221 -0.83906,-0.0182 -0.83854,-0.0144 -0.83816,-0.0106 -0.83788,-0.007 -0.83773,-0.003 -0.8377,9.6e-4 -0.83779,0.005 -0.838,0.009 -0.83833,0.0125 -0.83879,0.0163 -0.83936,0.0202 -0.84006,0.0241 -0.84087,0.0279 -0.84182,0.0319 -0.84287,0.0358 -0.84405,0.0397 -0.84536,0.0437 -0.84678,0.0478 -0.84833,0.0518 -0.85,0.0559 -0.8518,0.06 -0.8537,0.0642 -0.85575,0.0684 -0.85792,0.0726 -0.8602,0.0769 -0.86261,0.0813 -0.86514,0.0857 -0.86781,0.0901 -0.87059,0.0947 -0.87351,0.0993 -0.87654,0.10394 -0.8797,0.10869 -0.88299,0.11351 -0.8864,0.1184 -0.88995,0.12337 -0.89361,0.12844 -0.89741,0.1336 -0.90133,0.13885 -0.90538,0.14419 -0.90955,0.14965 -0.91386,0.1552 -0.91829,0.16088 -0.92284,0.16665 -0.92752,0.17257 -0.93233,0.17858 -0.93727,0.18475 -0.94232,0.19104 -0.94751,0.19746 -0.95282,0.20404 -0.95825,0.21076 -0.9638,0.21763 -0.96948,0.22467 -0.97527,0.23187 -0.98118,0.23924 -0.98721,0.24678 -0.99336,0.2545 -0.99961,0.26242 -1.00599,0.27053 -1.01246,0.27884 -1.01904,0.28734 -1.02573,0.29608 -1.03251,0.30501 -1.03939,0.31419 -1.04637,0.32359 -1.05343,0.33323 -1.06058,0.34311 -1.0678,0.35326 -1.0751,0.36365 -1.08247,0.37432 -1.08989,0.38525 -1.09738,0.39649 -1.10491,0.40798 -1.11249,0.4198 -1.12009,0.4319 -1.12772,0.44433 -1.13538,0.45706 -1.14302,0.47012 -1.15067,0.48352 -1.15831,0.49725 -1.16591,0.51133 -1.17348,0.52576 -1.18099,0.54055 -1.18845,0.55571 -0.62206,0.9465 -0.36642,1.10922 -0.3563,1.107 -0.34631,1.1048 -0.33645,1.10261 -0.32674,1.10042 -0.31716,1.09826 -0.30769,1.09611 -0.29836,1.09399 -0.28915,1.09188 -0.28005,1.08982 -0.27107,1.08777 -0.26221,1.08576 -0.25343,1.08379 -0.24478,1.08185 -0.23622,1.07995 -0.22776,1.0781 -0.21939,1.07628 -0.21112,1.07451 -0.20293,1.07279 -0.19483,1.07111 -0.18681,1.06949 -0.17886,1.06792 -0.17099,1.06639 -0.1632,1.06493 -0.15547,1.06353 -0.14781,1.06216 -0.1402,1.06087 -0.13266,1.05964 -0.12518,1.05845 -0.11774,1.05734 -0.11036,1.05629 -0.10303,1.05529 -0.0957,1.05436 -0.0885,1.05349 -0.0813,1.05269 -0.0741,1.05196 -0.0669,1.05128 -0.0598,1.05068 -0.0527,1.05014 -0.0456,1.04966 -0.0386,1.04926 -0.0315,1.04892 -0.0245,1.04865 -0.0175,1.04844 -0.0105,1.04831 -0.004,1.04824 H 103.104 v 0 l 0.0105,-1.67534 0.0316,-1.67507 0.0527,-1.67454 0.0738,-1.67374 0.0949,-1.67269 0.11593,-1.67135 0.13697,-1.66976 0.15798,-1.66791 0.17897,-1.66578 0.19993,-1.6634 0.22086,-1.66075 0.24175,-1.65784 0.26261,-1.65466 0.28342,-1.65122 0.30418,-1.64753 0.32491,-1.64356 0.34558,-1.63934 0.36619,-1.63487 0.38675,-1.63012 0.40724,-1.62512 0.42767,-1.61986 0.44804,-1.61436 0.46832,-1.60858 0.48854,-1.60256 0.50868,-1.59628 0.52875,-1.58975 0.54871,-1.58296 0.5686,-1.57593 0.5884,-1.56865 0.60811,-1.56111 0.62771,-1.55333 0.64723,-1.54531 0.66662,-1.53703 0.68593,-1.52852 0.70512,-1.51976 0.7242,-1.51076 0.74317,-1.50153 0.76201,-1.49204 0.78074,-1.48234 0.79934,-1.47239 0.81781,-1.4622 0.83617,-1.45179 0.85437,-1.44115 0.87246,-1.43028 0.89039,-1.41918 0.90819,-1.40785 0.92585,-1.39631 0.94335,-1.384536 0.96072,-1.372552 0.97792,-1.360346 0.99497,-1.347925 1.01186,-1.33529 1.0286,-1.322444 1.04516,-1.309387 1.06157,-1.296124 1.0778,-1.282655 1.09387,-1.268982 1.10977,-1.255109 1.12547,-1.241036 1.14102,-1.226766 1.15637,-1.212302 1.17154,-1.197646 1.18653,-1.1828 1.20132,-1.167766 1.21594,-1.152548 1.23035,-1.137146 1.24458,-1.121564 1.25859,-1.105805 1.27242,-1.08987 1.28604,-1.073762 1.29946,-1.057484 1.31267,-1.041038 1.32568,-1.024428 1.33847,-1.007655 1.35105,-0.990722 1.36341,-0.973632 1.37557,-0.956388 1.3875,-0.938991 1.39922,-0.921447 1.41071,-0.903757 1.42197,-0.885922 1.43301,-0.867947 1.44384,-0.849835 1.45441,-0.831589 1.46477,-0.813209 1.4749,-0.794702 1.48478,-0.776068 1.49444,-0.757311 1.50386,-0.738434 1.51303,-0.719441 1.52198,-0.700332 1.53067,-0.681114 1.53912,-0.661786 1.54734,-0.642355 1.5553,-0.62282 1.56302,-0.603189 1.57049,-0.58346 1.57771,-0.563639 1.58469,-0.54373 1.5914,-0.523733 1.59787,-0.503654 1.60409,-0.483495 1.61005,-0.463259 1.61576,-0.44295 1.6212,-0.42257 1.6264,-0.402124 1.63133,-0.381614 1.636,-0.361043 1.64042,-0.340415 1.64458,-0.319734 1.64848,-0.299 1.6521,-0.278221 1.65548,-0.257397 1.65859,-0.236531 1.66144,-0.21563 1.66402,-0.194692 1.66634,-0.173726 1.66839,-0.15273 1.67019,-0.131711 1.67171,-0.110671 1.67297,-0.08961 1.67397,-0.06854 1.6747,-0.04746 1.67516,-0.02637 1.67536,-0.0053 1.6753,0.01582 1.67496,0.03691 1.67437,0.058 1.6735,0.07908 1.67238,0.100144 1.67098,0.121193 1.66932,0.142223 1.6674,0.163231 1.66522,0.184213 1.66276,0.205165 1.66004,0.226085 1.65707,0.246969 1.65383,0.267814 1.65032,0.288616 1.64656,0.309374 1.64253,0.33008 1.63825,0.350737 1.6337,0.371335 1.62889,0.391877 1.62384,0.412355 1.61851,0.432769 1.61293,0.453114 1.6071,0.473386 1.60101,0.493584 1.59468,0.513704 1.58807,0.533742 1.58123,0.553695 1.57413,0.573562 1.56679,0.593335 1.55919,0.613017 1.55135,0.6326 1.54326,0.652084 1.53493,0.671463 1.52635,0.690737 1.51754,0.7099 1.50847,0.728952 1.49918,0.747888 1.48964,0.766704 1.47987,0.785401 1.46986,0.803971 1.45962,0.822415 1.44916,0.840729 1.43845,0.858908 1.42752,0.876952 1.41637,0.894857 1.40499,0.91262 1.39338,0.930238 1.38157,0.947708 1.36952,0.965029 1.35726,0.982197 1.34478,0.999208 1.3321,1.016061 1.3192,1.032754 1.30609,1.049282 1.29278,1.065644 1.27925,1.081838 1.26554,1.097859 1.25161,1.113706 1.23748,1.129378 1.22317,1.144869 1.20866,1.16018 1.19395,1.175306 1.17906,1.190247 1.16398,1.204998 1.14871,1.219558 1.13327,1.233926 1.11764,1.248097 1.10184,1.26207 1.08586,1.275844 1.0697,1.289415 1.05339,1.302781 1.0369,1.315942 1.02025,1.328894 1.00344,1.341634 0.98646,1.354162 0.96934,1.366476 0.95205,1.378572 0.93462,1.390453 0.91704,1.40211 0.89931,1.41354 0.88144,1.42476 0.86343,1.43574 0.84529,1.4465 0.82701,1.45702 0.80859,1.46733 0.79005,1.47739 0.7714,1.48722 0.7526,1.49681 0.7337,1.50618 0.71467,1.51529 0.69554,1.52417 0.67629,1.53281 0.65694,1.5412 0.63748,1.54934 0.61792,1.55726 0.59826,1.56491 0.57852,1.57232 0.55867,1.57948 0.53874,1.58639 0.51872,1.59304 0.49862,1.59945 0.47844,1.60561 0.45819,1.6115 0.43786,1.61714 0.41747,1.62252 0.397,1.62766 0.37648,1.63252 0.35589,1.63713 0.33525,1.64149 0.31455,1.64558 0.29381,1.6494 0.27302,1.65298 0.25218,1.65628 0.23132,1.65933 0.21039,1.6621 0.18946,1.66463 0.16848,1.66687 0.14747,1.66887 0.12646,1.67059 0.1054,1.67206 0.0844,1.67324 0.0633,1.67418 0.0422,1.67484 0.0211,1.67523 v 1.67538 l -0.0211,1.67523 -0.0422,1.67484 -0.0633,1.67418 -0.0844,1.67324 -0.1054,1.67206 -0.12646,1.67059 -0.14747,1.66886 -0.16848,1.66688 -0.18946,1.66463 -0.21039,1.6621 -0.23132,1.65933 -0.25218,1.65628 -0.27302,1.65298 -0.29381,1.6494 -0.31455,1.64558 -0.33525,1.64149 -0.35589,1.63713 -0.37648,1.63252 -0.397,1.62766 -0.41747,1.62252 -0.43786,1.61714 -0.45819,1.6115 -0.47844,1.60561 -0.49862,1.59945 -0.51872,1.59304 -0.53874,1.58639 -0.55867,1.57948 -0.57852,1.57232 -0.59826,1.56491 -0.61792,1.55725 -0.63748,1.54935 -0.65694,1.5412 -0.67629,1.53281 -0.69554,1.52417 -0.71467,1.51529 -0.7337,1.50618 -0.7526,1.49681 -0.7714,1.48722 -0.79005,1.47739 -0.80859,1.46733 -0.82701,1.45702 -0.84529,1.4465 -0.86343,1.43574 -0.88144,1.42476 -0.89931,1.41354 -0.91704,1.40211 -0.93462,1.39045 -0.95205,1.37857 -0.96934,1.36648 -0.98646,1.35416 -1.00344,1.34164 -1.02025,1.32889 -1.0369,1.31594 -1.05339,1.30278 -1.0697,1.28942 -1.08586,1.27584 -1.10184,1.26207 -1.11764,1.2481 -1.13327,1.23392 -1.14871,1.21956 -1.16398,1.205 -1.17906,1.19025 -1.19395,1.1753 -1.20866,1.16018 -1.22317,1.14487 -1.23748,1.12938 -1.25161,1.11371 -1.26554,1.09786 -1.27925,1.08183 -1.29278,1.06565 -1.30609,1.04928 -1.3192,1.03275 -1.3321,1.01607 -1.34478,0.9992 -1.35726,0.9822 -1.36952,0.96503 -1.38157,0.94771 -1.39338,0.93023 -1.40499,0.91262 -1.41637,0.89486 -1.42752,0.87695 -1.43845,0.85891 -1.44916,0.84073 -1.45962,0.82242 -1.46986,0.80397 -1.47987,0.7854 -1.48964,0.7667 -1.49918,0.74789 -1.50847,0.72895 -1.51754,0.7099 -1.52635,0.69074 -1.53493,0.67146 -1.54326,0.65209 -1.55135,0.6326 -1.55919,0.61301 -1.56679,0.59334 -1.57413,0.57356 -1.58123,0.5537 -1.58807,0.53374 -1.59468,0.5137 -1.60101,0.49358 -1.6071,0.47339 -1.61293,0.45312 -1.61851,0.43276 -1.62384,0.41236 -1.62889,0.39188 -1.6337,0.37133 -1.63825,0.35074 -1.64253,0.33008 -1.64656,0.30937 -1.65032,0.28862 -1.65383,0.26781 -1.65707,0.24697 -1.66004,0.22609 -1.66276,0.20516 -1.66522,0.18421 -1.6674,0.16323 -1.66932,0.14223 -1.67098,0.12119 -1.67238,0.10014 -1.6735,0.0791 -1.67437,0.058 -1.67496,0.0369 -1.6753,0.0158 -1.67536,-0.005 -1.67516,-0.0264 -1.6747,-0.0475 -1.67397,-0.0685 -1.67297,-0.0896 -1.67171,-0.11068 -1.67019,-0.13171 -1.66839,-0.15273 -1.66634,-0.17372 -1.66402,-0.19469 -1.66144,-0.21563 -1.65859,-0.23653 -1.65548,-0.2574 -1.6521,-0.27822 -1.64848,-0.299 -1.64458,-0.31974 -1.64042,-0.34041 -1.636,-0.36105 -1.63133,-0.38161 -1.6264,-0.40212 -1.6212,-0.42257 -1.61576,-0.44295 -1.61005,-0.46326 -1.60409,-0.4835 -1.59787,-0.50365 -1.5914,-0.52373 -1.58469,-0.54373 -1.57771,-0.56364 -1.57049,-0.58346 -1.56302,-0.60319 -1.5553,-0.62282 -1.54734,-0.64236 -1.53912,-0.66178 -1.53067,-0.68112 -1.52198,-0.70033 -1.51303,-0.71944 -1.50386,-0.73843 -1.49444,-0.75732 -1.48478,-0.77606 -1.4749,-0.7947 -1.46477,-0.81321 -1.45441,-0.83159 -1.44384,-0.84984 -1.43301,-0.86795 -1.42197,-0.88592 -1.41071,-0.90375 -1.39922,-0.92145 -1.3875,-0.93899 -1.37557,-0.95639 -1.36341,-0.97363 -1.35105,-0.99072 -1.33847,-1.00766 -1.32568,-1.02443 -1.31267,-1.04104 -1.29946,-1.05748 -1.28604,-1.07376 -1.27242,-1.08987 -1.25859,-1.10581 -1.24458,-1.12156 -1.23035,-1.13715 -1.21594,-1.15254 -1.20132,-1.16777 -1.18653,-1.1828 -1.17154,-1.19765 -1.15637,-1.2123 -1.14102,-1.22676 -1.12547,-1.24104 -1.10977,-1.25511 -1.09387,-1.26898 -1.0778,-1.28266 -1.06157,-1.29612 -1.04516,-1.30939 -1.0286,-1.32244 -1.01186,-1.33529 -0.99497,-1.34793 -0.97792,-1.36034 -0.96072,-1.37255 -0.94335,-1.38454 -0.92585,-1.39631 -0.90819,-1.40785 -0.89039,-1.41918 -0.87246,-1.43028 -0.85437,-1.44115 -0.83617,-1.45179 -0.81781,-1.4622 -0.79934,-1.47239 -0.78074,-1.48234 -0.76201,-1.49204 -0.74317,-1.50153 -0.7242,-1.51076 -0.70512,-1.51976 -0.68593,-1.52852 -0.66662,-1.53703 -0.64723,-1.54531 -0.62771,-1.55333 -0.60811,-1.56111 -0.5884,-1.56865 -0.5686,-1.57593 -0.54871,-1.58297 -0.52875,-1.58974 -0.50868,-1.59628 -0.48854,-1.60256 -0.46832,-1.60859 -0.44804,-1.61435 -0.42767,-1.61986 -0.40724,-1.62513 -0.38675,-1.63012 -0.36619,-1.63486 -0.34558,-1.63934 -0.32491,-1.64356 -0.30418,-1.64753 -0.28342,-1.65122 -0.26261,-1.65466 -0.24175,-1.65784 -0.22086,-1.66075 -0.19993,-1.6634 -0.17897,-1.66578 -0.15798,-1.66791 -0.13697,-1.66976 -0.11593,-1.67135 -0.0949,-1.67269 -0.0738,-1.67374 -0.0527,-1.67454 -0.0316,-1.67507 z"
       clip-path="url(#pb3dfcf03b5)"
       style="fill:#1f77b4;fill-opacity:0.2"
       id="path14" />
  </g>
  <g
     id="line2d_1"
     transform="translate(-78.158687,-7.514813)"
     style="opacity:0.5">
    <path
       d="M 236.16,174.528 H 369.216"
       clip-path="url(#pb3dfcf03b5)"
       style="fill:none;stroke:#b0b0b0;stroke-width:0.8;stroke-linecap:square"
       id="path17" />
  </g>
  <g
     id="text_1"
     style="fill:#666666"
     transform="translate(-78.158687,-7.514813)">
    <!-- 0° -->
    <g
       transform="matrix(0.1,0,0,-0.1,377.53475,177.28737)"
       id="g28"
       style="fill:#666666">
      <defs
         id="defs22">
        <path
           id="DejaVuSans-30"
           d="m 2034,4250 q -487,0 -733,-480 -245,-479 -245,-1442 0,-959 245,-1439 246,-480 733,-480 491,0 736,480 246,480 246,1439 0,963 -246,1442 -245,480 -736,480 z m 0,500 q 785,0 1199,-621 414,-620 414,-1801 0,-1178 -414,-1799 -414,-620 -1199,-620 -784,0 -1198,620 -414,621 -414,1799 0,1181 414,1801 414,621 1198,621 z"
           transform="scale(0.015625)" />
        <path
           id="DejaVuSans-b0"
           d="m 1600,4347 q -250,0 -422,-174 -172,-173 -172,-423 0,-247 172,-417 172,-170 422,-170 250,0 422,170 172,170 172,417 0,247 -174,422 -173,175 -420,175 z m 0,403 q 200,0 384,-77 185,-76 319,-220 144,-140 216,-319 72,-178 72,-384 0,-412 -289,-698 -289,-286 -708,-286 -422,0 -704,281 -281,281 -281,703 0,419 287,709 288,291 704,291 z"
           transform="scale(0.015625)" />
      </defs>
      <use
         xlink:href="#DejaVuSans-30"
         id="use24"
         style="fill:#666666" />
      <use
         xlink:href="#DejaVuSans-b0"
         x="63.623047"
         id="use26"
         style="fill:#666666" />
    </g>
  </g>
  <g
     id="line2d_2"
     transform="translate(-78.158687,-7.514813)"
     style="opacity:0.5">
    <path
       d="M 236.16,174.528 330.2448,80.4432"
       clip-path="url(#pb3dfcf03b5)"
       style="fill:none;stroke:#b0b0b0;stroke-width:0.8;stroke-linecap:square"
       id="path32" />
  </g>
  <g
     id="text_2"
     style="fill:#666666"
     transform="translate(-78.158687,-7.514813)">
    <!-- 45° -->
    <g
       transform="matrix(0.1,0,0,-0.1,331.28179,73.30308)"
       id="g45"
       style="fill:#666666">
      <defs
         id="defs37">
        <path
           id="DejaVuSans-34"
           d="M 2419,4116 825,1625 h 1594 z m -166,550 h 794 V 1625 h 666 V 1100 H 3047 V 0 H 2419 V 1100 H 313 v 609 z"
           transform="scale(0.015625)" />
        <path
           id="DejaVuSans-35"
           d="M 691,4666 H 3169 V 4134 H 1269 V 2991 q 137,47 274,70 138,23 276,23 781,0 1237,-428 457,-428 457,-1159 Q 3513,744 3044,326 2575,-91 1722,-91 1428,-91 1123,-41 819,9 494,109 v 635 q 281,-153 581,-228 300,-75 634,-75 541,0 856,284 316,284 316,772 0,487 -316,771 -315,285 -856,285 -253,0 -505,-56 -251,-56 -513,-175 z"
           transform="scale(0.015625)" />
      </defs>
      <use
         xlink:href="#DejaVuSans-34"
         id="use39"
         style="fill:#666666" />
      <use
         xlink:href="#DejaVuSans-35"
         x="63.623047"
         id="use41"
         style="fill:#666666" />
      <use
         xlink:href="#DejaVuSans-b0"
         x="127.24609"
         id="use43"
         style="fill:#666666" />
    </g>
  </g>
  <g
     id="line2d_3"
     transform="translate(-78.158687,-7.514813)"
     style="opacity:0.5">
    <path
       d="M 236.16,174.528 V 41.472"
       clip-path="url(#pb3dfcf03b5)"
       style="fill:none;stroke:#b0b0b0;stroke-width:0.8;stroke-linecap:square"
       id="path49" />
  </g>
  <g
     id="text_3"
     style="fill:#666666"
     transform="translate(-78.158687,-7.514813)">
    <!-- 90° -->
    <g
       transform="matrix(0.1,0,0,-0.1,227.2975,30.231375)"
       id="g61"
       style="fill:#666666">
      <defs
         id="defs53">
        <path
           id="DejaVuSans-39"
           d="m 703,97 v 575 q 238,-113 481,-172 244,-59 479,-59 625,0 954,420 330,420 377,1277 -181,-269 -460,-413 -278,-144 -615,-144 -700,0 -1108,423 -408,424 -408,1159 0,718 425,1152 425,435 1131,435 810,0 1236,-621 427,-620 427,-1801 Q 3622,1225 3098,567 2575,-91 1691,-91 1453,-91 1209,-44 966,3 703,97 Z m 1256,1978 q 425,0 673,290 249,291 249,798 0,503 -249,795 -248,292 -673,292 -425,0 -673,-292 -248,-292 -248,-795 0,-507 248,-798 248,-290 673,-290 z"
           transform="scale(0.015625)" />
      </defs>
      <use
         xlink:href="#DejaVuSans-39"
         id="use55"
         style="fill:#666666" />
      <use
         xlink:href="#DejaVuSans-30"
         x="63.623047"
         id="use57"
         style="fill:#666666" />
      <use
         xlink:href="#DejaVuSans-b0"
         x="127.24609"
         id="use59"
         style="fill:#666666" />
    </g>
  </g>
  <g
     id="line2d_4"
     transform="translate(-78.158687,-7.514813)"
     style="opacity:0.5">
    <path
       d="M 236.16,174.528 142.0752,80.4432"
       clip-path="url(#pb3dfcf03b5)"
       style="fill:none;stroke:#b0b0b0;stroke-width:0.8;stroke-linecap:square"
       id="path65" />
  </g>
  <g
     id="text_4"
     style="fill:#666666"
     transform="translate(-78.158687,-7.514813)">
    <!-- 135° -->
    <g
       transform="matrix(0.1,0,0,-0.1,120.13196,73.30308)"
       id="g80"
       style="fill:#666666">
      <defs
         id="defs70">
        <path
           id="DejaVuSans-31"
           d="M 794,531 H 1825 V 4091 L 703,3866 v 575 l 1116,225 h 631 V 531 H 3481 V 0 H 794 Z"
           transform="scale(0.015625)" />
        <path
           id="DejaVuSans-33"
           d="m 2597,2516 q 453,-97 707,-404 255,-306 255,-756 0,-690 -475,-1069 -475,-378 -1350,-378 -293,0 -604,58 -311,58 -642,174 v 609 q 262,-153 574,-231 313,-78 654,-78 593,0 904,234 311,234 311,681 0,413 -289,645 -289,233 -804,233 h -544 v 519 h 569 q 465,0 712,186 247,186 247,536 0,359 -255,551 -254,193 -729,193 -260,0 -557,-57 -297,-56 -653,-174 v 562 q 360,100 674,150 314,50 592,50 719,0 1137,-327 419,-326 419,-882 0,-388 -222,-655 -222,-267 -631,-370 z"
           transform="scale(0.015625)" />
      </defs>
      <use
         xlink:href="#DejaVuSans-31"
         id="use72"
         style="fill:#666666" />
      <use
         xlink:href="#DejaVuSans-33"
         x="63.623047"
         id="use74"
         style="fill:#666666" />
      <use
         xlink:href="#DejaVuSans-35"
         x="127.24609"
         id="use76"
         style="fill:#666666" />
      <use
         xlink:href="#DejaVuSans-b0"
         x="190.86914"
         id="use78"
         style="fill:#666666" />
    </g>
  </g>
  <g
     id="line2d_5"
     transform="translate(-78.158687,-7.514813)"
     style="opacity:0.5">
    <path
       d="M 236.16,174.528 H 103.104"
       clip-path="url(#pb3dfcf03b5)"
       style="fill:none;stroke:#b0b0b0;stroke-width:0.8;stroke-linecap:square"
       id="path84" />
  </g>
  <g
     id="text_5"
     style="fill:#666666"
     transform="translate(-78.158687,-7.514813)">
    <!-- 180° -->
    <g
       transform="matrix(0.1,0,0,-0.1,77.06025,177.28737)"
       id="g98"
       style="fill:#666666">
      <defs
         id="defs88">
        <path
           id="DejaVuSans-38"
           d="m 2034,2216 q -450,0 -708,-241 -257,-241 -257,-662 0,-422 257,-663 258,-241 708,-241 450,0 709,242 260,243 260,662 0,421 -258,662 -257,241 -711,241 z m -631,268 q -406,100 -633,378 -226,279 -226,679 0,559 398,884 399,325 1092,325 697,0 1094,-325 397,-325 397,-884 0,-400 -227,-679 -226,-278 -629,-378 456,-106 710,-416 255,-309 255,-755 Q 3634,634 3220,271 2806,-91 2034,-91 1263,-91 848,271 434,634 434,1313 q 0,446 256,755 257,310 713,416 z m -231,997 q 0,-362 226,-565 227,-203 636,-203 407,0 636,203 230,203 230,565 0,363 -230,566 -229,203 -636,203 -409,0 -636,-203 -226,-203 -226,-566 z"
           transform="scale(0.015625)" />
      </defs>
      <use
         xlink:href="#DejaVuSans-31"
         id="use90"
         style="fill:#666666" />
      <use
         xlink:href="#DejaVuSans-38"
         x="63.623047"
         id="use92"
         style="fill:#666666" />
      <use
         xlink:href="#DejaVuSans-30"
         x="127.24609"
         id="use94"
         style="fill:#666666" />
      <use
         xlink:href="#DejaVuSans-b0"
         x="190.86914"
         id="use96"
         style="fill:#666666" />
    </g>
  </g>
  <g
     id="line2d_6"
     transform="translate(-78.158687,-7.514813)"
     style="opacity:0.5">
    <path
       d="m 236.16,174.528 -94.0848,94.0848"
       clip-path="url(#pb3dfcf03b5)"
       style="fill:none;stroke:#b0b0b0;stroke-width:0.8;stroke-linecap:square"
       id="path102" />
  </g>
  <g
     id="text_6"
     style="fill:#666666"
     transform="translate(-78.158687,-7.514813)">
    <!-- 225° -->
    <g
       transform="matrix(0.1,0,0,-0.1,120.13196,281.27167)"
       id="g116"
       style="fill:#666666">
      <defs
         id="defs106">
        <path
           id="DejaVuSans-32"
           d="M 1228,531 H 3431 V 0 H 469 v 531 q 359,372 979,998 621,627 780,809 303,340 423,576 121,236 121,464 0,372 -261,606 -261,235 -680,235 -297,0 -627,-103 -329,-103 -704,-313 v 638 q 381,153 712,231 332,78 607,78 725,0 1156,-363 431,-362 431,-968 0,-288 -108,-546 -107,-257 -392,-607 -78,-91 -497,-524 Q 1991,1309 1228,531 Z"
           transform="scale(0.015625)" />
      </defs>
      <use
         xlink:href="#DejaVuSans-32"
         id="use108"
         style="fill:#666666" />
      <use
         xlink:href="#DejaVuSans-32"
         x="63.623047"
         id="use110"
         style="fill:#666666" />
      <use
         xlink:href="#DejaVuSans-35"
         x="127.24609"
         id="use112"
         style="fill:#666666" />
      <use
         xlink:href="#DejaVuSans-b0"
         x="190.86914"
         id="use114"
         style="fill:#666666" />
    </g>
  </g>
  <g
     id="line2d_7"
     transform="translate(-78.158687,-7.514813)"
     style="opacity:0.5">
    <path
       d="M 236.16,174.528 V 307.584"
       clip-path="url(#pb3dfcf03b5)"
       style="fill:none;stroke:#b0b0b0;stroke-width:0.8;stroke-linecap:square"
       id="path120" />
  </g>
  <g
     id="text_7"
     style="fill:#666666"
     transform="translate(-78.158687,-7.514813)">
    <!-- 270° -->
    <g
       transform="matrix(0.1,0,0,-0.1,224.11625,324.34337)"
       id="g134"
       style="fill:#666666">
      <defs
         id="defs124">
        <path
           id="DejaVuSans-37"
           d="M 525,4666 H 3525 V 4397 L 1831,0 H 1172 L 2766,4134 H 525 Z"
           transform="scale(0.015625)" />
      </defs>
      <use
         xlink:href="#DejaVuSans-32"
         id="use126"
         style="fill:#666666" />
      <use
         xlink:href="#DejaVuSans-37"
         x="63.623047"
         id="use128"
         style="fill:#666666" />
      <use
         xlink:href="#DejaVuSans-30"
         x="127.24609"
         id="use130"
         style="fill:#666666" />
      <use
         xlink:href="#DejaVuSans-b0"
         x="190.86914"
         id="use132"
         style="fill:#666666" />
    </g>
  </g>
  <g
     id="line2d_8"
     transform="translate(-78.158687,-7.514813)"
     style="opacity:0.5">
    <path
       d="m 236.16,174.528 94.0848,94.0848"
       clip-path="url(#pb3dfcf03b5)"
       style="fill:none;stroke:#b0b0b0;stroke-width:0.8;stroke-linecap:square"
       id="path138" />
  </g>
  <g
     id="text_8"
     style="fill:#666666"
     transform="translate(-78.158687,-7.514813)">
    <!-- 315° -->
    <g
       transform="matrix(0.1,0,0,-0.1,328.10054,281.27167)"
       id="g149"
       style="fill:#666666">
      <use
         xlink:href="#DejaVuSans-33"
         id="use141"
         style="fill:#666666" />
      <use
         xlink:href="#DejaVuSans-31"
         x="63.623047"
         id="use143"
         style="fill:#666666" />
      <use
         xlink:href="#DejaVuSans-35"
         x="127.24609"
         id="use145"
         style="fill:#666666" />
      <use
         xlink:href="#DejaVuSans-b0"
         x="190.86914"
         id="use147"
         style="fill:#666666" />
    </g>
  </g>
  <g
     id="matplotlib.axis_2"
     transform="translate(-78.158687,-7.514813)"
     style="opacity:0.5">
    <g
       id="ytick_1">
      <g
         id="line2d_9">
        <path
           d="m 253.10122,174.528 c 0,-2.2247 -0.43822,-4.42777 -1.28958,-6.48312 -0.85135,-2.05536 -2.09929,-3.92303 -3.67239,-5.49613 -1.5731,-1.5731 -3.44077,-2.82104 -5.49613,-3.67239 -2.05535,-0.85136 -4.25842,-1.28958 -6.48312,-1.28958 -2.2247,0 -4.42777,0.43822 -6.48312,1.28958 -2.05536,0.85135 -3.92303,2.09929 -5.49613,3.67239 -1.5731,1.5731 -2.82104,3.44077 -3.67239,5.49613 -0.85136,2.05535 -1.28958,4.25842 -1.28958,6.48312 0,2.2247 0.43822,4.42777 1.28958,6.48312 0.85135,2.05536 2.09929,3.92303 3.67239,5.49613 1.5731,1.5731 3.44077,2.82104 5.49613,3.67239 2.05535,0.85136 4.25842,1.28958 6.48312,1.28958 2.2247,0 4.42777,-0.43822 6.48312,-1.28958 2.05536,-0.85135 3.92303,-2.09929 5.49613,-3.67239 1.5731,-1.5731 2.82104,-3.44077 3.67239,-5.49613 0.85136,-2.05535 1.28958,-4.25842 1.28958,-6.48312"
           clip-path="url(#pb3dfcf03b5)"
           style="fill:none;stroke:#b0b0b0;stroke-width:0.8;stroke-linecap:square"
           id="path154" />
      </g>
    </g>
    <g
       id="ytick_2">
      <g
         id="line2d_10">
        <path
           d="m 270.04243,174.528 c 0,-4.4494 -0.87643,-8.85554 -2.57914,-12.96625 -1.70272,-4.11071 -4.19859,-7.84605 -7.34479,-10.99225 -3.1462,-3.1462 -6.88155,-5.64207 -10.99226,-7.34479 -4.1107,-1.70271 -8.51684,-2.57914 -12.96624,-2.57914 -4.4494,0 -8.85554,0.87643 -12.96625,2.57914 -4.11071,1.70272 -7.84605,4.19859 -10.99225,7.34479 -3.1462,3.1462 -5.64207,6.88154 -7.34479,10.99225 -1.70271,4.11071 -2.57914,8.51685 -2.57914,12.96625 0,4.4494 0.87643,8.85554 2.57914,12.96624 1.70272,4.11071 4.19859,7.84606 7.34479,10.99226 3.1462,3.1462 6.88154,5.64207 10.99225,7.34479 4.11071,1.70271 8.51685,2.57914 12.96625,2.57914 4.4494,0 8.85554,-0.87643 12.96624,-2.57914 4.11071,-1.70272 7.84606,-4.19859 10.99226,-7.34479 3.1462,-3.1462 5.64207,-6.88155 7.34479,-10.99226 1.70271,-4.1107 2.57914,-8.51684 2.57914,-12.96624"
           clip-path="url(#pb3dfcf03b5)"
           style="fill:none;stroke:#b0b0b0;stroke-width:0.8;stroke-linecap:square"
           id="path158" />
      </g>
    </g>
    <g
       id="ytick_3">
      <g
         id="line2d_11">
        <path
           d="m 286.98365,174.528 c 0,-6.6741 -1.31465,-13.2833 -3.86872,-19.44937 -2.55407,-6.16606 -6.29788,-11.76908 -11.01718,-16.48838 -4.71931,-4.7193 -10.32232,-8.46311 -16.48838,-11.01718 -6.16607,-2.55407 -12.77527,-3.86872 -19.44937,-3.86872 -6.6741,0 -13.2833,1.31465 -19.44937,3.86872 -6.16606,2.55407 -11.76908,6.29788 -16.48838,11.01718 -4.7193,4.7193 -8.46311,10.32232 -11.01718,16.48838 -2.55407,6.16607 -3.86872,12.77527 -3.86872,19.44937 0,6.6741 1.31465,13.2833 3.86872,19.44937 2.55407,6.16606 6.29788,11.76907 11.01718,16.48838 4.7193,4.7193 10.32232,8.46311 16.48838,11.01718 6.16607,2.55407 12.77527,3.86872 19.44937,3.86872 6.6741,0 13.2833,-1.31465 19.44937,-3.86872 6.16606,-2.55407 11.76907,-6.29788 16.48838,-11.01718 4.7193,-4.71931 8.46311,-10.32232 11.01718,-16.48838 2.55407,-6.16607 3.86872,-12.77527 3.86872,-19.44937"
           clip-path="url(#pb3dfcf03b5)"
           style="fill:none;stroke:#b0b0b0;stroke-width:0.8;stroke-linecap:square"
           id="path162" />
      </g>
    </g>
    <g
       id="ytick_4">
      <g
         id="line2d_12">
        <path
           d="m 303.92486,174.528 c 0,-8.8988 -1.75287,-17.71107 -5.15829,-25.93249 -3.40542,-8.22142 -8.39717,-15.6921 -14.68958,-21.9845 -6.2924,-6.29241 -13.76308,-11.28416 -21.9845,-14.68958 -8.22142,-3.40542 -17.03369,-5.15829 -25.93249,-5.15829 -8.8988,0 -17.71107,1.75287 -25.93249,5.15829 -8.22142,3.40542 -15.6921,8.39717 -21.98451,14.68958 -6.2924,6.2924 -11.28415,13.76308 -14.68957,21.9845 -3.40543,8.22142 -5.15829,17.03369 -5.15829,25.93249 0,8.8988 1.75286,17.71107 5.15829,25.93249 3.40542,8.22142 8.39717,15.6921 14.68957,21.9845 6.29241,6.29241 13.76309,11.28416 21.98451,14.68958 8.22142,3.40542 17.03369,5.15829 25.93249,5.15829 8.8988,0 17.71107,-1.75287 25.93249,-5.15829 8.22142,-3.40542 15.6921,-8.39717 21.9845,-14.68958 6.29241,-6.2924 11.28416,-13.76308 14.68958,-21.9845 3.40542,-8.22142 5.15829,-17.03369 5.15829,-25.93249"
           clip-path="url(#pb3dfcf03b5)"
           style="fill:none;stroke:#b0b0b0;stroke-width:0.8;stroke-linecap:square"
           id="path166" />
      </g>
    </g>
    <g
       id="ytick_5">
      <g
         id="line2d_13">
        <path
           d="m 320.86608,174.528 c 0,-11.1235 -2.19109,-22.13884 -6.44787,-32.41561 -4.25678,-10.27678 -10.49646,-19.61513 -18.36197,-27.48063 -7.8655,-7.86551 -17.20385,-14.10519 -27.48063,-18.361974 C 258.29884,92.013007 247.2835,89.82192 236.16,89.82192 c -11.1235,0 -22.13884,2.191087 -32.41561,6.447866 -10.27678,4.256784 -19.61513,10.496464 -27.48063,18.361974 -7.86551,7.8655 -14.1052,17.20385 -18.36197,27.48063 -4.25678,10.27677 -6.44787,21.29211 -6.44787,32.41561 0,11.1235 2.19109,22.13884 6.44787,32.41561 4.25677,10.27678 10.49646,19.61513 18.36197,27.48063 7.8655,7.86551 17.20385,14.10519 27.48063,18.36197 10.27677,4.25678 21.29211,6.44787 32.41561,6.44787 11.1235,0 22.13884,-2.19109 32.41561,-6.44787 10.27678,-4.25678 19.61513,-10.49646 27.48063,-18.36197 7.86551,-7.8655 14.10519,-17.20385 18.36197,-27.48063 4.25678,-10.27677 6.44787,-21.29211 6.44787,-32.41561"
           clip-path="url(#pb3dfcf03b5)"
           style="fill:none;stroke:#b0b0b0;stroke-width:0.8;stroke-linecap:square"
           id="path170" />
      </g>
    </g>
    <g
       id="ytick_6">
      <g
         id="line2d_14">
        <path
           d="m 337.8073,174.528 c 0,-13.3482 -2.62931,-26.56661 -7.73744,-38.89874 -5.10814,-12.33213 -12.59576,-23.53815 -22.03437,-32.97675 -9.4386,-9.438606 -20.64462,-16.926232 -32.97675,-22.034367 -12.33213,-5.108135 -25.55054,-7.73744 -38.89874,-7.73744 -13.3482,0 -26.56661,2.629305 -38.89874,7.73744 -12.33213,5.108135 -23.53815,12.595761 -32.97675,22.034367 -9.43861,9.4386 -16.92623,20.64462 -22.03437,32.97675 -5.10813,12.33213 -7.73744,25.55054 -7.73744,38.89874 0,13.3482 2.62931,26.56661 7.73744,38.89874 5.10814,12.33213 12.59576,23.53815 22.03437,32.97675 9.4386,9.43861 20.64462,16.92623 32.97675,22.03437 12.33213,5.10813 25.55054,7.73744 38.89874,7.73744 13.3482,0 26.56661,-2.62931 38.89874,-7.73744 12.33213,-5.10814 23.53815,-12.59576 32.97675,-22.03437 9.43861,-9.4386 16.92623,-20.64462 22.03437,-32.97675 5.10813,-12.33213 7.73744,-25.55054 7.73744,-38.89874"
           clip-path="url(#pb3dfcf03b5)"
           style="fill:none;stroke:#b0b0b0;stroke-width:0.8;stroke-linecap:square"
           id="path174" />
      </g>
    </g>
    <g
       id="ytick_7">
      <g
         id="line2d_15">
        <path
           d="m 354.74851,174.528 c 0,-15.5729 -3.06752,-30.99438 -9.02701,-45.38186 C 339.76201,114.75866 331.02645,101.68496 320.01474,90.673259 309.00304,79.661555 295.92934,70.925992 281.54186,64.9665 267.15438,59.007009 251.7329,55.939487 236.16,55.939487 c -15.5729,0 -30.99438,3.067522 -45.38186,9.027013 -14.38748,5.959492 -27.46118,14.695055 -38.47288,25.706759 -11.01171,11.011701 -19.74727,24.085401 -25.70676,38.472881 -5.95949,14.38748 -9.02701,29.80896 -9.02701,45.38186 0,15.5729 3.06752,30.99437 9.02701,45.38186 5.95949,14.38748 14.69505,27.46118 25.70676,38.47288 11.0117,11.01171 24.0854,19.74727 38.47288,25.70676 14.38748,5.95949 29.80896,9.02701 45.38186,9.02701 15.5729,0 30.99438,-3.06752 45.38186,-9.02701 14.38748,-5.95949 27.46118,-14.69505 38.47288,-25.70676 11.01171,-11.0117 19.74727,-24.0854 25.70676,-38.47288 5.95949,-14.38749 9.02701,-29.80896 9.02701,-45.38186"
           clip-path="url(#pb3dfcf03b5)"
           style="fill:none;stroke:#b0b0b0;stroke-width:0.8;stroke-linecap:square"
           id="path178" />
      </g>
    </g>
  </g>
  <g
     id="line2d_16"
     transform="translate(-78.158687,-7.514813)">
    <path
       d="m 152.9114,174.528 0.12616,6.29182 0.38044,6.30641 0.64051,6.33522 0.91033,6.37752 0.97455,5.35582 1.18158,5.39997 1.40084,5.44922 1.63435,5.5022 0.72272,2.21622 0.62206,0.9465 5.86714,2.6306 5.67688,2.28693 5.48714,1.98384 6.34267,2.03103 6.09534,1.70022 5.8703,1.41469 6.59802,1.3392 6.36866,1.04902 6.1827,0.79564 6.04002,0.56969 6.78289,0.39888 6.71502,0.14628 6.70922,-0.1 6.76542,-0.35054 6.01502,-0.52404 6.1485,-0.74521 6.32514,-0.99196 0.66519,-0.66766 1.68697,-7.52869 1.47102,-7.67353 1.21905,-7.5784 1.05705,-8.09836 0.77124,-7.62257 0.57245,-7.82758 0.36136,-8.05164 0.13346,-8.02494 -0.0906,-7.97621 -0.31014,-7.90762 -0.50725,-7.6024 -0.76485,-8.05131 -0.97615,-7.84245 -1.12137,-7.30437 -1.34766,-7.37103 -1.53994,-7.21681 -0.61469,-2.61721 -0.66519,-0.66766 -6.32514,-0.99196 -6.1485,-0.74521 -6.01502,-0.52404 -6.76542,-0.35054 -6.70922,-0.0999 -6.71502,0.14628 -6.78289,0.39888 -6.04002,0.56969 -6.1827,0.79564 -6.36866,1.04902 -6.59802,1.3392 -5.8703,1.41469 -6.09534,1.70022 -6.34267,2.03103 -5.48714,1.98384 -5.67688,2.28693 -5.86714,2.6306 -0.62206,0.9465 -1.73222,5.52405 -1.49241,5.47006 -1.26771,5.41912 -1.05603,5.37279 -0.85533,5.33226 -0.77395,6.35475 -0.5095,6.31907 -0.25282,6.29731 -0.0315,3.14499 v 0"
       clip-path="url(#pb3dfcf03b5)"
       style="fill:none;stroke:#1f77b4;stroke-width:1.5;stroke-linecap:square"
       id="path183" />
  </g>
  <g
     id="patch_3"
     transform="translate(-78.158687,-7.514813)">
    <path
       d="m 369.216,174.528 c 0,-17.47275 -3.44175,-34.77561 -10.12829,-50.91833 C 352.40118,107.46695 342.5999,92.798303 330.2448,80.4432 317.8897,68.088097 303.22105,58.286818 287.07833,51.600285 270.93561,44.913752 253.63275,41.472 236.16,41.472 c -17.47275,0 -34.77561,3.441752 -50.91833,10.128285 -16.14272,6.686533 -30.81137,16.487812 -43.16647,28.842915 -12.3551,12.355103 -22.15638,27.02375 -28.84291,43.16647 -6.68654,16.14272 -10.12829,33.44558 -10.12829,50.91833 0,17.47275 3.44175,34.77561 10.12829,50.91833 6.68653,16.14272 16.48781,30.81137 28.84291,43.16647 12.3551,12.3551 27.02375,22.15638 43.16647,28.84291 16.14272,6.68654 33.44558,10.12829 50.91833,10.12829 17.47275,0 34.77561,-3.44175 50.91833,-10.12829 16.14272,-6.68653 30.81137,-16.48781 43.16647,-28.84291 12.3551,-12.3551 22.15638,-27.02375 28.84291,-43.16647 6.68654,-16.14272 10.12829,-33.44558 10.12829,-50.91833"
       style="fill:none;stroke:#000000;stroke-width:0.8;stroke-linecap:square;stroke-linejoin:miter"
       id="path186" />
  </g>
  <g
     id="text_9"
     style="fill:#666666"
     transform="translate(-78.158687,-7.514813)">
    <!-- skymask at (0.5, 0) -->
    <g
       transform="matrix(0.12,0,0,-0.12,178.40719,16.632938)"
       id="g240"
       style="fill:#666666">
      <defs
         id="defs200">
        <path
           id="DejaVuSans-73"
           d="m 2834,3397 v -544 q -243,125 -506,187 -262,63 -544,63 -428,0 -642,-131 -214,-131 -214,-394 0,-200 153,-314 153,-114 616,-217 l 197,-44 q 612,-131 870,-370 258,-239 258,-667 0,-488 -386,-773 Q 2250,-91 1575,-91 1294,-91 989,-36 684,19 347,128 v 594 q 319,-166 628,-249 309,-82 613,-82 406,0 624,139 219,139 219,392 0,234 -158,359 -157,125 -692,241 l -200,47 q -534,112 -772,345 -237,233 -237,639 0,494 350,762 350,269 994,269 318,0 599,-47 282,-46 519,-140 z"
           transform="scale(0.015625)" />
        <path
           id="DejaVuSans-6b"
           d="m 581,4863 h 578 V 1991 l 1716,1509 h 734 L 1753,1863 3688,0 H 2938 L 1159,1709 V 0 H 581 Z"
           transform="scale(0.015625)" />
        <path
           id="DejaVuSans-79"
           d="m 2059,-325 q -243,-625 -475,-815 -231,-191 -618,-191 H 506 v 481 h 338 q 237,0 368,113 132,112 291,531 L 1606,56 191,3500 H 800 L 1894,763 2988,3500 h 609 z"
           transform="scale(0.015625)" />
        <path
           id="DejaVuSans-6d"
           d="m 3328,2828 q 216,388 516,572 300,184 706,184 547,0 844,-383 297,-382 297,-1088 V 0 h -578 v 2094 q 0,503 -179,746 -178,244 -543,244 -447,0 -707,-297 -259,-296 -259,-809 V 0 h -578 v 2094 q 0,506 -178,748 -178,242 -550,242 -441,0 -701,-298 -259,-298 -259,-808 V 0 H 581 v 3500 h 578 v -544 q 197,322 472,475 275,153 653,153 382,0 649,-194 267,-193 395,-562 z"
           transform="scale(0.015625)" />
        <path
           id="DejaVuSans-61"
           d="m 2194,1759 q -697,0 -966,-159 -269,-159 -269,-544 0,-306 202,-486 202,-179 548,-179 479,0 768,339 289,339 289,901 v 128 z m 1147,238 V 0 H 2766 V 531 Q 2569,213 2275,61 1981,-91 1556,-91 q -537,0 -855,302 -317,302 -317,808 0,590 395,890 396,300 1180,300 h 807 v 57 q 0,397 -261,614 -261,217 -733,217 -300,0 -585,-72 -284,-72 -546,-216 v 532 q 315,122 612,182 297,61 578,61 760,0 1135,-394 375,-393 375,-1193 z"
           transform="scale(0.015625)" />
        <path
           id="DejaVuSans-20"
           transform="scale(0.015625)"
           d="" />
        <path
           id="DejaVuSans-74"
           d="M 1172,4494 V 3500 H 2356 V 3053 H 1172 V 1153 q 0,-428 117,-550 117,-122 477,-122 h 590 V 0 H 1766 Q 1100,0 847,248 594,497 594,1153 V 3053 H 172 v 447 h 422 v 994 z"
           transform="scale(0.015625)" />
        <path
           id="DejaVuSans-28"
           d="m 1984,4856 q -418,-718 -622,-1422 -203,-703 -203,-1425 0,-721 205,-1429 205,-708 620,-1424 h -500 q -468,735 -701,1444 -233,709 -233,1409 0,697 231,1403 232,707 703,1444 z"
           transform="scale(0.015625)" />
        <path
           id="DejaVuSans-2e"
           d="m 684,794 h 660 V 0 H 684 Z"
           transform="scale(0.015625)" />
        <path
           id="DejaVuSans-2c"
           d="m 750,794 h 659 V 256 L 897,-744 H 494 L 750,256 Z"
           transform="scale(0.015625)" />
        <path
           id="DejaVuSans-29"
           d="m 513,4856 h 500 q 468,-737 701,-1444 233,-706 233,-1403 0,-700 -233,-1409 -233,-709 -701,-1444 H 513 q 415,716 620,1424 205,708 205,1429 0,722 -205,1425 -205,704 -620,1422 z"
           transform="scale(0.015625)" />
      </defs>
      <use
         xlink:href="#DejaVuSans-73"
         id="use202"
         style="fill:#666666" />
      <use
         xlink:href="#DejaVuSans-6b"
         x="52.099609"
         id="use204"
         style="fill:#666666" />
      <use
         xlink:href="#DejaVuSans-79"
         x="106.38477"
         id="use206"
         style="fill:#666666" />
      <use
         xlink:href="#DejaVuSans-6d"
         x="165.56445"
         id="use208"
         style="fill:#666666" />
      <use
         xlink:href="#DejaVuSans-61"
         x="262.97656"
         id="use210"
         style="fill:#666666" />
      <use
         xlink:href="#DejaVuSans-73"
         x="324.25586"
         id="use212"
         style="fill:#666666" />
      <use
         xlink:href="#DejaVuSans-6b"
         x="376.35547"
         id="use214"
         style="fill:#666666" />
      <use
         xlink:href="#DejaVuSans-20"
         x="434.26562"
         id="use216"
         style="fill:#666666" />
      <use
         xlink:href="#DejaVuSans-61"
         x="466.05273"
         id="use218"
         style="fill:#666666" />
      <use
         xlink:href="#DejaVuSans-74"
         x="527.33203"
         id="use220"
         style="fill:#666666" />
      <use
         xlink:href="#DejaVuSans-20"
         x="566.54102"
         id="use222"
         style="fill:#666666" />
      <use
         xlink:href="#DejaVuSans-28"
         x="598.32812"
         id="use224"
         style="fill:#666666" />
      <use
         xlink:href="#DejaVuSans-30"
         x="637.3418"
         id="use226"
         style="fill:#666666" />
      <use
         xlink:href="#DejaVuSans-2e"
         x="700.96484"
         id="use228"
         style="fill:#666666" />
      <use
         xlink:href="#DejaVuSans-35"
         x="732.75195"
         id="use230"
         style="fill:#666666" />
      <use
         xlink:href="#DejaVuSans-2c"
         x="796.375"
         id="use232"
         style="fill:#666666" />
      <use
         xlink:href="#DejaVuSans-20"
         x="828.16211"
         id="use234"
         style="fill:#666666" />
      <use
         xlink:href="#DejaVuSans-30"
         x="859.94922"
         id="use236"
         style="fill:#666666" />
      <use
         xlink:href="#DejaVuSans-29"
         x="923.57227"
         id="use238"
         style="fill:#666666" />
    </g>
  </g>
  <defs
     id="defs248">
    <clipPath
       id="pb3dfcf03b5">
      <path
         d="m 369.216,174.528 c 0,-17.47275 -3.44175,-34.77561 -10.12829,-50.91833 C 352.40118,107.46695 342.5999,92.798303 330.2448,80.4432 317.8897,68.088097 303.22105,58.286818 287.07833,51.600285 270.93561,44.913752 253.63275,41.472 236.16,41.472 c -17.47275,0 -34.77561,3.441752 -50.91833,10.128285 -16.14272,6.686533 -30.81137,16.487812 -43.16647,28.842915 -12.3551,12.355103 -22.15638,27.02375 -28.84291,43.16647 -6.68654,16.14272 -10.12829,33.44558 -10.12829,50.91833 0,17.47275 3.44175,34.77561 10.12829,50.91833 6.68653,16.14272 16.48781,30.81137 28.84291,43.16647 12.3551,12.3551 27.02375,22.15638 43.16647,28.84291 16.14272,6.68654 33.44558,10.12829 50.91833,10.12829 17.47275,0 34.77561,-3.44175 50.91833,-10.12829 16.14272,-6.68653 30.81137,-16.48781 43.16647,-28.84291 12.3551,-12.3551 22.15638,-27.02375 28.84291,-43.16647 6.68654,-16.14272 10.12829,-33.44558 10.12829,-50.91833 m -133.056,0 c 0,0 0,0 0,0 0,0 0,0 0,0 0,0 0,0 0,0 0,0 0,0 0,0 0,0 0,0 0,0 0,0 0,0 0,0 0,0 0,0 0,0 0,0 0,0 0,0 0,0 0,0 0,0 0,0 0,0 0,0 0,0 0,0 0,0 0,0 0,0 0,0 0,0 0,0 0,0 0,0 0,0 0,0 0,0 0,0 0,0 0,0 0,0 0,0 z"
         id="path245" />
    </clipPath>
  </defs>
</svg>
