<?xml version="1.0" encoding="UTF-8"?>
<!--Generator: Apple Native CoreSVG 232.5-->
<!DOCTYPE svg
PUBLIC "-//W3C//DTD SVG 1.1//EN"
       "http://www.w3.org/Graphics/SVG/1.1/DTD/svg11.dtd">
<svg version="1.1" xmlns="http://www.w3.org/2000/svg" xmlns:xlink="http://www.w3.org/1999/xlink" width="65.3612" height="65.0449">
 <g>
  <rect height="65.0449" opacity="0" width="65.3612" x="0" y="0"/>
  <path d="M32.5014 65.0194C50.32 65.0194 65.0194 50.32 65.0194 32.518C65.0194 14.6993 50.3034 0 32.4769 0C14.6749 0 0 14.6993 0 32.518C0 50.32 14.6993 65.0194 32.5014 65.0194ZM32.5014 58.6694C18.019 58.6694 6.36656 47.0003 6.36656 32.518C6.36656 18.019 17.9946 6.36656 32.4769 6.36656C46.9759 6.36656 58.6528 18.019 58.6528 32.518C58.6528 47.0003 47.0003 58.6694 32.5014 58.6694Z" fill="#dfdedf" fill-opacity="0.15"/>
  <path d="M16.5462 36.5004L32.4769 36.5004C33.8617 36.5004 34.9324 35.4296 34.9324 34.0526L34.9324 13.3233C34.9324 11.963 33.8617 10.8923 32.4769 10.8923C31.1332 10.8923 30.0458 11.963 30.0458 13.3233L30.0458 31.6138L16.5462 31.6138C15.1614 31.6138 14.1073 32.6923 14.1073 34.0526C14.1073 35.4296 15.1614 36.5004 16.5462 36.5004Z" fill="#dfdedf" fill-opacity="0.15"/>
 </g>
</svg>
