<?xml version="1.0" encoding="UTF-8"?>
<!--Generator: Apple Native CoreSVG 232.5-->
<!DOCTYPE svg
PUBLIC "-//W3C//DTD SVG 1.1//EN"
       "http://www.w3.org/Graphics/SVG/1.1/DTD/svg11.dtd">
<svg version="1.1" xmlns="http://www.w3.org/2000/svg" xmlns:xlink="http://www.w3.org/1999/xlink" width="64.4963" height="69.2578">
 <g>
  <rect height="69.2578" opacity="0" width="64.4963" x="0" y="0"/>
  <path d="M4.72489 55.1085L26.4159 67.6119C30.1831 69.7946 33.9159 69.8101 37.7553 67.6119L59.4297 55.1085C62.4214 53.3973 64.1545 51.5697 64.1545 46.8327L64.1545 22.1254C64.1545 17.5881 62.4047 15.8438 59.6961 14.2992L37.9384 1.69579C33.967-0.601178 30.0832-0.52906 26.2161 1.69579L4.47513 14.2992C1.7665 15.8438 0 17.5881 0 22.1254L0 46.8327C0 51.5697 1.7332 53.3973 4.72489 55.1085ZM8.0258 49.7538C6.55636 48.9247 6.07584 48.1745 6.07584 46.7117L6.07584 22.2463C6.07584 21.0166 6.55636 20.3497 7.75939 19.6538L28.8712 7.37334C31.0408 6.12485 33.0649 6.08379 35.2922 7.37334L56.3952 19.6538C57.6148 20.3497 58.0787 21.0166 58.0787 22.2463L58.0787 46.7117C58.0787 48.1745 57.5982 48.9247 56.1454 49.7538L35.1002 61.9344C32.9894 63.1329 31.1485 63.1163 29.0544 61.9344Z" fill="#dfdedf" fill-opacity="0.5"/>
 </g>
</svg>
