<?xml version="1.0" encoding="UTF-8"?>
<!--Generator: Apple Native CoreSVG 232.5-->
<!DOCTYPE svg
PUBLIC "-//W3C//DTD SVG 1.1//EN"
       "http://www.w3.org/Graphics/SVG/1.1/DTD/svg11.dtd">
<svg version="1.1" xmlns="http://www.w3.org/2000/svg" xmlns:xlink="http://www.w3.org/1999/xlink" width="44.7645" height="64.5521">
 <g>
  <rect height="64.5521" opacity="0" width="44.7645" x="0" y="0"/>
  <path d="M7.21635 62.8831L37.2063 62.8831C41.8947 62.8831 44.4227 60.2897 44.4227 55.2295L44.4227 32.3606C44.4227 27.3404 41.8947 24.747 37.2063 24.747L7.21635 24.747C2.51128 24.747 0 27.3404 0 32.3606L0 55.2295C0 60.2897 2.51128 62.8831 7.21635 62.8831ZM5.90912 27.2725L11.7432 27.2725L11.7432 17.0542C11.7432 9.79382 16.3821 5.59103 22.203 5.59103C28.0083 5.59103 32.7117 9.79382 32.7117 17.0542L32.7117 27.2725L38.538 27.2725L38.538 17.4815C38.538 6.22875 31.0617 0 22.203 0C13.3532 0 5.90912 6.22875 5.90912 17.4815Z" fill="#0a84ff"/>
 </g>
</svg>
