<?xml version="1.0" encoding="UTF-8"?>
<!--Generator: Apple Native CoreSVG 232.5-->
<!DOCTYPE svg
PUBLIC "-//W3C//DTD SVG 1.1//EN"
       "http://www.w3.org/Graphics/SVG/1.1/DTD/svg11.dtd">
<svg version="1.1" xmlns="http://www.w3.org/2000/svg" xmlns:xlink="http://www.w3.org/1999/xlink" width="65.3612" height="65.0759">
 <g>
  <rect height="65.0759" opacity="0" width="65.3612" x="0" y="0"/>
  <path d="M65.0194 32.5657C65.0194 50.3844 50.32 65.0759 32.5014 65.0759C14.6993 65.0759 0 50.3844 0 32.5657C0 14.7559 14.6749 0.0643551 32.4769 0.0643551C50.3034 0.0643551 65.0194 14.7559 65.0194 32.5657ZM29.6595 16.2247C29.6595 16.8683 29.9491 17.3721 30.2498 17.7605L32.4021 19.9693C32.0891 19.9437 31.6695 19.9182 31.3066 19.9337C24.2075 20.221 18.1371 26.3644 18.1371 34.0394C18.1371 42.0772 24.5535 48.5269 32.5014 48.5269C40.4659 48.5269 46.8656 42.0772 46.8656 34.1216C46.8656 32.7989 45.7682 31.7426 44.4944 31.7426C43.164 31.7426 42.0832 32.7989 42.0832 34.1216C42.0832 39.4552 37.8194 43.7278 32.5014 43.7278C27.1511 43.7278 22.9117 39.4485 22.9117 34.1216C22.9117 29.0896 26.7086 24.9667 31.5542 24.7959C32.0659 24.7726 32.5687 24.7826 32.996 24.8027L30.2155 27.5975C29.8715 27.9559 29.6917 28.4586 29.6917 29.019C29.6917 30.3228 30.6593 31.2138 31.9342 31.2138C32.4979 31.2138 33.1104 30.9231 33.4732 30.5525L39.6534 24.3312C40.5323 23.4602 40.5001 21.9422 39.6612 21.0701L33.5553 14.8488C33.1359 14.4127 32.5467 14.0754 31.8865 14.0754C30.5417 14.0754 29.6595 15.0829 29.6595 16.2247Z" fill="#dfdedf" fill-opacity="0.75"/>
 </g>
</svg>
