<?xml version="1.0" encoding="UTF-8" standalone="no"?>
<svg
   viewBox="0 0 448 448"
   version="1.1"
   id="svg1"
   sodipodi:docname="square-arrow-up-right-solid.svg"
   inkscape:version="1.3 (0e150ed6c4, 2023-07-21)"
   width="448"
   height="448"
   xmlns:inkscape="http://www.inkscape.org/namespaces/inkscape"
   xmlns:sodipodi="http://sodipodi.sourceforge.net/DTD/sodipodi-0.dtd"
   xmlns="http://www.w3.org/2000/svg"
   xmlns:svg="http://www.w3.org/2000/svg">
  <defs
     id="defs1" />
  <sodipodi:namedview
     id="namedview1"
     pagecolor="#ffffff"
     bordercolor="#000000"
     borderopacity="0.25"
     inkscape:showpageshadow="2"
     inkscape:pageopacity="0.0"
     inkscape:pagecheckerboard="0"
     inkscape:deskcolor="#d1d1d1"
     inkscape:zoom="1.4472656"
     inkscape:cx="223.87045"
     inkscape:cy="224.21593"
     inkscape:window-width="1680"
     inkscape:window-height="979"
     inkscape:window-x="-8"
     inkscape:window-y="-8"
     inkscape:window-maximized="1"
     inkscape:current-layer="svg1" />
  <!--! Font Awesome Pro 6.4.2 by @fontawesome - https://fontawesome.com License - https://fontawesome.com/license (Commercial License) Copyright 2023 Fonticons, Inc. -->
  <path
     d="m 384,0 c 35.3,0 64,28.7 64,64 v 320 c 0,35.3 -28.7,64 -64,64 H 64 C 28.7,448 0,419.3 0,384 V 64 C 0,28.7 28.7,0 64,0 Z M 160,112 c -13.3,0 -24,10.7 -24,24 0,13.3 10.7,24 24,24 h 94.1 L 119,295 c -9.4,9.4 -9.4,24.6 0,33.9 9.4,9.3 24.6,9.4 33.9,0 l 135,-135 V 296 c 0,13.3 10.7,24 24,24 13.3,0 24,-10.7 24,-24 V 136 c 0,-13.3 -10.7,-24 -24,-24 z"
     id="path1"
     style="fill:#dfdedf" />
</svg>
