<?xml version="1.0" encoding="UTF-8"?>
<!--Generator: Apple Native CoreSVG 232.5-->
<!DOCTYPE svg
PUBLIC "-//W3C//DTD SVG 1.1//EN"
       "http://www.w3.org/Graphics/SVG/1.1/DTD/svg11.dtd">
<svg version="1.1" xmlns="http://www.w3.org/2000/svg" xmlns:xlink="http://www.w3.org/1999/xlink" width="62.5147" height="62.2306">
 <g>
  <rect height="62.2306" opacity="0" width="62.5147" x="0" y="0"/>
  <path d="M3.08895 21.1583C5.0861 21.1583 6.169 20.0266 6.169 18.0372L6.169 10.8813C6.169 7.75387 7.77604 6.22672 10.7748 6.22672L18.0616 6.22672C20.0588 6.22672 21.175 5.12716 21.175 3.14666C21.175 1.15727 20.0588 0.0577152 18.0616 0.0577152L10.2812 0.0577152C3.56313 0.0577152 0 3.57978 0 10.2568L0 18.0372C0 20.0421 1.09955 21.1583 3.08895 21.1583ZM59.084 21.1583C61.0978 21.1583 62.1729 20.0421 62.1729 18.0372L62.1729 10.2568C62.1729 3.61308 58.6342 0.0577152 51.8995 0.0577152L44.1191 0.0577152C42.1142 0.0577152 40.998 1.15727 40.998 3.14666C40.998 5.12716 42.1219 6.22672 44.1191 6.22672L51.3981 6.22672C54.3469 6.22672 56.0117 7.75387 56.0117 10.8813L56.0117 18.0372C56.0117 20.0421 57.1112 21.1583 59.084 21.1583ZM10.2812 62.2306L18.0616 62.2306C20.0588 62.2306 21.175 61.1311 21.175 59.1417C21.175 57.1689 20.051 56.0694 18.0616 56.0694L10.7748 56.0694C7.77604 56.0694 6.169 54.5345 6.169 51.4148L6.169 44.2589C6.169 42.254 5.06169 41.1378 3.08895 41.1378C1.0829 41.1378 0 42.254 0 44.2589L0 52.0393C0 58.7163 3.56313 62.2306 10.2812 62.2306ZM44.1191 62.2306L51.8995 62.2306C58.6342 62.2306 62.1729 58.683 62.1729 52.0393L62.1729 44.2589C62.1729 42.254 61.0734 41.1378 59.084 41.1378C57.0946 41.1378 56.0117 42.2618 56.0117 44.2589L56.0117 51.4148C56.0117 54.5345 54.3469 56.0694 51.3981 56.0694L44.1191 56.0694C42.1142 56.0694 40.998 57.1689 40.998 59.1417C40.998 61.1311 42.1142 62.2306 44.1191 62.2306Z" fill="#dfdedf" fill-opacity="0.75"/>
  <path d="M22.7077 49.8169L40.7669 49.8169C44.5999 49.8169 46.6329 47.7429 46.6329 43.8866L46.6329 28.494C46.6329 26.1625 46.2678 25.075 44.9106 23.7023L35.4897 14.1193C34.2224 12.8187 32.9806 12.3649 30.8844 12.3649L22.7077 12.3649C18.8914 12.3649 16.8417 14.4467 16.8417 18.2952L16.8417 43.8866C16.8417 47.7429 18.8914 49.8169 22.7077 49.8169ZM22.8298 45.8133C21.4624 45.8133 20.8209 45.1552 20.8209 43.8622L20.8209 18.3441C20.8209 17.0433 21.4791 16.3685 22.862 16.3685L29.857 16.3685L29.857 25.5098C29.857 27.9312 31.2286 29.2862 33.6744 29.2862L42.6537 29.2862L42.6537 43.8622C42.6537 45.1552 42.0122 45.8133 40.6293 45.8133ZM34.2723 25.469C33.8539 25.469 33.7152 25.3136 33.7152 24.8952L33.7152 17.9008L41.1524 25.469Z" fill="#dfdedf" fill-opacity="0.75"/>
 </g>
</svg>
